<svg xmlns="http://www.w3.org/2000/svg" viewBox="0 0 885.14 290.71"><defs><style>.cls-1{fill:#38281a;}.cls-2,.cls-3,.cls-4,.cls-5,.cls-7,.cls-8{fill:none;}.cls-2,.cls-3,.cls-7{stroke:#38281a;}.cls-2,.cls-5,.cls-7,.cls-8{stroke-miterlimit:10;}.cls-3,.cls-4{stroke-linecap:round;stroke-linejoin:round;}.cls-4,.cls-5{stroke:#aa281f;}.cls-6{fill:#aa281f;}.cls-7{stroke-width:3px;}.cls-8{stroke:#42210b;stroke-width:2px;}</style></defs><g id="Layer_2" data-name="Layer 2"><g id="Layer_1-2" data-name="Layer 1"><path class="cls-1" d="M120.17,20.24a.53.53,0,0,1-.15-.39V12.67q0-4.12-4.13-4.13h-4.44A.52.52,0,0,1,110.9,8V7.25a.54.54,0,0,1,.15-.41.56.56,0,0,1,.4-.14H116q6.12,0,6.12,5.9v7.25a.55.55,0,0,1-.55.55h-1A.54.54,0,0,1,120.17,20.24Zm-9.12,0a.53.53,0,0,1-.15-.39V11.78a.52.52,0,0,1,.15-.4.57.57,0,0,1,.4-.15h1a.46.46,0,0,1,.38.16.53.53,0,0,1,.15.39v8.07a.53.53,0,0,1-.15.39.46.46,0,0,1-.38.16h-1A.54.54,0,0,1,111.05,20.24Z" transform="translate(0 -3.36)"/><path class="cls-1" d="M125.72,14.69a.5.5,0,0,1-.16-.39v-7a.51.51,0,0,1,.16-.41.52.52,0,0,1,.39-.14h1a.53.53,0,0,1,.39.15.54.54,0,0,1,.16.4V14.3a.5.5,0,0,1-.16.39.56.56,0,0,1-.39.14h-1A.56.56,0,0,1,125.72,14.69Z" transform="translate(0 -3.36)"/><path class="cls-1" d="M131.26,14.69a.53.53,0,0,1-.15-.39v-7a.54.54,0,0,1,.15-.41.56.56,0,0,1,.4-.14h1a.52.52,0,0,1,.55.55V14.3a.53.53,0,0,1-.15.39.61.61,0,0,1-.4.14h-1A.61.61,0,0,1,131.26,14.69Z" transform="translate(0 -3.36)"/><path class="cls-1" d="M138.14,19.1a6.16,6.16,0,0,1-1.47-4.44V7.25a.51.51,0,0,1,.16-.41.53.53,0,0,1,.4-.14H143c2.07,0,3.55.46,4.45,1.39a6.38,6.38,0,0,1,1.46,4.27c0,.16,0,.59,0,1.3s0,1.13,0,1.29a6,6,0,0,1-1.57,4.29q-1.48,1.4-4.77,1.4A5.78,5.78,0,0,1,138.14,19.1Zm7.67-1.29a4.16,4.16,0,0,0,1-3q0-.24,0-1.17c0-.63,0-1,0-1.18a4,4,0,0,0-1.09-2.93,4,4,0,0,0-2.87-1h-4.17v6.1a4.35,4.35,0,0,0,1,3.05,3.75,3.75,0,0,0,2.89,1A4.65,4.65,0,0,0,145.81,17.81Z" transform="translate(0 -3.36)"/><path class="cls-1" d="M152.26,20.24a.53.53,0,0,1-.16-.39V7.25a.52.52,0,0,1,.56-.55h1a.53.53,0,0,1,.39.15.54.54,0,0,1,.16.4v12.6a.55.55,0,0,1-.55.55h-1A.52.52,0,0,1,152.26,20.24Z" transform="translate(0 -3.36)"/><path class="cls-1" d="M164.92,7.32a3.77,3.77,0,0,1,1.85,2,9.59,9.59,0,0,1,.58,3.66,7.1,7.1,0,0,1-1.5,4.79,8.87,8.87,0,0,1-3.93,2.53l-1,.34-.17,0a.44.44,0,0,1-.3-.12.46.46,0,0,1-.13-.34v-1c0-.29.18-.5.53-.65l.94-.36a5.73,5.73,0,0,0,2.57-1.82,5.7,5.7,0,0,0,.88-3.46,6.91,6.91,0,0,0-.38-2.53A2.47,2.47,0,0,0,163.58,9a6,6,0,0,0-2.43-.41h-.81l-2.21,0a.57.57,0,0,1-.4-.15.49.49,0,0,1-.15-.38V3.91a.53.53,0,0,1,.15-.39.54.54,0,0,1,.4-.16h.93a.52.52,0,0,1,.4.16.53.53,0,0,1,.16.39V6.7h1.82A8,8,0,0,1,164.92,7.32Z" transform="translate(0 -3.36)"/><path class="cls-1" d="M170.69,20.24a.53.53,0,0,1-.15-.39v-.79a.55.55,0,0,1,.15-.4.58.58,0,0,1,.4-.16h3.43a4.07,4.07,0,0,0,3.1-1,4.62,4.62,0,0,0,1-3.08q0-.35,0-.84c0-.32,0-.6,0-.82a4.61,4.61,0,0,0-1-3.08,4.08,4.08,0,0,0-3.1-1.05h-3.43a.52.52,0,0,1-.55-.55V7.25a.52.52,0,0,1,.55-.55h3.55a6,6,0,0,1,4.51,1.51,6.49,6.49,0,0,1,1.59,4.41c0,.23,0,.53,0,.92s0,.71,0,.93a6.5,6.5,0,0,1-1.59,4.42,6,6,0,0,1-4.51,1.51h-3.55A.54.54,0,0,1,170.69,20.24Z" transform="translate(0 -3.36)"/><path class="cls-1" d="M184.11,20.24a.5.5,0,0,1-.16-.39V7.25a.51.51,0,0,1,.16-.41.52.52,0,0,1,.39-.14h1a.53.53,0,0,1,.39.15.54.54,0,0,1,.16.4v12.6a.55.55,0,0,1-.55.55h-1A.5.5,0,0,1,184.11,20.24Z" transform="translate(0 -3.36)"/><path class="cls-1" d="M200.73,19.92a.46.46,0,0,1-.15.34.45.45,0,0,1-.33.14h-1.08a.56.56,0,0,1-.37-.1,1.47,1.47,0,0,1-.28-.28L193,12.29a3.83,3.83,0,0,0-1.4,1.79,6.42,6.42,0,0,0-.38,2.24v3.53a.52.52,0,0,1-.14.39.51.51,0,0,1-.41.16h-.86a.54.54,0,0,1-.4-.16.53.53,0,0,1-.15-.39V16.22a7.93,7.93,0,0,1,.55-3.09,5.58,5.58,0,0,1,2.11-2.38l-2.23-3.12a.91.91,0,0,1-.17-.45.49.49,0,0,1,.14-.34A.45.45,0,0,1,190,6.7h1.06a.58.58,0,0,1,.37.1,2,2,0,0,1,.27.3l5,7a3.73,3.73,0,0,0,1.29-1,2.64,2.64,0,0,0,.49-1.09,8.82,8.82,0,0,0,.1-1.43V7.25a.52.52,0,0,1,.55-.55h.91a.52.52,0,0,1,.55.55V10.7a6.32,6.32,0,0,1-.55,2.78,5.64,5.64,0,0,1-2.26,2.17l2.74,3.81A.93.93,0,0,1,200.73,19.92Z" transform="translate(0 -3.36)"/><path class="cls-2" d="M324.46,156.94c.89,0-1.26.65-1.28,1.11s1.29.53,1.2.8-2.18.05-2.33.44,1.43,1,1.29,1.36-1.94,0-2.25.49,1,1.22.72,1.55-1.65,0-2,.31c-.64.61.81,1.48.56,1.66-.52.41-2.31-.17-2.57,0-4.41,3-13.25,6-15.26,5.07-3-1.42-2-4-1-4.45.87-.36-.83-1.29-1.29-1.11-1.69.68-5.54,5.63-7.87,5.93-1.16.16-2.33-.06-2.33-.3,0-1.24,5.62-2.48,5.62-4.08,0-.89-8.35,1.23-9.64.37s-2.68-.08-3.21-.37c-12.05-6.68-9.81-15.33-.33-20.16.46-.23.73,1.64,3.7-.12,2.09-1.24,4.18-.62,7.23-.12,2.18.35,3,0,3.05-.25.16-1.73-6.53-2.45-6.1-2.72,3.37-2.1,6.74,2.1,9.16,4,.16.12,2.25-.37,2.09-.75-4.49-10.34,15.26-2.1,17.35.25.08.09,1.93-.12,1.93,0,0,.38-.76,1-.48,1.36s2.08-.16,2.08.25c0,.12-.9.92-.64,1.23s1.77,0,1.77.25-1.2,1.11-1,1.49,1.8.07,1.93.37-1.28.37-1.12,1.11c.12.55,2.24.84,2.09.86-8.36,1.36-5-8.77-20.89-9.27-.63,0-.51,1.65.48,2,4.5,1.48,4.18,4.08,5.46,4.08,3.38,0,3.7,2.1,4,2.1.78,0,1.69-.37,1.77-.25s-1,.5-1,1,1,.55,1,1-.88.63-.81,1,1,.36,1.13.74-.53.41-.64.87.72,1,.48,1.36-.92.24-1,.49.1.2.23.31c.41.34.91.37.9.44s-1.35,0-1.45.12c-1.92,2.84-3.85,1.73-4.66,2.35-2.08,1.6-1,3.71-6.42,4.45-.19,0-.63,2.51.48,2.22C323.66,162.75,317.23,156.69,324.46,156.94Z" transform="translate(0 -3.36)"/><path class="cls-3" d="M178.75,178.73c2.83-3.18,6.12-5,8.14-4.6,1.77.35,2.83,3.18,1.06,5-1.12,1.12-3,1.78-3.18,3.19-.18,1.61,3.89,5.66,6.36,6,5.44.78,4.76,5,6,4.6.77-.25.11-2.1,1.06-1.41,3.89,2.83,8.49,1.95,8.14,1.41-1.42-2.12-9.55-13.44-15.92-13.44-.27,0,0,7.78,12.73,11.32" transform="translate(0 -3.36)"/><path class="cls-3" d="M187.77,178.91c-.7-1.77-2.47-3.19-6-2.83" transform="translate(0 -3.36)"/><path class="cls-3" d="M186.71,199.07h3.19A21,21,0,0,0,191,188.46" transform="translate(0 -3.36)"/><path class="cls-3" d="M194.5,199.78h1.76c1.42-1.42,1.07-3.89,1.07-7.08" transform="translate(0 -3.36)"/><path class="cls-4" d="M127.79,256.8s-4.56,0-5.21-.38c-8.93-4.83-14.51-3.72-21.57-.37a16.47,16.47,0,0,1-5.21.75" transform="translate(0 -3.36)"/><path class="cls-4" d="M128.16,262v-1.86s-4.55,0-5.21-.37c-8.92-4.83-14.5-3.72-21.57-.37a16.48,16.48,0,0,1-5.21.74" transform="translate(0 -3.36)"/><path class="cls-4" d="M123.51,261.45c-7.62,5-19.9,2.41-21.76-.19a93.3,93.3,0,0,0,10.81,10.66c3,2.38,6.11,4.22,8.53,4.22,2.12,0,5.17-1.45,5.21-3.72,0-1.9-1.22-3.81-3-3.35-1.37.36-2.35,1.61-1.86,2.6.38.75.73.66,1.86.38" transform="translate(0 -3.36)"/><polyline class="cls-4" points="102.76 259.12 103.24 272.04 99.52 264.6"/><ellipse class="cls-4" cx="110.31" cy="256.23" rx="3.91" ry="2.98"/><path class="cls-2" d="M133.46,176.56c-.09-.28-.58-1.83-1.68-2.09-1.56-.38-3.61,2-3.34,3.76.24,1.55,2.2,1.6,3.34,3.35.84,1.27,1.26,3.47-.41,7.52" transform="translate(0 -3.36)"/><path class="cls-2" d="M120.28,171.75c-.41-.84-2.43-2.92-4.6-2.51-2.93.55-5,3.76-5,6.69,0,3.24.35,6.65-.84,5.85s-6.82-2.37-11.71-.41c-2.09.83-5.43,6.69-4.6,8.36.41.82.84,1.25,6.28,1.67,1.44.11,10.77.74,10.87,0s-2.09-2.09-9.2-3.34c-1-.19,2.53-1.61,3.34-1.68,5-.41,8.88.08,9.62.42,4.13,1.91,4.35,4.18,6.69,4.18,2.09,0,6.39-5.73,5.85-6.27-.38-.39-2.29,2-5,1.67-1.58-.21-3.35-1.33-3.35-2.51,0-5,3.35-2.14,3.77-4.18.44-2.2-.42-3.76-2.51-5.85C119.07,173,120.65,172.48,120.28,171.75Z" transform="translate(0 -3.36)"/><line class="cls-2" x1="132.41" y1="179.68" x2="126.97" y2="181.35"/><polyline class="cls-2" points="118.61 180.52 114.01 177.59 109.83 178.43"/><polyline class="cls-2" points="119.72 169.82 115.69 170.48 114.01 177.59"/><path class="cls-2" d="M93.94,190.15l-6.69.42c-2.51,0-.76,3.82,1.26,3.76,20.06-.58,36,0,47.66,0,1.68,0,1.26-2.93-2.51-2.93L121.12,191" transform="translate(0 -3.36)"/><path class="cls-2" d="M102.72,182.62c2.09.84,1.81,2.65,2.51,3.76" transform="translate(0 -3.36)"/><path class="cls-2" d="M125.3,181.37a3.1,3.1,0,0,1-2.92-1.26" transform="translate(0 -3.36)"/><path class="cls-2" d="M124.05,169.24a2.72,2.72,0,0,1-3.35,2.51" transform="translate(0 -3.36)"/><path class="cls-5" d="M189.7,236.46a3.33,3.33,0,0,0-2,1,3.21,3.21,0,0,0-.84,1.67,4.36,4.36,0,0,0,0,1.35,3.22,3.22,0,0,0,2.69,2.58,4.28,4.28,0,0,0,1.13,0,3.23,3.23,0,0,0,2.69-2.58,4.69,4.69,0,0,0,0-1.35,3.21,3.21,0,0,0-2.37-2.57A3.75,3.75,0,0,0,189.7,236.46Z" transform="translate(0 -3.36)"/><path class="cls-5" d="M181.13,239.14s.07.48.13,1a10.2,10.2,0,0,0,.46,2.33,9.75,9.75,0,0,0,1.48,2.8,10.24,10.24,0,0,0,1.55,1.6,8.49,8.49,0,0,0,7.22,1.74,9.08,9.08,0,0,0,5.12-3.34,10,10,0,0,0,1.48-2.8,10.77,10.77,0,0,0,.46-2.33c.06-.5.12-.94.13-1s0,0,0,0-.24.4-.5.86-.56,1-.66,1.11a9.23,9.23,0,0,1-7.12,4.37,14.68,14.68,0,0,1-1.77,0,9.45,9.45,0,0,1-2.87-.85,9.7,9.7,0,0,1-3.41-2.75,11.91,11.91,0,0,1-1.18-1.85c-.26-.46-.49-.85-.5-.86S181.13,239.1,181.13,239.14Z" transform="translate(0 -3.36)"/><path class="cls-5" d="M189.89,248.84s-.24.61-.51,1.34l-2,5.36-2.17,5.68-1.42,3.72h12.57s-.36-.93-.81-2.05-1.32-3.34-2-4.94c-3.39-8.56-3.6-9.07-3.62-9.11S189.9,248.83,189.89,248.84Z" transform="translate(0 -3.36)"/><path class="cls-6" d="M34.87,53.66a11.36,11.36,0,0,0-6.59,3.17,9.52,9.52,0,0,0-2.83,5.87A9.66,9.66,0,0,0,26.4,68L27,69.27v1.08A6.82,6.82,0,0,1,26,73.79a3.17,3.17,0,0,0-.34,1c.26.26,2.24-1.57,2.84-2.61l.38-.66a8.77,8.77,0,0,1,1,.52,18.59,18.59,0,0,0,3.26,1.46,4.26,4.26,0,0,1,.85.35s-.18.15-.46.23l-1.83.5a18.74,18.74,0,0,0-4.78,2.16,20.81,20.81,0,0,0-4.19,4.44A20.27,20.27,0,0,0,20.27,87a27.12,27.12,0,0,0-.85,6.92l-.05,2.56h3.26c3.07,0,3.27,0,3.66.2,1.08.53,2.3,3.09,3.13,6.59a9.81,9.81,0,0,1,.26,3.07,24.4,24.4,0,0,1-.85,6.4,24.36,24.36,0,0,0-1,9.37c.33,3.82,1.39,11.2,2.29,16,.53,2.8.64,3.44.79,4.87a30.92,30.92,0,0,1-.16,8.72,17.27,17.27,0,0,0-.57,4,89,89,0,0,0,.44,11,12.79,12.79,0,0,0,.55,2.9c.34,1.12.37,1.44.46,4.7.05,1.71.13,3.32.2,3.54.17.62.32.64,2.41.5a29.92,29.92,0,0,1,3.23-.06c1.9.09,15.5.1,16.5,0s1.1-.17.94-.41-.73-.5-2.27-.91a31.86,31.86,0,0,1-4.34-1.43,15,15,0,0,1-5-2.74c-.94-.91-1-1.24-1.26-5.44-.49-9.18-.6-15.06-.32-17.58.18-1.49.26-2.51.52-6.83a20.54,20.54,0,0,1,.77-5.43,42.9,42.9,0,0,0,1.83-10.73A39.3,39.3,0,0,0,44,116.38a36.57,36.57,0,0,1-1-8.9c-.08-4.68,0-4.83,2.27-6.2l.68-.42.13.42c.06.22.3,1.18.51,2.11a28.67,28.67,0,0,0,3,7.9c2.11,4.21,2.63,4.93,5.72,8,2.66,2.65,5.69,5.52,6.32,6A1,1,0,0,1,62,126c.11.64.07,22.34-.05,35.29-.07,6.12-.09,11.35,0,11.62.07.48.08.49.51.61a5.29,5.29,0,0,0,.88.11h.45l.06-3c0-1.63.11-7.35.17-12.72.25-24.11.31-28.32.39-29.92l.09-1.71,1.1-1.08a12.94,12.94,0,0,1,1.67-1.41c.37-.2.58-.39.61-.54.14-.53-.62-1.15-2.33-1.92l-1.16-.51.06-17.87c0-9.83.09-18.15.12-18.5A1.94,1.94,0,0,1,65,83.47,10.83,10.83,0,0,0,65.85,82a16.21,16.21,0,0,1,.84-1.43A1.71,1.71,0,0,0,67,80c0-.32-1.13-1-2.08-1.22a8.54,8.54,0,0,0-2.94,0c-1.2.32-2,.82-2,1.25a1.08,1.08,0,0,0,.23.5,9.93,9.93,0,0,1,.6,1,10.53,10.53,0,0,0,1.31,2l.36.44-.07,9c-.12,13.26-.29,26-.35,26.43s-.31.49-1.07,0c-1.13-.73-1.65-1.5-2.86-4.24a45.78,45.78,0,0,0-4.69-8.37c-.69-.83-.69-.82-1.37-5.08-.22-1.36-.55-3.3-.72-4.29L51,95.74l1.61-2.4c.89-1.32,1.82-2.65,2.07-3a10.68,10.68,0,0,0,2-3.24,9.3,9.3,0,0,0,.41-2.63c0-.48-.15-1.13-.26-1.13a2.87,2.87,0,0,0-.43.3c-.2.17-.38.27-.38.22s.18-.62.39-1.25a14.4,14.4,0,0,0,.93-3.73,1.73,1.73,0,0,0-1.1-1,1.44,1.44,0,0,0-1.42.39c-.46.47-2,5-2.63,7.78A8,8,0,0,1,50.56,90c-.38.37-.59.26-1-.52a6.74,6.74,0,0,0-3.35-2.91,8.75,8.75,0,0,0-3-.71,8,8,0,0,1-1.41-.23A8.15,8.15,0,0,1,40,84.26l-.29-.3.32-.3c.48-.43.92-.42,1.63,0a2.68,2.68,0,0,0,1.63.55c1.33,0,2.78-1.53,3.37-3.55.26-.89.27-1.23.09-1.61a6.7,6.7,0,0,0-2.55-2,6.55,6.55,0,0,1-1.32-1,3.45,3.45,0,0,0-2.19-1.19c-.65-.11-.76-.2-.68-.59s0-.34-.24-.46-.29-.15-.19-.23a20.92,20.92,0,0,1,3.24-1.38c.19,0,.22.12.28.87a3.34,3.34,0,0,0,.79,2.2c.27.22.36.25.83.2.8-.09,1.27-.42,2.07-1.48s1.11-1.68,1.09-2.45c0-.59,0-.61.25-.68.5-.12.55-.45.1-.73a1.63,1.63,0,0,0-1.42,0c-.62.27-.77.49-.9,1.26-.32,2-.61,2.75-1,2.75s-.48-.48-.48-1.78V71.2l.91-1.34a12.38,12.38,0,0,0,1.89-3.71,7.19,7.19,0,0,0,.21-2.44,7.5,7.5,0,0,0-.87-4.12A11.16,11.16,0,0,0,34.87,53.66Zm3.49.49a10.59,10.59,0,0,1,7.83,6A6.29,6.29,0,0,1,47,63.66a7.54,7.54,0,0,1-.86,3.88,9.45,9.45,0,0,1-4.54,4.66,10.9,10.9,0,0,1-2.71,1,2,2,0,0,1-1.21,0,1.72,1.72,0,0,0-1.19,0A5,5,0,0,1,33.59,73a10,10,0,0,1-6.9-5.79A8.47,8.47,0,0,1,26.3,61C27.77,56.28,33.27,53.17,38.36,54.15ZM28,70.37a2.39,2.39,0,0,1-.21,1.94c-.28.58-.52.83-.63.7s.29-1.84.48-2.69C27.71,70,27.82,70.05,28,70.37ZM47.34,71a2.57,2.57,0,0,1-.22,1.6A6.13,6.13,0,0,1,46,74.08a2,2,0,0,1,.1-.53,16.51,16.51,0,0,0,.35-2.39,1.4,1.4,0,0,1,.25-.37C47.05,70.37,47.25,70.44,47.34,71Zm-2.82,3.65c.28.36.26.56-.05.4S44,74.59,43.84,74c-.21-.79-.16-.87.15-.22A5.94,5.94,0,0,0,44.52,74.68Zm-7.58-.16a5,5,0,0,1-.39,2.37,1.75,1.75,0,0,1-.59.59c-.44.23-.44.47,0,.51.6.06,1.34-1,1.49-2.18.07-.61.16-.71.45-.49s.32,1.13,0,1.86c-.43,1.16-1.23,1.67-3,1.93l-.8.11.06.89a4.81,4.81,0,0,0,1.49,3.49,3.6,3.6,0,0,1,.62.8,1.29,1.29,0,0,1-.13.41,22.52,22.52,0,0,0-.4,5c-.07,2.67-.13,3.5-.28,3.7s-.62,0-3.26-1l-.42-.16V86H30c-5.37,0-7.54.81-8.34,3.1a6.26,6.26,0,0,0-.1,2.83c.29,1.12,1.3,2.19,3.18,3.34a5.45,5.45,0,0,1,.81.55s-1.3,0-2.86,0H19.83l0-.91a40,40,0,0,1,.66-6.62,19,19,0,0,1,2.57-6.82,4.87,4.87,0,0,0,.5-1,16.46,16.46,0,0,1,2.54-2.5,11.42,11.42,0,0,1,4.74-2.74,9.68,9.68,0,0,1,2.72-.66H34l0,.71c0,.84.22,1,.45.29a4.76,4.76,0,0,1,1.71-1.87C36.74,73.56,36.87,73.68,36.94,74.52Zm2.67.65,1.32.39c.67.2,1.21.51,1.21.7s-.13,0-.29-.1a1.72,1.72,0,0,0-.64-.27c-.35,0-.37,0-.47.48a1.19,1.19,0,0,1-1.11.67c-.72,0-.83.5-.13.62a1.61,1.61,0,0,1,1.14.93c.1.37.22.5.53.5.16,0,.29,0,.29.08a5,5,0,0,1-.8.73c-.94.73-1.3,1.1-1.4,1.4s0,.23.13.23.59-.31,1.7-1.28a6.48,6.48,0,0,1,.84-.67.58.58,0,0,0,.06-.85c-.2-.27-.17-.33.16-.33s.67-.15.67-.31a1.62,1.62,0,0,0-.39-.52l-.38-.39h.56c.59,0,1,.16,2.29,1,.82.48,1.63,1.2,1.63,1.43S46,80,45.64,80c-.18,0-.24-.11-.26-.35s-.24-.57-.41-.47-.12.71.06,1.06a1.42,1.42,0,0,0,.7.76c.33.13.29.56-.1,1.12s-.62.64-1.94.2C42,81.7,40,81.57,40,82c0,.12.19.15.93.16a5.07,5.07,0,0,1,3.15,1c.16.18.16.2,0,.36a1.77,1.77,0,0,1-.82.22c-.62.06-.63.05-1-.29a2.58,2.58,0,0,0-1.41-.75,4,4,0,0,0-1.1.46l-.86.46L38.12,83a9.19,9.19,0,0,1-1.29-1.1,3.73,3.73,0,0,1-.94-1.82c0-.37.26-.71.52-.71.55,0,1.83-1.2,2.06-1.94a8,8,0,0,0,.22-1.38,5.52,5.52,0,0,1,.1-1C38.85,75,38.91,75,39.61,75.17Zm1.73,2.48c0,.22-.19.22-.6,0s-.29-.17-.11-.22S41.3,77.46,41.34,77.65Zm14.18,3.24a16.8,16.8,0,0,0-1,3.92c.16.42.35,0,1.11-2.29.89-2.69,1.28-3.71,1.29-3.36a25,25,0,0,1-1.18,4.2c-.87,2.65-1,3.2-.73,3.58.42.64,1.1-.11,1.28-1.38.07-.54.18-.72.28-.46A4.83,4.83,0,0,1,56,87.53a7,7,0,0,1-1.68,2.39,12.1,12.1,0,0,1-2.12-1.16,3.74,3.74,0,0,1,.24-1,11.46,11.46,0,0,0,.39-1.7,8,8,0,0,1,.69-2.41l.19-.34-.07.64c-.06.57-.05.62.1.5a17.63,17.63,0,0,0,1.37-3.39c.24-.71.58-1.62.76-2C56.41,77.63,56.26,78.61,55.52,80.89Zm9.08-1.62a8.37,8.37,0,0,1,1.23.42l.51.23-.57,1.2a10.07,10.07,0,0,1-1.65,2.59l-.21.19v16.17c0,17.16,0,20.21-.3,20.48a.38.38,0,0,1-.62-.2c0-.12-.06-8.23-.08-18,0-11.78-.07-18-.14-18.32a2.77,2.77,0,0,0-.49-1,11.82,11.82,0,0,1-1.34-2.57c-.15-.47-.15-.48.06-.65a6.1,6.1,0,0,1,2.59-.65A5.83,5.83,0,0,1,64.6,79.27ZM35.09,80c.11.16.38.65.61,1.1a5.73,5.73,0,0,0,2.24,2.41c.82.47,1.2.79,1.13.92s-.38,0-1.11-.21a4.83,4.83,0,0,1-2.6-1.88C34.6,81.09,34.37,79,35.09,80Zm2.63,4.83c.92.34,1,.39.6,1.45a4.35,4.35,0,0,1-1.27,2.27,1.43,1.43,0,0,1-.57.25c-.25,0-.34-.8-.23-1.92.13-1.28.49-2.2.88-2.26Zm3,.77A4.18,4.18,0,0,1,42.29,88a55.89,55.89,0,0,1,.38,6.15l0,1.49h-1.6c-1.22,0-1.61,0-1.61-.13s0-1.1-.1-2.31A36,36,0,0,0,39,88a2.9,2.9,0,0,1,.27-2.44C39.5,85.22,40.08,85.23,40.71,85.63Zm15-.06c0,.13,0,.27-.1.3s-.09-.07-.09-.23,0-.31.09-.31S55.71,85.44,55.71,85.57Zm-12.12.9c.26.18.26.36,0,1.31s-.42,1.2-.58,1a.85.85,0,0,1-.1-.38,1.48,1.48,0,0,0-.25-.61,1.84,1.84,0,0,1-.3-1.3C42.44,86.26,43.29,86.26,43.59,86.47Zm-16.27.24c.53.28.89,2.4.53,3.09-.19.36-.14.51.27.89a.88.88,0,0,1,.26.4,9.78,9.78,0,0,1-.66,1.43,20.39,20.39,0,0,0-1,2.09,2.63,2.63,0,0,1-.45.86,9.33,9.33,0,0,1-2.4-1.41C22.35,92.87,22,92.19,22,90.51A2.88,2.88,0,0,1,22.94,88C24.18,86.9,26.42,86.23,27.32,86.71Zm1.43.44a22.09,22.09,0,0,1,.9,3.74v.33L29.33,91c-.51-.38-.72-.91-.8-2a14.7,14.7,0,0,0-.21-1.62C28.08,86.32,28.36,86.17,28.75,87.15Zm2-.5.35.15-.05,2.38C31,91.53,31,92,30.74,91.75a17,17,0,0,1-1.19-4c-.2-1-.2-1,0-1.14A1.68,1.68,0,0,1,30.79,86.65ZM44.85,87c0,.47-.81,6-1.08,7.17-.15.58-.25.84-.36.84s-.15-.22-.18-1.27a19.82,19.82,0,0,1,1.12-6.57C44.63,86.53,44.81,86.48,44.85,87Zm1.94.33c1.3.91,2.9,2.78,2.73,3.19a13.14,13.14,0,0,1-3.13,2.29c-.33.13-.49,0-.58-.41s-.64-.92-.64-.43a4.53,4.53,0,0,0,.19.85c.17.56.18.64,0,.84s-.59.4-.71.27a9.64,9.64,0,0,1,.13-2.68c.2-1.49.61-3.85.73-4.15S46,86.84,46.79,87.37Zm-8.17,1.77c.32,2.31.22,5.78-.17,5.93a4,4,0,0,1-1.2-.47l-1.06-.52V89.56l.64-.27a3.55,3.55,0,0,0,1.1-.74c.29-.3.47-.42.51-.36A5.37,5.37,0,0,1,38.62,89.14Zm14.17.62c1,.49,1,.81.2,2-.57.86-.81,1-1.35.69a3.63,3.63,0,0,1-.72-.55c-.51-.5-.52-.89,0-1.55s.89-1,1.13-1A3.09,3.09,0,0,1,52.79,89.76Zm-1.32,3.45.36.42-.21.35a24.08,24.08,0,0,1-4.28,4.82c-2.54,2.22-4.47,3.52-5.22,3.52s-3.82-1.19-7.69-3l-3.25-1.49c-.41-.2-.56-.31-.56-.46a19.24,19.24,0,0,1,.95-2.88c.28-.64.64-1,1-1.12.6-.13,3.35,1,7,3,1.17.64,2.18,1.15,2.25,1.15a.37.37,0,0,0,.26-.17c.27-.31,2.31-2.14,3.24-2.89.53-.43,1.74-1.32,2.69-2l1.73-1.22.71.76C50.81,92.46,51.29,93,51.47,93.21ZM29.91,92a11.76,11.76,0,0,0,1.21.69l.56.3s-.22.53-.51,1.18a9.79,9.79,0,0,0-.9,2.48c-.08.47-.25.54-.81.35a8,8,0,0,1-2.22-1.19c-.13-.2-.13-.28,0-.84a9.74,9.74,0,0,1,1.05-2.37,3.34,3.34,0,0,1,.86-1A8.51,8.51,0,0,1,29.91,92Zm12,4.26c.21.11.16.35-.12.5s-.28,0-.63-.16-.43-.29-.43-.34S41.71,96.14,42,96.27Zm8.74.93c.18.41.17.43,0,.43S50,97.35,50,97.2s.4-.44.53-.38A1.57,1.57,0,0,1,50.69,97.2Zm-22.35,0c.84.47.91.63.91,1.76,0,.65,0,1-.09.91a17.31,17.31,0,0,1-1.46-3A2.93,2.93,0,0,1,28.34,97.16Zm22.24.9c.4.17.34,0,1.12,4.5.63,3.7.61,3.67,1.7,5.13,1.58,2.16,4.57,7.89,4.72,9.07.05.34,0,.37-.55.79a6.25,6.25,0,0,0-1.15,1.15l-.55.71-.73-.71c-2.16-2.15-3.44-4.09-5.77-8.81-1.44-2.94-1.74-3.87-2.69-8.25l-.26-1.22.9-.86c.51-.47,1.19-1.06,1.51-1.3.54-.41.61-.45,1-.39A4,4,0,0,1,50.58,98.06Zm-19.87.19c.74.37,1,.67,1.08,1.31s.05.81-1.07.81h-1V99.9a5.32,5.32,0,0,1,.24-2A4.45,4.45,0,0,1,30.71,98.25Zm3.1,1.43a3.41,3.41,0,0,1,.81.48c0,.13-.38.21-1,.2-.89,0-1.06-.09-1.2-.53C32.14,99.06,32.45,99,33.81,99.68Zm.57,1.27c.47,0,0,.07-1.37.07-1.24,0-1.79,0-1.41-.07A16.13,16.13,0,0,1,34.38,101Zm3.65.78a7.8,7.8,0,0,1,1.46.36c.36.13,1.14.37,1.72.52l1.08.28.06,3.31a45.16,45.16,0,0,0,1.16,10.35,34.25,34.25,0,0,1,.78,7.93A47.67,47.67,0,0,1,43.6,133c-.2,1.09-.39,1.83-1.12,4.54a23.92,23.92,0,0,0-.83,5.5c-.23,4.5-.31,5.63-.5,7.34a30.89,30.89,0,0,0-.14,5.17c.05,2.94.17,6.27.41,10.66l.07,1.25H31.12l-.05-.51c-.1-.86-.34-4.77-.47-7.39a26.35,26.35,0,0,1,.31-6.45,17.77,17.77,0,0,0,.73-5.66,49.88,49.88,0,0,0-1.16-10.15c-.95-5.17-1.44-8.52-2-13.42a26.53,26.53,0,0,1-.21-4.49,20.56,20.56,0,0,1,.9-6,21.74,21.74,0,0,0,.86-7.08,21.11,21.11,0,0,0-.16-3.64c-.09-.49-.17-.92-.17-.94S37.23,101.64,38,101.73Zm21,16.65c.25.51.46,1,.46,1a17.89,17.89,0,0,1-1.55,1.8,5.06,5.06,0,0,1-1.28-1.22c-.19-.3-.2-.35-.06-.6a11.61,11.61,0,0,1,1.89-1.89A4.44,4.44,0,0,1,59.06,118.38Zm2.57,2a16,16,0,0,0,1.95.79c1.57.45,3.75,1.61,3.75,2s-.65.26-1.52-.26c-2.1-1.23-2.52-1.34-3.24-.82a2.6,2.6,0,0,0-.9,1.06c0,.18-.55.51-.84.51s-.48-.21-1.28-1a8.79,8.79,0,0,1-1-1.12,6.08,6.08,0,0,1,1-1.5C60,119.76,60.48,119.85,61.63,120.42Zm2.73,2.3c1.21.65,1.81,1.26,1.38,1.43-.23.08-.6-.12-1.37-.74C63.18,122.45,63.17,122.11,64.36,122.72Zm0,1.44c.72.67.85.94.22.47A10.28,10.28,0,0,1,63,123.2C63,123.05,63.71,123.51,64.4,124.16Zm-1.3,0c1,.83,1.57,1.39,1.32,1.39a13.25,13.25,0,0,1-2-1.7C62.32,123.59,62.51,123.68,63.1,124.16Zm-.63.59c.7.57,1.29,1.19,1.21,1.26s-.58-.1-1.16-.56c-.74-.59-1.09-1-1-1.22S61.64,124.07,62.47,124.75Zm1,2c.13.07.15,2.34.13,19.49,0,20.07-.09,26.65-.32,26.93a.5.5,0,0,1-.38.12c-.46-.05-.44,2.48-.2-32,.05-7.92.12-14.46.14-14.52S63.22,126.59,63.42,126.73ZM41.16,168.09c.24.1.24.11-.14.18s-8.86.12-9.36,0c-1.15-.24.58-.35,5.31-.31C39.4,168,41,168,41.16,168.09Zm-6.49.91c.39.14.63.79.74,2,.16,1.74.25,2.08.6,2.44a10.49,10.49,0,0,0,2.62,1.44l3.66,1.37c3.54,1.29,4.15,1.53,4.15,1.65a36.75,36.75,0,0,1-4.07,0c-5.14-.11-7.21-.11-8.62,0-1.06.08-1.15.07-1.37-.12l-.25-.19v-2.92a18,18,0,0,0-.39-4.93c-.07-.37-.14-.72-.14-.77A12.59,12.59,0,0,1,34.67,169ZM37,169c.41.14.53.41.93,2a11,11,0,0,1,.51,2.92c-.09.22-.39.19-.94-.08a2.87,2.87,0,0,1-1.23-1,16.77,16.77,0,0,1-.48-3.2l-.07-.7h.48A3,3,0,0,1,37,169Zm4.45.25c.44,2.54.67,3.11,1.65,4.09a6.08,6.08,0,0,0,1.77,1.23,41.87,41.87,0,0,0,7.61,2.91c.7.18,1.34.35,1.42.4a37.44,37.44,0,0,1-5.17,0,2.69,2.69,0,0,1-1.37-.33,5.1,5.1,0,0,0-1.23-.5c-1.42-.41-5.36-1.84-6.35-2.3-.53-.26-.58-.32-.76-1s-.94-4.4-.94-4.64.2-.22,1.83-.23h1.48Z" transform="translate(0 -3.36)"/><path class="cls-6" d="M35.61,75.47a3.57,3.57,0,0,1-.7.49s-.09.09-.09.2.07.19.27.19c.38,0,.54.14.46.38s0,.44.22.29c.35-.29.82-2,.54-2A3.32,3.32,0,0,0,35.61,75.47Z" transform="translate(0 -3.36)"/><path class="cls-2" d="M256.74,74.66a39.08,39.08,0,0,1-4.4.26c-4.67.14-5.28.25-5.6,1-.09.22-.21.39-.28.39a2.13,2.13,0,0,0-.38.84l-.28.83-.21-1c-.18-.87-.24-1-.59-1.28-1.06-.91-1.21-.92-5-.91-2.28,0-5,.16-7.46.41a92.82,92.82,0,0,1-11.07.73h-3l-.05.64a37.78,37.78,0,0,0,.15,4.44c.38,3.64,1.58,7.35,2.93,9a8.23,8.23,0,0,0,3.77,2.68,21.42,21.42,0,0,0,6.11.61c1.13,0,3.14,0,4.48,0,2,0,2.46.1,2.52.3a1.27,1.27,0,0,1,.05.51c0,.23-.9.27-6.57.22-7.21-.08-7.34-.08-8.47-1.19a4.13,4.13,0,0,0-1.15-.77,2.2,2.2,0,0,1-1-.78c-.23-.32-.62-.82-.86-1.1a2,2,0,0,1-.51-1c-.05-.33-.12-.44-.27-.44-.45,0-1.34-3.3-1.69-6.3a34.71,34.71,0,0,1-.18-6.54c0-.28,0-.3-1-.3-.56,0-2.1.16-3.43.35-3,.43-3.6.45-3.88.08s-.28-.25-.93,0-1.07.29-3.66.2c-3.63-.16-3.63-.16-3.84,0-.66.41,1.13,2.11,3,2.84,1.29.5,3.7.53,6.73.11,3.71-.53,6.23-.73,6.4-.48s.07.21-.32.39a18,18,0,0,1-4.11.87,22.9,22.9,0,0,0-4.82.82l-1.94.62a6.77,6.77,0,0,1-3.45.07,3.48,3.48,0,0,1-.89-.6c-.4-.41-.41-.41-.41-.08a3.51,3.51,0,0,0,.07.66,12,12,0,0,0,1.55,2.79,4,4,0,0,0,2.28.6,3.83,3.83,0,0,1,1.27.2c.35.18.59.16,1.24-.09.94-.34,3.15-.92,6.33-1.69,1.26-.3,2.46-.64,2.68-.73.52-.23.79-.23.89,0,.26.64-.07,1-1,1.14a3.16,3.16,0,0,0-1.2.42,6.41,6.41,0,0,1-1.7.62,30.09,30.09,0,0,0-3,1c-3.09,1.15-3.08,1.15-4.9,1.14a4.73,4.73,0,0,1-2.23-.29c-.59-.3-.6-.28-.4,1.14a4.37,4.37,0,0,0,1.72,3.36,3.69,3.69,0,0,0,1.65.23c2,0,3.25-.43,5.77-1.85.86-.48,2.11-1.14,2.78-1.47a8.65,8.65,0,0,0,1.78-1.18c.7-.71,1-.83,1.28-.51s.17.27-.71,1a50.52,50.52,0,0,1-5.1,3.66,8.58,8.58,0,0,0-1.44,1c-.85.75-1.29,1.05-1.56,1.05a2.81,2.81,0,0,0-.91.64,2.07,2.07,0,0,1-1.66.73c-.92.1-1,.1-.89.44a6.78,6.78,0,0,0,1,2.29c.31.39.39.57.36.84s0,.35.32.44c.86.25,2.65-1,5.71-4.14a39.82,39.82,0,0,1,5.44-4.86c.28-.14.52-.25.53-.21s-1.48,1.93-2.76,3.42c-2.1,2.45-5,5.38-5.3,5.38-.11,0-.35.2-.55.41a1.55,1.55,0,0,1-.88.53,2,2,0,0,0-.73.31.7.7,0,0,0,.14,1l.74.71c.85.88,2.16.56,3.63-.87a9.24,9.24,0,0,0,1.12-1.34,10.65,10.65,0,0,1,1-1.19,27.57,27.57,0,0,0,1.9-2.48c1.79-2.58,2.39-3.29,2.85-3.43l.39-.12-.13.37a22,22,0,0,1-2.12,3.44c-1.42,2.15-1.47,2.21-2,2.53s-.76.58-1.24,1.61a8.31,8.31,0,0,1-.86,1.44,3.13,3.13,0,0,0-.75,1.47c0,.09.24.25.52.36,1.14.43,2.11-.32,3.7-2.84A14.86,14.86,0,0,1,220,97.1a3.53,3.53,0,0,0,.67-1,10.94,10.94,0,0,1,1.38-2.27,8.83,8.83,0,0,1-1.06,3,14.91,14.91,0,0,0-1.05,2.58,12.57,12.57,0,0,1-.72,1.92,2.55,2.55,0,0,0-.44,1.59c0,.08.35.13.73.13,1,0,1.35-.41,2.11-2.43a10.29,10.29,0,0,1,.69-1.57,5.47,5.47,0,0,0,.45-1.35c.2-.74.48-1.65.6-2,.23-.62.63-1.21.7-1a11.3,11.3,0,0,1-.3,1.53,24.17,24.17,0,0,1-1.35,4.77,4.23,4.23,0,0,0-.64,1.48c0,.19,1.46.25,2,.07l.34-.13.45-2a31.75,31.75,0,0,1,1.36-4.86c.21-.39.58-.7.58-.5a19,19,0,0,1-.6,2.59c-.2.75-.45,1.76-.56,2.28a4.55,4.55,0,0,1-.45,1.36,1.9,1.9,0,0,0-.33,1.3,1.7,1.7,0,0,0,.9.07c.78,0,.88-.09,1-.41s.46-1.74.88-3.39c.78-3.11,1-3.69,1.39-3.69.11,0,.19,0,.19.12a55.86,55.86,0,0,1-1.55,6.11l-.36,1.14.48.1c1.1.27,1.33.22,1.59-.35a11.52,11.52,0,0,0,.47-1.57c.14-.56.36-1.43.5-1.91s.38-1.39.52-2a7.13,7.13,0,0,1,.39-1.3c.13-.18.57-.25.57-.1s-.12.58-.27,1.2-.4,1.67-.56,2.36a19.52,19.52,0,0,1-.69,2.26,5.6,5.6,0,0,0-.37,1.24c.05.36.47.5,1.18.39l.67-.12.54-2.15c.29-1.17.61-2.56.73-3.07a4.53,4.53,0,0,1,.87-2.19c.23-.16.23-.16.18.32,0,.27-.19,1.12-.37,1.9s-.41,1.89-.52,2.44a7.11,7.11,0,0,1-.48,1.58,2.82,2.82,0,0,0-.28.92c0,.32,0,.34.76.23,1.11-.18,1.42-.28,1.42-.53s.8-4.19,1.11-5.4a3.34,3.34,0,0,1,.46-1.19c.25-.27.61-.16.61.18a35.53,35.53,0,0,1-1,4.67c-.44,1.17-.52,1.63-.37,1.92s1.78.55,1.94.12c0-.09.28-1.38.56-2.89a21.66,21.66,0,0,1,.74-3.34,1.92,1.92,0,0,1,.31-.57,6.29,6.29,0,0,1,.08,2.08c-.05.37-.19,1.12-.31,1.65a12.4,12.4,0,0,0-.4,2.34l-.05.68h.82a1.67,1.67,0,0,0,.91-.16,8.13,8.13,0,0,0,.29-1.1c.19-1,.52-1.62.78-1.46s.17.41,0,1.3a4.17,4.17,0,0,0-.11,1c.05.3.62.63,1.07.63.62,0,.81-.51,1.31-3.4a9.08,9.08,0,0,1,.78-3.08c.16-.23.19-.25.19,0a35.61,35.61,0,0,1-.66,4.19c-.22,1.1-.38,2.06-.36,2.11a2.48,2.48,0,0,0,.93.11c.85,0,.88,0,1-.43a23.27,23.27,0,0,0,.68-3.9c.07-1.9.33-1.41,1,1.82l.43,2.17.67,0a1.48,1.48,0,0,0,.87-.14c.19-.18.19-.23.15-.9,0-.39-.14-1.19-.25-1.76a10.64,10.64,0,0,1-.21-1.53c0-.46,0-.48.14-.16a12.29,12.29,0,0,1,.35,1.76c.12.78.28,1.76.35,2.17l.13.72.82.13c.79.12,1.38-.06,1.38-.43a1.71,1.71,0,0,0-.36-1.08c-.43-.55-.47-1.58-.06-1.58s.46.26.74,1.6l.25,1.24h.67c.63,0,1.15-.3,1.15-.68,0-.08-.16-.74-.36-1.45a12.3,12.3,0,0,1-.63-3.32c0-1,.09-1.24.31-.89a12.44,12.44,0,0,1,1,3.78l.39,2.26.89,0c.56,0,.92-.06,1-.18s-.07-1.25-.62-3.66c-.5-2.22-.53-2.43-.4-2.56.3-.3,1,1.55,1.51,4.19l.46,2.22.81.06c.43,0,.82,0,.85-.09a4.24,4.24,0,0,0,0-1A21.38,21.38,0,0,0,258,97.1a10.12,10.12,0,0,1-.27-1.3c0-.42,0-.48.13-.48.33,0,.84,1.41,1.28,3.54a23.14,23.14,0,0,0,.62,2.5c.21.52.27.57.79.64a2.63,2.63,0,0,0,.87,0l.31-.13,0-.76a12.93,12.93,0,0,0-.65-3.29,6.41,6.41,0,0,1-.45-2.29c.31,0,.76,1.16,1.31,3.45.64,2.7,1,3.26,1.95,3,.43-.09.54-.17.54-.41a17.49,17.49,0,0,0-.9-3.85c-.31-1-.59-2-.64-2.18-.08-.38-.08-.39.11-.29a11.85,11.85,0,0,1,1.35,3.59c.6,2.56,1.15,3.43,2,3.14.35-.1.38-.14.38-.58a17.83,17.83,0,0,0-.79-3.79,14.11,14.11,0,0,1-.62-2.64c0-.3.36-.2.61.18a27.63,27.63,0,0,1,1.39,4.56,16,16,0,0,0,.59,2,1.48,1.48,0,0,0,.54.27,2.3,2.3,0,0,1,.56.23c.12.08.13,0,.1-1a9.19,9.19,0,0,0-.35-2.38,18.25,18.25,0,0,1-.38-1.81,1.58,1.58,0,0,0-.24-.75,3.56,3.56,0,0,1-.49-1.77v-.47l.23.39c.12.22.76,1.76,1.42,3.45a19.38,19.38,0,0,0,1.52,3.44,1.52,1.52,0,0,0,2.44.15c.4-.54.44-.77.15-.93a4.83,4.83,0,0,1-.73-.73,2.31,2.31,0,0,0-.61-.6c-.31,0-2.82-5.65-2.6-5.82s2.27,2.68,3.74,5c.83,1.35,1.83,2.88,2.23,3.41l.73,1,.65-.3a2.75,2.75,0,0,0,1.45-1.5c.06-.26,0-.39-.6-.88a44.35,44.35,0,0,1-3-3.38c-1.27-1.54-2.52-3-2.8-3.3-.45-.46-.91-1.12-.86-1.24s.84.28,1.43.72a35.87,35.87,0,0,1,4.68,4.75c2.76,3.07,3.29,3.53,4,3.55.5,0,.62-.06,1.05-.59a4.82,4.82,0,0,0,.69-1.22l.22-.63-.66-.24c-.74-.25-1.41-.82-3.93-3.27-.95-.92-2.7-2.59-3.89-3.71-1.75-1.64-2.13-2-2-2.17.31-.3,1.33,0,2.16.64A37.22,37.22,0,0,1,280,94.81c.59.75.95,1.1,1.2,1.17a2.34,2.34,0,0,1,.95.82c.56.69.63.74,1.32.8a1.36,1.36,0,0,0,1.22-.3,4.76,4.76,0,0,0,1.29-2,9.2,9.2,0,0,0,.39-2A5.73,5.73,0,0,0,285,93c-1-.11-1.42-.23-1.54-.43a2.46,2.46,0,0,0-.59-.55,5.21,5.21,0,0,1-.62-.57c-.14-.18-.22-.19-.32,0s-.28,0-.76-.43c-.72-.71-1.27-1.06-4-2.66a13.61,13.61,0,0,0-2.32-1.17c-.39,0-.84-.31-.84-.57s.26-.14.87-.07c1.54.23,2.63.69,6,2.59,2.68,1.51,3.47,1.79,5.07,1.88l1.41.09.53-1.51a16.27,16.27,0,0,0,.61-2l.07-.49-1.66,0c-1.85,0-1.87,0-5-1.65a16.59,16.59,0,0,0-6-2.13c-.73-.11-1.12-.23-1.27-.43l-.2-.27.19-.19c.3-.28.69-.23,1.71.21.67.3,1,.38,1.23.27s.67,0,1.55.3c2,.73,5,1.65,6.12,1.88,1.57.32,3.39-.07,3.84-.8a7.72,7.72,0,0,0,.42-1.47c.15-.66.32-1.35.37-1.53a.83.83,0,0,0,.07-.39,3.07,3.07,0,0,0-1.05.2c-1,.28-1,.28-2.66-.2l-2.57-.73a35.39,35.39,0,0,0-4.86-.44,24.81,24.81,0,0,1-4-.35c-.12-.29.05-.52.59-.8s.86-.25,3.48-.07c1.63.1,3.48.26,4.12.35a17.79,17.79,0,0,0,4.74,0,3.64,3.64,0,0,0,3.11-3.23c0-.48,0-.5-.22-.48L287.38,75c-2.18-.07-3,0-3.06.1-.24.34-12.55.2-15-.15a20.5,20.5,0,0,0-5.52-.09c-2,.1-3.91.24-4.22.3a1.22,1.22,0,0,1-.95-.16C258.22,74.71,256.82,74.44,256.74,74.66Zm.09,1.13c1.8.29,2.7.75,3,1.55a9.88,9.88,0,0,0,.51,1,3.22,3.22,0,0,1,.4,1.12c.11.75.05.73-.72-.25-1.06-1.31-2.53-1.81-4.82-1.61-.76.07-2.53.19-4,.28-2.2.14-2.64.22-3.13.52-.67.42-1.3.48-1.58.1s-.27-.62,0-1.22.51-.76,1.44-1a1.88,1.88,0,0,0,.8-.31,18.16,18.16,0,0,1,2.75-.21c1.47-.05,3-.12,3.41-.14A13.16,13.16,0,0,1,256.83,75.79Zm-12.48.45a2.93,2.93,0,0,1,.9,1.68c.09.46.09.5-.08.7s-.54.23-1.16-.57l-.59-.75-3.66,0a41.08,41.08,0,0,0-4.65.24,5.83,5.83,0,0,0-4.24,2.87c-.2.36-.37.61-.37.55s.06-.39.13-.74a5.55,5.55,0,0,1,2.4-3.8c.63-.36.93-.39,4.93-.5C243,75.83,243.85,75.85,244.35,76.24ZM263.84,76c0,.13.07.87.1,1.66a18,18,0,0,1-.18,3.41,12.66,12.66,0,0,1-1.08,4.7c-.93,1.79-2.22,2.49-5.22,2.81l-2.58.28c-1.12.14-1.64-.09-1.64-.73s.14-.83.89-.71a3.36,3.36,0,0,0,1.64-.16,7.13,7.13,0,0,1,2-.26,3.18,3.18,0,0,0,1.62-.25c2.46-1.32,2.32-1.17,2.9-2.93a21.5,21.5,0,0,0,.88-6.2l0-1.63.22-.07a2.66,2.66,0,0,1,.27-.09S263.81,75.9,263.84,76Zm9.17.25a3.77,3.77,0,0,1-.43,1.62c-.36.48-1.68.5-3.93,0a13,13,0,0,0-4.12-.3c-.2,0-.21,0-.23-.83l0-.87,4.35.12C271,76.11,273,76.2,273,76.25Zm1.24.09c.1.22.12.45.07,1.76,0,.83-.05,1.9-.05,2.38a20.18,20.18,0,0,1-1.21,6.64c-.82,2.17-2.57,4.78-3.37,5a.9.9,0,0,0-.53.39c-.22.49-3.1,1.31-6,1.72-1.22.16-2.66.27-8.41.64l-1.86.12,0-.42c0-.23.09-1.18.13-2.08a9.91,9.91,0,0,1,.15-1.63c.2,0,.67.72.81,1.22l.16.55-.46,0c-.51,0-.64.1-.44.47s.82.47,1.7.18a15.11,15.11,0,0,1,3.87-.26c2.59,0,3.08-.06,3.42-.31a3.32,3.32,0,0,1,1.83-.33,4.45,4.45,0,0,0,1.9-.31,7.49,7.49,0,0,1,1.36-.56c1.48-.48,2.31-1.34,3.91-4a6.81,6.81,0,0,0,1.25-3,27.25,27.25,0,0,0,.78-6.27c0-1,0-2,.06-2.12C273.38,75.85,274.08,76,274.25,76.34Zm-11.41.2a20.14,20.14,0,0,1-.09,3.53c-.08.53-.25,1.56-.39,2.29-.23,1.23-.28,1.37-.65,1.83a5.82,5.82,0,0,1-2.84,1.92,21.81,21.81,0,0,1-3,.28c-1.93.07-2.43.06-2.53-.14a8.67,8.67,0,0,1-.28-1.12,9.9,9.9,0,0,0-.42-1.47l-.24-.55.44-.16c.38-.13.45-.2.5-.62a2.52,2.52,0,0,0-.75-2.1c-.6-.76-1.15-1-1.62-.82a4.15,4.15,0,0,0-1.17,2.19l-.31,1v1.62a31.12,31.12,0,0,0,.27,3.81,51.83,51.83,0,0,1,.51,5.37c0,1.36,0,1.38-.13,1.42a1.19,1.19,0,0,1-1.4-1.17,9.83,9.83,0,0,1,.28-1.5,18.33,18.33,0,0,0,.36-1.84,28.25,28.25,0,0,0-.06-4.76,28.85,28.85,0,0,0-1.2-5.54c-.21-.59-.22-.59.73-.94a47.93,47.93,0,0,1,8.65-.54,5.59,5.59,0,0,1,2.21,1.09,4,4,0,0,1,.6,1.13c.46,1.25.78,1.21.85-.07a5.76,5.76,0,0,0-.66-3.12,10.9,10.9,0,0,1-.5-1.28,3.81,3.81,0,0,1,1.4-.14C262.79,76.15,262.79,76.15,262.84,76.54Zm-31.57.64a10.31,10.31,0,0,0-1.06,2.93,12.55,12.55,0,0,0-.13,2.11c0,.76,0,1.38,0,1.38s.5-.71.88-1.77c.83-2.38,1.38-2.72,5.49-3.48a14.91,14.91,0,0,1,4.33-.37,9.38,9.38,0,0,1,2.22.3c.41.23.91.8.91,1a4.38,4.38,0,0,1-.59,1.56,2.36,2.36,0,0,0-.36.85c0,.2-.16.76-.29,1.26a12.21,12.21,0,0,0-.35,3.18,24.84,24.84,0,0,0,.21,5.93c.2,1.3.21,1.26-.34,2a.86.86,0,0,1-.73.39l-.46,0-.07-.59a10.13,10.13,0,0,1,.39-3.46,10.19,10.19,0,0,0,.27-1.26c0-.16.11-1.16.25-2.22.39-3,.31-4.58-.3-5.9-.76-1.65-2-1.63-2.83,0a2.49,2.49,0,0,0-.29.85c0,.48.22.92.48.92s.23.06.23.15-.16.67-.35,1.35a14.61,14.61,0,0,0-.41,1.67l0,.44-1.55-.13a27.35,27.35,0,0,1-6.2-.9c-1.29-.85-2.21-4.67-1.87-7.76l.07-.64.55-.12c.3-.06.59-.15.65-.16a3.69,3.69,0,0,1,.84-.09l.73,0Zm-2.84.14a23.34,23.34,0,0,0,0,3.44,24.32,24.32,0,0,0,.69,3.5,4.1,4.1,0,0,0,1.67,2.22c.53.37.71.39,3.45.43s3.76.18,3.92.57a.92.92,0,0,1-.21.87,5.49,5.49,0,0,1-1.5-.11,18.66,18.66,0,0,0-2.32-.2,8.84,8.84,0,0,1-3.69-.72,5.67,5.67,0,0,1-2.5-4.09,18.78,18.78,0,0,1-.33-4.38c0-1.6.16-2,.56-2S228.47,76.87,228.43,77.32Zm-1.19,0a1.15,1.15,0,0,1-.13.56c-.19.39-.26.43-1.09.43a10.4,10.4,0,0,0-2.07.28,7.58,7.58,0,0,1-2,.23,11.38,11.38,0,0,0-1.66.11c-.91.18-1.2,0-1.5-.73a2.77,2.77,0,0,1-.19-.8c0-.35.08-.35,4.29-.28A31.83,31.83,0,0,1,227.24,77.27Zm40.81,1.38c3.43.43,4.35.46,4.59.14.13-.16.25-.25.27-.19a11.87,11.87,0,0,1,0,2.11,2.36,2.36,0,0,1-.78,1.67c-.4.23-.83.16-2.14-.37a23.69,23.69,0,0,0-2.6-.8L265,80.59a3.75,3.75,0,0,0-.65-.18c-.14,0-.11-1,.05-1.42C264.7,78.3,264.93,78.26,268.05,78.65ZM227,79c.31.23.31.47,0,.89-.17.25-.4.32-.91.32a31.59,31.59,0,0,0-5.8,1.53,1.53,1.53,0,0,1-.92.16c-.34-.14-.59-.82-.59-1.51v-.53h.48a52.71,52.71,0,0,0,5.29-.95A5.5,5.5,0,0,1,227,79Zm20.2.89c1.22,1.53,1.84,4.37,1.84,8.4a11.4,11.4,0,0,1-.24,3.11c-.44,2.16-1.39,4-2.31,4.44a1.7,1.7,0,0,1-2.22-.8,7.5,7.5,0,0,1-.89-1.87.58.58,0,0,1,.25-.35c.27-.23.31-.43.11-.71s-.18-.09-.35.28l-.22.46-.18-1a26.19,26.19,0,0,1-.24-6.89c.08-.62.1-.66.17-.39s.29.4.36.12a1.65,1.65,0,0,0-.15-.62l-.19-.45.27-1a6.34,6.34,0,0,1,.9-2.22s.12.16.17.35.11.32.23.18.14-.3.1-.78,0-.6.23-.78a2,2,0,0,1,1-.14C246.63,79.27,246.71,79.31,247.2,79.91Zm4.8.71c.16.2.46.61.67.87.38.48.38.5.19.62a.82.82,0,0,1-.56,0c-1.13-.35-1.27-.33-1.47.07-.42.82-.18,1.42.56,1.42.48,0,.58.06.91.57a2.37,2.37,0,0,1,.37.86,3.2,3.2,0,0,0,.11.67,1.16,1.16,0,0,1,0,.82,1.87,1.87,0,0,0,0,1.19,8.84,8.84,0,0,1,.11,2.39c-.12,4-.71,7.28-1.48,8.23a1.2,1.2,0,0,1-1.73,0,8.88,8.88,0,0,1-1.62-2.54l-.17-.48.22-.55.23-.57.19.39c.35.71.75,1.1,1.14,1.1h.37l0,.62c-.06.8.09.84.38.13.49-1.25.45-3-.15-7.6a36.44,36.44,0,0,1-.44-4.78,5,5,0,0,1,.17-2C250.51,80.48,251.42,79.8,252,80.62ZM241,81.14a5.85,5.85,0,0,1,.9,2.39A43.9,43.9,0,0,1,241,90a12.85,12.85,0,0,0-.54,3.41,6.86,6.86,0,0,0,.52,2.76c.38.83.78.76.56-.11a2.27,2.27,0,0,1-.09-.46,2.59,2.59,0,0,1,.38-.25,3.43,3.43,0,0,0,.74-.85,6.49,6.49,0,0,1,.44-.61,4.26,4.26,0,0,1,.33.63l.3.62-.48,1.15c-.59,1.46-1.33,2.4-2,2.54a1.7,1.7,0,0,1-1.63-1.24,23.54,23.54,0,0,1-.84-6.82,29,29,0,0,1,.26-5.36c.19-1.16.28-1.25,1.67-1.74.21-.09.23-.15.21-.66l0-.57-.51,0c-.37,0-.53-.13-.55-.3s-.08-.18-.24.1-.22.34-.34.18a.57.57,0,0,1-.08-.55,3,3,0,0,1,.56-1.12C239.87,80.46,240.62,80.73,241,81.14Zm-13.75-.2a.9.9,0,0,1-.54,1.32c-.19.07-.64.28-1,.46s-1.7.83-3,1.42c-2.41,1.12-2.71,1.17-3.05.6a5.88,5.88,0,0,1-.38-1.76s1.71-.62,3.37-1.17c.56-.18,1.64-.44,2.39-.6a9.09,9.09,0,0,0,1.4-.36C226.47,80.69,227.06,80.76,227.2,80.94Zm39,.73a11.73,11.73,0,0,1,1.58.53c.47.2,1.16.48,1.55.62a8.67,8.67,0,0,0,1.89.41l1.19.11L272,84.67c-.49,1.83-.73,2.2-1.45,2.27a3.42,3.42,0,0,1-2.36-1.08,2.57,2.57,0,0,0-.92-.57,11.87,11.87,0,0,1-1.67-.82,8.66,8.66,0,0,0-1.4-.69c-.35,0-.4-.19-.3-1.21.09-.85.11-.9.34-1A3.69,3.69,0,0,1,266.19,81.67Zm-14.15,1c.13.1.06.14-.25.14a.9.9,0,0,1-.56-.14C251.05,82.52,251.79,82.52,252,82.72Zm-24.56.48a1.4,1.4,0,0,1,.2.4c0,.38-4.63,4.2-5.63,4.62-.82.37-1.49-.09-1.8-1.22l-.17-.63.16-.21a7.78,7.78,0,0,1,2.73-1.4,6.54,6.54,0,0,0,2.49-1.24C226.09,82.86,227.14,82.68,227.48,83.2Zm.91,2.82a.69.69,0,0,1-.26.43c-.15.12-1,1.08-1.82,2.14-1.74,2.19-2.21,2.56-3,2.42a2.45,2.45,0,0,1-1.46-1.37c-.11-.32-.11-.34.19-.53A29.73,29.73,0,0,0,224.8,87c.91-.73,2-1.56,2.43-1.83l.77-.51.2.57A3.87,3.87,0,0,1,228.39,86Zm37-.73c1.57.55,1.86.71,2.43,1.33a4,4,0,0,0,2.16,1c.18,0,.29.16.28.27a4,4,0,0,1-1.06,1.63,1.89,1.89,0,0,1-2.05-.09A21.12,21.12,0,0,1,265,87.78a17.08,17.08,0,0,0-1.66-1.33c-.22,0-.3-.29-.21-.73.14-.68.46-1.07.77-.94Zm-36.2,1.87a2.07,2.07,0,0,0,.57.53c.14,0,.15.27,0,.53a11.2,11.2,0,0,1-.65,1c-1.79,2.6-2.23,3-3.33,2.86-.79-.1-1-.23-1-.57a21.94,21.94,0,0,1,2.8-3.48,4.09,4.09,0,0,0,.82-1,2.34,2.34,0,0,1,.25-.45A3.14,3.14,0,0,1,229.18,87.16Zm34.72.4c.39.34,1.08,1,1.55,1.44a6.58,6.58,0,0,0,1.41,1.1,3.32,3.32,0,0,1,.58.34c.06.14-.82.64-1.36.76-1.15.29-1.89-.14-3.4-2-.52-.62-.79-1-.77-1.19a2.3,2.3,0,0,1,.34-.76C262.65,86.68,262.94,86.71,263.9,87.56Zm-32.54,1.12c.19.06.35.16.37.25a6.53,6.53,0,0,1-.67,2.13,2.68,2.68,0,0,1-2.57,1.57l-.62-.06.25-.62a13.5,13.5,0,0,1,1-1.72,10.3,10.3,0,0,0,.86-1.48C230.11,88.36,230.22,88.36,231.36,88.68Zm30.93,1.07A8.88,8.88,0,0,0,263.41,91c.39.27.4.71,0,.73a5.29,5.29,0,0,0-.95.16c-.78.18-1,0-1.8-1.28a8.29,8.29,0,0,0-.81-1.12l-.19-.14L260,89c.27-.34.41-.37.9-.32S261.53,88.79,262.29,89.75Zm-28.19-.52c0,.18-.35,1-.71,1.87l-.63,1.56h-.59c-.68,0-1-.14-1-.41a16,16,0,0,1,.59-1.74L232.3,89l.93,0C234.1,88.93,234.16,89,234.1,89.23Zm1.77-.19a10.57,10.57,0,0,1-.89,2.72c-.38.65-.81.94-1.31.87l-.39-.06.74-1.81.74-1.83h.53A1.07,1.07,0,0,1,235.87,89Zm1.52,0a.47.47,0,0,1,.22.35,10,10,0,0,1-.49,1.6,12.17,12.17,0,0,0-.5,1.53c0,.19-1.14.14-1.23-.07a7.1,7.1,0,0,1,.49-2,2.24,2.24,0,0,1,.88-1.32C237.11,88.91,237.14,88.91,237.39,89Zm.92,2.11c0,1.48,0,1.51-.68,1.51-.31,0-.37,0-.37-.32a6.78,6.78,0,0,1,.5-1.93,4.92,4.92,0,0,0,.27-1.07c0-.27,0-.25.14.11A5,5,0,0,1,238.31,91.15Zm20.8-1.6a4.27,4.27,0,0,1,1.37,1.85l.25.59-.17.17c-.26.27-1.32,0-1.8-.39a15.31,15.31,0,0,1-1.58-1.88c-.05-.12.06-.28.29-.43A1.87,1.87,0,0,1,259.11,89.55Zm-2.28.48a9,9,0,0,1,.84,1.32l.46.85-.28.12-.58.25c-.27.13-.31.09-.6-.58a5.41,5.41,0,0,0-.7-1.19,3.83,3.83,0,0,1-.56-.93l-.17-.44.6.07A1.36,1.36,0,0,1,256.83,90Zm-2,0a16,16,0,0,1,1.34,2.08c0,.07-.18.19-.41.3-.68.3-1.19-.09-2.07-1.6-.6-1-.54-1.23.34-1.15A1.12,1.12,0,0,1,254.85,90.07Z" transform="translate(0 -3.36)"/><path class="cls-2" d="M245.16,79.88c-.08.3-.07.35.09.46s.3,0,.2-.41S245.25,79.49,245.16,79.88Z" transform="translate(0 -3.36)"/><path class="cls-2" d="M245.89,80.09a1.79,1.79,0,0,0,0,.46c.06.14.32-.34.32-.59C246.2,79.54,245.94,79.65,245.89,80.09Z" transform="translate(0 -3.36)"/><path class="cls-2" d="M246.72,80.25a.66.66,0,0,0,0,.37c.08.21.3.13.3-.12S246.77,80,246.72,80.25Z" transform="translate(0 -3.36)"/><path class="cls-2" d="M247.52,81.14c-.18.26-.16.72,0,.65s.16-.19.17-.46C247.76,80.91,247.7,80.85,247.52,81.14Z" transform="translate(0 -3.36)"/><path class="cls-2" d="M245,81.39c-.06.42,0,.62.21.62s.18-.07.16-.41S245.11,81,245,81.39Z" transform="translate(0 -3.36)"/><path class="cls-2" d="M243.78,81.42a1.46,1.46,0,0,0-.05.44c0,.41.34.45.4,0S243.91,81.1,243.78,81.42Z" transform="translate(0 -3.36)"/><path class="cls-2" d="M245.84,81.56c0,.39.27.68.31.34s0-.6-.13-.6S245.84,81.4,245.84,81.56Z" transform="translate(0 -3.36)"/><path class="cls-2" d="M246.51,81.92c0,.32,0,.62.15.62s.21-.53.09-.73S246.55,81.62,246.51,81.92Z" transform="translate(0 -3.36)"/><path class="cls-2" d="M244.33,82.54c-.05.21.24.53.37.41a.94.94,0,0,0,.12-.34c0-.18,0-.25-.21-.25A.31.31,0,0,0,244.33,82.54Z" transform="translate(0 -3.36)"/><path class="cls-2" d="M246.11,82.65c-.12.32-.05.62.14.56a.3.3,0,0,0,.19-.32C246.44,82.61,246.19,82.43,246.11,82.65Z" transform="translate(0 -3.36)"/><path class="cls-2" d="M247,82.66a.42.42,0,0,0,.06.48c.14.15.31,0,.31-.35S247,82.43,247,82.66Z" transform="translate(0 -3.36)"/><path class="cls-2" d="M248,82.89a1,1,0,0,0,.1.48c.14.13.14.09.21-.44,0-.34,0-.39-.13-.39S248,82.63,248,82.89Z" transform="translate(0 -3.36)"/><path class="cls-2" d="M243.35,82.89c-.06.25,0,.54.14.54s.1-.16.1-.36C243.59,82.7,243.42,82.57,243.35,82.89Z" transform="translate(0 -3.36)"/><path class="cls-2" d="M243.94,83.57c0,.34.19.87.25.71a2.76,2.76,0,0,0,.05-.52c0-.32,0-.44-.13-.47S243.94,83.32,243.94,83.57Z" transform="translate(0 -3.36)"/><path class="cls-2" d="M244.84,83.55c-.07.34,0,.68.13.68s.14-.15.16-.41,0-.39-.12-.39A.17.17,0,0,0,244.84,83.55Z" transform="translate(0 -3.36)"/><path class="cls-2" d="M246.27,84.07c0,.42,0,.46.22.35a.58.58,0,0,0,.26-.19c.07-.18-.16-.63-.31-.63S246.27,83.69,246.27,84.07Z" transform="translate(0 -3.36)"/><path class="cls-2" d="M245.73,84.05c0,.37,0,.8.14.8s.21-.52.11-.82S245.78,83.71,245.73,84.05Z" transform="translate(0 -3.36)"/><path class="cls-2" d="M247.32,84.12c0,.28.05.37.19.37s.21-.58,0-.67S247.32,83.85,247.32,84.12Z" transform="translate(0 -3.36)"/><path class="cls-2" d="M243.57,84.83c0,.23,0,.37.1.43s.2-.18.2-.61S243.61,84.49,243.57,84.83Z" transform="translate(0 -3.36)"/><path class="cls-2" d="M248.17,84.67a.33.33,0,0,0,0,.37c.1.27.33.13.36-.25S248.34,84.39,248.17,84.67Z" transform="translate(0 -3.36)"/><path class="cls-2" d="M244.3,84.83c-.13.21,0,.73.12.73s.18-.13.24-.29.07-.3,0-.44S244.43,84.63,244.3,84.83Z" transform="translate(0 -3.36)"/><path class="cls-2" d="M245.08,84.88c-.13.34-.09.54.08.46s.16-.19.18-.37C245.37,84.62,245.21,84.56,245.08,84.88Z" transform="translate(0 -3.36)"/><path class="cls-2" d="M246.67,85.31c-.09.23.05.6.22.6s.3-.12.24-.46S246.75,85.1,246.67,85.31Z" transform="translate(0 -3.36)"/><path class="cls-2" d="M246,85.54a.64.64,0,0,0,.06.37c.09.18.13.18.21,0a1,1,0,0,0,.11-.37C246.41,85.33,246.08,85.33,246,85.54Z" transform="translate(0 -3.36)"/><path class="cls-2" d="M242.89,85.82a.67.67,0,0,0,0,.48c.11.27.31,0,.29-.33S243,85.49,242.89,85.82Z" transform="translate(0 -3.36)"/><path class="cls-2" d="M247.62,86c0,.21.08.32.2.32s.18-.11.19-.32,0-.3-.19-.3S247.6,85.81,247.62,86Z" transform="translate(0 -3.36)"/><path class="cls-2" d="M245.37,86.13a.4.4,0,0,0,.22.28c.14,0,.19,0,.17-.18a.38.38,0,0,0-.22-.28C245.39,85.9,245.35,86,245.37,86.13Z" transform="translate(0 -3.36)"/><path class="cls-2" d="M243.52,86.36a.56.56,0,0,0,0,.49c.07.16.1.15.18-.12C243.86,86.18,243.69,85.84,243.52,86.36Z" transform="translate(0 -3.36)"/><path class="cls-2" d="M244.28,86.22c-.09.21-.05.76,0,.76s.28-.48.22-.71S244.35,86,244.28,86.22Z" transform="translate(0 -3.36)"/><path class="cls-2" d="M244.82,86.61c-.06.28,0,.55.19.55s.13-.11.12-.31S244.89,86.34,244.82,86.61Z" transform="translate(0 -3.36)"/><path class="cls-2" d="M248.35,86.71c-.08.52,0,.62.17.62a.28.28,0,0,0,.26-.26c.05-.34,0-.39-.2-.54S248.39,86.5,248.35,86.71Z" transform="translate(0 -3.36)"/><path class="cls-2" d="M246.18,87c-.06.5,0,.57.15.41s.2-.8,0-.8S246.2,86.78,246.18,87Z" transform="translate(0 -3.36)"/><path class="cls-2" d="M246.94,87a1.44,1.44,0,0,0,0,.51c0,.23.08.31.21.23s.23-.48,0-.74S247,86.75,246.94,87Z" transform="translate(0 -3.36)"/><path class="cls-2" d="M247.72,87.32c-.08.32,0,.74.19.69s.21-.75,0-.82A.15.15,0,0,0,247.72,87.32Z" transform="translate(0 -3.36)"/><path class="cls-2" d="M242.83,87.64c0,.17.09.32.16.32s.15-.15.17-.32,0-.31-.17-.31S242.81,87.4,242.83,87.64Z" transform="translate(0 -3.36)"/><path class="cls-2" d="M245.56,87.49c0,.09,0,.29,0,.45-.06.37.28.39.4,0a.35.35,0,0,0-.11-.45C245.58,87.3,245.56,87.3,245.56,87.49Z" transform="translate(0 -3.36)"/><path class="cls-2" d="M243.61,87.72a1.44,1.44,0,0,0-.09.45c0,.39.19.25.27-.21s.06-.45,0-.45S243.66,87.6,243.61,87.72Z" transform="translate(0 -3.36)"/><path class="cls-2" d="M245,88.42c-.06.44,0,.78.21.64a1,1,0,0,0,.09-.86C245.11,88,245,88,245,88.42Z" transform="translate(0 -3.36)"/><path class="cls-2" d="M246.25,88.26c-.17.23-.15.62,0,.73s.17.14.23-.34S246.42,88,246.25,88.26Z" transform="translate(0 -3.36)"/><path class="cls-2" d="M248.4,88.33a1.11,1.11,0,0,0,0,.42c.09.22.38-.12.38-.44S248.46,88,248.4,88.33Z" transform="translate(0 -3.36)"/><path class="cls-2" d="M244.18,88.49a1.23,1.23,0,0,0,0,.48c.11.26.38,0,.35-.36S244.24,88.12,244.18,88.49Z" transform="translate(0 -3.36)"/><path class="cls-2" d="M246.91,88.56c-.15.25,0,.76.15.69s.27-.85.07-.85A.3.3,0,0,0,246.91,88.56Z" transform="translate(0 -3.36)"/><path class="cls-2" d="M243,88.86c-.08.5-.05.6.17.6s.27-.19.1-.6S243.06,88.51,243,88.86Z" transform="translate(0 -3.36)"/><path class="cls-2" d="M247.6,89.27c0,.39.2.62.38.44a.48.48,0,0,0,0-.67C247.67,88.86,247.6,88.91,247.6,89.27Z" transform="translate(0 -3.36)"/><path class="cls-2" d="M243.63,89.29c-.07.26.1.71.25.71s.23-.32.13-.62S243.69,89,243.63,89.29Z" transform="translate(0 -3.36)"/><path class="cls-2" d="M244.37,89.46a.35.35,0,0,0,0,.38c.1.26.33.12.33-.2S244.51,89.22,244.37,89.46Z" transform="translate(0 -3.36)"/><path class="cls-2" d="M245.38,89.55c-.06.41,0,.84.16.77s.14-.25.15-.55,0-.48-.13-.48S245.4,89.41,245.38,89.55Z" transform="translate(0 -3.36)"/><path class="cls-2" d="M246,89.75c-.07.46-.05.6.1.6s.14-.12.14-.44C246.27,89.41,246.1,89.3,246,89.75Z" transform="translate(0 -3.36)"/><path class="cls-2" d="M246.6,90.12a.61.61,0,0,0,.12.69c.23.15.43-.23.31-.56S246.68,89.91,246.6,90.12Z" transform="translate(0 -3.36)"/><path class="cls-2" d="M248.36,90.12c-.1.23,0,.59.08.59s.22-.32.22-.64C248.66,89.94,248.41,90,248.36,90.12Z" transform="translate(0 -3.36)"/><path class="cls-2" d="M244.91,90.48c-.11.25,0,.76.09.76s.31-.57.23-.78A.17.17,0,0,0,244.91,90.48Z" transform="translate(0 -3.36)"/><path class="cls-2" d="M247.34,90.65c0,.38.25.52.36.25a.35.35,0,0,0,0-.37C247.5,90.25,247.31,90.32,247.34,90.65Z" transform="translate(0 -3.36)"/><path class="cls-2" d="M244,90.87c-.1.49-.1.55.09.55s.28-.25.12-.61S244,90.51,244,90.87Z" transform="translate(0 -3.36)"/><path class="cls-2" d="M245.5,91.4c-.12.2-.05.73.08.73s.15-.13.2-.29.07-.3,0-.44S245.62,91.2,245.5,91.4Z" transform="translate(0 -3.36)"/><path class="cls-2" d="M246.22,91.36a.7.7,0,0,0,0,.7c.13.12.32-.22.32-.57S246.39,91.19,246.22,91.36Z" transform="translate(0 -3.36)"/><path class="cls-2" d="M248,91.77c0,.41,0,.54.13.54s.22-.32.22-.82c0-.14-.07-.25-.18-.25S248,91.33,248,91.77Z" transform="translate(0 -3.36)"/><path class="cls-2" d="M244.42,91.88c-.08.21.09.76.19.67s.14-.78,0-.78A.21.21,0,0,0,244.42,91.88Z" transform="translate(0 -3.36)"/><path class="cls-2" d="M247,92.34c0,.27.07.43.18.46s.15,0,.15-.39,0-.46-.18-.46S247,92,247,92.34Z" transform="translate(0 -3.36)"/><path class="cls-2" d="M244.93,93c0,.29,0,.36.19.31s.2-.18.22-.38,0-.3-.19-.3S244.93,92.73,244.93,93Z" transform="translate(0 -3.36)"/><path class="cls-2" d="M246.42,93.05c-.12.32-.1.68.06.68s.14-.13.14-.45C246.62,92.8,246.56,92.71,246.42,93.05Z" transform="translate(0 -3.36)"/><path class="cls-2" d="M247.46,93.19c0,.45.18.64.32.36s.13-.71-.11-.71S247.46,92.91,247.46,93.19Z" transform="translate(0 -3.36)"/><path class="cls-2" d="M245.57,93.18c-.13.19,0,.55.14.55s.13-.13.13-.36S245.73,92.91,245.57,93.18Z" transform="translate(0 -3.36)"/><path class="cls-2" d="M243.94,93.64c0,.48.13.58.27.23s.1-.68-.09-.68S243.94,93.28,243.94,93.64Z" transform="translate(0 -3.36)"/><path class="cls-2" d="M244.63,94.21c-.1.23,0,.58.07.58s.3-.32.3-.57S244.69,94,244.63,94.21Z" transform="translate(0 -3.36)"/><path class="cls-2" d="M246.92,94.21a.74.74,0,0,0,0,.67c.09.14.28-.23.28-.55S247.08,94,246.92,94.21Z" transform="translate(0 -3.36)"/><path class="cls-2" d="M246.14,94.74c0,.18.09.34.18.37s.16,0,.16-.3,0-.37-.18-.37S246.12,94.53,246.14,94.74Z" transform="translate(0 -3.36)"/><path class="cls-2" d="M245.44,94.83c-.14.35-.1.67.1.67s.17-.07.15-.39S245.56,94.53,245.44,94.83Z" transform="translate(0 -3.36)"/><path class="cls-6" d="M352.91,166.26a11.77,11.77,0,0,0,.22,6.6c.22.71.25,1.08.07,1a14,14,0,0,1-1.92-2.59,31.84,31.84,0,0,1-2.07-4c-.25-.58-.46-.67-.51-.21a13.56,13.56,0,0,0,.78,3.43,20.26,20.26,0,0,0,4.65,7.87,17.31,17.31,0,0,0,5.38,3.95,5.55,5.55,0,0,1,1.32.8l-.7.5a10.25,10.25,0,0,0-3.09,3.84c-.6,1.23-.59,1.37.11,1.06a1.21,1.21,0,0,1,1.38.06c.55.47,1,1.54,1.56,3.91.36,1.51.39,1.74.21,1.89a11.15,11.15,0,0,1-2.76.72c-4,.81-6.78,2-7.39,3.17-.25.49-.43,2.45-.76,8.53-.07,1.43-.18,3.41-.23,4.4-.2,3.53-.31,3.88-2,6.66-.38.61-1,1.74-1.48,2.53a23.82,23.82,0,0,1-3.09,4.52c-.71.85-1.34,1.62-1.4,1.7s-.13.17-.17.17,0-1.2,0-2.68.09-6.59.14-11.38c.1-8.75.22-16.6.34-20.83l.05-2.28-.79-.9-.81-.9,1.14-1.09c1-1,1.13-1.12,1.06-1.32a4.09,4.09,0,0,0-.71-1.14s-.47.33-1,.73a9.42,9.42,0,0,0-2.76,3.39,8.11,8.11,0,0,0-1,3.91l-.05,1.37.79-.07.9-.09a3,3,0,0,0,.17-1.21,8.47,8.47,0,0,1,.42-2.55c.13-.14.4,0,.57.34s.16.69.14,4.55c0,2.34-.06,6.91-.11,10.14s-.15,8.25-.2,11.17c-.12,6.15-.27,10.5-.39,11.17-.15.82-.76,1.24-2.47,1.71-1,.26-1.06.56-.35,1.33a8.15,8.15,0,0,1,1.13,1.88c.66,1.34,1,1.84,1.53,2.1l.26.14V236c0,2.75-.27,22.58-.38,27.26a51.15,51.15,0,0,1-.34,6.66,7.75,7.75,0,0,1-.35,1,3.76,3.76,0,0,0,.31,3.61c.2.22.31.29.38.22a5.43,5.43,0,0,0,.18-1.3c.09-1.28.23-1.68.59-1.68s.48.57.54,1.77c0,.88,0,1.11-.11,1.3s-.35.4-2.06.82c-1.48.37-2,.57-2.18.79a.94.94,0,0,0-.08.41c0,.52.24.55,4.17.55,3.43,0,3.46,0,4.87-.28a6,6,0,0,1,4,.17c1.71.52,1.91.52,2.39-.05a2.39,2.39,0,0,0,.54-1.68,12,12,0,0,1,.61-3c.18-.62.53-1.85.77-2.73a22.44,22.44,0,0,1,2.38-6.21c1.77-3.3,2.5-5.54,3.72-11.55.91-4.57,1.26-5.71,2-6.84.44-.65.67-.72,2.36-.8l1.45-.06.32.8c.18.44.55,1.31.83,1.93a16.39,16.39,0,0,1,1.17,4.88c.5,3.45,1.15,6.64,2.32,11.46.92,3.76,1.13,5,1.13,6.63,0,1.1,0,1.22-.26,1.72a3.78,3.78,0,0,1-1.67,1.58,44.31,44.31,0,0,1-7.44,3.27,10.75,10.75,0,0,1-1.18.2,3.36,3.36,0,0,0-1,.27c-.38.19-.43.25-.43.54s.05.35.38.51.6.19,2.32.22a36.08,36.08,0,0,0,8.08-.7l1.22-.25.76.48a3.7,3.7,0,0,0,2.31.75,2.24,2.24,0,0,0,1.51-.71,6.46,6.46,0,0,0,.14-2.94c-.23-2.17-.29-3.82-.39-10.82-.11-9.19-.12-9.26-1.09-14a46.91,46.91,0,0,1-1.06-7.16c0-.6,0-.65.15-.47s.37,1.29.68,2.61c.87,3.72,1.5,6.24,1.8,7.22s.47,2.85.47,6.49a60.1,60.1,0,0,0,.38,8c.11.59.37,1.68.58,2.4a23.37,23.37,0,0,1,1.08,5.69,12.24,12.24,0,0,0,.23,1.76c.17.29.82.22,1.07-.1s.18-.44.19-2.18c0-1.07,0-5.07-.05-8.9l-.09-7-.23-.9c-.14-.49-.74-2.43-1.36-4.31-1.92-5.84-2.75-8.92-2.78-10.23v-.75l.95,0,1,0,.07.73c0,.4,0,1.16,0,1.69A10.84,10.84,0,0,0,377,246l.06.3h1.59v-.55c0-.3,0-1.19.07-2l.06-1.42,1.23-.05a9.54,9.54,0,0,0,1.36-.13c.16-.1.14-.83,0-1.07a1.22,1.22,0,0,0-.55-.31c-.31-.07-.44-.16-.49-.31s0-1.22,0-2.44-.05-2.55-.11-2.94a18,18,0,0,1-.09-3.83c.07-.48.26-1.62.43-2.56s.37-2.2.42-2.79c.15-1.65.29-6.63.34-12.55,0-2.92.08-5.57.11-5.9l.05-.59h2.07v-3c0-3.36,0-3.48-.69-5.51A23.89,23.89,0,0,0,377,189a22.72,22.72,0,0,0-5.59-4.17c-1.93-1-1.94-1-1.77-1.14a13,13,0,0,1,1.22-.46,21,21,0,0,0,5.55-3,23.44,23.44,0,0,0,4.81-5.66c1.16-1.94,2.5-5.56,2.5-6.75,0-.6-.28-.3-1,1-1.16,2.1-3,4.76-3.19,4.55a7.71,7.71,0,0,1,.28-1.18,9.28,9.28,0,0,0-.25-6.47,13.17,13.17,0,0,0-3.06-4.34,14.47,14.47,0,0,0-8.55-3.81C361,156.8,354.54,160.55,352.91,166.26Zm15.47-8.17a6.65,6.65,0,0,1,2.27.37,19.73,19.73,0,0,1,3.87,1.87,16.19,16.19,0,0,1,3.62,3.63,8.24,8.24,0,0,1,1.48,5.21,6.28,6.28,0,0,1-.82,4.09,7.07,7.07,0,0,1-3.22,3.54,18.2,18.2,0,0,1-7.65,2.74,10.7,10.7,0,0,1-3.7-.06,19.14,19.14,0,0,1-5.93-1.83,7.62,7.62,0,0,1-4.22-4.08,9.5,9.5,0,0,1,0-8.8,12.27,12.27,0,0,1,6.57-5.83,8.77,8.77,0,0,1,3.61-.85A31.23,31.23,0,0,1,368.38,158.09Zm13.12,14.73a21.57,21.57,0,0,1-2.41,4,21,21,0,0,1-3,3.08,25.82,25.82,0,0,1-3.23,2,16.43,16.43,0,0,1-9.66,1.21c-5.1-1-9.66-4.76-12.26-10.07a8.07,8.07,0,0,1-.54-1.29c-.06-.31-.06-.31.14-.18s.63.67,1.18,1.32a19.57,19.57,0,0,0,6.58,5.35,17.71,17.71,0,0,0,13.7.84,19.62,19.62,0,0,0,9-6.55C382.42,170.8,382.45,170.82,381.5,172.82Zm-18.14,10.86c.6.17.67.22.48.27l-1.14.33a17.1,17.1,0,0,0-2.19.85c-1.29.61-1.6.71-1.6.51s1-1.23,2.1-1.83A2.64,2.64,0,0,1,363.36,183.68Zm5,.26.95.38a22.75,22.75,0,0,1,10.1,8.29,21.52,21.52,0,0,1,3.26,7.08c.34,1.92.43,6.33.14,6.51a2,2,0,0,1-.7.09h-.54l0-3.29c0-3.92,0-3.86-.87-4.76-1.15-1.15-2.59-1.64-6.49-2.22-2.15-.32-2.86-.46-4-.72a1.12,1.12,0,0,0-.57-.05c-.12.12-.19,1.37-.32,6.11l-.12,4.58-1.66-.05a26,26,0,0,1-3.47-.3c-.06,0-.07-1.76,0-5.13.08-5.75.17-7.66.4-7.88a3.26,3.26,0,0,1,.93-.37,9.13,9.13,0,0,0,3.15-1.59c1.16-1.16.9-3.45-.63-5.56-.58-.8-.62-.92-.44-1.1A1.06,1.06,0,0,1,368.33,183.94Zm-.77,1.59c1.26,2,1.55,3.3.95,4.34-.42.75-2.07,1.61-3.59,1.88-1.13.2-1.1.13-1.26,2.8s-.29,2.71-1.3,1.68-1.44-2.16-2-4.62a7.69,7.69,0,0,0-1.05-2.83,5.2,5.2,0,0,1-.43-.77c0-.29,1.25.74,1.55,1.27a2.9,2.9,0,0,1,.33.91c.19,1,.39,1.27,1,1.22.26,0,.32-.09.42-.36a5,5,0,0,0,.12-1.05c0-1.2.32-1.63,1.68-2.31.89-.44,1.19-.5,1.44-.25a.83.83,0,0,1,.19.67c0,.81-.3,1.18-1.58,2-.87.57-.93.75-.28.79a4.34,4.34,0,0,0,2.09-.57c1.52-.75,2-1.4,2-2.68a2.49,2.49,0,0,0-.29-1.39,4.57,4.57,0,0,0-1.64-1.85c-.66-.38-.71-.43-.5-.51C366,183.68,366.7,184.17,367.56,185.53Zm-2-.77a7.24,7.24,0,0,1,1.58,1.69,2.74,2.74,0,0,1-.44,2.67,3,3,0,0,1-1.14.85,3,3,0,0,1,.34-.77,3.23,3.23,0,0,0,.39-1,2,2,0,0,0-.64-1.23c-.48-.37-1.33-.13-2.72.78a1.94,1.94,0,0,0-1.1,1.94c-.07.86-.16,1.16-.35,1a1.2,1.2,0,0,1-.15-.57,3.56,3.56,0,0,0-2.81-2.9,2.14,2.14,0,0,1-.52-.2c-.18-.17.48-.62,1.29-.88a19,19,0,0,0,2-.81,14,14,0,0,1,1.56-.64A5.56,5.56,0,0,1,365.57,184.76Zm-24.18.55c0,.16-.31.57-1,1.35a11.51,11.51,0,0,0-1,1.22,6.58,6.58,0,0,0,1.19,1.46l.51.52-.09,5.07c-.05,2.78-.13,8.15-.19,11.93-.24,16.37-.32,19.27-.58,20-.11.37-.34.41-.45.08-.06-.12-.06-1.88,0-4.23s.13-8,.19-13,.14-10.74.19-12.93c.17-6.73.18-6.28-.12-6.77a4.3,4.3,0,0,0-.68-.85c-.38-.36-.45-.4-.57-.29a8.5,8.5,0,0,0-.77,3c-.18,1-.38,1.42-.68,1.24-.14-.1-.17-.22-.15-.74a11.42,11.42,0,0,1,1.25-4.32,11.76,11.76,0,0,1,2.18-2.61C341.14,185,341.39,185,341.39,185.31Zm18.11,10.22,0-.26.21.27a9.87,9.87,0,0,1,.57.88,6.09,6.09,0,0,0,2.36,2.24c.61.3.92.66.78.92s-.29.23-.73,0a8.16,8.16,0,0,1-2.92-3.2A1.67,1.67,0,0,1,359.5,195.53Zm2,.69a15.14,15.14,0,0,0,1.37,1.1,1.72,1.72,0,0,1,.55.49c.09.24,0,.53-.27.53-.48,0-1.85-1.25-2.42-2.22a3.42,3.42,0,0,1-.34-.64C360.43,195.27,360.74,195.48,361.54,196.22Zm-3.15-.72c.23,0,.7.59,1.15,1.46a8.49,8.49,0,0,0,3,3c.76.41,1.09.84,1,1.25s-.2.27-1-.11a8.36,8.36,0,0,1-2.56-1.81,5.39,5.39,0,0,1-1.22-1.75c-.58-1.16-.74-1.7-.54-1.94A.38.38,0,0,1,358.39,195.5Zm-1.61.28c.35,0,.4,0,.62.4s.36.68.51,1a8,8,0,0,0,4.51,4.5,7.59,7.59,0,0,1,.8.39,1.3,1.3,0,0,1,.25,1.06c-.07.24-.12.25-.54.25a3.49,3.49,0,0,1-1.57-.54,9.87,9.87,0,0,1-4.68-4.67c-.57-1.22-.71-2.12-.38-2.33A1.15,1.15,0,0,1,356.78,195.78Zm14.33.57c-.27.79-.87,1.61-1.05,1.43s0-.68.42-1.34S371.35,195.67,371.11,196.35Zm1.67.37a7.29,7.29,0,0,1-2,2.93c-.56.53-.74.57-.79.18s.18-.83.84-1.79a11.11,11.11,0,0,0,.76-1.27,1.36,1.36,0,0,1,.37-.52C372.42,196,372.89,196.28,372.78,196.72Zm1.57-.15c.3.1.33.15.36.5a2.37,2.37,0,0,1-.43,1.28,10.1,10.1,0,0,1-3.16,3.67c-.92.62-1.34.49-1.14-.37.11-.51.24-.68.9-1.26a10.27,10.27,0,0,0,2.09-2.74,7.9,7.9,0,0,1,.62-1C373.81,196.42,373.88,196.41,374.35,196.57Zm-19.8-.13c.25,0,.57.25.57.44s.37,1.31.82,2.79c3.08,10.19,2.89,9.42,2.35,9.35s-.61-.43-1.23-2.27a9.16,9.16,0,0,0-1.13-2.73c-.2-.17-.42-.05-.57.31-.25.59-.23.59-2.91.62L350,205v-.22c0-.76.29-4.54.39-5.07a2.84,2.84,0,0,1,.84-1.77,10.85,10.85,0,0,1,2.59-1.32A2.56,2.56,0,0,1,354.55,196.44Zm22.18.49a7.49,7.49,0,0,1,2,.54c1.72.62,2.48,2.1,2.48,4.82a21.35,21.35,0,0,1-.51,4.07,17,17,0,0,1-1.88-.06c-2.08-.12-2.44-.22-2.56-.75-.06-.25-.12-.3-.38-.3-.43,0-.91.58-1.54,1.88-.87,1.81-.94,1.94-1.11,2a.22.22,0,0,1-.24,0c-.08-.09.05-.63,1.42-5.42.62-2.18,1.26-4.44,1.41-5s.37-1.22.46-1.44S376.45,196.92,376.73,196.93Zm-1.68,2.36c-.34,1.17-1,3.64-1.56,5.49s-1,3.6-1.11,3.88c-.17.51-.19.52-.58.55s-.4,0-.33-.24c.16-.73.64-2.53.89-3.28.15-.48.42-1.49.6-2.25a16.61,16.61,0,0,1,1.47-4.18A9.35,9.35,0,0,0,375,198a3.23,3.23,0,0,1,.33-.74C375.82,196.53,375.8,196.74,375.05,199.29Zm-18.65-.08a10.12,10.12,0,0,1,1.75,2.43,49.63,49.63,0,0,1,2.07,7.23c0,.25-.08.32-.29.34-.43,0-.55-.22-2-5-.45-1.44-1-3.15-1.18-3.81A7.55,7.55,0,0,1,356.4,199.21Zm16.38,2.25s0,.12,0,.26c-.21.9-1.17,4.49-1.55,5.8l-.44,1.56-.34.07c-.42.1-7.7.12-8.49,0a2.34,2.34,0,0,1-.74-.18,6.32,6.32,0,0,1-.53-1.24c-.4-1.2-1.69-5.47-1.69-5.61s.06,0,.15.15a.45.45,0,0,0,.31.21,3.73,3.73,0,0,1,.92.41A12.07,12.07,0,0,0,363,204l.55.15v2.27h6.2l0-1.29c0-1.51,0-1.55.9-2.13.33-.23.93-.65,1.33-1S372.76,201.46,372.78,201.46Zm-17,3.7c.25,0,1.82,5,3.06,9.7a18.69,18.69,0,0,1,.25,5.54c-.22,3.56-.31,3.94-2.88,12.5-2.82,9.39-3,10.21-3.14,12.08a24.88,24.88,0,0,1-1.11,6.63c-.61,2.18-1.26,5-1.88,8.14-.26,1.36-.67,3.18-.9,4.07s-.58,2.36-.78,3.27a6.74,6.74,0,0,1-1.62,3.62,11,11,0,0,1-2.64,2.27,15.51,15.51,0,0,1-3.51,1.77c-.21,0-.21,0,.12-.55a3.15,3.15,0,0,0,.41-2.21,3.56,3.56,0,0,0-.24-1.34c-.42-.92-.43-1.3-.37-11.09.09-15.06.29-24.79.54-25.85a.76.76,0,0,1,.3-.51,16.26,16.26,0,0,0,2.47-2.81c2-2.6,6.07-7.54,7.63-9.32a9.28,9.28,0,0,0,2.52-5,28.67,28.67,0,0,0,.81-5,34.12,34.12,0,0,1,.73-5.29A1.84,1.84,0,0,1,355.8,205.16Zm-6,.28,2.2,0c1.21,0,2.36,0,2.55,0l.36,0V206c0,.83.07.81-2.69.84l-2.42,0v-1.43Zm25.76.35s.09,1.88.13,4.26c.12,8.25.25,18.27.26,20.56v2.3l-.56.83a4.17,4.17,0,0,0-1.08,2.78,7.9,7.9,0,0,0,.25,3.17c.14.19.22.23.43.19s.27,0,.36.32,0,.56-.28.56a.82.82,0,0,0-.4.29l-.24.29-.15-.23c-.4-.6-.81-2.78-1.42-7.56a47.75,47.75,0,0,0-1-5.85,34.9,34.9,0,0,1-1-7.86c-.06-2.58,0-3.21.5-4.32.18-.41.47-1.11.63-1.56.4-1.11,1.74-4.25,2.71-6.34C375.15,206.65,375.54,205.83,375.58,205.79Zm5.11,1.26c.28.18,0,.42-.62.5a16.47,16.47,0,0,1-3.67-.11c-.17-.17,0-.29.66-.39A18.14,18.14,0,0,1,380.69,207.05Zm-30.87.28h2c2.93,0,2.87,0,2.79.89-.05.47-.09.61-.31.8s-.28.22-1.92.17-2.31-.15-2.48-.44a3.1,3.1,0,0,1-.09-.8Zm26.39.76h4.58V210l-2.2-.06c-1.21,0-2.21-.08-2.23-.1a7,7,0,0,1-.08-.89Zm-23,1.71c.6,0,1.1.07,1.11.08a10.07,10.07,0,0,1-.11,2.19,26.52,26.52,0,0,1-1.29,6c-.4,1-.8,1.52-2.66,3.66-.92,1.06-2.07,2.42-2.56,3-.78.94-.94,1.09-1.16,1.07a4.9,4.9,0,0,1-2.23-1.9,2.69,2.69,0,0,1,.39-.79c.21-.33.86-1.46,1.43-2.5s1.41-2.5,1.84-3.24c1.36-2.29,1.32-2.2,1.69-5.38a14.47,14.47,0,0,1,.34-2.18A13.67,13.67,0,0,1,353.23,209.8Zm18.42,0c1.08.11,1.18.14,1.18.37a.37.37,0,0,1-.17.32c-.33.17-2.42.2-6.27.11-6.9-.17-8.77-.34-8-.72C358.57,209.85,370.85,209.79,371.65,209.85Zm4.56.61h4.6l-.05,5.27c-.07,6.78-.22,9.21-.77,12.48l-.21,1.24-1.12,0c-.63,0-1.34,0-1.59-.08-.41,0-.45-.07-.49-.35-.09-.58-.25-7.08-.31-12.78Zm-17.75.48c0-.09,12.8.22,13.54.33l.34.06-.14.49c-.08.27-.5,1.42-.93,2.57s-.86,2.33-1,2.64c-.21.67-.52,1-1.78,1.66a30.81,30.81,0,0,1-5.8,2.38c-2.4.75-2.76.78-3,.22a12.12,12.12,0,0,1-.09-1.86,26.19,26.19,0,0,0-.91-7.16C358.58,211.57,358.45,211,358.46,210.94ZM370,218.41c.1,0,.17.38.32,2,.22,2.21.32,2-1.09,2.32a42.23,42.23,0,0,1-7.41,1l-1.11.05V223a1.71,1.71,0,0,1,.11-.84,1.81,1.81,0,0,1,.6-.16,31.78,31.78,0,0,0,8-3.21A5.32,5.32,0,0,1,370,218.41Zm-9.86,4.64c0,.34-.18.67-.37.67s-.4-.7-.17-1.13S360.14,222.34,360.14,223.05Zm10.26.44a15.25,15.25,0,0,1,.47,3.26,7.83,7.83,0,0,1-.35,2c-.46,1.77-.45,2,.17,4.46a29,29,0,0,1,1,5.21c.05.68.18,1.84.28,2.58a5.77,5.77,0,0,1,.1,2.43c-.15.1-.82-.48-1.69-1.47a75,75,0,0,1-9.88-15.65c-.67-1.41-.81-1.8-.68-1.88a13.84,13.84,0,0,1,1.64-.2c2.12-.21,5-.58,6.67-.87C370.51,223,370.23,223,370.4,223.49Zm-25.84,1.61c1.14.92,1.47,1.28,1.47,1.57,0,.57-.37.44-1.57-.53-.84-.68-1.11-1-1.06-1.31S343.84,224.51,344.56,225.1Zm14.53.15c.11-.2.28.1,1.82,3,4.08,7.7,6.48,11.35,9.53,14.53a6.29,6.29,0,0,1,.78.91c0,.06-.07.13-.17.17s-11.9.07-15.08,0l-2.33-.06.13-.62c.19-.92.52-2.05,2.74-9.35.65-2.14,1.48-4.9,1.84-6.14S359.05,225.33,359.09,225.25ZM344,226.37c1,.8,1.33,1.12,1.29,1.36-.05.41-.42.3-1.33-.4-1.4-1.07-1.58-1.3-1.28-1.6S343,225.6,344,226.37Zm-1.79.29a6.47,6.47,0,0,1,.93.68c.44.38.94.79,1.11.93l.32.24-1,1.37c-1.08,1.42-1.66,2.07-1.79,1.94a1.33,1.33,0,0,1,.21-.58c.26-.47.27-.54.14-.73s-.18-.31-.24-.45l-.27-.57a5.66,5.66,0,0,0-.61-.83l-.45-.51-1.39.72c-1.61.82-2.32,1.07-2.63.91s-.16-.22.43-.42a10.67,10.67,0,0,0,1.52-.73c.58-.32,1.48-.79,2-1a9.38,9.38,0,0,0,1.3-.7A1,1,0,0,1,342.17,226.66Zm29.29,1.92a15.78,15.78,0,0,1,.76,3.85c.75,5.73.85,6.34,1.52,8.9.24.91.64,2.53.89,3.6a113.35,113.35,0,0,0,3.38,11c.54,1.36.56,1.63.69,8.43.05,2.79.15,6.42.2,8.06.1,2.8.07,3.88-.1,3.88a5.61,5.61,0,0,1-.38-2,20.81,20.81,0,0,0-.87-4.36c-1-3.63-.93-3.34-1-9.28,0-2.87-.13-5.59-.18-6.06s-.37-1.94-.71-3.26c-.72-2.86-2.45-10-2.61-10.85-.06-.31-.46-2-.9-3.64-1.56-6-1.61-6.35-1.24-7.45S371.26,228.27,371.46,228.58Zm-31.13.55a5.2,5.2,0,0,1-1.63,1.16c-.71.35-1.29.45-1.29.21s.17-.3.76-.48a2.46,2.46,0,0,0,.75-.39,2.3,2.3,0,0,1,.73-.42C340.25,229,340.38,229,340.33,229.13Zm.77.69c.15.19-.13.49-.88,1-1.22.79-2.41,1.23-2.58,1s.37-.53,1.78-1.28S341,229.66,341.1,229.82ZM378,230c1.44,0,1.56.05,1.51.54,0,.23-.09.27-.46.34a9.4,9.4,0,0,1-1.41,0c-.82,0-1-.07-1.11-.21s-.17-.38,0-.56S377,230,378,230ZM341.34,231c.1.14-.3.61-.9,1.06-.9.69-2.29,1.14-2.15.7a9.61,9.61,0,0,1,2-1.38C341.12,231,341.28,230.9,341.34,231Zm35.23.51,1.09,0c1.36,0,1.55.05,1.59.64l0,.4-1.18,0c-1.36,0-1.6-.16-1.56-.69Zm-35.65,1.17a4,4,0,0,1-1.79,1c-.53.11-.31-.13.52-.58S340.92,232.53,340.92,232.7Zm35.56.39h2.87l.12,1a17.92,17.92,0,0,1,.13,2.16c0,1,0,1.23-.19,1.48-.26.46-.65.6-1.58.6-1.34,0-1.73-.19-1.86-.88s-.17-.64-.41-.35-.18.32-.12,1,0,1.11-.3,1.11-.29-.31-.37-1.13a6.86,6.86,0,0,1,.34-2.77c.12-.23.47-.8.79-1.28Zm-36.41,1.2c.15.34.15,6.62,0,19.16-.07,4.87-.1,10.6-.08,12.74l0,3.88.33.71a3.35,3.35,0,0,1,.36,1.47c.05.88,0,.85-.35-.11-.23-.75-.36-.88-.9-.88-.71,0-1,.31-1.16,1.13,0,.26-.09.35-.13.28a3.67,3.67,0,0,1,.37-1.86c.42-1,.46-1.73.58-10.06.25-19.51.37-24.43.58-25.9C339.8,234.07,339.91,233.9,340.07,234.29Zm39.67,4.57c.24.45,0,1.17-.72,1.9l-.44.48h.56a3.46,3.46,0,0,1,1.34.22c.15.16-.24.29-1.13.36a3.94,3.94,0,0,0-1.07.18,8.16,8.16,0,0,0-.15,1.73c-.05,1.62-.15,2.05-.41,2.05s-.23-.39-.3-2.22a10.8,10.8,0,0,0-.16-1.69c-.06-.13-.21-.16-.86-.16-.89,0-1.17-.11-.88-.33a1.52,1.52,0,0,1,.83-.14,2.87,2.87,0,0,0,.65,0,4.62,4.62,0,0,0-.47-.49,1.45,1.45,0,0,1-.52-.9c-.07-.5.06-.94.28-.94s.26.24.44.63c.38.87.69,1.26,1,1.26s.71-.42,1.09-1.1a6.12,6.12,0,0,1,.5-.77C379.54,238.63,379.61,238.62,379.74,238.86Zm-1.74.83c-.19.23-.24.24-.38.14a.65.65,0,0,1,0-.87C378.21,238.67,378.46,239.16,378,239.69Zm-11.92,4.6c2.46.07,4.83.18,5.32.24l.62.07.12.47c.58,2.26,1.52,6.7,1.79,8.42.43,2.84.45,3.43.46,10.57,0,6.74,0,6.9.27,9.28.42,3.94.37,4.35-.53,4.77a2.55,2.55,0,0,1-.75.25,5.73,5.73,0,0,1-1.31-.64l-1.09-.64h-.85a9.71,9.71,0,0,0-1.8.22,27.12,27.12,0,0,1-8.8.48c-.57-.22-.18-.37,1.51-.61a4.76,4.76,0,0,0,1.61-.45c.31-.16,1.29-.6,2.18-1,3.34-1.43,4.4-2,5.35-3,.75-.75.85-1,.92-2.42a18.91,18.91,0,0,0-.82-5.6A113.65,113.65,0,0,1,367.39,250a7.83,7.83,0,0,0-.81-2.84,19.79,19.79,0,0,1-.95-2.76S365.83,244.28,366.08,244.29Zm-10.48,0c.27,0,4.7.08,5.08.13.19,0,.14.22-.17.67a8.12,8.12,0,0,0-1,2.13c-.24.82-.94,4.1-1.38,6.56a26,26,0,0,1-2.47,7.88,34.14,34.14,0,0,0-3,7c-.08.39-.39,1.56-.68,2.59a18.77,18.77,0,0,0-.89,4c-.09,1.07-.19,1.39-.48,1.71s-.62.27-1.88-.17a4.67,4.67,0,0,0-3.16-.38,27.25,27.25,0,0,1-5.69.42c-2.45,0-3.26-.06-3.33-.28s.27-.22,1.82-.61a17.32,17.32,0,0,0,4-1.47,16,16,0,0,0,5.19-3.9,8.68,8.68,0,0,0,1.38-3.62c.19-.87.56-2.42.8-3.46s.57-2.54.72-3.32c.22-1.31.83-3.84,2.09-8.7a34.69,34.69,0,0,0,1-5.27,12.31,12.31,0,0,1,.25-1.59c.1-.3.1-.3.77-.3C355,244.36,355.42,244.34,355.6,244.32Z" transform="translate(0 -3.36)"/><path class="cls-3" d="M163.08,139.23l1-.55-1-.28a30.27,30.27,0,0,0-4.55-.31c-5-.08-6.45-1.11-9.46-7.05-1.27-2.54-1.27-2.89-.08-5.43,1.58-3.24,1.82-6.37.36-4.51-.2.28-1.07,1.62-1.87,3-1.82,3-2.65,3.13-4.15.52-1.23-2.1-2.18-2.82-2.85-2.14-.4.39-.24,1,.55,2.53,1.62,3.13,1.47,4.16-1.19,7.17-4,4.55-6.17,9-4.27,8.71a32.43,32.43,0,0,0,4-1.67c3.4-1.66,4.43-1.86,5.18-1.1s.56,3.6-.43,5.46c-1.39,2.65-2.26,3.09-7.21,3.6-4.08.44-5.34.79-5.34,1.55,0,1.38,11.87,1.62,12.86.23" transform="translate(0 -3.36)"/><path class="cls-3" d="M146.77,147.59c-2,1.74-1.5,1.94,1.27.55a17.33,17.33,0,0,1,4.83-1.38c1.58-.24,5.11-1,7.8-1.79s5.07-1.38,5.26-1.38c.56,0,3.09,2.45,2.85,2.81-.11.2-2.17.36-4.55.36-4.12,0-4.35,0-4.67.87-.63,1.58.32,2,4.08,2a67,67,0,0,0,11.84-1.31c2.13-.55,2.53-1.66,1.5-4.08-1.35-3.09-1.11-4.39,1.9-10.53,2-4.08,3-5.22,4.35-5.07s1.63-1.14.32-1.62a2,2,0,0,1-1.19-1.58c-.27-1.39-.47-1.43-1.86-.64a2.51,2.51,0,0,1-1.66.36c-.51-.16-.71.16-.87,1.7-.71,6-2.77,11.64-4.32,11.92a3.3,3.3,0,0,1-1.9-.87,4.56,4.56,0,0,0-4.75-.64c-1.18.64-.91,1.07.83,1.31" transform="translate(0 -3.36)"/><path class="cls-2" d="M346.35,74.51c-6.64,1.3-10.18,3.3-15.87,9.2Q316.65,98,328.55,99.91c6.54,1,50.29.7,53.3-.4,1.6-.5,2.78-1.7,2.78-2.8,0-2.4-6.75-12.9-11-17C368,74.41,357.83,72.41,346.35,74.51Zm17.48,4.6c6.22,2.7,13.94,9.9,15,13.9a6.56,6.56,0,0,1,.22,3.1c-2.57,2.3-42.79,3.2-48.25.9a3.1,3.1,0,0,1-1.93-2.7c0-2.8,12.76-14.4,18.44-16.8C352.68,75.21,355.79,75.51,363.83,79.11Z" transform="translate(0 -3.36)"/><path class="cls-2" d="M47.47,210.92a12.18,12.18,0,0,0-6.72,4.87c-7.09,9.64-5.47,18.3,4.5,24.26,1.79,1.08,3.3,1.46,6.33,1.68,3.58.22,4.28.11,7-1.25,3.41-1.73,8.07-6.39,9.21-9.2,1-2.39,1.08-10,.1-12.35s-4.71-5.58-7.85-7C57.27,210.7,49.85,210.1,47.47,210.92Zm11.15,3c2.5,1.62.87,2.16-6.39,2.16s-8.33-.54-4.65-2.38c1.89-1,3-1.14,6-1A12.11,12.11,0,0,1,58.62,214Zm5,5.47c4.22,1.19-2.82,2.54-13.54,2.6-5.8,0-8.72-.16-9.1-.6-1-.92.92-1.73,5.52-2.33C50.5,218.61,61.39,218.82,63.61,219.42Zm.48,5.41c1.57.44,2.06,1.9.92,2.77-.7.54-3.73.7-11.15.7-5.74,0-10.18.22-10.18.49,0,.75,4.93,1.3,12.45,1.35a42.83,42.83,0,0,1,7.48.49c1.13.76.75,2.54-.76,3.08s-19.6.76-21,.22c-.6-.22-.87-1-.87-2.54A4.82,4.82,0,0,0,39.89,228c-1-1-1-1.3-.33-1.84a8.5,8.5,0,0,1,3.09-1.09C45.36,224.56,62.31,224.35,64.09,224.83ZM56.73,237c2.11,1.14,1.19,2.06-2.44,2.44-3.46.38-7.36-.32-7.36-1.35C46.93,236.86,54.89,236,56.73,237Z" transform="translate(0 -3.36)"/><path class="cls-2" d="M210,231c.83.54,1.71-1,2-3.81a7.11,7.11,0,0,1,3.81-6c1.52-.88,2.55-1,10.95-1,9.29,0,17.11.83,18.53,1.86.64.53.64,1,.05,3.76-.88,3.91-.93,6.21-.15,6.65s1.67-1,2-3.47a11,11,0,0,1,2.83-6.16c2.11-2.1,2.59-.15.93,3.71-1.22,2.79-1.27,5.53-.19,6s1.66-.64,1.66-2.45,1.22-4.69,2.35-5.57c1.85-1.51,4.4-2.2,9.53-2.59,5.91-.44,7.43-1.08,4.45-1.91a16.05,16.05,0,0,0-3.43-.53c-6.15,0-11.58-5.09-13.15-12.37-.14-.78-.53-1.32-.88-1.18-1,.35-.53,4.75.84,8.12s1.17,4.45-.74,3.42c-2.44-1.27-4.84-5.77-4.84-9.14,0-2.2-.58-3.52-1.66-3.52-.44,0-.15,7.77.49,11.29l.29,1.81-14.56.25c-15.75.24-17.65.48-19.17,2.68C210,223.61,208.72,230.26,210,231Z" transform="translate(0 -3.36)"/><path class="cls-3" d="M294.51,254.54c2.9-1.9,7.8-7.31,9.32-10.5,1.09-2.13,1.37-3.46,1.52-6.84.23-6.74-1.33-9.5-6.27-11.07-6.56-2-12.17,1.43-12.22,7.56a7.5,7.5,0,0,0,2.62,6c1,1,1.76,1.19,4,1.19,3.47,0,4.32-.67,4.32-3.28,0-1.95-1-4.09-2-4.09" transform="translate(0 -3.36)"/><path class="cls-2" d="M91.35,84.73c1,.73,4.21,1.67,7.26,2.11,17.51,2.39,18.6,2.68,21.36,5.74,2,2.17,3.34,2,3.34-.59s2.1-5.3,5.59-7c2.47-1.24,4.65-1.38,21.43-1.38,13.94,0,18.88-.22,19.54-.87,2.18-2.18-.66-2.62-19.11-3.13-14.89-.43-18.95-.8-21.5-1.81-3.7-1.53-5.95-4.14-5.95-7,0-2.54-.51-2.61-3.64-.29-3.41,2.55-6,3.05-17.43,3.64-9.88.5-11.26.87-12.42,3.63C88.73,80.3,89.38,83.35,91.35,84.73Zm2.83-6.61c1.38-.73,15.47-2.18,21.28-2.18h2.76v3.49c0,6.1-.36,6.68-4.5,6.68-4.43,0-17.87-2-19.69-3S92.44,79.07,94.18,78.12Z" transform="translate(0 -3.36)"/><path class="cls-5" d="M230.34,122.8a12.55,12.55,0,0,0-1.83,2.44,40.9,40.9,0,0,1-3,4c-1,1.12-2.58,3.19-3.59,4.57s-2.21,3-2.7,3.64c-1.48,1.88-1.17,2.35,2.09,3.36a9.25,9.25,0,0,1,2.28.92,3.73,3.73,0,0,1,.49,1.45,8.59,8.59,0,0,0,.61,2.16,7.38,7.38,0,0,1,.45,1.27,5.44,5.44,0,0,1-1.06,1.36c-1.08,1.15-1.46,2.3-.66,2s3.45-.58,8.62-.8a36.36,36.36,0,0,0,5.59-.44c.44-.45-.52-.75-2.89-.94-3.19-.26-3.81-.59-4.67-2.47-1-2.13-1.32-3.71-1-5,.17-.61,1.22-3.2,2.4-5.73a59,59,0,0,0,2.46-6.11,6.68,6.68,0,0,1,1.65-3.4,6.82,6.82,0,0,0,.8-1.1,13,13,0,0,0-3.06-1.58A4,4,0,0,0,230.34,122.8Zm-3.76,11.34c.07.93.14,1.05.68,1.12s1-.21,1.83-.89c.68-.54,1.3-.92,1.39-.82.44.44-2.77,4.95-4.16,5.8-1.59,1-5.82.58-6.27-.64a3.49,3.49,0,0,1,.9-1.62l2.18-2.79a8.81,8.81,0,0,1,1.81-1.9C226.18,131.65,226.46,131.93,226.58,134.14Z" transform="translate(0 -3.36)"/><rect class="cls-7" x="1.5" y="36.21" width="401" height="253" rx="12"/><line class="cls-8" x1="441.63" y1="162.71" x2="492.15" y2="162.71"/><polyline class="cls-8" points="491 173.5 502.35 163.28 492.13 151.93"/><path class="cls-1" d="M687.4,55.23a.58.58,0,0,1-.16-.4V42.23a.57.57,0,0,1,.16-.41.59.59,0,0,1,.4-.14h4.53q6.07,0,6.07,5.86v7.29a.52.52,0,0,1-.55.55H687.8A.55.55,0,0,1,687.4,55.23Zm8.94-1.69V47.66c0-2.76-1.38-4.13-4.13-4.13h-3v10Z" transform="translate(0 -3.36)"/><path class="cls-1" d="M709.76,55.23a.61.61,0,0,1-.41.15h-1c-.32,0-.51-.18-.56-.55L707.21,52a7.12,7.12,0,0,1-2,2.14,9.35,9.35,0,0,1-1.65.92,8.68,8.68,0,0,1-1.64.5l-.16,0c-.28,0-.41-.13-.41-.38V54.09c0-.27.17-.47.5-.6l1-.33a7.13,7.13,0,0,0,1.57-.75,7,7,0,0,0,1.42-1.26,5.86,5.86,0,0,0,1-1.5l-.43-2.19a14.57,14.57,0,0,0-.61-2.24,2.94,2.94,0,0,0-.88-1.26,2.26,2.26,0,0,0-1.44-.43h-.89a.55.55,0,0,1-.55-.55v-.8a.55.55,0,0,1,.55-.55h.89a4.57,4.57,0,0,1,2.52.63,4.19,4.19,0,0,1,1.56,1.84,14.77,14.77,0,0,1,1,3.24l1.46,7.49A.46.46,0,0,1,709.76,55.23Z" transform="translate(0 -3.36)"/><path class="cls-1" d="M721.79,41.84a.5.5,0,0,1,.16.39V43a.55.55,0,0,1-.55.55h-1.47a2.77,2.77,0,0,0-.53,1.13,7.29,7.29,0,0,0-.19,1.72v8.48a.5.5,0,0,1-.15.38.56.56,0,0,1-.4.14h-1a.48.48,0,0,1-.38-.14.5.5,0,0,1-.15-.38V46.24a8,8,0,0,1,.16-1.66,2.57,2.57,0,0,1,.44-1h-6.6a.55.55,0,0,1-.55-.55v-.75a.55.55,0,0,1,.55-.55H721.4A.5.5,0,0,1,721.79,41.84Z" transform="translate(0 -3.36)"/><path class="cls-1" d="M733.71,42.39a4.84,4.84,0,0,1,1.81,2,6.9,6.9,0,0,1,.66,3.12v7.29a.61.61,0,0,1-.14.4.53.53,0,0,1-.39.15h-6.19a.52.52,0,0,1-.55-.55v-.74a.52.52,0,0,1,.55-.55h4.63V47.68a5.2,5.2,0,0,0-.42-2.16,3.45,3.45,0,0,0-1.16-1.45,2.86,2.86,0,0,0-1.68-.52h-2.57l-1.85,11.26a.65.65,0,0,1-.19.41.56.56,0,0,1-.41.16h-1a.43.43,0,0,1-.37-.16.54.54,0,0,1-.11-.41l1.92-11.23H725a.53.53,0,0,1-.39-.16.52.52,0,0,1-.16-.4v-.79a.55.55,0,0,1,.55-.55h6A5,5,0,0,1,733.71,42.39Z" transform="translate(0 -3.36)"/><path class="cls-4" d="M737.17,136.39s-4.56,0-5.21-.37c-8.93-4.84-14.51-3.72-21.58-.38a16.08,16.08,0,0,1-5.2.75" transform="translate(0 -3.36)"/><path class="cls-4" d="M737.54,141.6v-1.86s-4.56,0-5.21-.38c-8.93-4.83-14.51-3.72-21.57-.37a16.47,16.47,0,0,1-5.21.75" transform="translate(0 -3.36)"/><path class="cls-4" d="M732.89,141c-7.63,5-19.9,2.42-21.76-.19a93.3,93.3,0,0,0,10.81,10.66c3,2.38,6.1,4.22,8.53,4.22,2.12,0,5.17-1.45,5.21-3.72,0-1.9-1.22-3.81-3-3.35-1.37.37-2.35,1.61-1.86,2.61.37.74.73.65,1.86.37" transform="translate(0 -3.36)"/><polyline class="cls-4" points="712.14 138.71 712.62 151.63 708.9 144.19"/><ellipse class="cls-4" cx="719.68" cy="135.82" rx="3.91" ry="2.98"/><path class="cls-5" d="M850.08,199.06a3.22,3.22,0,0,0-2.82,2.65,4.36,4.36,0,0,0,0,1.35,3.2,3.2,0,0,0,2.69,2.58,4.27,4.27,0,0,0,1.13,0,3.22,3.22,0,0,0,2.69-2.58,4.69,4.69,0,0,0,0-1.35,3.22,3.22,0,0,0-2.38-2.57A3.93,3.93,0,0,0,850.08,199.06Z" transform="translate(0 -3.36)"/><path class="cls-5" d="M841.51,201.74s.06.47.13,1a10.21,10.21,0,0,0,.46,2.32,9.72,9.72,0,0,0,1.47,2.8,10.76,10.76,0,0,0,1.56,1.6,8.46,8.46,0,0,0,7.22,1.74,9,9,0,0,0,5.12-3.34,9.72,9.72,0,0,0,1.47-2.8,10.12,10.12,0,0,0,.47-2.32c.06-.51.12-.95.12-1s0-.06,0-.05l-.5.86c-.26.46-.55,1-.66,1.11a9.19,9.19,0,0,1-7.11,4.37,11.6,11.6,0,0,1-1.78,0,9.39,9.39,0,0,1-2.86-.85,9.69,9.69,0,0,1-3.41-2.74,12.73,12.73,0,0,1-1.18-1.86c-.26-.46-.49-.84-.5-.86S841.5,201.69,841.51,201.74Z" transform="translate(0 -3.36)"/><path class="cls-5" d="M850.27,211.43l-.52,1.34-2,5.36-2.17,5.68-1.43,3.72h12.57s-.35-.92-.8-2-1.33-3.35-2-4.95c-3.4-8.56-3.6-9.07-3.62-9.11S850.28,211.42,850.27,211.43Z" transform="translate(0 -3.36)"/><path class="cls-6" d="M582.6,90.28a13.87,13.87,0,0,0-8,3.86,11.74,11.74,0,0,0-2.28,13.59l.68,1.54v1.31a8.21,8.21,0,0,1-1.13,4.18,4.32,4.32,0,0,0-.42,1.18c.31.31,2.72-1.91,3.46-3.17l.46-.8a9.27,9.27,0,0,1,1.19.63,22.19,22.19,0,0,0,4,1.78,5.25,5.25,0,0,1,1,.42s-.22.18-.56.28l-2.23.6a22.65,22.65,0,0,0-5.81,2.64,25.13,25.13,0,0,0-5.09,5.39,24.61,24.61,0,0,0-3,7.1,32.65,32.65,0,0,0-1,8.4l-.07,3.13h4c3.74,0,4,0,4.45.23,1.32.64,2.8,3.77,3.81,8a11.82,11.82,0,0,1,.32,3.74,29.12,29.12,0,0,1-1,7.77c-1.31,5.08-1.58,7.58-1.26,11.4.4,4.64,1.68,13.62,2.79,19.47a59.91,59.91,0,0,1,1,5.93c.43,3.94.33,8.59-.19,10.6a20.77,20.77,0,0,0-.69,4.9,108.9,108.9,0,0,0,.53,13.39,15.29,15.29,0,0,0,.67,3.53c.41,1.36.45,1.74.56,5.71a41.37,41.37,0,0,0,.25,4.31c.2.75.38.78,2.93.6,1.33-.09,2.84-.11,3.92-.07,2.31.11,18.85.12,20.07,0s1.33-.2,1.14-.49-.89-.61-2.76-1.11a38.27,38.27,0,0,1-5.28-1.74c-3.2-1.26-5-2.22-6.09-3.33s-1.24-1.51-1.53-6.62c-.6-11.16-.73-18.31-.39-21.37.21-1.82.31-3.05.63-8.31a24.32,24.32,0,0,1,.94-6.6,52.57,52.57,0,0,0,2.22-13.05,47.69,47.69,0,0,0-1-12.7,44,44,0,0,1-1.27-10.82c-.1-5.7,0-5.88,2.75-7.55l.83-.51.16.51c.08.27.36,1.44.63,2.58a34.41,34.41,0,0,0,3.59,9.6c2.57,5.12,3.2,6,7,9.75,3.23,3.23,6.92,6.72,7.68,7.29a1.17,1.17,0,0,1,.59.9c.15.77.1,27.16,0,42.92-.09,7.44-.11,13.79-.05,14.13.08.58.09.59.62.73a5.6,5.6,0,0,0,1.08.14l.54,0,.07-3.59c0-2,.13-8.94.2-15.47.31-29.32.38-34.44.48-36.39l.11-2.08,1.34-1.31a14.32,14.32,0,0,1,2-1.71c.45-.25.7-.48.75-.67.16-.64-.76-1.4-2.84-2.32l-1.41-.63.07-21.73c0-12,.1-22.07.15-22.5a2.3,2.3,0,0,1,.52-1.32,14.74,14.74,0,0,0,1-1.74,15.88,15.88,0,0,1,1-1.75,2.11,2.11,0,0,0,.42-.7c0-.39-1.38-1.2-2.55-1.48a10,10,0,0,0-3.57,0c-1.46.39-2.43,1-2.43,1.52a1.37,1.37,0,0,0,.28.6,10.24,10.24,0,0,1,.73,1.26,12.16,12.16,0,0,0,1.6,2.49l.43.54-.09,10.92c-.14,16.12-.34,31.64-.42,32.14s-.37.59-1.3,0c-1.38-.89-2-1.83-3.48-5.15a55.55,55.55,0,0,0-5.7-10.19c-.84-1-.84-1-1.67-6.17-.26-1.67-.66-4-.88-5.23l-.4-2.18,2-2.92c1.08-1.61,2.21-3.22,2.51-3.6a13.3,13.3,0,0,0,2.49-3.94,11.67,11.67,0,0,0,.49-3.2c0-.59-.19-1.37-.32-1.37a2.74,2.74,0,0,0-.52.37c-.25.2-.46.32-.46.26s.21-.75.47-1.52A17.72,17.72,0,0,0,610,121a2,2,0,0,0-1.34-1.23,1.75,1.75,0,0,0-1.72.46c-.56.58-2.4,6-3.2,9.46q-.79,3.5-2.09,4.73c-.46.45-.71.32-1.22-.63a8.2,8.2,0,0,0-4.07-3.55,10.87,10.87,0,0,0-3.63-.86,4.64,4.64,0,0,1-3.86-1.88l-.36-.37.39-.36c.59-.52,1.12-.51,2,.06a3.23,3.23,0,0,0,2,.67c1.61,0,3.38-1.87,4.1-4.33.32-1.08.33-1.49.1-2a8,8,0,0,0-3.1-2.39,8.37,8.37,0,0,1-1.6-1.24,4.2,4.2,0,0,0-2.67-1.44c-.78-.13-.91-.24-.82-.72s.05-.41-.3-.55-.34-.19-.22-.29a25.84,25.84,0,0,1,3.94-1.67c.23,0,.26.14.33,1a4.16,4.16,0,0,0,1,2.67c.34.28.44.31,1,.25,1-.1,1.55-.51,2.52-1.8,1.09-1.45,1.35-2,1.33-3,0-.71,0-.74.31-.82.6-.15.66-.56.12-.89a2,2,0,0,0-1.74-.06c-.74.32-.93.59-1.09,1.53-.39,2.42-.73,3.34-1.25,3.34s-.59-.58-.59-2.16v-1.44l1.12-1.63a15.32,15.32,0,0,0,2.29-4.51,8.55,8.55,0,0,0,.26-3,9.19,9.19,0,0,0-1.06-5A13.58,13.58,0,0,0,582.6,90.28Zm4.25.6a12.89,12.89,0,0,1,9.52,7.23,7.77,7.77,0,0,1,.94,4.34,9.28,9.28,0,0,1-1,4.71,11.43,11.43,0,0,1-5.53,5.67,12.93,12.93,0,0,1-3.29,1.2,2.41,2.41,0,0,1-1.47,0,2.1,2.1,0,0,0-1.45,0,6.09,6.09,0,0,1-3.48-.18,12.16,12.16,0,0,1-8.39-7,10.41,10.41,0,0,1-.48-7.6C574,93.47,580.65,89.68,586.85,90.88ZM574.24,110.6A2.88,2.88,0,0,1,574,113c-.35.7-.63,1-.77.86a31.84,31.84,0,0,1,.59-3.28C573.89,110.2,574,110.21,574.24,110.6Zm23.53.81a3.15,3.15,0,0,1-.27,2,7.33,7.33,0,0,1-1.38,1.75,1.87,1.87,0,0,1,.13-.64,20.39,20.39,0,0,0,.41-2.91,2.54,2.54,0,0,1,.31-.45C597.41,110.6,597.65,110.68,597.77,111.41Zm-3.43,4.44c.33.44.31.68-.06.49a2.05,2.05,0,0,1-.77-1.33c-.25-1-.19-1.06.17-.28A7.21,7.21,0,0,0,594.34,115.85Zm-9.23-.2a6,6,0,0,1-.47,2.88,2,2,0,0,1-.71.71c-.54.29-.54.59,0,.63.73.08,1.63-1.24,1.81-2.66.09-.73.2-.85.56-.59s.38,1.38.06,2.27c-.53,1.41-1.5,2-3.7,2.34l-1,.14.07,1.08a5.89,5.89,0,0,0,1.82,4.24,4.79,4.79,0,0,1,.76,1,1.45,1.45,0,0,1-.17.5,29.29,29.29,0,0,0-.49,6c-.08,3.26-.15,4.27-.33,4.5s-.76,0-4-1.2l-.51-.19v-7.68h-2.22c-6.53,0-9.17,1-10.14,3.78a7.37,7.37,0,0,0-.12,3.44c.34,1.35,1.58,2.66,3.86,4.06a5.63,5.63,0,0,1,1,.67s-1.58,0-3.48,0l-3.43,0,0-1.11a49,49,0,0,1,.79-8.05,23.28,23.28,0,0,1,3.14-8.3,6,6,0,0,0,.6-1.15,20.32,20.32,0,0,1,3.09-3,13.93,13.93,0,0,1,5.76-3.33,11.61,11.61,0,0,1,3.31-.8h.54l0,.86c0,1,.27,1.17.55.35a5.9,5.9,0,0,1,2.07-2.27C584.88,114.48,585,114.63,585.11,115.65Zm3.26.79,1.6.48c.82.24,1.47.62,1.47.85,0,.07-.15,0-.36-.13a2.17,2.17,0,0,0-.77-.32c-.42-.07-.45-.06-.58.58a1.41,1.41,0,0,1-1.34.81c-.88,0-1,.62-.17.76a1.92,1.92,0,0,1,1.39,1.13c.12.45.28.6.66.6.19,0,.34,0,.34.11a6,6,0,0,1-1,.88c-1.14.89-1.58,1.34-1.7,1.71-.06.21,0,.27.15.27s.73-.37,2.07-1.55a7.35,7.35,0,0,1,1-.81.7.7,0,0,0,.08-1c-.25-.34-.21-.41.19-.41s.82-.19.82-.38a2.13,2.13,0,0,0-.47-.63l-.47-.47H592c.71,0,1.18.19,2.79,1.15,1,.58,2,1.46,2,1.75s-.65.52-1.09.45c-.21,0-.28-.13-.31-.42s-.29-.7-.5-.57-.14.86.08,1.29a1.68,1.68,0,0,0,.85.92c.39.16.34.68-.13,1.37s-.75.77-2.35.23c-2.06-.68-4.44-.85-4.44-.3,0,.14.22.17,1.13.19a6.17,6.17,0,0,1,3.83,1.19c.19.23.19.25,0,.44a2.18,2.18,0,0,1-1,.28c-.76.07-.77.06-1.19-.36a3.11,3.11,0,0,0-1.7-.91,5.26,5.26,0,0,0-1.35.55l-1,.56-1-.73a11.55,11.55,0,0,1-1.57-1.35,4.52,4.52,0,0,1-1.14-2.2c0-.45.31-.87.63-.87.67,0,2.22-1.46,2.51-2.36a10.7,10.7,0,0,0,.26-1.68,6.55,6.55,0,0,1,.13-1.22C587.44,116.18,587.51,116.19,588.37,116.44Zm2.1,3c0,.26-.24.26-.73,0s-.35-.2-.14-.27S590.42,119.22,590.47,119.46Zm17.24,3.94c-.92,2.83-1.36,4.5-1.26,4.76.19.51.42,0,1.35-2.78,1.08-3.27,1.56-4.51,1.57-4.08a30.19,30.19,0,0,1-1.44,5.1c-1.06,3.22-1.2,3.9-.89,4.36.51.77,1.34-.14,1.56-1.69.08-.65.22-.87.34-.55a5.84,5.84,0,0,1-.7,2.95c-.61,1.26-1.77,2.91-2,2.91a14.65,14.65,0,0,1-2.58-1.41,4.38,4.38,0,0,1,.3-1.19,14,14,0,0,0,.47-2.08,9.7,9.7,0,0,1,.84-2.92l.23-.41-.08.77c-.07.7-.06.76.12.62a22.77,22.77,0,0,0,1.66-4.13c.29-.86.71-2,.92-2.5C608.8,119.43,608.61,120.62,607.71,123.4Zm11-2a10.71,10.71,0,0,1,1.49.51l.62.27-.7,1.46a12.18,12.18,0,0,1-2,3.16l-.25.23,0,19.66c0,20.87-.06,24.58-.36,24.91a.46.46,0,0,1-.75-.24c0-.14-.07-10-.11-21.93,0-14.33-.08-21.88-.16-22.28a3.34,3.34,0,0,0-.6-1.25,14.42,14.42,0,0,1-1.62-3.12c-.19-.59-.19-.6.07-.8a5.52,5.52,0,0,1,4.39-.58Zm-35.89.93c.13.19.46.78.74,1.32a6.81,6.81,0,0,0,2.73,2.94c1,.57,1.46,1,1.36,1.13s-.46,0-1.34-.27a5.85,5.85,0,0,1-3.17-2.29C582.28,123.64,582,121.12,582.87,122.36Zm3.19,5.86c1.12.42,1.15.48.74,1.77a5.25,5.25,0,0,1-1.56,2.77,1.83,1.83,0,0,1-.68.29c-.31-.06-.42-1-.28-2.34.16-1.55.6-2.67,1.07-2.74Zm3.64.94a5,5,0,0,1,1.92,2.93,62.93,62.93,0,0,1,.46,7.48l.06,1.82h-1.95c-1.48,0-2,0-2-.16s-.06-1.34-.12-2.81a42.41,42.41,0,0,0-.55-6.33,3.57,3.57,0,0,1,.33-3C588.22,128.66,588.94,128.67,589.7,129.16Zm18.24-.07c0,.16,0,.33-.12.36s-.11-.08-.11-.28.06-.37.11-.37S607.94,128.93,607.94,129.09Zm-14.74,1.09c.32.22.32.44,0,1.6s-.51,1.45-.7,1.18a1.08,1.08,0,0,1-.12-.47,1.67,1.67,0,0,0-.31-.73,2.37,2.37,0,0,1-.37-1.59C591.81,129.93,592.84,129.93,593.2,130.18Zm-19.78.3c.64.34,1.08,2.92.64,3.76-.23.43-.17.62.33,1.08a1,1,0,0,1,.31.49,11.53,11.53,0,0,1-.79,1.73,26,26,0,0,0-1.18,2.54,2.85,2.85,0,0,1-.55,1,11.86,11.86,0,0,1-2.9-1.71c-1.9-1.45-2.34-2.28-2.33-4.33a3.47,3.47,0,0,1,1.14-3C569.6,130.7,572.33,129.89,573.42,130.48Zm1.73.53a26.06,26.06,0,0,1,1.09,4.55v.4l-.38-.3c-.62-.46-.87-1.1-1-2.43a19.66,19.66,0,0,0-.26-2C574.35,130,574.68,129.82,575.15,131Zm2.48-.61.43.18-.06,2.9c-.06,2.86-.14,3.47-.43,3.12a21.46,21.46,0,0,1-1.44-4.83c-.24-1.18-.24-1.25,0-1.39A2,2,0,0,1,577.63,130.4Zm17.11.48c0,.57-1,7.35-1.32,8.71-.17.72-.3,1-.44,1s-.17-.26-.21-1.54a24.05,24.05,0,0,1,1.35-8C594.47,130.26,594.68,130.19,594.74,130.88Zm2.35.4c1.58,1.11,3.53,3.37,3.33,3.87a16.07,16.07,0,0,1-3.81,2.79c-.41.16-.6,0-.7-.5-.15-.68-.79-1.11-.79-.52a5.21,5.21,0,0,0,.24,1c.2.67.21.78.06,1s-.73.48-.87.33a11.86,11.86,0,0,1,.16-3.27c.25-1.81.74-4.67.89-5S596.17,130.63,597.09,131.28Zm-9.93,2.15c.39,2.82.27,7-.21,7.21a5,5,0,0,1-1.46-.57l-1.29-.63v-5.5l.78-.33a4.05,4.05,0,0,0,1.34-.9c.35-.36.57-.51.62-.43A6.84,6.84,0,0,1,587.16,133.43Zm17.23.75c1.19.61,1.21,1,.24,2.49-.69,1.05-1,1.2-1.64.85a5.55,5.55,0,0,1-.88-.67c-.61-.6-.63-1.08,0-1.89.47-.65,1.08-1.17,1.38-1.17A4.07,4.07,0,0,1,604.39,134.18Zm-1.6,4.2.43.51-.25.43a29.25,29.25,0,0,1-5.2,5.85c-3.1,2.71-5.44,4.29-6.35,4.29s-4.64-1.45-9.36-3.62L578.11,144c-.5-.24-.68-.38-.68-.56a23.47,23.47,0,0,1,1.15-3.5c.35-.78.79-1.27,1.23-1.36.72-.16,4.07,1.28,8.47,3.65,1.42.77,2.65,1.39,2.73,1.39a.44.44,0,0,0,.32-.2c.32-.38,2.81-2.6,3.95-3.51.64-.53,2.11-1.61,3.26-2.43l2.1-1.48.87.93C602,137.47,602.57,138.11,602.79,138.38Zm-26.22-1.46a16.65,16.65,0,0,0,1.47.85c.35.17.65.33.67.35s-.26.65-.61,1.44a12,12,0,0,0-1.1,3c-.09.57-.3.67-1,.43a9.37,9.37,0,0,1-2.7-1.45c-.16-.23-.16-.34,0-1a11.38,11.38,0,0,1,1.27-2.88,4.12,4.12,0,0,1,1-1.25A10.05,10.05,0,0,1,576.57,136.92Zm14.63,5.18c.26.14.21.43-.14.6-.18.1-.34.06-.76-.19s-.52-.35-.52-.41S590.92,141.94,591.2,142.1Zm10.64,1.14c.21.5.2.52,0,.52s-.89-.34-.89-.52.49-.55.64-.46A1.37,1.37,0,0,1,601.84,143.24Zm-27.19-.06c1,.58,1.12.77,1.12,2.15,0,.78,0,1.15-.12,1.1a21,21,0,0,1-1.77-3.62A3.53,3.53,0,0,1,574.65,143.18Zm27.05,1.1c.49.21.41-.07,1.36,5.48.78,4.5.75,4.45,2.07,6.23,1.92,2.62,5.56,9.59,5.75,11,.06.41,0,.45-.68,1a8,8,0,0,0-1.39,1.4l-.68.87-.88-.87c-2.63-2.61-4.19-5-7-10.72-1.76-3.57-2.13-4.7-3.28-10l-.32-1.49,1.11-1c.61-.57,1.43-1.28,1.82-1.58.66-.5.75-.55,1.21-.47A4.13,4.13,0,0,1,601.7,144.28Zm-24.16.23c.9.45,1.2.82,1.32,1.59.14.93.06,1-1.31,1h-1.19v-.57a6.6,6.6,0,0,1,.29-2.4A6.67,6.67,0,0,1,577.54,144.51Zm3.77,1.74a4.11,4.11,0,0,1,1,.59c0,.15-.46.25-1.25.23-1.08,0-1.28-.1-1.46-.64C579.28,145.49,579.65,145.45,581.31,146.25Zm.69,1.55c.57.06,0,.08-1.66.08-1.51,0-2.18,0-1.72-.08A17.35,17.35,0,0,1,582,147.8Zm4.44.95a9.77,9.77,0,0,1,1.77.42c.44.17,1.39.46,2.1.65l1.31.33.07,4a55.92,55.92,0,0,0,1.41,12.6,40.74,40.74,0,0,1,.95,9.64,57.14,57.14,0,0,1-.84,10.33c-.24,1.32-.46,2.22-1.35,5.52a28.52,28.52,0,0,0-1,6.68c-.29,5.48-.38,6.85-.62,8.93a38.92,38.92,0,0,0-.17,6.29c.06,3.58.22,7.63.5,13l.09,1.52H578L578,228c-.12-1.05-.42-5.8-.57-9a30.86,30.86,0,0,1,.38-7.83c.88-4,.88-4,.88-6.89A60.55,60.55,0,0,0,577.25,192c-1.15-6.28-1.74-10.36-2.37-16.32a31.11,31.11,0,0,1-.26-5.46,25.22,25.22,0,0,1,1.09-7.3,26.48,26.48,0,0,0,1.06-8.61,26.3,26.3,0,0,0-.2-4.43c-.11-.59-.21-1.12-.21-1.15S585.47,148.63,586.44,148.75ZM612,169c.3.62.55,1.15.55,1.19a20.84,20.84,0,0,1-1.88,2.19,6.32,6.32,0,0,1-1.56-1.48c-.22-.37-.24-.43-.07-.74a14.57,14.57,0,0,1,2.3-2.29A5.55,5.55,0,0,1,612,169Zm3.12,2.48a18.43,18.43,0,0,0,2.37,1c1.91.55,4.56,2,4.56,2.44s-.78.3-1.84-.32c-2.56-1.5-3.07-1.63-3.94-1a3.23,3.23,0,0,0-1.1,1.29c0,.22-.67.62-1,.62s-.58-.25-1.55-1.26a11.17,11.17,0,0,1-1.22-1.36,7.21,7.21,0,0,1,1.22-1.83C613.1,170.66,613.75,170.78,615.14,171.47Zm3.32,2.8c1.47.79,2.2,1.53,1.68,1.74-.28.09-.73-.15-1.67-.91C617,173.94,617,173.52,618.46,174.27Zm0,1.75c.88.82,1,1.14.27.57a12.12,12.12,0,0,1-1.93-1.74C616.85,174.66,617.67,175.23,618.51,176Zm-1.58,0c1.26,1,1.91,1.7,1.6,1.7a16.24,16.24,0,0,1-2.43-2.08C616,175.33,616.21,175.44,616.93,176Zm-.77.72c.85.69,1.58,1.44,1.47,1.53s-.7-.13-1.4-.69c-.9-.71-1.33-1.23-1.23-1.48S615.15,175.91,616.16,176.74Zm1.16,2.4c.16.1.18,2.85.16,23.71,0,24.41-.11,32.41-.39,32.74a.59.59,0,0,1-.47.16c-.56-.06-.53,3-.24-38.92.06-9.63.15-17.58.17-17.67S617.07,179,617.32,179.14Zm-27.07,50.3c.29.12.29.13-.17.23-.61.13-10.77.14-11.39,0-1.39-.3.71-.43,6.46-.38C588.1,229.31,590.08,229.37,590.25,229.44Zm-7.89,1.11c.47.17.76,1,.9,2.45.19,2.13.3,2.53.73,3a12.66,12.66,0,0,0,3.18,1.76c.42.17,2.43.91,4.45,1.66,4.31,1.57,5,1.87,5,2a46.57,46.57,0,0,1-4.95,0c-6.24-.13-8.76-.13-10.48,0-1.28.09-1.39.08-1.66-.14l-.3-.24v-3.55a22.65,22.65,0,0,0-.47-6c-.1-.45-.18-.88-.18-.94A15.61,15.61,0,0,1,582.36,230.55Zm2.78,0c.5.18.65.5,1.14,2.42a13.72,13.72,0,0,1,.61,3.55c-.1.27-.47.24-1.14-.09a3.53,3.53,0,0,1-1.49-1.26,19.81,19.81,0,0,1-.6-3.9l-.08-.85h.58A3.81,3.81,0,0,1,585.14,230.56Zm5.41.31c.53,3.08.82,3.78,2,5a7.23,7.23,0,0,0,2.15,1.5,50.53,50.53,0,0,0,9.26,3.54,16.71,16.71,0,0,1,1.72.48,47,47,0,0,1-6.28,0,3.14,3.14,0,0,1-1.66-.4,6.51,6.51,0,0,0-1.5-.61c-1.73-.5-6.53-2.24-7.73-2.8-.64-.31-.7-.38-.93-1.18s-1.14-5.35-1.14-5.64.24-.27,2.22-.28h1.81Z" transform="translate(0 -3.36)"/><path class="cls-6" d="M583.5,116.81a4.89,4.89,0,0,1-.86.59c-.06,0-.1.11-.1.24s.08.24.33.24c.46,0,.65.17.56.46s0,.54.26.35c.43-.35,1-2.47.66-2.47A4.11,4.11,0,0,0,583.5,116.81Z" transform="translate(0 -3.36)"/><path class="cls-6" d="M783.48,103.91a11.78,11.78,0,0,0,.23,6.6c.22.71.25,1.08.07,1a13.87,13.87,0,0,1-1.93-2.59,33.24,33.24,0,0,1-2.06-4c-.26-.58-.46-.67-.51-.21a13.13,13.13,0,0,0,.78,3.43,20,20,0,0,0,4.64,7.87,17.55,17.55,0,0,0,5.38,4,5.5,5.5,0,0,1,1.33.8s-.36.26-.7.5a10.37,10.37,0,0,0-3.1,3.84c-.59,1.23-.59,1.37.12,1.06a1.21,1.21,0,0,1,1.38.06c.55.48,1,1.55,1.56,3.91.36,1.51.39,1.74.21,1.89a11.15,11.15,0,0,1-2.77.72c-4,.81-6.78,2-7.38,3.17-.25.49-.43,2.45-.76,8.53-.08,1.43-.18,3.41-.24,4.41-.2,3.52-.3,3.87-2,6.65-.38.61-1.05,1.75-1.48,2.53a23.42,23.42,0,0,1-3.1,4.52c-.71.85-1.33,1.62-1.39,1.7s-.13.17-.17.17a25.94,25.94,0,0,1,0-2.68c0-1.46.1-6.59.14-11.38.11-8.75.23-16.6.34-20.83l.06-2.28-.79-.9-.81-.9,1.14-1.09c1-1,1.12-1.12,1.06-1.32A4.61,4.61,0,0,0,772,122s-.48.33-1,.73a9.5,9.5,0,0,0-2.75,3.39,8.11,8.11,0,0,0-1,3.91l-.06,1.37.8-.07c.44,0,.84-.07.9-.09a3.25,3.25,0,0,0,.17-1.21,8.47,8.47,0,0,1,.42-2.55c.13-.14.39,0,.56.34s.17.69.15,4.55c0,2.34-.06,6.91-.12,10.14s-.15,8.25-.2,11.17c-.11,6.15-.26,10.5-.38,11.18s-.76,1.23-2.48,1.7c-1,.26-1.06.56-.35,1.33a7.76,7.76,0,0,1,1.14,1.88c.65,1.34,1,1.84,1.53,2.1l.26.14v1.63c0,2.75-.27,22.58-.38,27.26a53.27,53.27,0,0,1-.34,6.66,9.71,9.71,0,0,1-.35,1,3.79,3.79,0,0,0,.3,3.61c.2.22.32.29.38.22a5.19,5.19,0,0,0,.19-1.3c.09-1.28.23-1.68.59-1.68s.48.57.54,1.77c0,.88,0,1.11-.12,1.3-.21.34-.35.4-2,.82-1.49.37-2.05.57-2.19.79a1,1,0,0,0-.07.41c0,.52.23.55,4.16.55,3.44,0,3.47,0,4.88-.28a6,6,0,0,1,4,.17c1.72.52,1.92.52,2.4,0a2.39,2.39,0,0,0,.54-1.68,12,12,0,0,1,.61-3c.18-.62.53-1.85.76-2.73a22.75,22.75,0,0,1,2.39-6.21c1.77-3.3,2.5-5.54,3.71-11.55.92-4.57,1.26-5.71,2-6.84.43-.65.66-.72,2.36-.8l1.45-.06.32.8c.18.44.55,1.31.82,1.93a16,16,0,0,1,1.18,4.88,114,114,0,0,0,2.32,11.46c.91,3.76,1.12,5,1.12,6.63a2.91,2.91,0,0,1-.25,1.72,3.83,3.83,0,0,1-1.67,1.58,44.67,44.67,0,0,1-7.44,3.27,11.36,11.36,0,0,1-1.19.2,3.76,3.76,0,0,0-1,.27c-.38.19-.42.25-.42.54s0,.35.37.51.61.19,2.32.22a36,36,0,0,0,8.08-.7l1.22-.25.77.48a3.68,3.68,0,0,0,2.3.75,2.25,2.25,0,0,0,1.52-.71,6.77,6.77,0,0,0,.14-2.94c-.24-2.17-.29-3.82-.39-10.81-.11-9.2-.12-9.27-1.1-14a48.25,48.25,0,0,1-1.06-7.16c0-.6,0-.65.15-.46s.37,1.28.69,2.6c.87,3.72,1.49,6.24,1.79,7.23s.48,2.85.48,6.48a60.1,60.1,0,0,0,.38,8c.11.59.37,1.68.57,2.4a22.91,22.91,0,0,1,1.08,5.69,11.87,11.87,0,0,0,.24,1.77c.16.28.82.21,1.06-.11s.18-.44.2-2.18c0-1.07,0-5.07-.06-8.9l-.08-7-.24-.9c-.13-.49-.74-2.43-1.35-4.31-1.92-5.84-2.76-8.92-2.79-10.23V180l1,0,1,0,.06.73c0,.4.06,1.16.06,1.69a10.84,10.84,0,0,0,.06,1.27l.05.3h1.59v-.55c0-.3,0-1.19.08-2l.06-1.42,1.23,0a9.13,9.13,0,0,0,1.35-.13c.16-.1.14-.83,0-1.07a1.17,1.17,0,0,0-.55-.31c-.31-.07-.43-.16-.48-.31s-.06-1.22-.06-2.44,0-2.55-.1-2.94a17.37,17.37,0,0,1-.09-3.83c.06-.48.26-1.62.43-2.56s.37-2.2.42-2.79c.15-1.65.28-6.63.34-12.55,0-2.92.07-5.57.1-5.9l.06-.59H814v-3c0-3.36,0-3.48-.69-5.51a23.66,23.66,0,0,0-5.75-9.38,22.85,22.85,0,0,0-5.58-4.17c-1.93-1-1.94-1-1.77-1.14s.62-.25,1.22-.46a21,21,0,0,0,5.55-3,23.44,23.44,0,0,0,4.81-5.66c1.15-1.94,2.5-5.56,2.5-6.75,0-.6-.29-.3-1,1-1.15,2.11-3,4.76-3.19,4.55a8.55,8.55,0,0,1,.29-1.18,9.28,9.28,0,0,0-.26-6.47A12.88,12.88,0,0,0,807.07,99a14.44,14.44,0,0,0-8.54-3.81C791.58,94.45,785.11,98.2,783.48,103.91ZM799,95.74a7,7,0,0,1,2.27.37A19.92,19.92,0,0,1,805.09,98a16.45,16.45,0,0,1,3.63,3.63,8.24,8.24,0,0,1,1.48,5.21,6.28,6.28,0,0,1-.83,4.09,7,7,0,0,1-3.22,3.54,18.15,18.15,0,0,1-7.65,2.74,10.64,10.64,0,0,1-3.69-.06,19.29,19.29,0,0,1-5.94-1.83,7.6,7.6,0,0,1-4.21-4.08,9.5,9.5,0,0,1,0-8.8,12.27,12.27,0,0,1,6.57-5.83,8.93,8.93,0,0,1,3.61-.85A31.23,31.23,0,0,1,799,95.74Zm13.11,14.73a21.74,21.74,0,0,1-2.4,4,21,21,0,0,1-3,3.08,25.77,25.77,0,0,1-3.22,2,16.44,16.44,0,0,1-9.66,1.21c-5.1-1-9.66-4.76-12.27-10.07a10.62,10.62,0,0,1-.54-1.29c0-.31,0-.31.14-.18a15.51,15.51,0,0,1,1.19,1.32,19.41,19.41,0,0,0,6.58,5.36,17.72,17.72,0,0,0,13.69.83,19.6,19.6,0,0,0,9-6.55C813,108.45,813,108.47,812.07,110.47Zm-18.13,10.86c.59.17.67.22.47.27l-1.13.33a16.55,16.55,0,0,0-2.19.85c-1.29.61-1.6.71-1.6.51,0-.35,1-1.23,2.1-1.83A2.64,2.64,0,0,1,793.94,121.33Zm5,.26,1,.38a22.81,22.81,0,0,1,10.1,8.29,21.73,21.73,0,0,1,3.26,7.08c.34,1.93.43,6.33.13,6.51a1.94,1.94,0,0,1-.69.09h-.54l0-3.29c0-3.92,0-3.86-.87-4.76-1.16-1.15-2.6-1.64-6.49-2.22-2.16-.32-2.87-.46-4-.72a1.08,1.08,0,0,0-.56,0c-.13.12-.19,1.37-.33,6.11l-.12,4.58-1.66-.05a25.82,25.82,0,0,1-3.46-.3,47.82,47.82,0,0,1,0-5.13c.08-5.75.17-7.66.4-7.88a3.13,3.13,0,0,1,.93-.37,9.23,9.23,0,0,0,3.15-1.59c1.15-1.15.9-3.45-.64-5.56-.57-.8-.61-.92-.43-1.1A1.05,1.05,0,0,1,798.91,121.59Zm-.78,1.59c1.26,2,1.56,3.3,1,4.34a6,6,0,0,1-3.59,1.88c-1.14.2-1.11.13-1.27,2.8s-.28,2.71-1.3,1.68-1.44-2.16-2-4.62a7.52,7.52,0,0,0-1.05-2.83,5.77,5.77,0,0,1-.42-.77c0-.29,1.25.74,1.55,1.28a3,3,0,0,1,.32.9c.19,1,.4,1.27,1,1.22.25,0,.32-.09.41-.36a4.28,4.28,0,0,0,.13-1c0-1.21.32-1.64,1.67-2.32.89-.44,1.2-.5,1.44-.25a.83.83,0,0,1,.2.67c0,.81-.3,1.19-1.58,2-.87.57-.94.76-.28.79a4.45,4.45,0,0,0,2.09-.56c1.51-.76,2-1.41,2-2.68a2.43,2.43,0,0,0-.3-1.4,4.5,4.5,0,0,0-1.64-1.85c-.66-.38-.71-.43-.5-.5C796.62,121.33,797.28,121.82,798.13,123.18Zm-2-.77a7.49,7.49,0,0,1,1.59,1.69,2.74,2.74,0,0,1-.44,2.67c-.24.32-1.07.92-1.15.85a3.89,3.89,0,0,1,.35-.77,3.4,3.4,0,0,0,.38-1,2,2,0,0,0-.63-1.23c-.48-.37-1.34-.13-2.73.78a2,2,0,0,0-1.1,1.94c-.06.86-.16,1.16-.35,1a1.53,1.53,0,0,1-.14-.58,3.56,3.56,0,0,0-2.81-2.9,1.83,1.83,0,0,1-.52-.2c-.18-.17.48-.61,1.29-.88a20,20,0,0,0,2-.8,13.42,13.42,0,0,1,1.57-.65A5.52,5.52,0,0,1,796.14,122.41ZM772,123c0,.16-.31.57-1,1.35a12.35,12.35,0,0,0-1,1.22,6.78,6.78,0,0,0,1.2,1.46l.51.52-.1,5.07c0,2.78-.13,8.15-.19,11.93-.23,16.38-.32,19.27-.57,20.05-.12.37-.34.41-.46.09,0-.13,0-1.89,0-4.24,0-2.2.14-8,.19-13s.14-10.74.2-12.93c.16-6.73.17-6.28-.12-6.77a4.69,4.69,0,0,0-.68-.85c-.38-.36-.46-.4-.57-.29a8.26,8.26,0,0,0-.77,3c-.18,1-.39,1.42-.68,1.24s-.17-.22-.15-.74a11.24,11.24,0,0,1,1.25-4.32,11.76,11.76,0,0,1,2.18-2.61C771.71,122.67,772,122.62,772,123Zm18.1,10.22,0-.26.22.28a10.25,10.25,0,0,1,.57.87,6.09,6.09,0,0,0,2.36,2.24c.6.3.92.66.77.92s-.28.23-.73,0a8.21,8.21,0,0,1-2.91-3.2A1.82,1.82,0,0,1,790.07,133.18Zm2,.69a13.65,13.65,0,0,0,1.36,1.1,1.52,1.52,0,0,1,.55.49c.1.24,0,.53-.26.53-.49,0-1.85-1.25-2.43-2.22a3.42,3.42,0,0,1-.34-.64C791,132.92,791.31,133.13,792.12,133.87Zm-3.15-.72c.22,0,.7.59,1.14,1.46a8.71,8.71,0,0,0,3,3c.75.4,1.08.83,1,1.25s-.21.26-1-.12a8.4,8.4,0,0,1-2.57-1.81,5.23,5.23,0,0,1-1.21-1.75c-.59-1.16-.74-1.7-.54-1.94A.38.38,0,0,1,789,133.15Zm-1.61.28c.35,0,.39,0,.61.4a10.73,10.73,0,0,1,.51,1,8,8,0,0,0,4.52,4.5,7.59,7.59,0,0,1,.8.39,1.3,1.3,0,0,1,.24,1.06c-.06.24-.11.26-.54.26a3.75,3.75,0,0,1-1.56-.54,10,10,0,0,1-4.69-4.68c-.57-1.21-.71-2.11-.38-2.33A1.24,1.24,0,0,1,787.36,133.43Zm14.32.57c-.26.79-.87,1.61-1,1.43s0-.68.43-1.34S801.93,133.32,801.68,134Zm1.68.37a7.29,7.29,0,0,1-2,2.93c-.57.54-.75.57-.79.19s.18-.84.84-1.8a12.84,12.84,0,0,0,.76-1.27,1.15,1.15,0,0,1,.37-.51C803,133.67,803.46,133.93,803.36,134.37Zm1.56-.15c.31.1.33.15.36.5a2.32,2.32,0,0,1-.42,1.28,10,10,0,0,1-3.17,3.67c-.91.62-1.33.49-1.13-.37.11-.51.23-.68.9-1.26a10.27,10.27,0,0,0,2.09-2.74,7.9,7.9,0,0,1,.62-1C804.38,134.07,804.46,134.06,804.92,134.22Zm-19.8-.13c.26,0,.58.25.58.44s.37,1.31.81,2.79c3.09,10.19,2.89,9.42,2.35,9.35s-.6-.43-1.22-2.27a9,9,0,0,0-1.14-2.73c-.19-.17-.41,0-.56.31-.25.59-.23.59-2.91.62l-2.44,0v-.22c0-.76.29-4.54.38-5.07a2.9,2.9,0,0,1,.85-1.77,11,11,0,0,1,2.58-1.32A2.71,2.71,0,0,1,785.12,134.09Zm22.19.49a7.49,7.49,0,0,1,2,.54c1.71.62,2.47,2.1,2.47,4.82a22.37,22.37,0,0,1-.5,4.07,17,17,0,0,1-1.88-.06c-2.09-.12-2.44-.22-2.56-.74-.07-.26-.12-.31-.38-.31-.44,0-.91.58-1.54,1.88-.88,1.82-.94,1.94-1.11,2a.22.22,0,0,1-.24,0c-.08-.09.05-.63,1.41-5.42.63-2.18,1.26-4.44,1.41-5a13.56,13.56,0,0,1,.47-1.44C807,134.61,807,134.57,807.31,134.58Zm-1.69,2.36c-.34,1.17-1,3.64-1.55,5.49s-1,3.6-1.12,3.88c-.17.51-.19.52-.57.55s-.4,0-.34-.24c.17-.73.65-2.52.89-3.28.16-.48.43-1.49.61-2.25a16.61,16.61,0,0,1,1.47-4.18,10.12,10.12,0,0,0,.59-1.23,2.55,2.55,0,0,1,.33-.74C806.4,134.18,806.37,134.39,805.62,136.94ZM787,136.86a10.7,10.7,0,0,1,1.75,2.43,49.38,49.38,0,0,1,2.06,7.23c0,.26-.07.32-.28.34-.44,0-.55-.22-2-5l-1.17-3.81A7.55,7.55,0,0,1,787,136.86Zm16.38,2.25s0,.12,0,.26c-.22.9-1.17,4.49-1.55,5.8l-.45,1.56-.33.07c-.43.1-7.71.12-8.49,0a2.19,2.19,0,0,1-.74-.18,5,5,0,0,1-.53-1.24c-.4-1.2-1.7-5.47-1.7-5.6s.07,0,.15.14a.49.49,0,0,0,.32.21,4,4,0,0,1,.91.41,12.36,12.36,0,0,0,2.62,1.05l.55.16V144h6.2l0-1.29c0-1.51,0-1.55.9-2.13.33-.23.93-.65,1.32-1A7.67,7.67,0,0,1,803.36,139.11Zm-17,3.7c.26,0,1.83,5,3.07,9.7a19,19,0,0,1,.25,5.54c-.22,3.56-.32,3.94-2.88,12.5-2.82,9.39-3,10.21-3.15,12.08a24.86,24.86,0,0,1-1.1,6.63c-.61,2.19-1.26,5-1.88,8.14-.27,1.36-.67,3.18-.9,4.07s-.59,2.36-.79,3.27a6.74,6.74,0,0,1-1.61,3.62,10.64,10.64,0,0,1-2.65,2.27,15.5,15.5,0,0,1-3.5,1.77c-.21,0-.21,0,.11-.55a3.09,3.09,0,0,0,.42-2.21,3.53,3.53,0,0,0-.25-1.34c-.41-.92-.42-1.3-.37-11.09.1-15.05.3-24.79.54-25.85a.76.76,0,0,1,.31-.51,16.72,16.72,0,0,0,2.47-2.81c2-2.6,6.07-7.54,7.63-9.32a9.35,9.35,0,0,0,2.52-5,29.66,29.66,0,0,0,.81-5,34.2,34.2,0,0,1,.72-5.29A2.08,2.08,0,0,1,786.37,142.81Zm-6,.28,2.19,0c1.22,0,2.37,0,2.56,0l.36,0v.45c0,.83.07.81-2.69.84l-2.42,0v-1.43Zm25.75.35c0-.05.1,1.88.14,4.26.12,8.25.24,18.27.25,20.56v2.3l-.56.83a4.22,4.22,0,0,0-1.08,2.78,7.82,7.82,0,0,0,.26,3.17.35.35,0,0,0,.43.19c.24-.05.27,0,.36.32s0,.56-.28.56a.88.88,0,0,0-.41.29L805,179l-.15-.23c-.4-.6-.81-2.78-1.42-7.56a48.12,48.12,0,0,0-1-5.85,34.34,34.34,0,0,1-1-7.86c-.06-2.58,0-3.21.5-4.32.18-.41.46-1.11.62-1.56.4-1.11,1.75-4.25,2.71-6.34C805.73,144.3,806.12,143.48,806.15,143.44Zm5.12,1.26c.27.18,0,.42-.63.5a16.41,16.41,0,0,1-3.66-.11c-.17-.17,0-.28.65-.39A18.23,18.23,0,0,1,811.27,144.7ZM780.4,145h2c2.94,0,2.87,0,2.8.9-.05.46-.1.6-.32.79s-.27.22-1.92.17-2.31-.15-2.47-.44a2.71,2.71,0,0,1-.09-.8Zm26.39.75h4.57v1.93l-2.19-.07c-1.22,0-2.21-.08-2.23-.1a5.36,5.36,0,0,1-.08-.89Zm-23,1.71,1.1.08a9.78,9.78,0,0,1-.1,2.19,26.41,26.41,0,0,1-1.3,6c-.4,1-.79,1.52-2.65,3.66-.92,1.06-2.07,2.42-2.57,3-.77.94-.93,1.09-1.15,1.07a4.92,4.92,0,0,1-2.24-1.9,2.69,2.69,0,0,1,.39-.79c.22-.33.86-1.46,1.44-2.5s1.4-2.5,1.84-3.24c1.35-2.29,1.31-2.2,1.68-5.38a18.13,18.13,0,0,1,.34-2.18A13.8,13.8,0,0,1,783.81,147.45Zm18.41.05c1.08.11,1.19.14,1.19.37a.39.39,0,0,1-.17.32c-.33.17-2.43.2-6.27.11-6.91-.17-8.77-.34-8-.72C789.15,147.5,801.43,147.44,802.22,147.5Zm4.57.61h4.6l-.06,5.28c-.06,6.77-.21,9.2-.76,12.47l-.21,1.24-1.13,0c-.62,0-1.33,0-1.58-.08-.42,0-.45-.07-.49-.35-.1-.57-.26-7.08-.31-12.78Zm-17.76.48c.05-.09,12.81.22,13.54.33l.35.06-.15.49c-.07.27-.49,1.42-.92,2.57s-.87,2.33-1,2.64c-.21.68-.52,1-1.78,1.66a30.93,30.93,0,0,1-5.81,2.38c-2.39.75-2.75.78-3,.22a10.44,10.44,0,0,1-.1-1.86,26.18,26.18,0,0,0-.9-7.16C789.16,149.22,789,148.62,789,148.59Zm11.55,7.48c.1,0,.17.37.32,2,.22,2.2.32,2-1.09,2.31a42.35,42.35,0,0,1-7.42,1l-1.1.05v-.74c0-.48,0-.78.11-.84a1.74,1.74,0,0,1,.6-.16,31.58,31.58,0,0,0,8-3.21A4.38,4.38,0,0,1,800.58,156.07Zm-9.86,4.63c0,.34-.18.67-.37.67s-.4-.7-.17-1.13S790.72,160,790.72,160.7Zm10.25.44a15.24,15.24,0,0,1,.48,3.26,8.3,8.3,0,0,1-.35,2c-.47,1.77-.46,2,.17,4.46a27.9,27.9,0,0,1,1,5.21c.06.68.18,1.84.29,2.58a6.2,6.2,0,0,1,.1,2.43c-.15.1-.82-.48-1.7-1.47A75,75,0,0,1,791.09,164c-.67-1.41-.82-1.8-.68-1.88a13.18,13.18,0,0,1,1.63-.2c2.13-.21,5-.58,6.68-.87C801.09,160.63,800.8,160.61,801,161.14Zm-25.83,1.61c1.14.92,1.47,1.28,1.47,1.57,0,.57-.37.44-1.57-.53-.85-.68-1.11-1-1.06-1.31S774.42,162.16,775.14,162.75Zm14.53.15c.11-.2.28.1,1.82,3,4.08,7.7,6.47,11.35,9.52,14.53a6,6,0,0,1,.79.91c0,.06-.08.13-.17.17s-11.91.07-15.09,0l-2.33-.06.13-.62c.19-.92.53-2,2.74-9.35.66-2.14,1.49-4.9,1.85-6.14S789.63,163,789.67,162.9ZM774.53,164c1,.81,1.34,1.12,1.3,1.36-.06.41-.42.3-1.33-.4-1.41-1.07-1.59-1.3-1.28-1.6S773.54,163.25,774.53,164Zm-1.79.29a5.19,5.19,0,0,1,.93.69l1.12.92.31.24-1,1.37c-1.08,1.42-1.67,2.07-1.79,1.94s.06-.3.21-.58c.25-.47.26-.54.14-.73s-.18-.31-.25-.45-.18-.38-.26-.56a5.85,5.85,0,0,0-.62-.84l-.44-.51-1.39.72c-1.61.82-2.32,1.07-2.64.91s-.16-.22.44-.42a10.68,10.68,0,0,0,1.51-.73c.58-.32,1.49-.79,2-1.05a9.38,9.38,0,0,0,1.3-.7A1,1,0,0,1,772.74,164.31ZM802,166.23a15.27,15.27,0,0,1,.76,3.85c.76,5.73.85,6.34,1.53,8.9.23.91.63,2.53.89,3.6a110.63,110.63,0,0,0,3.38,11c.54,1.36.56,1.63.69,8.43.05,2.79.14,6.42.2,8.06.09,2.8.06,3.88-.11,3.88a6,6,0,0,1-.37-2,21,21,0,0,0-.88-4.36c-1-3.63-.92-3.34-1-9.28-.06-2.87-.13-5.59-.19-6.06s-.37-1.94-.7-3.26c-.73-2.86-2.45-10-2.61-10.85-.06-.31-.47-2-.9-3.64-1.56-6-1.61-6.35-1.24-7.45S801.84,165.92,802,166.23Zm-31.12.56a5.4,5.4,0,0,1-1.63,1.15c-.71.35-1.29.45-1.29.21s.17-.29.76-.48a2.72,2.72,0,0,0,.75-.39,2.3,2.3,0,0,1,.73-.42C770.82,166.64,771,166.62,770.91,166.79Zm.76.68c.16.19-.12.49-.88,1-1.21.79-2.4,1.23-2.57,1s.37-.53,1.78-1.28S771.55,167.32,771.67,167.47Zm36.94.15c1.44,0,1.56,0,1.5.54,0,.23-.08.27-.45.34a9.45,9.45,0,0,1-1.41,0c-.83,0-1-.07-1.11-.21s-.17-.38,0-.56S807.55,167.62,808.61,167.62Zm-36.69,1c.1.14-.3.62-.9,1.06-.91.69-2.29,1.14-2.16.7a10.08,10.08,0,0,1,2-1.38C771.69,168.6,771.85,168.55,771.92,168.67Zm35.23.51,1.09,0c1.35,0,1.55,0,1.59.64l0,.4-1.19,0c-1.35,0-1.6-.15-1.55-.69Zm-35.66,1.17a4,4,0,0,1-1.79,1c-.53.11-.31-.13.53-.58S771.49,170.19,771.49,170.35Zm35.56.39h2.87l.13,1a20.39,20.39,0,0,1,.13,2.16c0,1,0,1.23-.19,1.49-.27.45-.65.59-1.58.59-1.35,0-1.73-.19-1.87-.88s-.17-.64-.4-.35-.18.32-.13,1,0,1.11-.29,1.11-.29-.31-.37-1.13a6.69,6.69,0,0,1,.34-2.77,14.48,14.48,0,0,1,.79-1.28Zm-36.4,1.2c.14.34.14,6.62,0,19.16-.06,4.87-.09,10.6-.07,12.74l0,3.88.34.71a3.35,3.35,0,0,1,.36,1.47c0,.88,0,.85-.35-.11-.23-.75-.36-.88-.9-.88-.71,0-1,.31-1.16,1.13,0,.26-.09.35-.13.28a3.46,3.46,0,0,1,.37-1.86c.41-1,.46-1.73.57-10.06.26-19.51.37-24.43.58-25.9C770.38,171.72,770.49,171.55,770.65,171.94Zm39.67,4.57c.24.45,0,1.18-.72,1.9l-.44.48h.56a3.27,3.27,0,0,1,1.34.23c.15.15-.25.28-1.14.36a3.31,3.31,0,0,0-1.07.18,9.72,9.72,0,0,0-.15,1.72c-.05,1.62-.14,2.05-.41,2.05s-.22-.39-.3-2.22a11.4,11.4,0,0,0-.15-1.69c-.07-.13-.22-.16-.86-.16-.89,0-1.18-.11-.88-.33a1.6,1.6,0,0,1,.83-.14,2.75,2.75,0,0,0,.64,0,4,4,0,0,0-.46-.49,1.4,1.4,0,0,1-.52-.9c-.08-.49.06-.94.27-.94s.27.24.45.63c.38.87.69,1.26,1,1.26s.71-.42,1.08-1.1a5.07,5.07,0,0,1,.51-.77C810.11,176.28,810.19,176.27,810.32,176.51Zm-1.74.83c-.19.23-.25.24-.38.14a.63.63,0,0,1,0-.86C808.79,176.32,809,176.81,808.58,177.34Zm-11.92,4.6c2.46.07,4.83.18,5.32.24l.61.07.13.47c.57,2.26,1.52,6.7,1.79,8.42.42,2.84.45,3.43.46,10.57,0,6.74,0,6.9.27,9.28.41,3.94.37,4.35-.53,4.77a2.65,2.65,0,0,1-.75.25,5.54,5.54,0,0,1-1.31-.64l-1.09-.64h-.85a9.71,9.71,0,0,0-1.8.22,27.16,27.16,0,0,1-8.81.48c-.57-.22-.18-.37,1.52-.61a4.91,4.91,0,0,0,1.61-.45c.31-.16,1.29-.6,2.18-1,3.34-1.43,4.4-2,5.35-3,.74-.75.85-1,.92-2.42a19.25,19.25,0,0,0-.82-5.6A115.82,115.82,0,0,1,798,187.6a7.77,7.77,0,0,0-.8-2.84,19.79,19.79,0,0,1-.95-2.76S796.41,181.93,796.66,181.94Zm-10.49,0c.28,0,4.71.07,5.09.12.19,0,.14.22-.17.67a7.85,7.85,0,0,0-1,2.13c-.23.82-.93,4.1-1.38,6.56a25.71,25.71,0,0,1-2.46,7.88c-1.83,3.54-2.77,5.69-3,7-.09.39-.39,1.56-.68,2.6a18.85,18.85,0,0,0-.89,4c-.1,1.07-.19,1.39-.49,1.71s-.61.27-1.87-.16a4.63,4.63,0,0,0-3.16-.39,27.25,27.25,0,0,1-5.69.42c-2.46,0-3.26-.06-3.34-.28s.28-.22,1.83-.61a17.25,17.25,0,0,0,4-1.47,15.84,15.84,0,0,0,5.19-3.9,8.52,8.52,0,0,0,1.39-3.62c.19-.87.56-2.42.8-3.46s.57-2.54.71-3.31c.23-1.32.83-3.85,2.09-8.71a33.66,33.66,0,0,0,1-5.27,13,13,0,0,1,.24-1.59c.11-.3.11-.3.78-.3C785.54,182,786,182,786.17,182Z" transform="translate(0 -3.36)"/><path class="cls-5" d="M679.72,199.39a13.63,13.63,0,0,0-1.84,2.44,40.73,40.73,0,0,1-3,4c-1,1.12-2.58,3.19-3.59,4.58s-2.21,3-2.7,3.63c-1.48,1.88-1.18,2.35,2.09,3.36a8.94,8.94,0,0,1,2.27.92,3.77,3.77,0,0,1,.5,1.45,8.59,8.59,0,0,0,.61,2.16,7.31,7.31,0,0,1,.44,1.27,5.55,5.55,0,0,1-1,1.36c-1.08,1.15-1.46,2.3-.66,2s3.45-.58,8.62-.79a36.91,36.91,0,0,0,5.58-.45c.45-.45-.51-.75-2.88-.94-3.2-.26-3.81-.59-4.68-2.46-1-2.14-1.31-3.71-1-5.05.17-.61,1.22-3.19,2.4-5.73a60.05,60.05,0,0,0,2.46-6.1,6.74,6.74,0,0,1,1.64-3.41,6.18,6.18,0,0,0,.8-1.1,12.59,12.59,0,0,0-3-1.57A3.91,3.91,0,0,0,679.72,199.39ZM676,210.73c.07.94.14,1.05.68,1.12s1-.21,1.83-.89c.68-.54,1.29-.91,1.39-.82.44.45-2.77,5-4.16,5.8-1.6,1-5.82.59-6.27-.63-.07-.19.33-.92.89-1.62s1.53-1.95,2.19-2.8a8.81,8.81,0,0,1,1.81-1.9C675.56,208.24,675.84,208.52,676,210.73Z" transform="translate(0 -3.36)"/><rect class="cls-7" x="539.64" y="72.21" width="344" height="181" rx="12"/></g></g></svg>