<svg xmlns="http://www.w3.org/2000/svg" viewBox="0 0 874 393"><defs><style>.cls-1,.cls-3,.cls-4{fill:none;}.cls-1{stroke:#42210b;stroke-miterlimit:10;stroke-width:3px;}.cls-2{fill:#38281a;}.cls-3{stroke:#aa281f;}.cls-3,.cls-4{stroke-linecap:round;stroke-linejoin:round;stroke-width:2px;}.cls-4{stroke:#1f5b1f;}</style></defs><g id="Layer_2" data-name="Layer 2"><g id="Layer_1-2" data-name="Layer 1"><line class="cls-1" y1="69.25" x2="874" y2="69.25"/><line class="cls-1" x1="686.5" y1="393" x2="686.5"/><path class="cls-2" d="M575.07,40.2a.5.5,0,0,1-.39-.16.53.53,0,0,1-.16-.39V33.36a.56.56,0,0,1,.16-.4.53.53,0,0,1,.39-.15h2.2a.52.52,0,0,1,.38.15.55.55,0,0,1,.15.4v6.29a.53.53,0,0,1-.15.39.49.49,0,0,1-.38.16Z"/><path class="cls-2" d="M584,35.51H580.6a.55.55,0,0,1-.4-.15.51.51,0,0,1-.15-.37V30.3a.57.57,0,0,1,.15-.4.55.55,0,0,1,.4-.15h1.91a.5.5,0,0,1,.37.15.54.54,0,0,1,.16.4v2.51h1Zm-.6,10.12a.41.41,0,0,1-.39-.13.54.54,0,0,1-.18-.39V43.26a.62.62,0,0,1,.15-.39.83.83,0,0,1,.38-.27l.75-.31a5.12,5.12,0,0,0,1.24-.73,3,3,0,0,0,.9-1.19,4.6,4.6,0,0,0,.34-1.93,4.83,4.83,0,0,0-.25-1.71,1.66,1.66,0,0,0-.85-.93,3.84,3.84,0,0,0-1.65-.29h-.55a.55.55,0,0,1-.38-.15.5.5,0,0,1-.17-.37V33.33a.5.5,0,0,1,.17-.37.55.55,0,0,1,.38-.15h1.17a6.89,6.89,0,0,1,3.16.61,3.64,3.64,0,0,1,1.7,1.86,8.06,8.06,0,0,1,.53,3.12,7.17,7.17,0,0,1-.46,2.66,6.35,6.35,0,0,1-1.26,2,7.53,7.53,0,0,1-1.77,1.41,9.5,9.5,0,0,1-2,.87Z"/><path class="cls-2" d="M592.23,45.37a.49.49,0,0,1-.37-.16.53.53,0,0,1-.15-.39v-1.5a.53.53,0,0,1,.15-.39.49.49,0,0,1,.37-.16h6.85v2.11a.47.47,0,0,1-.16.36.54.54,0,0,1-.37.13Zm4.51,0a.46.46,0,0,1-.38-.16.64.64,0,0,1-.17-.39L595.86,38a9.34,9.34,0,0,0-.18-1.49A1.5,1.5,0,0,0,594,35.27h-1.05a.52.52,0,0,1-.38-.15.57.57,0,0,1-.15-.4V33.23a.51.51,0,0,1,.53-.53H594a7.25,7.25,0,0,1,2.34.33,3.41,3.41,0,0,1,1.54,1,4.33,4.33,0,0,1,.87,1.68,10.32,10.32,0,0,1,.35,2.35l.33,6.75a.43.43,0,0,1-.14.39.53.53,0,0,1-.39.16Z"/><path class="cls-2" d="M602.2,40.2a.54.54,0,0,1-.4-.16.53.53,0,0,1-.15-.39V33.36a.55.55,0,0,1,.15-.4.57.57,0,0,1,.4-.15h2.2a.5.5,0,0,1,.37.15.52.52,0,0,1,.16.4v6.29a.5.5,0,0,1-.16.39.47.47,0,0,1-.37.16Z"/><path class="cls-2" d="M607.72,45.37a.48.48,0,0,1-.37-.17.39.39,0,0,1-.11-.38l2.2-10a.64.64,0,0,1,.2-.37.48.48,0,0,1,.37-.12l1.76,0a.63.63,0,0,1,.4.21.48.48,0,0,1,.11.41l-1.94,9.9a.63.63,0,0,1-.19.38.53.53,0,0,1-.38.17Zm6.34-9.86h-6.14a.57.57,0,0,1-.4-.15.51.51,0,0,1-.15-.37V33.36a.55.55,0,0,1,.15-.4.57.57,0,0,1,.4-.15h6.58a5.51,5.51,0,0,1,2.58.58,4.13,4.13,0,0,1,1.78,1.78,6.17,6.17,0,0,1,.65,3v6.65a.53.53,0,0,1-.15.39.52.52,0,0,1-.4.16h-5.87a.54.54,0,0,1-.4-.16.53.53,0,0,1-.15-.39v-1.5a.53.53,0,0,1,.15-.39.54.54,0,0,1,.4-.16h3.26V38.35a3.62,3.62,0,0,0-.3-1.54,2.25,2.25,0,0,0-.82-1A2.11,2.11,0,0,0,614.06,35.51Z"/><path class="cls-2" d="M622.79,45.37a.55.55,0,0,1-.55-.55V33.36a.52.52,0,0,1,.16-.4.53.53,0,0,1,.39-.15H625a.5.5,0,0,1,.37.15.52.52,0,0,1,.16.4V44.82a.5.5,0,0,1-.16.39.47.47,0,0,1-.37.16Z"/><path class="cls-2" d="M628.36,45.37a.51.51,0,0,1-.38-.16.53.53,0,0,1-.15-.39v-1.5a.53.53,0,0,1,.15-.39.51.51,0,0,1,.38-.16h6.84v2.11a.46.46,0,0,1-.15.36.57.57,0,0,1-.38.13Zm4.51,0a.5.5,0,0,1-.39-.16.63.63,0,0,1-.16-.39L632,38a8.23,8.23,0,0,0-.19-1.49,1.68,1.68,0,0,0-.53-.95,1.76,1.76,0,0,0-1.17-.33H629a.5.5,0,0,1-.37-.15.54.54,0,0,1-.16-.4V33.23a.49.49,0,0,1,.16-.38.5.5,0,0,1,.37-.15h1.12a7.17,7.17,0,0,1,2.34.33A3.35,3.35,0,0,1,634,34a4.33,4.33,0,0,1,.87,1.68,10.86,10.86,0,0,1,.36,2.35l.33,6.75a.46.46,0,0,1-.15.39.52.52,0,0,1-.38.16Z"/><path class="cls-2" d="M376.92,40.2a.52.52,0,0,1-.4-.16.53.53,0,0,1-.15-.39V33.36a.52.52,0,0,1,.55-.55h2.2a.5.5,0,0,1,.37.15.52.52,0,0,1,.16.4v6.29a.5.5,0,0,1-.16.39.47.47,0,0,1-.37.16Z"/><path class="cls-2" d="M385.87,35.51h-3.43a.57.57,0,0,1-.4-.15.51.51,0,0,1-.15-.37V30.3a.52.52,0,0,1,.55-.55h1.91a.52.52,0,0,1,.38.15.57.57,0,0,1,.15.4v2.51h1Zm-.59,10.12a.42.42,0,0,1-.4-.13.57.57,0,0,1-.17-.39V43.26a.6.6,0,0,1,.14-.39.83.83,0,0,1,.38-.27l.75-.31a5.19,5.19,0,0,0,1.25-.73,3.15,3.15,0,0,0,.9-1.19,4.6,4.6,0,0,0,.34-1.93,5.07,5.07,0,0,0-.25-1.71,1.69,1.69,0,0,0-.85-.93,3.91,3.91,0,0,0-1.65-.29h-.55a.56.56,0,0,1-.39-.15.49.49,0,0,1-.16-.37V33.33a.49.49,0,0,1,.16-.37.56.56,0,0,1,.39-.15h1.16a6.86,6.86,0,0,1,3.16.61,3.65,3.65,0,0,1,1.71,1.86,8.07,8.07,0,0,1,.52,3.12,7.17,7.17,0,0,1-.46,2.66,6.33,6.33,0,0,1-1.25,2,8,8,0,0,1-1.77,1.41,9.79,9.79,0,0,1-2.06.87Z"/><path class="cls-2" d="M394.08,45.37a.51.51,0,0,1-.38-.16.53.53,0,0,1-.15-.39v-1.5a.53.53,0,0,1,.15-.39.51.51,0,0,1,.38-.16h6.84v2.11a.46.46,0,0,1-.15.36.57.57,0,0,1-.38.13Zm4.51,0a.5.5,0,0,1-.39-.16.63.63,0,0,1-.16-.39L397.71,38a8.23,8.23,0,0,0-.19-1.49,1.68,1.68,0,0,0-.53-.95,1.76,1.76,0,0,0-1.17-.33h-1.06a.5.5,0,0,1-.37-.15.54.54,0,0,1-.16-.4V33.23a.49.49,0,0,1,.16-.38.5.5,0,0,1,.37-.15h1.12a7.17,7.17,0,0,1,2.34.33,3.35,3.35,0,0,1,1.54,1,4.33,4.33,0,0,1,.87,1.68,10.86,10.86,0,0,1,.36,2.35l.33,6.75a.46.46,0,0,1-.15.39.52.52,0,0,1-.38.16Z"/><path class="cls-2" d="M404,40.2a.55.55,0,0,1-.55-.55V33.36a.52.52,0,0,1,.16-.4.53.53,0,0,1,.39-.15h2.2a.54.54,0,0,1,.38.15.55.55,0,0,1,.15.4v6.29a.53.53,0,0,1-.15.39.51.51,0,0,1-.38.16Z"/><path class="cls-2" d="M409.32,35.4a.53.53,0,0,1-.39-.15.52.52,0,0,1-.16-.4V33.36a.52.52,0,0,1,.16-.4.53.53,0,0,1,.39-.15H419a.52.52,0,0,1,.38.15.55.55,0,0,1,.15.4v1.49a.55.55,0,0,1-.14.39.48.48,0,0,1-.39.16Zm5.35,10a.43.43,0,0,1-.48-.49v-7a5.93,5.93,0,0,1,.29-2.11,1,1,0,0,1,.92-.74h3.16c-.36,0-.66.29-.89.89a6.07,6.07,0,0,0-.34,2.19v6.81a.41.41,0,0,1-.19.36.66.66,0,0,1-.4.13Z"/><path class="cls-2" d="M428.51,45.37a.52.52,0,0,1-.4-.16.5.5,0,0,1-.15-.37V38.31a3.08,3.08,0,0,0-.69-2.16,2.88,2.88,0,0,0-2.19-.75h-3.19a.52.52,0,0,1-.38-.15.55.55,0,0,1-.15-.4V33.36a.55.55,0,0,1,.15-.4.52.52,0,0,1,.38-.15h3.32a8.52,8.52,0,0,1,3.28.55,3.9,3.9,0,0,1,2,1.72,6.32,6.32,0,0,1,.66,3.09v6.65a.53.53,0,0,1-.16.39.49.49,0,0,1-.37.16Z"/><path class="cls-2" d="M434.4,45.37a.55.55,0,0,1-.55-.55V33.36A.52.52,0,0,1,434,33a.53.53,0,0,1,.39-.15h2.2A.54.54,0,0,1,437,33a.55.55,0,0,1,.15.4V44.82a.53.53,0,0,1-.15.39.51.51,0,0,1-.38.16Z"/><path class="cls-2" d="M440.17,45.37a.52.52,0,0,1-.38-.17.57.57,0,0,1-.15-.4V41.89a9.7,9.7,0,0,1,.21-2.1,4.62,4.62,0,0,1,.78-1.72,6.25,6.25,0,0,1,1.67-1.52l1.54,2.22a2.78,2.78,0,0,0-.91,1,3.35,3.35,0,0,0-.39,1.11,6.55,6.55,0,0,0-.09,1V44.8a.56.56,0,0,1-.15.41.49.49,0,0,1-.37.16Zm8.4,0a.66.66,0,0,1-.49-.17l-.26-.25L439.88,33.6a.57.57,0,0,1-.11-.33.45.45,0,0,1,.13-.32.42.42,0,0,1,.33-.14h2.09a.66.66,0,0,1,.49.16l.24.28,8,11.33a.62.62,0,0,1,.11.18.89.89,0,0,1,0,.15.49.49,0,0,1-.14.32.47.47,0,0,1-.32.14Zm-.59-4.2-1.5-2.2a3.16,3.16,0,0,0,1.15-.86,2.22,2.22,0,0,0,.4-1,6.48,6.48,0,0,0,.08-1V33.38a.57.57,0,0,1,.15-.42.54.54,0,0,1,.38-.15h1.87a.49.49,0,0,1,.37.16.59.59,0,0,1,.15.41v2.88A6.49,6.49,0,0,1,450.8,38a4.29,4.29,0,0,1-.88,1.65A6.46,6.46,0,0,1,448,41.17Z"/><path class="cls-2" d="M182.81,40.2a.52.52,0,0,1-.4-.16.53.53,0,0,1-.15-.39V33.36a.52.52,0,0,1,.55-.55H185a.51.51,0,0,1,.37.15.55.55,0,0,1,.15.4v6.29a.53.53,0,0,1-.15.39.49.49,0,0,1-.37.16Z"/><path class="cls-2" d="M191.76,35.51h-3.43a.57.57,0,0,1-.4-.15.51.51,0,0,1-.15-.37V30.3a.52.52,0,0,1,.55-.55h1.91a.54.54,0,0,1,.38.15.57.57,0,0,1,.15.4v2.51h1Zm-.59,10.12a.42.42,0,0,1-.4-.13.53.53,0,0,1-.17-.39V43.26a.6.6,0,0,1,.14-.39.83.83,0,0,1,.38-.27l.75-.31a4.94,4.94,0,0,0,1.24-.73,3.07,3.07,0,0,0,.91-1.19,5.7,5.7,0,0,0,.08-3.64,1.64,1.64,0,0,0-.84-.93,3.91,3.91,0,0,0-1.65-.29h-.55a.56.56,0,0,1-.39-.15.49.49,0,0,1-.16-.37V33.33a.49.49,0,0,1,.16-.37.56.56,0,0,1,.39-.15h1.16a6.86,6.86,0,0,1,3.16.61,3.7,3.7,0,0,1,1.71,1.86,8.07,8.07,0,0,1,.52,3.12,7.17,7.17,0,0,1-.46,2.66,6.33,6.33,0,0,1-1.25,2,8,8,0,0,1-1.77,1.41,9.79,9.79,0,0,1-2.06.87Z"/><path class="cls-2" d="M200.54,45.37a.52.52,0,0,1-.4-.16.53.53,0,0,1-.15-.39V33.36a.52.52,0,0,1,.55-.55h2.2a.51.51,0,0,1,.37.15.56.56,0,0,1,.16.4V44.82a.53.53,0,0,1-.16.39.49.49,0,0,1-.37.16Z"/><path class="cls-2" d="M206.68,45.37a.51.51,0,0,1-.4-.16.53.53,0,0,1-.15-.39V33.36a.55.55,0,0,1,.15-.4.54.54,0,0,1,.4-.15h2.2a.51.51,0,0,1,.37.15.55.55,0,0,1,.15.4V44.82a.53.53,0,0,1-.15.39.49.49,0,0,1-.37.16Z"/><path class="cls-2" d="M219,45.37a.5.5,0,0,1-.39-.16.51.51,0,0,1-.16-.37V38.31a3.08,3.08,0,0,0-.69-2.16,2.85,2.85,0,0,0-2.19-.75h-3.19a.51.51,0,0,1-.37-.15.56.56,0,0,1-.16-.4V33.36A.56.56,0,0,1,212,33a.51.51,0,0,1,.37-.15h3.32a8.48,8.48,0,0,1,3.28.55,3.9,3.9,0,0,1,2,1.72,6.32,6.32,0,0,1,.66,3.09v6.65a.53.53,0,0,1-.15.39.49.49,0,0,1-.38.16Z"/><path class="cls-2" d="M230.15,45.59a6.1,6.1,0,0,1-4.51-1.45,5.49,5.49,0,0,1-1.43-4V33.36a.55.55,0,0,1,.15-.4.54.54,0,0,1,.38-.15h1.85A.53.53,0,0,1,227,33a.56.56,0,0,1,.16.4V40a2.77,2.77,0,0,0,.78,2.15,3.17,3.17,0,0,0,2.21.71,2.9,2.9,0,0,0,2.11-.68,2.83,2.83,0,0,0,.73-2.07c0-.14,0-.33,0-.56s0-.46,0-.69v-.57a4,4,0,0,0-.53-2.16,1.64,1.64,0,0,0-1.41-.73,3.18,3.18,0,0,0-.7.1,2.27,2.27,0,0,0-.66.26.49.49,0,0,1-.44,0,.39.39,0,0,1-.22-.39V34a1.25,1.25,0,0,1,.07-.43.65.65,0,0,1,.3-.34,3.77,3.77,0,0,1,.85-.33,5.26,5.26,0,0,1,1.33-.13,5.17,5.17,0,0,1,2.56.56A3.33,3.33,0,0,1,235.57,35a7.74,7.74,0,0,1,.5,2.85v.71c0,.32,0,.65,0,1s0,.57,0,.71a6.89,6.89,0,0,1-.68,2.87A4.11,4.11,0,0,1,233.48,45,7.43,7.43,0,0,1,230.15,45.59Z"/><path class="cls-2" d="M238.29,45.37a.47.47,0,0,1-.37-.16.5.5,0,0,1-.16-.39v-1.5a.5.5,0,0,1,.16-.39.47.47,0,0,1,.37-.16h6.84v2.11a.46.46,0,0,1-.15.36.55.55,0,0,1-.38.13Zm4.51,0a.46.46,0,0,1-.38-.16.64.64,0,0,1-.17-.39L241.92,38a8.23,8.23,0,0,0-.19-1.49,1.73,1.73,0,0,0-.52-.95,1.79,1.79,0,0,0-1.18-.33H239a.51.51,0,0,1-.37-.15.58.58,0,0,1-.16-.4V33.23a.53.53,0,0,1,.16-.38.51.51,0,0,1,.37-.15h1.12a7.27,7.27,0,0,1,2.35.33A3.41,3.41,0,0,1,244,34a4.33,4.33,0,0,1,.87,1.68,10.9,10.9,0,0,1,.35,2.35l.33,6.75a.45.45,0,0,1-.14.39.54.54,0,0,1-.39.16Z"/><path class="cls-2" d="M248.26,40.2a.51.51,0,0,1-.4-.16.53.53,0,0,1-.15-.39V33.36a.55.55,0,0,1,.15-.4.54.54,0,0,1,.4-.15h2.2a.51.51,0,0,1,.37.15.55.55,0,0,1,.15.4v6.29a.53.53,0,0,1-.15.39.49.49,0,0,1-.37.16Z"/><path class="cls-2" d="M253.91,45.37a.48.48,0,0,1-.37-.17.54.54,0,0,1-.16-.4V41.89a9.7,9.7,0,0,1,.21-2.1,4.62,4.62,0,0,1,.78-1.72A6.25,6.25,0,0,1,256,36.55l1.54,2.22a2.78,2.78,0,0,0-.91,1,3.12,3.12,0,0,0-.38,1.11,6.55,6.55,0,0,0-.09,1V44.8a.53.53,0,0,1-.16.41.47.47,0,0,1-.37.16Zm8.4,0a.66.66,0,0,1-.49-.17l-.26-.25L253.62,33.6a.57.57,0,0,1-.11-.33.47.47,0,0,1,.14-.32.39.39,0,0,1,.33-.14h2.08a.63.63,0,0,1,.49.16l.24.28,8,11.33a.46.46,0,0,1,.11.18.41.41,0,0,1,0,.15.44.44,0,0,1-.14.32.47.47,0,0,1-.32.14Zm-.59-4.2-1.5-2.2a3,3,0,0,0,1.15-.86,2.22,2.22,0,0,0,.4-1,5.4,5.4,0,0,0,.08-1V33.38A.54.54,0,0,1,262,33a.5.5,0,0,1,.37-.15h1.87a.47.47,0,0,1,.37.16.56.56,0,0,1,.16.41v2.88a6.91,6.91,0,0,1-.23,1.76,4.58,4.58,0,0,1-.88,1.65A6.65,6.65,0,0,1,261.72,41.17Z"/><path class="cls-2" d="M33.81,40.2a.54.54,0,0,1-.4-.16.53.53,0,0,1-.15-.39V33.36a.55.55,0,0,1,.15-.4.57.57,0,0,1,.4-.15H36a.54.54,0,0,1,.38.15.55.55,0,0,1,.15.4v6.29a.53.53,0,0,1-.15.39.51.51,0,0,1-.38.16Z"/><path class="cls-2" d="M45,45.59a5.9,5.9,0,0,1-4.39-1.46,5.62,5.62,0,0,1-1.41-4.06V33.36a.55.55,0,0,1,.15-.4.54.54,0,0,1,.4-.15h5.5a7.73,7.73,0,0,1,3.38.62,3.87,3.87,0,0,1,1.83,1.81,7.22,7.22,0,0,1,.64,2.85c0,.14,0,.36,0,.65v.85c0,.29,0,.51,0,.65a7.05,7.05,0,0,1-.67,2.87A4.07,4.07,0,0,1,48.46,45,8,8,0,0,1,45,45.59Zm0-2.71a3.36,3.36,0,0,0,2.37-.66A3,3,0,0,0,48,40.13a4.9,4.9,0,0,0,0-.6v-.75a4.72,4.72,0,0,0,0-.58,2.92,2.92,0,0,0-.76-2.1,3,3,0,0,0-2.16-.7h-3V40a2.87,2.87,0,0,0,.74,2.15A3,3,0,0,0,44.94,42.88Z"/><path class="cls-2" d="M54,45.37a.52.52,0,0,1-.4-.16.53.53,0,0,1-.15-.39V33.36a.52.52,0,0,1,.55-.55h4.9a8.36,8.36,0,0,1,3.3.56,3.9,3.9,0,0,1,2,1.77,6.58,6.58,0,0,1,.66,3.15v6.53a.53.53,0,0,1-.15.39.51.51,0,0,1-.4.16H62.23a.49.49,0,0,1-.37-.16.5.5,0,0,1-.15-.37V38.31a3,3,0,0,0-.7-2.16,2.85,2.85,0,0,0-2.19-.75H56.65v9.42a.5.5,0,0,1-.16.39.47.47,0,0,1-.37.16Z"/><path class="cls-2" d="M68,40.2a.55.55,0,0,1-.55-.55V33.36a.52.52,0,0,1,.16-.4.53.53,0,0,1,.39-.15h2.2a.54.54,0,0,1,.38.15.55.55,0,0,1,.15.4v6.29a.53.53,0,0,1-.15.39.51.51,0,0,1-.38.16Z"/><path class="cls-2" d="M768,115.37a.51.51,0,0,1-.4-.16.53.53,0,0,1-.15-.39V103.36a.55.55,0,0,1,.15-.4.54.54,0,0,1,.4-.15h4.73a8.16,8.16,0,0,1,3.22.55,3.86,3.86,0,0,1,1.94,1.73,6.53,6.53,0,0,1,.64,3.11v6.62a.54.54,0,0,1-.15.38.53.53,0,0,1-.4.17Zm2.31-2.6h5.19v-4.46a3,3,0,0,0-.7-2.16,2.84,2.84,0,0,0-2.18-.75h-2.31Z"/><path class="cls-2" d="M788.1,113a4.46,4.46,0,0,0,2.15-.5,3.41,3.41,0,0,0,1.42-1.37,4,4,0,0,0,.5-2v-5.77a.49.49,0,0,1,.16-.37.56.56,0,0,1,.39-.15h1.87a.51.51,0,0,1,.37.15.55.55,0,0,1,.15.4v5.87a6.88,6.88,0,0,1-.48,2.63,5.52,5.52,0,0,1-1.38,2,6.26,6.26,0,0,1-2,1.27,6.83,6.83,0,0,1-2.55.41h-2a6,6,0,0,1-2.94-.69,4.91,4.91,0,0,1-1.92-1.86,5,5,0,0,1-.69-2.62v-7a.52.52,0,0,1,.16-.4.53.53,0,0,1,.39-.15h1.85a.57.57,0,0,1,.4.15.51.51,0,0,1,.15.37l0,5.75a4,4,0,0,0,1,2.87,3.24,3.24,0,0,0,2.42,1Zm-4.36-1.78,0-2.22a3.7,3.7,0,0,0,1.84-.43,2.2,2.2,0,0,0,.91-1.16,5.4,5.4,0,0,0,.26-1.74v-2.24a.54.54,0,0,1,.16-.42.5.5,0,0,1,.37-.15h1.85a.5.5,0,0,1,.39.16.56.56,0,0,1,.16.41v2.31a6,6,0,0,1-.68,2.93,4.68,4.68,0,0,1-2,1.9A6.9,6.9,0,0,1,783.74,111.17Z"/><path class="cls-2" d="M748.19,166h.88a1,1,0,0,1,.73.21.52.52,0,0,1,.15.49c-.14.5-.24,1-.33,1.42a10.26,10.26,0,0,0-.18,1.34c0,.45,0,1,0,1.53l.13,5.83a.53.53,0,0,1-.15.39.54.54,0,0,1-.4.16l-4.18,0a.47.47,0,0,1-.37-.16.5.5,0,0,1-.16-.39v-1.39a.5.5,0,0,1,.16-.39.47.47,0,0,1,.37-.16l1.76,0V171c0-.51,0-1,0-1.45a11,11,0,0,1,.16-1.38,12.43,12.43,0,0,1,.36-1.5,1.29,1.29,0,0,1,.33-.5A1.09,1.09,0,0,1,748.19,166Zm-2.53,1.4a.52.52,0,0,1-.55-.55v-1.49a.52.52,0,0,1,.55-.55h5.7a8.26,8.26,0,0,1,3.27.57,4,4,0,0,1,2,1.76,6.25,6.25,0,0,1,.66,3.06v6.62a.53.53,0,0,1-.15.39.49.49,0,0,1-.37.16h-2.09a.51.51,0,0,1-.4-.16.5.5,0,0,1-.15-.37v-6.53a3.08,3.08,0,0,0-.69-2.16,2.84,2.84,0,0,0-2.2-.75Z"/><path class="cls-2" d="M760.55,177.37a.55.55,0,0,1-.55-.55V165.36a.52.52,0,0,1,.16-.4.53.53,0,0,1,.39-.15h2.2a.54.54,0,0,1,.38.15.55.55,0,0,1,.15.4v11.46a.53.53,0,0,1-.15.39.51.51,0,0,1-.38.16Z"/><path class="cls-2" d="M766.16,178.6a.51.51,0,0,1-.43-.1.43.43,0,0,1-.18-.36V176.6A.62.62,0,0,1,766,176l4.77-1.27a5,5,0,0,0,1.89-.87,2.82,2.82,0,0,0,.91-1.31,5.9,5.9,0,0,0,.24-1.76v-5.44A.51.51,0,0,1,774,165a.52.52,0,0,1,.38-.15h2.09a.53.53,0,0,1,.39.15.56.56,0,0,1,.16.4v6.38a5,5,0,0,1-.65,2.52,5.68,5.68,0,0,1-1.87,1.91,8.63,8.63,0,0,1-2.94,1.13Zm2.84-1.76-3.1-11.15c0-.12-.06-.21-.08-.27a.51.51,0,0,1,0-.17.44.44,0,0,1,.44-.44h2.31a.45.45,0,0,1,.5.33l2.82,11.19Z"/><path class="cls-2" d="M779.76,177.37a.5.5,0,0,1-.38-.17.41.41,0,0,1-.11-.38l2.2-10a.71.71,0,0,1,.2-.37.49.49,0,0,1,.37-.12l1.77,0a.58.58,0,0,1,.39.21.48.48,0,0,1,.11.41l-1.94,9.9a.57.57,0,0,1-.18.38.54.54,0,0,1-.39.17Zm6.33-9.86H780a.53.53,0,0,1-.55-.52v-1.63a.56.56,0,0,1,.16-.4.53.53,0,0,1,.39-.15h6.58a5.58,5.58,0,0,1,2.59.58,4.19,4.19,0,0,1,1.78,1.78,6.28,6.28,0,0,1,.65,3v6.65a.53.53,0,0,1-.15.39.54.54,0,0,1-.4.16h-5.88a.5.5,0,0,1-.39-.16.53.53,0,0,1-.16-.39v-1.5a.53.53,0,0,1,.16-.39.5.5,0,0,1,.39-.16h3.26v-4.42a3.62,3.62,0,0,0-.3-1.54,2.23,2.23,0,0,0-.81-1A2.14,2.14,0,0,0,786.09,167.51Z"/><path class="cls-2" d="M801.12,175a4.46,4.46,0,0,0,2.15-.5,3.41,3.41,0,0,0,1.42-1.37,4,4,0,0,0,.5-2v-5.77a.49.49,0,0,1,.16-.37.56.56,0,0,1,.39-.15h1.87a.51.51,0,0,1,.37.15.56.56,0,0,1,.16.4v5.87a6.7,6.7,0,0,1-.49,2.63,5.62,5.62,0,0,1-1.37,2,6.41,6.41,0,0,1-2.06,1.27,6.83,6.83,0,0,1-2.55.41h-2a6,6,0,0,1-2.94-.69,4.91,4.91,0,0,1-1.92-1.86,5,5,0,0,1-.68-2.62v-7a.55.55,0,0,1,.15-.4.54.54,0,0,1,.4-.15h1.84a.54.54,0,0,1,.4.15.51.51,0,0,1,.15.37l0,5.75a4,4,0,0,0,1,2.87,3.21,3.21,0,0,0,2.42,1Zm-4.36-1.78,0-2.22a3.7,3.7,0,0,0,1.84-.43,2.2,2.2,0,0,0,.91-1.16,5.14,5.14,0,0,0,.26-1.74v-2.24a.57.57,0,0,1,.16-.42.51.51,0,0,1,.37-.15h1.85a.54.54,0,0,1,.4.16.59.59,0,0,1,.15.41v2.31a6,6,0,0,1-.68,2.93,4.65,4.65,0,0,1-2,1.9A6.94,6.94,0,0,1,796.76,173.17Z"/><path class="cls-2" d="M810.8,177.37a.52.52,0,0,1-.38-.17.41.41,0,0,1-.11-.38l2.21-10a.63.63,0,0,1,.19-.37.5.5,0,0,1,.38-.12l1.76,0a.58.58,0,0,1,.39.21.45.45,0,0,1,.11.41l-1.93,9.9a.63.63,0,0,1-.19.38.54.54,0,0,1-.39.17Zm6.33-9.86H811a.55.55,0,0,1-.4-.15.51.51,0,0,1-.15-.37v-1.63a.52.52,0,0,1,.55-.55h6.57a5.58,5.58,0,0,1,2.59.58,4.19,4.19,0,0,1,1.78,1.78,6.28,6.28,0,0,1,.65,3v6.65a.53.53,0,0,1-.15.39.54.54,0,0,1-.4.16h-5.87a.52.52,0,0,1-.4-.16.53.53,0,0,1-.15-.39v-1.5a.53.53,0,0,1,.15-.39.52.52,0,0,1,.4-.16h3.25v-4.42a3.78,3.78,0,0,0-.29-1.54,2.25,2.25,0,0,0-.82-1A2.14,2.14,0,0,0,817.13,167.51Z"/><path class="cls-2" d="M764.45,199.37a.51.51,0,0,1-.4-.16.5.5,0,0,1-.15-.37v-6.53a3,3,0,0,0-.7-2.16,2.85,2.85,0,0,0-2.19-.75h-3.19a.51.51,0,0,1-.37-.15.55.55,0,0,1-.15-.4v-1.49a.55.55,0,0,1,.15-.4.51.51,0,0,1,.37-.15h3.33a8.46,8.46,0,0,1,3.27.55,3.9,3.9,0,0,1,2,1.72,6.32,6.32,0,0,1,.66,3.09v6.65a.53.53,0,0,1-.15.39.49.49,0,0,1-.37.16Z"/><path class="cls-2" d="M769.22,189.4a.57.57,0,0,1-.4-.15.55.55,0,0,1-.15-.4v-1.49a.55.55,0,0,1,.15-.4.57.57,0,0,1,.4-.15h9.7a.5.5,0,0,1,.37.15.52.52,0,0,1,.16.4v1.49a.6.6,0,0,1-.14.39.5.5,0,0,1-.39.16Zm5.34,10a.43.43,0,0,1-.48-.49v-7a5.9,5.9,0,0,1,.3-2.11c.2-.5.5-.74.91-.74h3.17c-.37,0-.66.29-.89.89a6.07,6.07,0,0,0-.34,2.19v6.81a.44.44,0,0,1-.19.36.69.69,0,0,1-.41.13Z"/><path class="cls-2" d="M787.37,199.59a5.9,5.9,0,0,1-4.39-1.46,5.58,5.58,0,0,1-1.42-4.06v-6.71a.52.52,0,0,1,.16-.4.53.53,0,0,1,.39-.15h5.5a7.8,7.8,0,0,1,3.39.62,3.85,3.85,0,0,1,1.82,1.81,6.89,6.89,0,0,1,.64,2.85,5.56,5.56,0,0,1,0,.65v.85a5.56,5.56,0,0,1,0,.65,6.74,6.74,0,0,1-.67,2.87,4,4,0,0,1-1.92,1.84A8,8,0,0,1,787.37,199.59Zm0-2.71a3.33,3.33,0,0,0,2.36-.66,2.94,2.94,0,0,0,.72-2.09c0-.14,0-.34,0-.6v-.75c0-.24,0-.44,0-.58a2.92,2.92,0,0,0-.76-2.1,3,3,0,0,0-2.17-.7h-3V194a2.87,2.87,0,0,0,.73,2.15A3,3,0,0,0,787.35,196.88Z"/><path class="cls-2" d="M799.18,189.51h-3.43a.53.53,0,0,1-.39-.15.49.49,0,0,1-.16-.37V184.3a.54.54,0,0,1,.16-.4.53.53,0,0,1,.39-.15h1.91a.52.52,0,0,1,.38.15.57.57,0,0,1,.15.4v2.51h1Zm-.59,10.12a.42.42,0,0,1-.4-.13.57.57,0,0,1-.17-.39v-1.85a.6.6,0,0,1,.14-.39.88.88,0,0,1,.38-.27l.75-.31a5.19,5.19,0,0,0,1.25-.73,3.15,3.15,0,0,0,.9-1.19,4.6,4.6,0,0,0,.34-1.93,5.07,5.07,0,0,0-.25-1.71,1.69,1.69,0,0,0-.85-.93,3.91,3.91,0,0,0-1.65-.29h-.55a.56.56,0,0,1-.39-.15.49.49,0,0,1-.16-.37v-1.66a.49.49,0,0,1,.16-.37.56.56,0,0,1,.39-.15h1.17a6.81,6.81,0,0,1,3.15.61,3.65,3.65,0,0,1,1.71,1.86,8.07,8.07,0,0,1,.52,3.12,7.17,7.17,0,0,1-.46,2.66,6.15,6.15,0,0,1-1.25,2,8,8,0,0,1-1.77,1.41,9.58,9.58,0,0,1-2.06.87Z"/><path class="cls-2" d="M749.19,305h.88a1,1,0,0,1,.73.21.52.52,0,0,1,.15.49c-.14.5-.24,1-.33,1.42a10.26,10.26,0,0,0-.18,1.34c0,.45,0,1,0,1.53l.13,5.83a.53.53,0,0,1-.15.39.54.54,0,0,1-.4.16l-4.18,0a.47.47,0,0,1-.37-.16.5.5,0,0,1-.16-.39v-1.39a.5.5,0,0,1,.16-.39.47.47,0,0,1,.37-.16l1.76,0V310c0-.51,0-1,0-1.45a11,11,0,0,1,.16-1.38,12.43,12.43,0,0,1,.36-1.5,1.29,1.29,0,0,1,.33-.5A1.09,1.09,0,0,1,749.19,305Zm-2.53,1.4a.52.52,0,0,1-.55-.55v-1.49a.52.52,0,0,1,.55-.55h5.7a8.26,8.26,0,0,1,3.27.57,4,4,0,0,1,2,1.76,6.25,6.25,0,0,1,.66,3.06v6.62a.53.53,0,0,1-.15.39.49.49,0,0,1-.37.16h-2.09a.51.51,0,0,1-.4-.16.5.5,0,0,1-.15-.37v-6.53a3.08,3.08,0,0,0-.69-2.16,2.84,2.84,0,0,0-2.2-.75Z"/><path class="cls-2" d="M761.55,316.37a.55.55,0,0,1-.55-.55V304.36a.52.52,0,0,1,.16-.4.53.53,0,0,1,.39-.15h2.2a.54.54,0,0,1,.38.15.55.55,0,0,1,.15.4v11.46a.53.53,0,0,1-.15.39.51.51,0,0,1-.38.16Z"/><path class="cls-2" d="M767.16,317.6a.51.51,0,0,1-.43-.1.43.43,0,0,1-.18-.36V315.6A.62.62,0,0,1,767,315l4.77-1.27a5,5,0,0,0,1.89-.87,2.82,2.82,0,0,0,.91-1.31,5.9,5.9,0,0,0,.24-1.76v-5.44A.51.51,0,0,1,775,304a.52.52,0,0,1,.38-.15h2.09a.53.53,0,0,1,.39.15.56.56,0,0,1,.16.4v6.38a5,5,0,0,1-.65,2.52,5.68,5.68,0,0,1-1.87,1.91,8.63,8.63,0,0,1-2.94,1.13Zm2.84-1.76-3.1-11.15c0-.12-.06-.21-.08-.27a.51.51,0,0,1,0-.17.44.44,0,0,1,.44-.44h2.31a.45.45,0,0,1,.5.33l2.82,11.19Z"/><path class="cls-2" d="M780.76,316.37a.5.5,0,0,1-.38-.17.41.41,0,0,1-.11-.38l2.2-10.05a.71.71,0,0,1,.2-.37.49.49,0,0,1,.37-.12l1.77,0a.58.58,0,0,1,.39.21.48.48,0,0,1,.11.41l-1.94,9.9a.57.57,0,0,1-.18.38.54.54,0,0,1-.39.17Zm6.33-9.86H781a.53.53,0,0,1-.55-.52v-1.63a.56.56,0,0,1,.16-.4.53.53,0,0,1,.39-.15h6.58a5.58,5.58,0,0,1,2.59.58,4.19,4.19,0,0,1,1.78,1.78,6.28,6.28,0,0,1,.65,3v6.65a.53.53,0,0,1-.15.39.54.54,0,0,1-.4.16h-5.88a.5.5,0,0,1-.39-.16.53.53,0,0,1-.16-.39v-1.5a.53.53,0,0,1,.16-.39.5.5,0,0,1,.39-.16h3.26v-4.42a3.62,3.62,0,0,0-.3-1.54,2.23,2.23,0,0,0-.81-1A2.14,2.14,0,0,0,787.09,306.51Z"/><path class="cls-2" d="M802.12,314a4.46,4.46,0,0,0,2.15-.5,3.41,3.41,0,0,0,1.42-1.37,4,4,0,0,0,.5-2v-5.77a.49.49,0,0,1,.16-.37.56.56,0,0,1,.39-.15h1.87a.51.51,0,0,1,.37.15.56.56,0,0,1,.16.4v5.87a6.7,6.7,0,0,1-.49,2.63,5.62,5.62,0,0,1-1.37,2,6.41,6.41,0,0,1-2.06,1.27,6.83,6.83,0,0,1-2.55.41h-2a6,6,0,0,1-2.94-.69,4.91,4.91,0,0,1-1.92-1.86,5,5,0,0,1-.68-2.62v-7a.55.55,0,0,1,.15-.4.54.54,0,0,1,.4-.15h1.84a.54.54,0,0,1,.4.15.51.51,0,0,1,.15.37l0,5.75a4,4,0,0,0,1,2.87,3.21,3.21,0,0,0,2.42,1Zm-4.36-1.78,0-2.22a3.7,3.7,0,0,0,1.84-.43,2.2,2.2,0,0,0,.91-1.16,5.14,5.14,0,0,0,.26-1.74v-2.24a.57.57,0,0,1,.16-.42.51.51,0,0,1,.37-.15h1.85a.54.54,0,0,1,.4.16.59.59,0,0,1,.15.41v2.31a6,6,0,0,1-.68,2.93,4.65,4.65,0,0,1-2,1.9A6.94,6.94,0,0,1,797.76,312.17Z"/><path class="cls-2" d="M811.8,316.37a.52.52,0,0,1-.38-.17.41.41,0,0,1-.11-.38l2.21-10.05a.63.63,0,0,1,.19-.37.5.5,0,0,1,.38-.12l1.76,0a.58.58,0,0,1,.39.21.45.45,0,0,1,.11.41l-1.93,9.9a.63.63,0,0,1-.19.38.54.54,0,0,1-.39.17Zm6.33-9.86H812a.55.55,0,0,1-.4-.15.51.51,0,0,1-.15-.37v-1.63a.52.52,0,0,1,.55-.55h6.57a5.58,5.58,0,0,1,2.59.58,4.19,4.19,0,0,1,1.78,1.78,6.28,6.28,0,0,1,.65,3v6.65a.53.53,0,0,1-.15.39.54.54,0,0,1-.4.16h-5.87a.52.52,0,0,1-.4-.16.53.53,0,0,1-.15-.39v-1.5a.53.53,0,0,1,.15-.39.52.52,0,0,1,.4-.16h3.25v-4.42a3.78,3.78,0,0,0-.29-1.54,2.25,2.25,0,0,0-.82-1A2.14,2.14,0,0,0,818.13,306.51Z"/><path class="cls-2" d="M766.28,338.59a5.9,5.9,0,0,1-4.39-1.46,5.62,5.62,0,0,1-1.42-4.06v-6.71a.52.52,0,0,1,.16-.4.53.53,0,0,1,.39-.15h5.5a7.74,7.74,0,0,1,3.39.62,3.87,3.87,0,0,1,1.83,1.81,7.22,7.22,0,0,1,.64,2.85c0,.14,0,.36,0,.65v.85c0,.29,0,.51,0,.65a6.89,6.89,0,0,1-.68,2.87,4,4,0,0,1-1.92,1.84A8,8,0,0,1,766.28,338.59Zm0-2.71a3.31,3.31,0,0,0,2.36-.66,2.94,2.94,0,0,0,.72-2.09c0-.14,0-.34,0-.6v-.75c0-.24,0-.44,0-.58a2.92,2.92,0,0,0-.76-2.1,3,3,0,0,0-2.17-.7h-3V333a2.87,2.87,0,0,0,.74,2.15A3,3,0,0,0,766.26,335.88Z"/><path class="cls-2" d="M775.35,338.37a.51.51,0,0,1-.4-.16.53.53,0,0,1-.16-.39V326.36a.56.56,0,0,1,.16-.4.54.54,0,0,1,.4-.15h4.9a8.36,8.36,0,0,1,3.3.56,3.9,3.9,0,0,1,2,1.77,6.58,6.58,0,0,1,.66,3.15v6.53a.53.53,0,0,1-.15.39.54.54,0,0,1-.4.16h-2.09a.55.55,0,0,1-.53-.53v-6.53a3.08,3.08,0,0,0-.69-2.16,2.85,2.85,0,0,0-2.19-.75H778v9.42a.53.53,0,0,1-.15.39.49.49,0,0,1-.37.16Z"/><path class="cls-2" d="M789.36,333.2a.52.52,0,0,1-.4-.16.53.53,0,0,1-.15-.39v-6.29a.52.52,0,0,1,.55-.55h2.2a.5.5,0,0,1,.37.15.52.52,0,0,1,.16.4v6.29a.5.5,0,0,1-.16.39.47.47,0,0,1-.37.16Z"/><path class="cls-2" d="M798.31,328.51h-3.43a.57.57,0,0,1-.4-.15.51.51,0,0,1-.15-.37V323.3a.52.52,0,0,1,.55-.55h1.91a.52.52,0,0,1,.38.15.57.57,0,0,1,.15.4v2.51h1Zm-.59,10.12a.42.42,0,0,1-.4-.13.57.57,0,0,1-.17-.39v-1.85a.6.6,0,0,1,.14-.39.88.88,0,0,1,.38-.27l.75-.31a5.19,5.19,0,0,0,1.25-.73,3.15,3.15,0,0,0,.9-1.19,4.6,4.6,0,0,0,.34-1.93,5.07,5.07,0,0,0-.25-1.71,1.69,1.69,0,0,0-.85-.93,3.91,3.91,0,0,0-1.65-.29h-.55a.56.56,0,0,1-.39-.15.49.49,0,0,1-.16-.37v-1.66a.49.49,0,0,1,.16-.37.56.56,0,0,1,.39-.15h1.16a6.83,6.83,0,0,1,3.16.61,3.65,3.65,0,0,1,1.71,1.86,8.07,8.07,0,0,1,.52,3.12,7.17,7.17,0,0,1-.46,2.66,6.15,6.15,0,0,1-1.25,2,8,8,0,0,1-1.77,1.41,9.79,9.79,0,0,1-2.06.87Z"/><path class="cls-2" d="M728.11,363.87a5.71,5.71,0,0,1-2.62-.59,4.83,4.83,0,0,1-1.92-1.82,9.78,9.78,0,0,1-1.18-3.2,28.46,28.46,0,0,1,0-9.39,9.59,9.59,0,0,1,1.18-3.17,4.9,4.9,0,0,1,1.92-1.82,5.71,5.71,0,0,1,2.62-.58.55.55,0,0,1,.55.55v1.56a.53.53,0,0,1-.15.39.46.46,0,0,1-.35.16,2.56,2.56,0,0,0-1.52.53,3.19,3.19,0,0,0-1,1.44,10.75,10.75,0,0,0-.51,2.35,31.31,31.31,0,0,0-.15,3.29,31.65,31.65,0,0,0,.15,3.3,10.72,10.72,0,0,0,.51,2.36,3.3,3.3,0,0,0,1,1.44,2.57,2.57,0,0,0,1.52.54.49.49,0,0,1,.35.15.53.53,0,0,1,.15.39v1.57a.52.52,0,0,1-.16.38A.54.54,0,0,1,728.11,363.87Z"/><path class="cls-2" d="M736.43,360.59a6.08,6.08,0,0,1-4.51-1.45,5.49,5.49,0,0,1-1.43-4v-6.77a.55.55,0,0,1,.15-.4.52.52,0,0,1,.38-.15h1.84a.54.54,0,0,1,.4.15.55.55,0,0,1,.15.4V355a2.74,2.74,0,0,0,.79,2.15,3.17,3.17,0,0,0,2.21.71,2.9,2.9,0,0,0,2.11-.68,2.79,2.79,0,0,0,.72-2.07,4.45,4.45,0,0,0,0-.56c0-.23,0-.46,0-.69v-.57a3.9,3.9,0,0,0-.52-2.16,1.64,1.64,0,0,0-1.41-.73,3.35,3.35,0,0,0-.71.1,2.52,2.52,0,0,0-.66.26.49.49,0,0,1-.44,0,.4.4,0,0,1-.22-.39V349a1.26,1.26,0,0,1,.08-.43.65.65,0,0,1,.3-.34,3.77,3.77,0,0,1,.85-.33,5.26,5.26,0,0,1,1.33-.13,5.17,5.17,0,0,1,2.56.56,3.33,3.33,0,0,1,1.45,1.71,7.74,7.74,0,0,1,.5,2.85v.71c0,.32,0,.65,0,1s0,.57,0,.71a6.89,6.89,0,0,1-.69,2.87,4.09,4.09,0,0,1-1.9,1.84A7.46,7.46,0,0,1,736.43,360.59Z"/><path class="cls-2" d="M748,350.51h-3.43a.53.53,0,0,1-.39-.15.49.49,0,0,1-.16-.37V345.3a.54.54,0,0,1,.16-.4.53.53,0,0,1,.39-.15h1.92a.51.51,0,0,1,.37.15.57.57,0,0,1,.15.4v2.51h1Zm-.59,10.12a.42.42,0,0,1-.4-.13.57.57,0,0,1-.17-.39v-1.85a.67.67,0,0,1,.14-.39.86.86,0,0,1,.39-.27l.74-.31a5.19,5.19,0,0,0,1.25-.73,3.15,3.15,0,0,0,.9-1.19,4.6,4.6,0,0,0,.34-1.93,4.83,4.83,0,0,0-.25-1.71,1.66,1.66,0,0,0-.85-.93,3.91,3.91,0,0,0-1.65-.29h-.55a.52.52,0,0,1-.38-.15.5.5,0,0,1-.17-.37v-1.66A.5.5,0,0,1,747,348a.52.52,0,0,1,.38-.15h1.17a6.81,6.81,0,0,1,3.15.61,3.61,3.61,0,0,1,1.71,1.86,8.06,8.06,0,0,1,.53,3.12,7.17,7.17,0,0,1-.47,2.66,6.15,6.15,0,0,1-1.25,2,8,8,0,0,1-1.77,1.41,9.58,9.58,0,0,1-2.06.87Z"/><path class="cls-2" d="M756.82,360.37a.55.55,0,0,1-.55-.55V348.36a.52.52,0,0,1,.16-.4.53.53,0,0,1,.39-.15h4.91a8.36,8.36,0,0,1,3.3.56,3.9,3.9,0,0,1,2,1.77,6.58,6.58,0,0,1,.66,3.15v6.53a.55.55,0,0,1-.55.55H765a.51.51,0,0,1-.38-.16.5.5,0,0,1-.15-.37v-6.53a3.08,3.08,0,0,0-.69-2.16,2.85,2.85,0,0,0-2.19-.75h-2.18v9.42a.53.53,0,0,1-.15.39.51.51,0,0,1-.38.16Z"/><path class="cls-2" d="M771,360.37a.51.51,0,0,1-.4-.16.53.53,0,0,1-.15-.39V348.36a.55.55,0,0,1,.15-.4.54.54,0,0,1,.4-.15h2.2a.51.51,0,0,1,.37.15.55.55,0,0,1,.15.4v11.46a.53.53,0,0,1-.15.39.49.49,0,0,1-.37.16Z"/><path class="cls-2" d="M776.58,360.37a.52.52,0,0,1-.38-.17.41.41,0,0,1-.11-.38l2.2-10.05a.71.71,0,0,1,.2-.37.5.5,0,0,1,.38-.12l1.76,0a.58.58,0,0,1,.39.21.48.48,0,0,1,.11.41l-1.93,9.9a.63.63,0,0,1-.19.38.54.54,0,0,1-.39.17Zm6.33-9.86h-6.13a.54.54,0,0,1-.4-.15.51.51,0,0,1-.15-.37v-1.63a.55.55,0,0,1,.15-.4.54.54,0,0,1,.4-.15h6.57a5.58,5.58,0,0,1,2.59.58,4.19,4.19,0,0,1,1.78,1.78,6.28,6.28,0,0,1,.65,3v6.65a.53.53,0,0,1-.15.39.54.54,0,0,1-.4.16H782a.51.51,0,0,1-.4-.16.53.53,0,0,1-.15-.39v-1.5a.53.53,0,0,1,.15-.39.51.51,0,0,1,.4-.16h3.25v-4.42a3.62,3.62,0,0,0-.3-1.54,2.17,2.17,0,0,0-.81-1A2.14,2.14,0,0,0,782.91,350.51Z"/><path class="cls-2" d="M801.64,360.59a5.88,5.88,0,0,1-4.39-1.46,5.58,5.58,0,0,1-1.42-4.06v-6.71a.52.52,0,0,1,.55-.55h5.5a7.8,7.8,0,0,1,3.39.62,3.9,3.9,0,0,1,1.82,1.81,7,7,0,0,1,.64,2.85c0,.14,0,.36,0,.65v.85c0,.29,0,.51,0,.65a6.9,6.9,0,0,1-.67,2.87,4.07,4.07,0,0,1-1.93,1.84A8,8,0,0,1,801.64,360.59Zm0-2.71a3.36,3.36,0,0,0,2.37-.66,2.94,2.94,0,0,0,.71-2.09,4.54,4.54,0,0,0,0-.6v-.75a4.4,4.4,0,0,0,0-.58,2.55,2.55,0,0,0-2.92-2.8h-3V355a2.87,2.87,0,0,0,.74,2.15A3,3,0,0,0,801.61,357.88Z"/><path class="cls-2" d="M812.68,350.51v1.08a2.69,2.69,0,0,0,.16.9.8.8,0,0,0,.48.47l.68.19a.49.49,0,0,1,.27.26.82.82,0,0,1,.1.42v.95a.49.49,0,0,1-.27.46,1,1,0,0,1-.65.11l-.9-.15a2.67,2.67,0,0,1-1.29-.61,3.22,3.22,0,0,1-.89-1.28,5.11,5.11,0,0,1-.33-1.92v-3a.66.66,0,0,1,.16-.4.53.53,0,0,1,.39-.15h4.31a6.33,6.33,0,0,1,3.12.68,4.3,4.3,0,0,1,1.82,1.93,7.47,7.47,0,0,1,.67,3c0,.22,0,.45,0,.69s0,.47,0,.69a7.46,7.46,0,0,1-.67,3,4.35,4.35,0,0,1-1.82,1.95,6.33,6.33,0,0,1-3.12.68h-4a.55.55,0,0,1-.55-.55v-1.63a.47.47,0,0,1,.16-.37.5.5,0,0,1,.39-.16h3.94a2.68,2.68,0,0,0,2-.76,3.07,3.07,0,0,0,.83-2.14c0-.22,0-.44,0-.67s0-.45,0-.67a3,3,0,0,0-.82-2.16,2.76,2.76,0,0,0-2-.75Z"/><path class="cls-2" d="M823,360.37a.48.48,0,0,1-.37-.17.54.54,0,0,1-.16-.4v-2.91a9.7,9.7,0,0,1,.21-2.1,4.62,4.62,0,0,1,.78-1.72,6.16,6.16,0,0,1,1.68-1.52l1.54,2.22a2.72,2.72,0,0,0-.92,1,3.33,3.33,0,0,0-.38,1.11,6.55,6.55,0,0,0-.09,1v2.91a.56.56,0,0,1-.15.41.51.51,0,0,1-.38.16Zm8.4,0a.68.68,0,0,1-.49-.17l-.25-.25-7.94-11.35a.51.51,0,0,1-.11-.33.45.45,0,0,1,.13-.32.4.4,0,0,1,.33-.14h2.09a.62.62,0,0,1,.48.16c.1.11.18.2.24.28l8,11.33a.46.46,0,0,1,.11.18.44.44,0,0,1,0,.15.45.45,0,0,1-.15.32.45.45,0,0,1-.32.14Zm-.59-4.2-1.49-2.2a3,3,0,0,0,1.14-.86,2.24,2.24,0,0,0,.41-1,6.46,6.46,0,0,0,.07-1v-2.79a.54.54,0,0,1,.16-.42.5.5,0,0,1,.37-.15h1.87a.51.51,0,0,1,.38.16.59.59,0,0,1,.15.41v2.88a6.91,6.91,0,0,1-.23,1.76,4.58,4.58,0,0,1-.88,1.65A6.39,6.39,0,0,1,830.85,356.17Z"/><path class="cls-2" d="M836.17,363.87a.58.58,0,0,1-.55-.55v-1.57a.51.51,0,0,1,.17-.39.53.53,0,0,1,.36-.15,2.51,2.51,0,0,0,1.51-.54,3.37,3.37,0,0,0,1-1.44,10.21,10.21,0,0,0,.5-2.36,28.9,28.9,0,0,0,.16-3.3,28.59,28.59,0,0,0-.16-3.29,10.23,10.23,0,0,0-.5-2.35,3.25,3.25,0,0,0-1-1.44,2.51,2.51,0,0,0-1.51-.53.5.5,0,0,1-.36-.16.51.51,0,0,1-.17-.39v-1.56a.54.54,0,0,1,.17-.39.52.52,0,0,1,.38-.16,5.7,5.7,0,0,1,2.64.58,4.77,4.77,0,0,1,1.92,1.82,9.82,9.82,0,0,1,1.17,3.17,28.46,28.46,0,0,1,0,9.39,10,10,0,0,1-1.17,3.2,4.71,4.71,0,0,1-1.92,1.82A5.71,5.71,0,0,1,836.17,363.87Z"/><path class="cls-2" d="M748.19,234.85h.88a1,1,0,0,1,.74.22.54.54,0,0,1,.14.49c-.13.5-.24,1-.33,1.42a10,10,0,0,0-.18,1.34c0,.44,0,1,0,1.53l.13,5.83a.53.53,0,0,1-.15.39.54.54,0,0,1-.4.16l-4.18,0a.5.5,0,0,1-.37-.15.51.51,0,0,1-.16-.4v-1.38a.54.54,0,0,1,.16-.4.5.5,0,0,1,.37-.15l1.76,0v-3.85c0-.51,0-1,0-1.45a13.46,13.46,0,0,1,.16-1.39,11.86,11.86,0,0,1,.36-1.49,1.29,1.29,0,0,1,.33-.5A1.08,1.08,0,0,1,748.19,234.85Zm-2.53,1.41a.55.55,0,0,1-.4-.15.57.57,0,0,1-.15-.4v-1.5a.53.53,0,0,1,.15-.39.56.56,0,0,1,.4-.16h5.7a8.25,8.25,0,0,1,3.27.58,4,4,0,0,1,2,1.76,6.24,6.24,0,0,1,.66,3.05v6.63a.53.53,0,0,1-.15.39.49.49,0,0,1-.37.16h-2.09a.51.51,0,0,1-.4-.16.5.5,0,0,1-.15-.37v-6.54a3.07,3.07,0,0,0-.69-2.15,2.83,2.83,0,0,0-2.2-.75Z"/><path class="cls-2" d="M760.55,246.23a.55.55,0,0,1-.55-.55V234.21a.5.5,0,0,1,.16-.39.53.53,0,0,1,.39-.16h2.2a.55.55,0,0,1,.38.16.53.53,0,0,1,.15.39v11.47a.53.53,0,0,1-.15.39.51.51,0,0,1-.38.16Z"/><path class="cls-2" d="M766.16,247.46a.51.51,0,0,1-.43-.1.45.45,0,0,1-.18-.36v-1.54a.65.65,0,0,1,.12-.39.6.6,0,0,1,.34-.23l4.77-1.28a5.21,5.21,0,0,0,1.89-.86,2.82,2.82,0,0,0,.91-1.31,6,6,0,0,0,.24-1.76v-5.44a.51.51,0,0,1,.15-.37.53.53,0,0,1,.38-.16h2.09a.53.53,0,0,1,.39.16.5.5,0,0,1,.16.39v6.38a5,5,0,0,1-.65,2.52,5.61,5.61,0,0,1-1.87,1.92,8.63,8.63,0,0,1-2.94,1.13ZM769,245.7l-3.1-11.16c0-.11-.06-.2-.08-.26a.57.57,0,0,1,0-.18.39.39,0,0,1,.13-.3.43.43,0,0,1,.31-.14h2.31c.28,0,.45.11.5.33l2.82,11.2Z"/><path class="cls-2" d="M779.76,246.23a.52.52,0,0,1-.38-.17.42.42,0,0,1-.11-.38l2.2-10.06a.72.72,0,0,1,.2-.36.43.43,0,0,1,.38-.12l1.76,0a.58.58,0,0,1,.39.21.48.48,0,0,1,.11.41l-1.93,9.9a.66.66,0,0,1-.19.38.54.54,0,0,1-.39.17Zm6.33-9.86H780a.51.51,0,0,1-.55-.53v-1.63a.53.53,0,0,1,.15-.39.54.54,0,0,1,.4-.16h6.57a5.58,5.58,0,0,1,2.59.59A4.19,4.19,0,0,1,790.9,236a6.28,6.28,0,0,1,.65,3v6.65a.53.53,0,0,1-.15.39.54.54,0,0,1-.4.16h-5.87a.51.51,0,0,1-.4-.16.53.53,0,0,1-.15-.39v-1.5a.57.57,0,0,1,.15-.4.54.54,0,0,1,.4-.15h3.25v-4.42a3.58,3.58,0,0,0-.3-1.54,2.18,2.18,0,0,0-.81-1A2.14,2.14,0,0,0,786.09,236.37Z"/><path class="cls-2" d="M801.12,243.81a4.46,4.46,0,0,0,2.15-.5,3.47,3.47,0,0,0,1.42-1.37,4,4,0,0,0,.5-2v-5.77a.49.49,0,0,1,.16-.37.57.57,0,0,1,.39-.16h1.87a.51.51,0,0,1,.37.16.5.5,0,0,1,.16.39v5.88a6.74,6.74,0,0,1-.49,2.63,5.62,5.62,0,0,1-1.37,2,6.22,6.22,0,0,1-2.06,1.26,6.64,6.64,0,0,1-2.55.42h-2a6,6,0,0,1-2.94-.69,5,5,0,0,1-1.92-1.86,5,5,0,0,1-.68-2.62v-7a.53.53,0,0,1,.15-.39.56.56,0,0,1,.4-.16h1.84a.54.54,0,0,1,.4.16.51.51,0,0,1,.15.37l0,5.74a4,4,0,0,0,1,2.88,3.24,3.24,0,0,0,2.42,1ZM796.76,242l0-2.22a3.47,3.47,0,0,0,1.84-.43,2.18,2.18,0,0,0,.91-1.15,5.13,5.13,0,0,0,.27-1.74v-2.24a.57.57,0,0,1,.15-.42.52.52,0,0,1,.37-.16h1.85a.54.54,0,0,1,.4.17.59.59,0,0,1,.15.41v2.31a6,6,0,0,1-.68,2.92,4.68,4.68,0,0,1-2,1.91A6.94,6.94,0,0,1,796.76,242Z"/><path class="cls-2" d="M810.8,246.23a.48.48,0,0,1-.37-.17.39.39,0,0,1-.11-.38l2.2-10.06a.63.63,0,0,1,.19-.36.44.44,0,0,1,.38-.12l1.76,0a.58.58,0,0,1,.39.21.45.45,0,0,1,.11.41l-1.93,9.9a.66.66,0,0,1-.19.38.53.53,0,0,1-.38.17Zm6.34-9.86H811a.55.55,0,0,1-.4-.15.54.54,0,0,1-.15-.38v-1.63a.53.53,0,0,1,.15-.39.56.56,0,0,1,.4-.16h6.58a5.57,5.57,0,0,1,2.58.59,4.13,4.13,0,0,1,1.78,1.78,6.17,6.17,0,0,1,.65,3v6.65a.53.53,0,0,1-.15.39.54.54,0,0,1-.4.16h-5.87a.52.52,0,0,1-.4-.16.53.53,0,0,1-.15-.39v-1.5a.57.57,0,0,1,.15-.4.55.55,0,0,1,.4-.15h3.25v-4.42a3.74,3.74,0,0,0-.29-1.54,2.19,2.19,0,0,0-.82-1A2.11,2.11,0,0,0,817.14,236.37Z"/><path class="cls-2" d="M741,268.23a.54.54,0,0,1-.4-.16.53.53,0,0,1-.15-.39V256.21a.53.53,0,0,1,.15-.39.58.58,0,0,1,.4-.16h4.73a8.31,8.31,0,0,1,3.22.55,3.89,3.89,0,0,1,1.94,1.74,6.49,6.49,0,0,1,.65,3.1v6.63a.52.52,0,0,1-.16.38.51.51,0,0,1-.39.17Zm2.31-2.6h5.19v-4.47a3.07,3.07,0,0,0-.69-2.15,2.85,2.85,0,0,0-2.19-.75h-2.31Z"/><path class="cls-2" d="M754.77,263.06a.56.56,0,0,1-.4-.16.53.53,0,0,1-.15-.39v-6.3a.53.53,0,0,1,.15-.39.56.56,0,0,1,.4-.16H757a.52.52,0,0,1,.37.16.53.53,0,0,1,.16.39v6.3a.53.53,0,0,1-.16.39.52.52,0,0,1-.37.16Z"/><path class="cls-2" d="M760.8,268.23a.51.51,0,0,1-.4-.16.53.53,0,0,1-.15-.39V256.21a.53.53,0,0,1,.15-.39.54.54,0,0,1,.4-.16h4.9a8.35,8.35,0,0,1,3.3.57,3.9,3.9,0,0,1,2,1.77,6.51,6.51,0,0,1,.66,3.14v6.54a.53.53,0,0,1-.15.39.52.52,0,0,1-.4.16H769a.49.49,0,0,1-.37-.16.47.47,0,0,1-.16-.37v-6.54a3.07,3.07,0,0,0-.69-2.15,2.85,2.85,0,0,0-2.19-.75h-2.18v9.42a.53.53,0,0,1-.15.39.49.49,0,0,1-.37.16Z"/><path class="cls-2" d="M774.92,268.23a.54.54,0,0,1-.4-.16.53.53,0,0,1-.15-.39V256.21a.53.53,0,0,1,.15-.39.58.58,0,0,1,.4-.16h2.2a.51.51,0,0,1,.37.16.5.5,0,0,1,.16.39v11.47a.5.5,0,0,1-.16.39.47.47,0,0,1-.37.16Z"/><path class="cls-2" d="M781.06,268.23a.52.52,0,0,1-.4-.16.53.53,0,0,1-.15-.39V256.21a.53.53,0,0,1,.15-.39.56.56,0,0,1,.4-.16h2.2a.52.52,0,0,1,.37.16.53.53,0,0,1,.16.39v11.47a.53.53,0,0,1-.16.39.49.49,0,0,1-.37.16Z"/><path class="cls-2" d="M793.36,268.23a.51.51,0,0,1-.4-.16.5.5,0,0,1-.15-.37v-6.54a3.07,3.07,0,0,0-.7-2.15,2.85,2.85,0,0,0-2.19-.75h-3.19a.51.51,0,0,1-.37-.15.57.57,0,0,1-.15-.4v-1.5a.53.53,0,0,1,.52-.55h3.33a8.66,8.66,0,0,1,3.27.55,4,4,0,0,1,2,1.73A6.32,6.32,0,0,1,796,261v6.65a.53.53,0,0,1-.15.39.49.49,0,0,1-.37.16Z"/><path class="cls-2" d="M798.74,268.23a.5.5,0,0,1-.37-.17.42.42,0,0,1-.11-.38l2.2-10.06a.72.72,0,0,1,.2-.36.42.42,0,0,1,.37-.12l1.76,0a.61.61,0,0,1,.4.21.48.48,0,0,1,.11.41l-1.94,9.9a.59.59,0,0,1-.18.38.54.54,0,0,1-.39.17Zm6.34-9.86h-6.14a.53.53,0,0,1-.39-.15.51.51,0,0,1-.16-.38v-1.63a.5.5,0,0,1,.16-.39.53.53,0,0,1,.39-.16h6.58a5.58,5.58,0,0,1,2.59.59,4.19,4.19,0,0,1,1.78,1.78,6.28,6.28,0,0,1,.65,3v6.65a.55.55,0,0,1-.55.55h-5.88a.55.55,0,0,1-.55-.55v-1.5a.54.54,0,0,1,.16-.4.53.53,0,0,1,.39-.15h3.26v-4.42a3.58,3.58,0,0,0-.3-1.54,2.24,2.24,0,0,0-.81-1A2.16,2.16,0,0,0,805.08,258.37Z"/><path class="cls-2" d="M816.43,258.37H813a.53.53,0,0,1-.39-.15.51.51,0,0,1-.16-.38v-4.68a.52.52,0,0,1,.16-.4.53.53,0,0,1,.39-.15h1.91a.52.52,0,0,1,.38.15.55.55,0,0,1,.15.4v2.5h1Zm-.59,10.12a.42.42,0,0,1-.4-.13.58.58,0,0,1-.17-.4v-1.85a.58.58,0,0,1,.14-.38.9.9,0,0,1,.38-.28l.75-.3a5.54,5.54,0,0,0,1.25-.73,3.15,3.15,0,0,0,.9-1.19,4.64,4.64,0,0,0,.34-1.93,5,5,0,0,0-.25-1.71,1.69,1.69,0,0,0-.85-.93,3.91,3.91,0,0,0-1.65-.29h-.55a.56.56,0,0,1-.39-.15.51.51,0,0,1-.16-.38v-1.65a.49.49,0,0,1,.16-.37.57.57,0,0,1,.39-.16h1.17a6.8,6.8,0,0,1,3.15.62,3.65,3.65,0,0,1,1.71,1.86,8.05,8.05,0,0,1,.52,3.11,7.1,7.1,0,0,1-.46,2.66,6.2,6.2,0,0,1-1.25,2,8,8,0,0,1-1.77,1.41,9.07,9.07,0,0,1-2.06.86Z"/><line class="cls-3" x1="608.34" y1="196.01" x2="626.55" y2="170.76"/><line class="cls-3" x1="626.55" y1="196.01" x2="608.34" y2="170.76"/><polyline class="cls-4" points="412.74 184.85 422.24 196.01 440.45 170.76"/><polyline class="cls-4" points="223.74 184.85 233.24 196.01 251.45 170.76"/><polyline class="cls-4" points="32.88 184.85 42.39 196.01 60.6 170.76"/><line class="cls-3" x1="606.34" y1="348.55" x2="624.55" y2="323.3"/><line class="cls-3" x1="624.55" y1="348.55" x2="606.34" y2="323.3"/><line class="cls-3" x1="416.69" y1="348.55" x2="434.89" y2="323.3"/><line class="cls-3" x1="434.89" y1="348.55" x2="416.69" y2="323.3"/><line class="cls-3" x1="227.03" y1="348.55" x2="245.24" y2="323.3"/><line class="cls-3" x1="245.24" y1="348.55" x2="227.03" y2="323.3"/><polyline class="cls-4" points="34.88 337.39 44.39 348.56 62.6 323.3"/><line class="cls-3" x1="606.84" y1="272.28" x2="625.05" y2="247.03"/><line class="cls-3" x1="625.05" y1="272.28" x2="606.84" y2="247.03"/><line class="cls-3" x1="417.61" y1="272.28" x2="435.81" y2="247.03"/><line class="cls-3" x1="435.81" y1="272.28" x2="417.61" y2="247.03"/><polyline class="cls-4" points="223.62 261.12 233.13 272.28 251.33 247.03"/><polyline class="cls-4" points="34.38 261.12 43.89 272.28 62.1 247.03"/><polyline class="cls-4" points="220.69 108.58 230.2 119.74 248.4 94.49"/><polyline class="cls-4" points="30.36 108.58 39.87 119.74 58.07 94.49"/><polyline class="cls-4" points="601.36 108.58 610.87 119.74 629.07 94.49"/><polyline class="cls-4" points="411.02 108.58 420.53 119.74 438.74 94.49"/></g></g></svg>