<svg xmlns="http://www.w3.org/2000/svg" viewBox="0 0 348.92 138.35"><defs><style>.cls-1{fill:#38281a;}.cls-2{fill:none;stroke:#42210b;stroke-miterlimit:10;}</style></defs><g id="Layer_2" data-name="Layer 2"><g id="Layer_1-2" data-name="Layer 1"><path class="cls-1" d="M4.18,24.42A.52.52,0,0,1,4,24V17.69a.51.51,0,0,1,.15-.39.55.55,0,0,1,.37-.14H6.42a.54.54,0,0,1,.38.15.52.52,0,0,1,.15.38V24a.52.52,0,0,1-.15.38.54.54,0,0,1-.38.15H4.55A.51.51,0,0,1,4.18,24.42Z" transform="translate(-4.03 -14.1)"/><path class="cls-1" d="M17.73,18.5A6.21,6.21,0,0,1,19,22.79a6.46,6.46,0,0,1-1.51,4.5,8.38,8.38,0,0,1-3.88,2.39l-.9.28a.43.43,0,0,1-.39-.11.47.47,0,0,1-.18-.37V27.87a.61.61,0,0,1,.14-.37.91.91,0,0,1,.39-.27l.77-.3a4.55,4.55,0,0,0,2-1.43,4.45,4.45,0,0,0,.69-2.69,5.15,5.15,0,0,0-.28-1.9,1.78,1.78,0,0,0-.92-1,4.24,4.24,0,0,0-1.81-.31h-.66l-2.47,0a.49.49,0,0,1-.38-.15.46.46,0,0,1-.15-.36V14.63a.5.5,0,0,1,.16-.39.53.53,0,0,1,.37-.14h1.61a.52.52,0,0,1,.38.14.53.53,0,0,1,.15.39v2.53h1.51C15.52,17.16,16.91,17.61,17.73,18.5Z" transform="translate(-4.03 -14.1)"/><path class="cls-1" d="M32.38,29.26a.42.42,0,0,1-.14.33.44.44,0,0,1-.32.13H30.07a.69.69,0,0,1-.36-.09.9.9,0,0,1-.23-.2.53.53,0,0,1-.11-.11L24.93,23a2.82,2.82,0,0,0-1,1.4,5.78,5.78,0,0,0-.25,1.77v3a.61.61,0,0,1-.14.4.53.53,0,0,1-.39.15H21.63a.52.52,0,0,1-.38-.15.57.57,0,0,1-.15-.4v-3a7.66,7.66,0,0,1,.5-2.95A5.31,5.31,0,0,1,23.54,21L21.38,18a.78.78,0,0,1-.11-.35.45.45,0,0,1,.14-.33.39.39,0,0,1,.3-.13H23.5a.88.88,0,0,1,.7.42l4.09,5.74a2.42,2.42,0,0,0,1.09-1.16,4.73,4.73,0,0,0,.23-1.59V17.71a.55.55,0,0,1,.15-.4.49.49,0,0,1,.38-.15H31.7a.52.52,0,0,1,.55.55v3a5.7,5.7,0,0,1-.53,2.55,5.23,5.23,0,0,1-2,2.05l2.57,3.63A.54.54,0,0,1,32.38,29.26Z" transform="translate(-4.03 -14.1)"/><path class="cls-1" d="M35,24.42a.52.52,0,0,1-.15-.38V17.69A.51.51,0,0,1,35,17.3a.56.56,0,0,1,.38-.14h1.87a.51.51,0,0,1,.37.15.52.52,0,0,1,.15.38V24a.52.52,0,0,1-.15.38.51.51,0,0,1-.37.15H35.38A.52.52,0,0,1,35,24.42Z" transform="translate(-4.03 -14.1)"/><path class="cls-1" d="M47.12,29.57a.54.54,0,0,1-.15-.38V22.64q0-3.13-3.15-3.13H40.74a.51.51,0,0,1-.37-.15.52.52,0,0,1-.15-.38V17.69a.51.51,0,0,1,.15-.39.55.55,0,0,1,.37-.14H44a6.34,6.34,0,0,1,4.37,1.31,5.19,5.19,0,0,1,1.46,4.06v6.66a.54.54,0,0,1-.15.38.49.49,0,0,1-.38.15H47.5A.54.54,0,0,1,47.12,29.57Z" transform="translate(-4.03 -14.1)"/><path class="cls-1" d="M52.84,29.57a.54.54,0,0,1-.15-.38V17.69a.51.51,0,0,1,.15-.39.57.57,0,0,1,.38-.14h1.85a.54.54,0,0,1,.38.14.51.51,0,0,1,.14.39v11.5a.53.53,0,0,1-.14.38.5.5,0,0,1-.38.15H53.22A.54.54,0,0,1,52.84,29.57Z" transform="translate(-4.03 -14.1)"/><path class="cls-1" d="M66.52,29.57a.59.59,0,0,1-.41.15H64.26a.49.49,0,0,1-.36-.14.64.64,0,0,1-.17-.39l-.41-2.07a5.58,5.58,0,0,1-1.57,1.5,9.42,9.42,0,0,1-1.55.82,8,8,0,0,1-1.51.46l-.15,0c-.25,0-.37-.12-.37-.35V27.85c0-.25.15-.43.46-.55l.95-.31A6.89,6.89,0,0,0,61,26.4a5,5,0,0,0,1-.76,5.23,5.23,0,0,0,.83-1l-.42-2.09a6.53,6.53,0,0,0-.81-2.32,1.77,1.77,0,0,0-1.56-.7h-.77a.56.56,0,0,1-.39-.15.5.5,0,0,1-.17-.38V17.6a.55.55,0,0,1,.16-.38.54.54,0,0,1,.4-.15h.81a5.54,5.54,0,0,1,2.65.56,4,4,0,0,1,1.62,1.71,12.53,12.53,0,0,1,1,3.05l1.32,6.8A.39.39,0,0,1,66.52,29.57Z" transform="translate(-4.03 -14.1)"/><path class="cls-1" d="M69.85,28.53a5.41,5.41,0,0,1-1.43-4V17.69a.51.51,0,0,1,.15-.39.57.57,0,0,1,.38-.14h1.58a.56.56,0,0,1,.39.14.55.55,0,0,1,.14.39V24.4a3.09,3.09,0,0,0,.81,2.31,3.33,3.33,0,0,0,2.38.79,3.13,3.13,0,0,0,2.28-.74,3.17,3.17,0,0,0,.78-2.23v-2a4,4,0,0,0-.6-2.3,1.85,1.85,0,0,0-1.58-.78,3.16,3.16,0,0,0-.75.11,2.38,2.38,0,0,0-.7.29.38.38,0,0,1-.22.06.45.45,0,0,1-.31-.12.41.41,0,0,1-.13-.32V18.3a1.42,1.42,0,0,1,.06-.44.53.53,0,0,1,.29-.28,3,3,0,0,1,.91-.39,5.78,5.78,0,0,1,1.31-.12,4.17,4.17,0,0,1,3.34,1.25,6,6,0,0,1,1.13,3.85c0,.15,0,.56,0,1.24s0,1.08,0,1.23a5.68,5.68,0,0,1-1.49,4,6,6,0,0,1-4.32,1.34A6,6,0,0,1,69.85,28.53Z" transform="translate(-4.03 -14.1)"/><path class="cls-1" d="M87.49,29.85a.5.5,0,0,1-.17-.37V27.87a.55.55,0,0,1,.13-.36,1.09,1.09,0,0,1,.37-.28l.79-.3a4.43,4.43,0,0,0,2-1.43,4.38,4.38,0,0,0,.7-2.69,5.37,5.37,0,0,0-.28-1.9,1.78,1.78,0,0,0-.92-1,4.26,4.26,0,0,0-1.82-.31H83.14a.51.51,0,0,1-.53-.53V17.66a.49.49,0,0,1,.15-.36.57.57,0,0,1,.38-.14h5.65c1.95,0,3.34.45,4.16,1.34a6.21,6.21,0,0,1,1.23,4.29,6.42,6.42,0,0,1-1.52,4.5,8.29,8.29,0,0,1-3.87,2.39l-.9.28A.46.46,0,0,1,87.49,29.85Zm-4.73,3.93a.51.51,0,0,1-.15-.39V22.28a.49.49,0,0,1,.15-.38.53.53,0,0,1,.38-.14h1.69a.48.48,0,0,1,.53.52V33.39a.55.55,0,0,1-.14.39.56.56,0,0,1-.39.14H83.14A.57.57,0,0,1,82.76,33.78Z" transform="translate(-4.03 -14.1)"/><path class="cls-1" d="M315.24,141.18a3.4,3.4,0,0,0,.16,1.17.91.91,0,0,0,.56.57l.71.2a.47.47,0,0,1,.27.25.88.88,0,0,1,.1.43l0,.93a.38.38,0,0,1-.24.36.8.8,0,0,1-.5.08l-1-.18a2.61,2.61,0,0,1-1.76-1.21,5,5,0,0,1-.66-2.75v-3.34a.48.48,0,0,1,.16-.39.53.53,0,0,1,.37-.14h3.89a5.57,5.57,0,0,1,4.21,1.45,5.86,5.86,0,0,1,1.43,4.09l0,9.22a.55.55,0,0,1-.53.53h-1.69a.56.56,0,0,1-.38-.14.53.53,0,0,1-.15-.39v-9.17c0-2.12-1.09-3.17-3.17-3.17h-1.78Z" transform="translate(-4.03 -14.1)"/><path class="cls-1" d="M325.84,144.42a.52.52,0,0,1-.15-.38v-6.35a.51.51,0,0,1,.15-.39.56.56,0,0,1,.38-.14h1.87a.51.51,0,0,1,.37.15.52.52,0,0,1,.15.38V144a.52.52,0,0,1-.15.38.51.51,0,0,1-.37.15h-1.87A.52.52,0,0,1,325.84,144.42Z" transform="translate(-4.03 -14.1)"/><path class="cls-1" d="M340.47,142.53a4.86,4.86,0,0,1-2,1.91l2,2.82a1.89,1.89,0,0,1,.2.35,1,1,0,0,1,.07.35v1.23a.54.54,0,0,1-.15.38.49.49,0,0,1-.38.15H331.8a.53.53,0,0,1-.39-.15.55.55,0,0,1-.16-.38v-1.34a.48.48,0,0,1,.17-.37.52.52,0,0,1,.38-.16h5.57L330.73,138a.81.81,0,0,1-.16-.39.43.43,0,0,1,.14-.31.49.49,0,0,1,.35-.13h1.84a.7.7,0,0,1,.64.37l3.54,4.95a3.45,3.45,0,0,0,1.43-3.19v-1.58a.55.55,0,0,1,.15-.4.49.49,0,0,1,.38-.15h1.59a.49.49,0,0,1,.37.16.56.56,0,0,1,.15.39v2A5.56,5.56,0,0,1,340.47,142.53Z" transform="translate(-4.03 -14.1)"/><path class="cls-1" d="M350.28,149.57a.54.54,0,0,1-.15-.38v-6.55q0-3.13-3.15-3.13H343.9a.51.51,0,0,1-.37-.15.52.52,0,0,1-.15-.38v-1.29a.51.51,0,0,1,.15-.39.55.55,0,0,1,.37-.14h3.22a6.34,6.34,0,0,1,4.37,1.31,5.19,5.19,0,0,1,1.46,4.06v6.66a.54.54,0,0,1-.15.38.49.49,0,0,1-.38.15h-1.76A.54.54,0,0,1,350.28,149.57Z" transform="translate(-4.03 -14.1)"/><path class="cls-1" d="M183,137.3a.55.55,0,0,1,.14.39V139a.56.56,0,0,1-.14.38.51.51,0,0,1-.39.15H181.4a2.72,2.72,0,0,0-.44,1.08,6.86,6.86,0,0,0-.16,1.56v7.09a.43.43,0,0,1-.18.34.7.7,0,0,1-.41.14h-1.74a.45.45,0,0,1-.48-.48V142a4.37,4.37,0,0,1,.5-2.44H173a.5.5,0,0,1-.37-.15.49.49,0,0,1-.16-.38v-1.29a.48.48,0,0,1,.16-.39.53.53,0,0,1,.37-.14h9.61A.55.55,0,0,1,183,137.3Z" transform="translate(-4.03 -14.1)"/><path class="cls-1" d="M185.49,144.42a.52.52,0,0,1-.15-.38v-6.35a.51.51,0,0,1,.15-.39.55.55,0,0,1,.37-.14h1.87a.51.51,0,0,1,.53.53V144a.51.51,0,0,1-.53.53h-1.87A.51.51,0,0,1,185.49,144.42Z" transform="translate(-4.03 -14.1)"/><path class="cls-1" d="M200.9,137.3a.51.51,0,0,1,.14.39V139a.51.51,0,0,1-.14.38.49.49,0,0,1-.38.15h-1.17a2.72,2.72,0,0,0-.44,1.08,7.51,7.51,0,0,0-.15,1.56v7.09a.44.44,0,0,1-.19.34.7.7,0,0,1-.41.14h-1.74a.45.45,0,0,1-.48-.48V142a4.28,4.28,0,0,1,.51-2.44H190.9a.51.51,0,0,1-.37-.15.53.53,0,0,1-.16-.38v-1.29a.52.52,0,0,1,.16-.39.55.55,0,0,1,.37-.14h9.62A.52.52,0,0,1,200.9,137.3Z" transform="translate(-4.03 -14.1)"/><path class="cls-1" d="M203.09,149.57a.54.54,0,0,1-.15-.38v-1.3a.51.51,0,0,1,.52-.52h5.92v-4.71q0-3.15-3.12-3.15h-2.58a.51.51,0,0,1-.37-.15.52.52,0,0,1-.15-.38v-1.29a.51.51,0,0,1,.15-.39.55.55,0,0,1,.37-.14h2.69a6.49,6.49,0,0,1,4.44,1.33,5.23,5.23,0,0,1,1.5,4.12v4.76h.79a.5.5,0,0,1,.37.15.49.49,0,0,1,.16.37v1.3a.54.54,0,0,1-.15.38.49.49,0,0,1-.38.15h-9.64A.51.51,0,0,1,203.09,149.57Z" transform="translate(-4.03 -14.1)"/><path class="cls-1" d="M240.85,24.42a.52.52,0,0,1-.15-.38V17.69a.51.51,0,0,1,.15-.39.55.55,0,0,1,.37-.14h1.87a.54.54,0,0,1,.38.15.52.52,0,0,1,.15.38V24a.52.52,0,0,1-.15.38.54.54,0,0,1-.38.15h-1.87A.51.51,0,0,1,240.85,24.42Z" transform="translate(-4.03 -14.1)"/><path class="cls-1" d="M253,29.57a.54.54,0,0,1-.15-.38V22.64q0-3.13-3.15-3.13h-3.08a.5.5,0,0,1-.37-.15.49.49,0,0,1-.16-.38V17.69a.48.48,0,0,1,.16-.39.53.53,0,0,1,.37-.14h3.21a6.39,6.39,0,0,1,4.38,1.31,5.18,5.18,0,0,1,1.45,4.06v6.66a.53.53,0,0,1-.14.38.51.51,0,0,1-.39.15h-1.75A.52.52,0,0,1,253,29.57Z" transform="translate(-4.03 -14.1)"/><path class="cls-1" d="M268.59,18.56a5.43,5.43,0,0,1,1.36,4v6.66a.53.53,0,0,1-.14.38.49.49,0,0,1-.38.15H263.6a.51.51,0,0,1-.53-.53v-1.3a.51.51,0,0,1,.15-.37.54.54,0,0,1,.38-.15h3.54V22.68a3.39,3.39,0,0,0-.71-2.25,2.21,2.21,0,0,0-1.8-.85h-2l-1.8,9.59a.74.74,0,0,1-.18.39.49.49,0,0,1-.38.16h-1.73a.47.47,0,0,1-.37-.16.45.45,0,0,1-.09-.39L260,19.6h-1.3a.51.51,0,0,1-.37-.15.54.54,0,0,1-.15-.38V17.69a.51.51,0,0,1,.15-.39.55.55,0,0,1,.37-.14H265A4.73,4.73,0,0,1,268.59,18.56Z" transform="translate(-4.03 -14.1)"/><path class="cls-1" d="M273,29.57a.54.54,0,0,1-.15-.38V17.69a.51.51,0,0,1,.15-.39.55.55,0,0,1,.37-.14h1.85a.56.56,0,0,1,.39.14.55.55,0,0,1,.14.39v11.5a.57.57,0,0,1-.14.38.53.53,0,0,1-.39.15h-1.85A.51.51,0,0,1,273,29.57Z" transform="translate(-4.03 -14.1)"/><path class="cls-1" d="M285.55,29.57a.53.53,0,0,1-.39.15h-6.47a.51.51,0,0,1-.53-.53v-1.3a.51.51,0,0,1,.15-.37.54.54,0,0,1,.38-.15h4l-.26-4.95a12.33,12.33,0,0,0-.21-1.72,1.81,1.81,0,0,0-.54-1,1.83,1.83,0,0,0-1.19-.34h-1a.54.54,0,0,1-.38-.15.5.5,0,0,1-.17-.38V17.6a.51.51,0,0,1,.16-.38.53.53,0,0,1,.39-.15h1a5.6,5.6,0,0,1,2.78.59,3.46,3.46,0,0,1,1.48,1.75,9.37,9.37,0,0,1,.55,3l.35,6.8A.42.42,0,0,1,285.55,29.57Z" transform="translate(-4.03 -14.1)"/><line class="cls-2" x1="242.96" y1="29.81" x2="212.44" y2="88.76"/><polyline class="cls-2" points="224.34 91.12 208.68 96.9 202.9 81.24"/><line class="cls-2" x1="274.9" y1="29.81" x2="305.42" y2="88.76"/><polyline class="cls-2" points="293.52 91.12 309.18 96.9 314.96 81.24"/></g></g></svg>