<svg xmlns="http://www.w3.org/2000/svg" viewBox="0 0 525.46 24.27"><defs><style>.cls-1{fill:#38281a;}.cls-2{fill:none;stroke:#42210b;stroke-miterlimit:10;}</style></defs><g id="Layer_2" data-name="Layer 2"><g id="Layer_1-2" data-name="Layer 1"><path class="cls-1" d="M496.51,24.42a.52.52,0,0,1-.15-.38V17.69a.51.51,0,0,1,.15-.39.57.57,0,0,1,.38-.14h1.87a.51.51,0,0,1,.37.15.53.53,0,0,1,.16.38V24a.53.53,0,0,1-.16.38.51.51,0,0,1-.37.15h-1.87A.54.54,0,0,1,496.51,24.42Z" transform="translate(-30.59 -9.59)"/><path class="cls-1" d="M510.07,18.5a6.21,6.21,0,0,1,1.23,4.29,6.47,6.47,0,0,1-1.52,4.5,8.29,8.29,0,0,1-3.87,2.39L505,30a.46.46,0,0,1-.4-.11.47.47,0,0,1-.18-.37V27.87a.57.57,0,0,1,.15-.37.83.83,0,0,1,.38-.27l.77-.3a4.49,4.49,0,0,0,2-1.43,4.45,4.45,0,0,0,.69-2.69,5.39,5.39,0,0,0-.27-1.9,1.79,1.79,0,0,0-.93-1,4.21,4.21,0,0,0-1.81-.31h-.66l-2.46,0a.51.51,0,0,1-.39-.15.45.45,0,0,1-.14-.36V14.63a.53.53,0,0,1,.15-.39.56.56,0,0,1,.38-.14h1.6a.49.49,0,0,1,.53.53v2.53h1.52C507.86,17.16,509.24,17.61,510.07,18.5Z" transform="translate(-30.59 -9.59)"/><path class="cls-1" d="M520.63,29.57a.57.57,0,0,1-.4.15h-6.47a.5.5,0,0,1-.37-.15.51.51,0,0,1-.16-.38v-1.3a.49.49,0,0,1,.16-.37.5.5,0,0,1,.37-.15h4l-.26-4.95a9.88,9.88,0,0,0-.21-1.72,1.69,1.69,0,0,0-.54-1,1.82,1.82,0,0,0-1.19-.34h-1a.55.55,0,0,1-.38-.15.5.5,0,0,1-.17-.38V17.6a.55.55,0,0,1,.16-.38.53.53,0,0,1,.39-.15h1a5.6,5.6,0,0,1,2.78.59,3.47,3.47,0,0,1,1.49,1.75,9.66,9.66,0,0,1,.55,3l.35,6.8A.48.48,0,0,1,520.63,29.57Z" transform="translate(-30.59 -9.59)"/><path class="cls-1" d="M523.22,24.42a.52.52,0,0,1-.15-.38V17.69a.51.51,0,0,1,.15-.39.56.56,0,0,1,.38-.14h1.87a.51.51,0,0,1,.37.15.52.52,0,0,1,.15.38V24a.52.52,0,0,1-.15.38.51.51,0,0,1-.37.15H523.6A.52.52,0,0,1,523.22,24.42Z" transform="translate(-30.59 -9.59)"/><path class="cls-1" d="M539,18.56a5.44,5.44,0,0,1,1.37,4v6.66a.54.54,0,0,1-.15.38.49.49,0,0,1-.38.15H534a.51.51,0,0,1-.53-.53v-1.3a.51.51,0,0,1,.15-.37.54.54,0,0,1,.38-.15h3.54V22.68a3.38,3.38,0,0,0-.7-2.25,2.25,2.25,0,0,0-1.81-.85h-2l-1.81,9.59a.66.66,0,0,1-.17.39.49.49,0,0,1-.37.16H528.9a.47.47,0,0,1-.37-.16.5.5,0,0,1-.1-.39l2-9.57H529.1a.52.52,0,0,1-.38-.15.54.54,0,0,1-.15-.38V17.69a.51.51,0,0,1,.15-.39.56.56,0,0,1,.38-.14h6.29A4.73,4.73,0,0,1,539,18.56Z" transform="translate(-30.59 -9.59)"/><path class="cls-1" d="M543.35,29.57a.54.54,0,0,1-.15-.38V17.69a.51.51,0,0,1,.15-.39.56.56,0,0,1,.38-.14h1.84a.56.56,0,0,1,.39.14.55.55,0,0,1,.14.39v11.5a.57.57,0,0,1-.14.38.53.53,0,0,1-.39.15h-1.84A.52.52,0,0,1,543.35,29.57Z" transform="translate(-30.59 -9.59)"/><path class="cls-1" d="M555.91,29.57a.53.53,0,0,1-.39.15h-6.47a.5.5,0,0,1-.37-.15.51.51,0,0,1-.16-.38v-1.3a.49.49,0,0,1,.16-.37.5.5,0,0,1,.37-.15h4l-.26-4.95a12.33,12.33,0,0,0-.21-1.72,1.54,1.54,0,0,0-1.73-1.3h-1a.54.54,0,0,1-.38-.15.5.5,0,0,1-.17-.38V17.6a.54.54,0,0,1,.15-.38.57.57,0,0,1,.4-.15h1a5.62,5.62,0,0,1,2.79.59,3.41,3.41,0,0,1,1.48,1.75,9.37,9.37,0,0,1,.55,3l.35,6.8A.42.42,0,0,1,555.91,29.57Z" transform="translate(-30.59 -9.59)"/><path class="cls-1" d="M330.47,24.42a.52.52,0,0,1-.15-.38V17.69a.51.51,0,0,1,.15-.39.57.57,0,0,1,.38-.14h1.87a.51.51,0,0,1,.37.15.53.53,0,0,1,.16.38V24a.53.53,0,0,1-.16.38.51.51,0,0,1-.37.15h-1.87A.54.54,0,0,1,330.47,24.42Z" transform="translate(-30.59 -9.59)"/><path class="cls-1" d="M344,18.5a6.21,6.21,0,0,1,1.23,4.29,6.47,6.47,0,0,1-1.52,4.5,8.29,8.29,0,0,1-3.87,2.39L339,30a.46.46,0,0,1-.4-.11.47.47,0,0,1-.18-.37V27.87a.57.57,0,0,1,.15-.37.83.83,0,0,1,.38-.27l.77-.3a4.49,4.49,0,0,0,2-1.43,4.45,4.45,0,0,0,.69-2.69,5.39,5.39,0,0,0-.27-1.9,1.76,1.76,0,0,0-.93-1,4.21,4.21,0,0,0-1.81-.31h-.66l-2.46,0a.51.51,0,0,1-.39-.15.49.49,0,0,1-.14-.36V14.63a.53.53,0,0,1,.15-.39.56.56,0,0,1,.38-.14h1.6a.49.49,0,0,1,.53.53v2.53h1.52C341.82,17.16,343.2,17.61,344,18.5Z" transform="translate(-30.59 -9.59)"/><path class="cls-1" d="M354.59,29.57a.57.57,0,0,1-.4.15h-6.47a.51.51,0,0,1-.37-.15.55.55,0,0,1-.16-.38v-1.3a.52.52,0,0,1,.16-.37.51.51,0,0,1,.37-.15h4l-.26-4.95a9.88,9.88,0,0,0-.21-1.72,1.69,1.69,0,0,0-.54-1,1.82,1.82,0,0,0-1.19-.34h-1a.55.55,0,0,1-.38-.15.5.5,0,0,1-.17-.38V17.6a.55.55,0,0,1,.16-.38.53.53,0,0,1,.39-.15h1a5.6,5.6,0,0,1,2.78.59,3.47,3.47,0,0,1,1.49,1.75,9.66,9.66,0,0,1,.55,3l.35,6.8A.48.48,0,0,1,354.59,29.57Z" transform="translate(-30.59 -9.59)"/><path class="cls-1" d="M357.18,24.42A.52.52,0,0,1,357,24V17.69a.51.51,0,0,1,.15-.39.56.56,0,0,1,.38-.14h1.87a.51.51,0,0,1,.37.15.52.52,0,0,1,.15.38V24a.52.52,0,0,1-.15.38.51.51,0,0,1-.37.15h-1.87A.52.52,0,0,1,357.18,24.42Z" transform="translate(-30.59 -9.59)"/><path class="cls-1" d="M372.59,17.3a.51.51,0,0,1,.15.39V19a.52.52,0,0,1-.15.38.49.49,0,0,1-.38.15H371a2.72,2.72,0,0,0-.44,1.08,7.51,7.51,0,0,0-.15,1.56v7.09a.44.44,0,0,1-.19.34.68.68,0,0,1-.41.14h-1.74a.48.48,0,0,1-.35-.13.52.52,0,0,1-.13-.35V22a4.28,4.28,0,0,1,.51-2.44h-5.55a.51.51,0,0,1-.37-.15.52.52,0,0,1-.15-.38V17.69a.51.51,0,0,1,.15-.39.55.55,0,0,1,.37-.14h9.62A.52.52,0,0,1,372.59,17.3Z" transform="translate(-30.59 -9.59)"/><path class="cls-1" d="M381.56,29.57a.51.51,0,0,1-.16-.38V22.64q0-3.13-3.14-3.13h-3.08a.54.54,0,0,1-.38-.15.52.52,0,0,1-.15-.38V17.69a.51.51,0,0,1,.15-.39.57.57,0,0,1,.38-.14h3.21a6.39,6.39,0,0,1,4.38,1.31,5.18,5.18,0,0,1,1.45,4.06v6.66a.57.57,0,0,1-.14.38.53.53,0,0,1-.39.15h-1.76A.5.5,0,0,1,381.56,29.57Z" transform="translate(-30.59 -9.59)"/><path class="cls-1" d="M387.28,29.57a.51.51,0,0,1-.16-.38V17.69a.48.48,0,0,1,.16-.39.53.53,0,0,1,.37-.14h1.85a.52.52,0,0,1,.38.14.51.51,0,0,1,.15.39v11.5a.54.54,0,0,1-.15.38.49.49,0,0,1-.38.15h-1.85A.5.5,0,0,1,387.28,29.57Z" transform="translate(-30.59 -9.59)"/><path class="cls-1" d="M403.93,29.26a.46.46,0,0,1-.46.46h-1.85a.64.64,0,0,1-.36-.09.76.76,0,0,1-.23-.2.53.53,0,0,1-.11-.11L396.47,23a2.86,2.86,0,0,0-1,1.4,5.78,5.78,0,0,0-.25,1.77v3a.57.57,0,0,1-.15.4.49.49,0,0,1-.38.15h-1.5a.51.51,0,0,1-.37-.15.58.58,0,0,1-.16-.4v-3a7.47,7.47,0,0,1,.51-2.95A5.24,5.24,0,0,1,395.09,21L392.93,18a.78.78,0,0,1-.11-.35.44.44,0,0,1,.13-.33.42.42,0,0,1,.31-.13H395a.88.88,0,0,1,.71.42l4.09,5.74a2.47,2.47,0,0,0,1.09-1.16,4.73,4.73,0,0,0,.23-1.59V17.71a.59.59,0,0,1,.14-.4.51.51,0,0,1,.39-.15h1.56a.53.53,0,0,1,.39.15.52.52,0,0,1,.16.4v3a5.84,5.84,0,0,1-.53,2.55,5.23,5.23,0,0,1-2,2.05l2.57,3.63A.54.54,0,0,1,403.93,29.26Z" transform="translate(-30.59 -9.59)"/><path class="cls-1" d="M167.68,24.42a.52.52,0,0,1-.16-.37V17.69a.53.53,0,0,1,.16-.39.55.55,0,0,1,.37-.14h1.87a.51.51,0,0,1,.53.53v6.36a.51.51,0,0,1-.15.37.54.54,0,0,1-.38.15h-1.87A.51.51,0,0,1,167.68,24.42Z" transform="translate(-30.59 -9.59)"/><path class="cls-1" d="M181.23,18.5a6.25,6.25,0,0,1,1.23,4.29,6.42,6.42,0,0,1-1.52,4.5,8.29,8.29,0,0,1-3.87,2.39l-.9.28a.43.43,0,0,1-.4-.11.48.48,0,0,1-.17-.37V27.87a.61.61,0,0,1,.14-.37.91.91,0,0,1,.39-.27l.77-.3a4.55,4.55,0,0,0,2-1.43,4.45,4.45,0,0,0,.69-2.69,5.15,5.15,0,0,0-.28-1.9,1.78,1.78,0,0,0-.92-1,4.26,4.26,0,0,0-1.82-.31h-.66l-2.46,0a.52.52,0,0,1-.38-.14.5.5,0,0,1-.15-.37V14.63a.5.5,0,0,1,.16-.39.53.53,0,0,1,.37-.14H175a.48.48,0,0,1,.52.53v2.53h1.52C179,17.16,180.41,17.61,181.23,18.5Z" transform="translate(-30.59 -9.59)"/><path class="cls-1" d="M185.17,29.57a.54.54,0,0,1-.15-.38V17.69a.53.53,0,0,1,.15-.39.55.55,0,0,1,.37-.14h1.85a.49.49,0,0,1,.53.53v11.5a.57.57,0,0,1-.14.38.53.53,0,0,1-.39.15h-1.85A.51.51,0,0,1,185.17,29.57Z" transform="translate(-30.59 -9.59)"/><path class="cls-1" d="M191.11,29.57a.55.55,0,0,1-.16-.38V17.69a.53.53,0,0,1,.16-.39.55.55,0,0,1,.37-.14h1.85a.49.49,0,0,1,.53.53v11.5a.57.57,0,0,1-.14.38.53.53,0,0,1-.39.15h-1.85A.51.51,0,0,1,191.11,29.57Z" transform="translate(-30.59 -9.59)"/><path class="cls-1" d="M203.34,29.57a.54.54,0,0,1-.15-.38V22.64c0-2.08-1.05-3.13-3.15-3.13H197a.5.5,0,0,1-.37-.15.49.49,0,0,1-.16-.38V17.69a.5.5,0,0,1,.16-.39.53.53,0,0,1,.37-.14h3.21a6.39,6.39,0,0,1,4.38,1.31A5.18,5.18,0,0,1,206,22.53v6.66a.57.57,0,0,1-.14.38.51.51,0,0,1-.39.15h-1.76A.51.51,0,0,1,203.34,29.57Z" transform="translate(-30.59 -9.59)"/><path class="cls-1" d="M210.2,28.53a5.39,5.39,0,0,1-1.43-4V17.69a.53.53,0,0,1,.16-.39.55.55,0,0,1,.37-.14h1.59a.48.48,0,0,1,.52.53V24.4a3.06,3.06,0,0,0,.82,2.31,3.29,3.29,0,0,0,2.37.79,3.11,3.11,0,0,0,2.28-.74,3.17,3.17,0,0,0,.78-2.23v-2a4,4,0,0,0-.59-2.3,1.86,1.86,0,0,0-1.59-.78,3.08,3.08,0,0,0-.74.11,2.45,2.45,0,0,0-.71.29.38.38,0,0,1-.22.06.43.43,0,0,1-.44-.44V18.3a1.16,1.16,0,0,1,.07-.44.54.54,0,0,1,.28-.28,3,3,0,0,1,.92-.39,5.72,5.72,0,0,1,1.31-.12,4.19,4.19,0,0,1,3.34,1.25,6,6,0,0,1,1.12,3.86c0,.14,0,.55,0,1.23s0,1.08,0,1.23a5.67,5.67,0,0,1-1.48,4,7.62,7.62,0,0,1-8.73-.07Z" transform="translate(-30.59 -9.59)"/><path class="cls-1" d="M229.59,29.57a.57.57,0,0,1-.4.15h-6.47a.51.51,0,0,1-.37-.15.55.55,0,0,1-.16-.38v-1.3a.52.52,0,0,1,.16-.37.51.51,0,0,1,.37-.15h4l-.26-4.95a9.88,9.88,0,0,0-.21-1.72,1.69,1.69,0,0,0-.54-1,1.82,1.82,0,0,0-1.19-.34h-1a.56.56,0,0,1-.39-.15.5.5,0,0,1-.17-.37V17.6a.55.55,0,0,1,.16-.38.54.54,0,0,1,.4-.15h1a5.49,5.49,0,0,1,2.78.6,3.41,3.41,0,0,1,1.49,1.74,9.66,9.66,0,0,1,.55,3l.35,6.8A.48.48,0,0,1,229.59,29.57Z" transform="translate(-30.59 -9.59)"/><path class="cls-1" d="M232.18,24.42a.51.51,0,0,1-.15-.37V17.69a.53.53,0,0,1,.15-.39.56.56,0,0,1,.38-.14h1.87a.51.51,0,0,1,.37.15.54.54,0,0,1,.15.38v6.36a.51.51,0,0,1-.52.52h-1.87A.52.52,0,0,1,232.18,24.42Z" transform="translate(-30.59 -9.59)"/><path class="cls-1" d="M248.73,29.26a.43.43,0,0,1-.15.33.44.44,0,0,1-.32.13h-1.84a.7.7,0,0,1-.37-.09.9.9,0,0,1-.23-.2,1.08,1.08,0,0,1-.11-.11L241.27,23a2.82,2.82,0,0,0-1,1.4,6.1,6.1,0,0,0-.25,1.77v3a.61.61,0,0,1-.14.4.53.53,0,0,1-.39.15H238a.54.54,0,0,1-.38-.15.57.57,0,0,1-.15-.4v-3a7.47,7.47,0,0,1,.51-2.95A5.21,5.21,0,0,1,239.88,21L237.73,18a.67.67,0,0,1-.11-.35.44.44,0,0,1,.13-.33.42.42,0,0,1,.31-.13h1.78a.87.87,0,0,1,.7.42l4.09,5.74a2.38,2.38,0,0,0,1.09-1.16,4.49,4.49,0,0,0,.23-1.59V17.71a.57.57,0,0,1,.15-.4.49.49,0,0,1,.38-.15H248a.55.55,0,0,1,.4.15.57.57,0,0,1,.15.4v3a5.84,5.84,0,0,1-.52,2.55,5.33,5.33,0,0,1-2,2.05l2.57,3.63A.56.56,0,0,1,248.73,29.26Z" transform="translate(-30.59 -9.59)"/><path class="cls-1" d="M30.75,24.42a.49.49,0,0,1-.16-.37V17.69a.5.5,0,0,1,.16-.39.53.53,0,0,1,.37-.14H33a.5.5,0,0,1,.37.15.51.51,0,0,1,.16.38v6.36a.49.49,0,0,1-.16.37.5.5,0,0,1-.37.15H31.12A.5.5,0,0,1,30.75,24.42Z" transform="translate(-30.59 -9.59)"/><path class="cls-1" d="M37.71,28.51a5.51,5.51,0,0,1-1.42-4.07V17.69a.53.53,0,0,1,.15-.39.57.57,0,0,1,.38-.14h5.45c2,0,3.43.44,4.29,1.31a5.82,5.82,0,0,1,1.43,4c0,.14,0,.51,0,1.1s0,1,0,1.12a5.57,5.57,0,0,1-1.5,4c-.94.89-2.44,1.33-4.53,1.33A5.74,5.74,0,0,1,37.71,28.51Zm6.77-1.7a3.08,3.08,0,0,0,.78-2.28,10,10,0,0,0,0-1,9.53,9.53,0,0,0,0-1,2.76,2.76,0,0,0-3.1-3H38.91V24.4a3.16,3.16,0,0,0,.78,2.32A3.08,3.08,0,0,0,42,27.5,3.65,3.65,0,0,0,44.48,26.81Z" transform="translate(-30.59 -9.59)"/><path class="cls-1" d="M50.72,29.57a.54.54,0,0,1-.15-.38V17.69a.53.53,0,0,1,.15-.39.55.55,0,0,1,.37-.14H55.8a6.35,6.35,0,0,1,4.41,1.32,5.35,5.35,0,0,1,1.44,4.13v6.58a.53.53,0,0,1-.14.38.49.49,0,0,1-.38.15H59.37a.51.51,0,0,1-.53-.53V22.64c0-2.08-1.05-3.13-3.15-3.13H53.38v9.68a.57.57,0,0,1-.14.38.51.51,0,0,1-.39.15H51.09A.51.51,0,0,1,50.72,29.57Z" transform="translate(-30.59 -9.59)"/><path class="cls-1" d="M64.58,24.42a.51.51,0,0,1-.15-.37V17.69a.53.53,0,0,1,.15-.39.55.55,0,0,1,.37-.14h1.87a.52.52,0,0,1,.38.15.54.54,0,0,1,.15.38v6.36a.51.51,0,0,1-.15.37.52.52,0,0,1-.38.15H65A.51.51,0,0,1,64.58,24.42Z" transform="translate(-30.59 -9.59)"/><line class="cls-2" x1="446.24" y1="12.12" x2="395.72" y2="12.12"/><polyline class="cls-2" points="396.87 22.9 385.52 12.68 395.74 1.33"/><line class="cls-2" x1="287.24" y1="11.12" x2="236.72" y2="11.12"/><polyline class="cls-2" points="237.87 21.9 226.52 11.68 236.74 0.34"/><line class="cls-2" x1="128.24" y1="13.12" x2="77.72" y2="13.12"/><polyline class="cls-2" points="78.87 23.9 67.52 13.68 77.74 2.33"/></g></g></svg>