<svg xmlns="http://www.w3.org/2000/svg" viewBox="0 0 874 279.5"><defs><style>.cls-1,.cls-2{fill:none;stroke:#42210b;stroke-miterlimit:10;}.cls-1{stroke-width:3px;}.cls-3,.cls-4{fill:#38281a;}.cls-4{font-size:22px;font-family:Rubik-Regular, Rubik;}</style></defs><g id="Layer_2" data-name="Layer 2"><g id="Layer_1-2" data-name="Layer 1"><line class="cls-1" y1="66.55" x2="874" y2="66.55"/><line class="cls-2" y1="139.75" x2="874" y2="139.75"/><line class="cls-2" y1="212.95" x2="874" y2="212.95"/><line class="cls-2" x1="151" y1="9.5" x2="151" y2="279.5"/><line class="cls-2" x1="341.67" y1="8" x2="341.67" y2="278"/><line class="cls-2" x1="532.33" y1="6" x2="532.33" y2="276"/><line class="cls-2" x1="723" x2="723" y2="270"/><path class="cls-3" d="M763.44,30.43a.52.52,0,0,1,.13.38v6.11a6.67,6.67,0,0,1-.76,3.25,5.09,5.09,0,0,1-2.13,2.13,6.26,6.26,0,0,1-3.16.69H755.9a5,5,0,0,1-2.55-.66,4.76,4.76,0,0,1-1.79-1.85,5.65,5.65,0,0,1-.66-2.77v-6.9a.52.52,0,0,1,.14-.38.57.57,0,0,1,.37-.13h.83a.56.56,0,0,1,.38.13.52.52,0,0,1,.13.38l.07,6.25A3.93,3.93,0,0,0,755.61,36a3.58,3.58,0,0,0,.79-2.42V30.81a.48.48,0,0,1,.51-.51h.86a.48.48,0,0,1,.35.14.52.52,0,0,1,.13.37v2.86a4.73,4.73,0,0,1-1.35,3.46A5.71,5.71,0,0,1,753,38.64a3.39,3.39,0,0,0,1.29,2,3.84,3.84,0,0,0,2.32.69h.72a4.15,4.15,0,0,0,3.26-1.19,4.59,4.59,0,0,0,1.17-3.3v-6a.48.48,0,0,1,.5-.51h.84A.54.54,0,0,1,763.44,30.43Z"/><path class="cls-3" d="M775,31a4.43,4.43,0,0,1,1.66,1.86,6.38,6.38,0,0,1,.6,2.86v6.69a.52.52,0,0,1-.13.36.47.47,0,0,1-.35.14h-5.68a.48.48,0,0,1-.5-.5v-.69a.48.48,0,0,1,.5-.5h4.25V35.8a4.89,4.89,0,0,0-.38-2,3.24,3.24,0,0,0-1.07-1.33,2.62,2.62,0,0,0-1.54-.47H770l-1.69,10.31a.55.55,0,0,1-.18.38.5.5,0,0,1-.37.15h-.9a.41.41,0,0,1-.34-.15.49.49,0,0,1-.1-.38L768.13,32H767a.48.48,0,0,1-.51-.51v-.72a.48.48,0,0,1,.51-.51h5.52A4.57,4.57,0,0,1,775,31Z"/><path class="cls-3" d="M791.67,35.67v6.69a.57.57,0,0,1-.13.36.52.52,0,0,1-.38.14h-.9a.5.5,0,0,1-.51-.5V35.78c0-2.52-1.26-3.79-3.78-3.79h-1.61c-.14.93-.25,1.7-.32,2.3a16.88,16.88,0,0,0-.07,2.08l0,6a.52.52,0,0,1-.13.36.5.5,0,0,1-.37.14l-3,0a.53.53,0,0,1-.36-.13.46.46,0,0,1-.15-.36v-.66a.5.5,0,0,1,.51-.5l1.69,0V36.46q0-1.38.06-2.34a13.54,13.54,0,0,1,.36-2.13h-1.19a.48.48,0,0,1-.36-.14.49.49,0,0,1-.14-.36v-.68a.52.52,0,0,1,.14-.38.57.57,0,0,1,.36-.13h4.69C789.8,30.3,791.67,32.09,791.67,35.67Z"/><path class="cls-3" d="M807.51,30.43a.52.52,0,0,1,.13.38v6.11a6.67,6.67,0,0,1-.76,3.25,5.14,5.14,0,0,1-2.13,2.13,6.26,6.26,0,0,1-3.16.69H800a5,5,0,0,1-2.54-.66,4.76,4.76,0,0,1-1.79-1.85,5.65,5.65,0,0,1-.66-2.77v-6.9a.52.52,0,0,1,.14-.38.57.57,0,0,1,.36-.13h.84a.47.47,0,0,1,.51.51l.06,6.25a3.94,3.94,0,0,0,2.8-1.06,3.63,3.63,0,0,0,.79-2.42V30.81a.53.53,0,0,1,.14-.37.52.52,0,0,1,.36-.14h.86a.45.45,0,0,1,.35.14.53.53,0,0,1,.14.37v2.86A4.7,4.7,0,0,1,801,37.13,5.69,5.69,0,0,1,797,38.64a3.37,3.37,0,0,0,1.28,2,3.86,3.86,0,0,0,2.32.69h.73a4.16,4.16,0,0,0,3.26-1.19,4.63,4.63,0,0,0,1.16-3.3v-6a.48.48,0,0,1,.51-.51h.83A.56.56,0,0,1,807.51,30.43Z"/><path class="cls-3" d="M819,31a4.37,4.37,0,0,1,1.66,1.86,6.25,6.25,0,0,1,.61,2.86v6.69a.52.52,0,0,1-.13.36.48.48,0,0,1-.35.14h-5.68a.5.5,0,0,1-.51-.5v-.69a.5.5,0,0,1,.51-.5h4.25V35.8a4.73,4.73,0,0,0-.39-2,3.16,3.16,0,0,0-1.07-1.33,2.58,2.58,0,0,0-1.54-.47H814l-1.69,10.31a.65.65,0,0,1-.18.38.51.51,0,0,1-.37.15h-.91a.42.42,0,0,1-.34-.15.53.53,0,0,1-.1-.38L812.19,32h-1.12a.48.48,0,0,1-.5-.51v-.72a.48.48,0,0,1,.5-.51h5.52A4.54,4.54,0,0,1,819,31Z"/><path class="cls-3" d="M838.82,30.44a.5.5,0,0,1,.15.37v.68a.46.46,0,0,1-.15.36.45.45,0,0,1-.36.14h-1.34a2.4,2.4,0,0,0-.48,1,6.19,6.19,0,0,0-.18,1.58v7.77a.47.47,0,0,1-.14.35.52.52,0,0,1-.37.13H835a.45.45,0,0,1-.48-.48v-7.9a6.78,6.78,0,0,1,.14-1.52,2.3,2.3,0,0,1,.41-1h-6.05a.48.48,0,0,1-.51-.5v-.68a.48.48,0,0,1,.51-.51h9.41A.49.49,0,0,1,838.82,30.44Z"/><path class="cls-3" d="M841.82,42.72a.49.49,0,0,1-.15-.36V30.81a.49.49,0,0,1,.15-.38.53.53,0,0,1,.36-.13h1a.52.52,0,0,1,.36.14.53.53,0,0,1,.14.37V42.36a.48.48,0,0,1-.5.5h-1A.49.49,0,0,1,841.82,42.72Z"/><path class="cls-3" d="M851.6,43.08a.36.36,0,0,1-.29-.11.42.42,0,0,1-.11-.31v-.94c0-.27.16-.46.48-.6l.86-.33a5.13,5.13,0,0,0,2.33-1.66,5.14,5.14,0,0,0,.82-3.18,6.32,6.32,0,0,0-.35-2.32,2.29,2.29,0,0,0-1.17-1.22A5.39,5.39,0,0,0,852,32h-4.38a.49.49,0,0,1-.36-.14.5.5,0,0,1-.15-.37v-.75a.45.45,0,0,1,.15-.35.53.53,0,0,1,.36-.13h4.66a7.34,7.34,0,0,1,3.19.57,3.44,3.44,0,0,1,1.7,1.82,8.79,8.79,0,0,1,.53,3.35,6.44,6.44,0,0,1-1.39,4.39,8.16,8.16,0,0,1-3.61,2.32l-.9.31A.3.3,0,0,1,851.6,43.08Zm-4.39,3.85a.45.45,0,0,1-.15-.37V35a.47.47,0,0,1,.15-.37.48.48,0,0,1,.36-.13h.9a.45.45,0,0,1,.35.14A.52.52,0,0,1,849,35v11.6a.49.49,0,0,1-.14.36.42.42,0,0,1-.35.14h-.9A.48.48,0,0,1,847.21,46.93Z"/><path class="cls-3" d="M591.66,37.63a.46.46,0,0,1-.15-.36V30.81a.49.49,0,0,1,.15-.38.53.53,0,0,1,.36-.13h1a.52.52,0,0,1,.36.14.53.53,0,0,1,.14.37v6.46a.49.49,0,0,1-.14.36.57.57,0,0,1-.36.13h-1A.53.53,0,0,1,591.66,37.63Z"/><path class="cls-3" d="M598,41.71a5.6,5.6,0,0,1-1.32-4V30.81a.52.52,0,0,1,.14-.38.57.57,0,0,1,.37-.13H598a.49.49,0,0,1,.36.14.5.5,0,0,1,.15.37v6.77a3.93,3.93,0,0,0,.91,2.8,4.47,4.47,0,0,0,5.46.08,3.82,3.82,0,0,0,.91-2.7V35.47a4.13,4.13,0,0,0-.76-2.66,2.44,2.44,0,0,0-2-.88,3.47,3.47,0,0,0-.89.14,3,3,0,0,0-.83.37.36.36,0,0,1-.22.06.41.41,0,0,1-.39-.39v-.64a1.48,1.48,0,0,1,0-.41.44.44,0,0,1,.22-.25,3.67,3.67,0,0,1,1-.46,4.48,4.48,0,0,1,1.3-.16,4.17,4.17,0,0,1,3.25,1.24,5.8,5.8,0,0,1,1.15,3.84c0,.15,0,.58,0,1.3s0,1.15,0,1.3a5.58,5.58,0,0,1-1.34,3.93,5.72,5.72,0,0,1-4.16,1.28A5.63,5.63,0,0,1,598,41.71Z"/><path class="cls-3" d="M617.16,42.72a.49.49,0,0,1-.15-.36V35.78c0-2.52-1.26-3.79-3.78-3.79h-2.84a.45.45,0,0,1-.36-.14.46.46,0,0,1-.15-.36v-.68a.5.5,0,0,1,.15-.37.49.49,0,0,1,.36-.14h3q5.61,0,5.61,5.37v6.69a.5.5,0,0,1-.51.5h-.92A.49.49,0,0,1,617.16,42.72Z"/><path class="cls-3" d="M624,33.8a4,4,0,0,0,.19,1.39,1,1,0,0,0,.69.63l.81.22c.25.08.37.31.37.71l0,.48a.37.37,0,0,1-.25.35.78.78,0,0,1-.37.09l-.15,0-.86-.18c-1.47-.32-2.2-1.57-2.2-3.74V30.81a.48.48,0,0,1,.14-.38.57.57,0,0,1,.36-.13h4a4.68,4.68,0,0,1,3.68,1.41,6.22,6.22,0,0,1,1.34,4c0,.15,0,.43,0,.84s0,.71,0,.86a6.2,6.2,0,0,1-1.34,4,4.68,4.68,0,0,1-3.68,1.41H623a.45.45,0,0,1-.35-.14.52.52,0,0,1-.14-.36v-.73a.49.49,0,0,1,.14-.36.43.43,0,0,1,.35-.15h3.67a3,3,0,0,0,2.38-1,4.57,4.57,0,0,0,.9-2.81c0-.15,0-.4,0-.77s0-.6,0-.75a4.37,4.37,0,0,0-.89-2.79,3,3,0,0,0-2.39-1H624Z"/><path class="cls-3" d="M640.3,42.72a.48.48,0,0,1-.14-.36V30.81a.48.48,0,0,1,.14-.38.53.53,0,0,1,.36-.13h4.16q5.56,0,5.57,5.37v6.69a.5.5,0,0,1-.51.5h-9.22A.49.49,0,0,1,640.3,42.72Zm8.19-1.55V35.78c0-2.52-1.26-3.79-3.78-3.79H642v9.18Z"/><path class="cls-3" d="M666.22,30.43a.52.52,0,0,1,.14.38v6.11a6.78,6.78,0,0,1-.76,3.25,5.17,5.17,0,0,1-2.14,2.13,6.2,6.2,0,0,1-3.15.69h-1.63a4.93,4.93,0,0,1-2.54-.66,4.78,4.78,0,0,1-1.8-1.85,5.65,5.65,0,0,1-.66-2.77v-6.9a.49.49,0,0,1,.15-.38.53.53,0,0,1,.36-.13H655a.54.54,0,0,1,.37.13.52.52,0,0,1,.13.38l.07,6.25A3.91,3.91,0,0,0,658.39,36a3.58,3.58,0,0,0,.79-2.42V30.81a.5.5,0,0,1,.15-.37.49.49,0,0,1,.36-.14h.86a.47.47,0,0,1,.35.14.52.52,0,0,1,.13.37v2.86a4.73,4.73,0,0,1-1.35,3.46,5.69,5.69,0,0,1-3.93,1.51,3.39,3.39,0,0,0,1.29,2,3.86,3.86,0,0,0,2.32.69h.73a4.12,4.12,0,0,0,3.25-1.19,4.59,4.59,0,0,0,1.17-3.3v-6a.53.53,0,0,1,.14-.37.52.52,0,0,1,.36-.14h.84A.52.52,0,0,1,666.22,30.43Z"/><path class="cls-3" d="M395.86,42.72a.52.52,0,0,1-.14-.36V35.78c0-2.52-1.26-3.79-3.78-3.79h-4.07a.48.48,0,0,1-.51-.5v-.68a.52.52,0,0,1,.14-.38.57.57,0,0,1,.37-.13h4.18c3.74,0,5.61,1.81,5.61,5.41v6.65a.5.5,0,0,1-.51.5h-.92A.53.53,0,0,1,395.86,42.72Zm-8.36,0a.52.52,0,0,1-.14-.36V35a.5.5,0,0,1,.14-.37.52.52,0,0,1,.37-.13h.92a.45.45,0,0,1,.35.14.52.52,0,0,1,.14.36v7.4a.52.52,0,0,1-.14.36.45.45,0,0,1-.35.14h-.92A.53.53,0,0,1,387.5,42.72Z"/><path class="cls-3" d="M401.1,42.72a.48.48,0,0,1-.14-.36V30.81a.48.48,0,0,1,.14-.38.57.57,0,0,1,.36-.13h4.23a5.8,5.8,0,0,1,4.21,1.35,5.47,5.47,0,0,1,1.38,4.06v6.65a.52.52,0,0,1-.14.36.45.45,0,0,1-.35.14h-.92a.53.53,0,0,1-.37-.14.52.52,0,0,1-.14-.36V35.78c0-2.52-1.26-3.79-3.78-3.79h-2.71V42.36a.52.52,0,0,1-.13.36.48.48,0,0,1-.35.14h-.93A.52.52,0,0,1,401.1,42.72Z"/><path class="cls-3" d="M416.31,33.8a4,4,0,0,0,.2,1.39,1,1,0,0,0,.68.63L418,36c.25.08.37.31.37.71l0,.48a.36.36,0,0,1-.24.35.81.81,0,0,1-.37.09l-.16,0-.85-.18c-1.47-.32-2.2-1.57-2.2-3.74V30.81a.48.48,0,0,1,.14-.38.53.53,0,0,1,.36-.13h4.05a4.65,4.65,0,0,1,3.67,1.41,6.17,6.17,0,0,1,1.35,4c0,.15,0,.43,0,.84s0,.71,0,.86a6.15,6.15,0,0,1-1.35,4,4.65,4.65,0,0,1-3.67,1.41h-3.78a.49.49,0,0,1-.36-.14.57.57,0,0,1-.13-.36v-.73a.53.53,0,0,1,.13-.36.46.46,0,0,1,.36-.15H419a3,3,0,0,0,2.38-1,4.57,4.57,0,0,0,.9-2.81c0-.15,0-.4,0-.77s0-.6,0-.75a4.37,4.37,0,0,0-.89-2.79A3,3,0,0,0,419,32h-2.71Z"/><path class="cls-3" d="M439.63,30.43a.52.52,0,0,1,.13.38v6.11a6.78,6.78,0,0,1-.75,3.25,5.17,5.17,0,0,1-2.14,2.13,6.24,6.24,0,0,1-3.16.69h-1.62a4.93,4.93,0,0,1-2.54-.66,4.71,4.71,0,0,1-1.8-1.85,5.65,5.65,0,0,1-.66-2.77v-6.9a.49.49,0,0,1,.15-.38.53.53,0,0,1,.36-.13h.83a.54.54,0,0,1,.38.13.52.52,0,0,1,.13.38l.07,6.25A3.93,3.93,0,0,0,431.8,36a3.58,3.58,0,0,0,.79-2.42V30.81a.5.5,0,0,1,.15-.37.49.49,0,0,1,.36-.14H434a.48.48,0,0,1,.35.14.52.52,0,0,1,.13.37v2.86a4.73,4.73,0,0,1-1.35,3.46,5.69,5.69,0,0,1-3.93,1.51,3.39,3.39,0,0,0,1.29,2,3.86,3.86,0,0,0,2.32.69h.73a4.14,4.14,0,0,0,3.25-1.19,4.59,4.59,0,0,0,1.17-3.3v-6a.49.49,0,0,1,.14-.37.52.52,0,0,1,.36-.14h.84A.54.54,0,0,1,439.63,30.43Z"/><path class="cls-3" d="M451.14,31a4.43,4.43,0,0,1,1.66,1.86,6.38,6.38,0,0,1,.6,2.86v6.69a.52.52,0,0,1-.13.36.47.47,0,0,1-.35.14h-5.67a.53.53,0,0,1-.37-.14.52.52,0,0,1-.14-.36v-.69a.52.52,0,0,1,.14-.36.53.53,0,0,1,.37-.14h4.24V35.8a4.89,4.89,0,0,0-.38-2A3.24,3.24,0,0,0,450,32.49,2.62,2.62,0,0,0,448.5,32h-2.36l-1.69,10.31a.55.55,0,0,1-.18.38.5.5,0,0,1-.37.15H443a.41.41,0,0,1-.34-.15.49.49,0,0,1-.1-.38L444.32,32H443.2a.48.48,0,0,1-.51-.51v-.72a.48.48,0,0,1,.51-.51h5.52A4.57,4.57,0,0,1,451.14,31Z"/><path class="cls-3" d="M462.24,42.72a.49.49,0,0,1-.15-.36V30.81a.49.49,0,0,1,.15-.38.53.53,0,0,1,.36-.13h4.16q5.57,0,5.57,5.37v6.69a.5.5,0,0,1-.51.5H462.6A.49.49,0,0,1,462.24,42.72Zm8.19-1.55V35.78c0-2.52-1.26-3.79-3.78-3.79H463.9v9.18Z"/><path class="cls-3" d="M488.16,30.43a.52.52,0,0,1,.14.38v6.11a6.78,6.78,0,0,1-.76,3.25,5.17,5.17,0,0,1-2.14,2.13,6.23,6.23,0,0,1-3.15.69h-1.63a4.93,4.93,0,0,1-2.54-.66,4.71,4.71,0,0,1-1.8-1.85,5.65,5.65,0,0,1-.66-2.77v-6.9a.49.49,0,0,1,.15-.38.53.53,0,0,1,.36-.13H477a.54.54,0,0,1,.37.13.52.52,0,0,1,.13.38l.07,6.25A3.93,3.93,0,0,0,480.33,36a3.58,3.58,0,0,0,.79-2.42V30.81a.5.5,0,0,1,.15-.37.49.49,0,0,1,.36-.14h.86a.48.48,0,0,1,.35.14.52.52,0,0,1,.13.37v2.86a4.73,4.73,0,0,1-1.35,3.46,5.69,5.69,0,0,1-3.93,1.51,3.39,3.39,0,0,0,1.29,2,3.86,3.86,0,0,0,2.32.69H482a4.14,4.14,0,0,0,3.25-1.19,4.59,4.59,0,0,0,1.17-3.3v-6a.53.53,0,0,1,.14-.37.52.52,0,0,1,.36-.14h.84A.52.52,0,0,1,488.16,30.43Z"/><path class="cls-3" d="M231.07,42.72a.48.48,0,0,1-.14-.36V35.78c0-2.52-1.27-3.79-3.79-3.79h-4.07a.48.48,0,0,1-.5-.5v-.68a.48.48,0,0,1,.14-.38.53.53,0,0,1,.36-.13h4.18c3.74,0,5.61,1.81,5.61,5.41v6.65a.48.48,0,0,1-.5.5h-.93A.51.51,0,0,1,231.07,42.72Zm-8.36,0a.48.48,0,0,1-.14-.36V35a.46.46,0,0,1,.14-.37.48.48,0,0,1,.36-.13H224a.48.48,0,0,1,.35.14.52.52,0,0,1,.13.36v7.4a.52.52,0,0,1-.13.36.48.48,0,0,1-.35.14h-.93A.49.49,0,0,1,222.71,42.72Z"/><path class="cls-3" d="M242.17,42.72a.57.57,0,0,1-.38.14h-5.85a.49.49,0,0,1-.36-.14.48.48,0,0,1-.14-.36v-.69a.48.48,0,0,1,.14-.36.49.49,0,0,1,.36-.14h4.34l-.36-5.61c-.06-.92-.13-1.62-.21-2.08a2,2,0,0,0-.55-1.11,1.78,1.78,0,0,0-1.3-.42H237a.52.52,0,0,1-.36-.14.53.53,0,0,1-.14-.37v-.68a.52.52,0,0,1,.14-.36.48.48,0,0,1,.36-.14h.91a4.06,4.06,0,0,1,2.42.62,3.32,3.32,0,0,1,1.16,1.73,13,13,0,0,1,.44,2.88l.42,6.87A.44.44,0,0,1,242.17,42.72Z"/><path class="cls-3" d="M245.06,37.63a.45.45,0,0,1-.14-.36V30.81a.48.48,0,0,1,.14-.38.57.57,0,0,1,.36-.13h1a.49.49,0,0,1,.36.14.5.5,0,0,1,.15.37v6.46a.46.46,0,0,1-.15.36.53.53,0,0,1-.36.13h-1A.57.57,0,0,1,245.06,37.63Z"/><path class="cls-3" d="M259.54,30.44a.53.53,0,0,1,.14.37v.68a.48.48,0,0,1-.51.5h-1.34a2.52,2.52,0,0,0-.48,1,6.19,6.19,0,0,0-.18,1.58v7.77a.47.47,0,0,1-.14.35.52.52,0,0,1-.36.13h-.93a.45.45,0,0,1-.48-.48v-7.9A6.78,6.78,0,0,1,255.4,33a2.44,2.44,0,0,1,.41-1h-6.05a.48.48,0,0,1-.51-.5v-.68a.48.48,0,0,1,.51-.51h9.41A.53.53,0,0,1,259.54,30.44Z"/><path class="cls-3" d="M270.46,31a4.43,4.43,0,0,1,1.66,1.86,6.38,6.38,0,0,1,.61,2.86v6.69a.52.52,0,0,1-.14.36.45.45,0,0,1-.35.14h-5.67a.53.53,0,0,1-.37-.14.52.52,0,0,1-.14-.36v-.69a.52.52,0,0,1,.14-.36.53.53,0,0,1,.37-.14h4.24V35.8a4.89,4.89,0,0,0-.38-2,3.24,3.24,0,0,0-1.07-1.33,2.6,2.6,0,0,0-1.54-.47h-2.35l-1.7,10.31a.58.58,0,0,1-.17.38.54.54,0,0,1-.38.15h-.9a.41.41,0,0,1-.34-.15.53.53,0,0,1-.1-.38L263.64,32h-1.12a.49.49,0,0,1-.36-.14.5.5,0,0,1-.15-.37v-.72a.5.5,0,0,1,.15-.37.49.49,0,0,1,.36-.14H268A4.54,4.54,0,0,1,270.46,31Z"/><path class="cls-3" d="M69.82,42.72a.48.48,0,0,1-.14-.36V35.78c0-2.52-1.27-3.79-3.79-3.79H63.05a.48.48,0,0,1-.36-.14.49.49,0,0,1-.14-.36v-.68a.53.53,0,0,1,.14-.37.52.52,0,0,1,.36-.14h3q5.61,0,5.61,5.37v6.69a.48.48,0,0,1-.5.5h-.93A.51.51,0,0,1,69.82,42.72Z"/><path class="cls-3" d="M74.9,37.63a.45.45,0,0,1-.14-.36V30.81a.48.48,0,0,1,.14-.38.57.57,0,0,1,.36-.13h.95a.48.48,0,0,1,.5.51v6.46a.45.45,0,0,1-.14.36.53.53,0,0,1-.36.13h-.95A.57.57,0,0,1,74.9,37.63Z"/><path class="cls-3" d="M89.21,30.44a.52.52,0,0,1,.13.37v6.07a5.36,5.36,0,0,1-1.26,3.48,7.09,7.09,0,0,1-3.42,2.2l-4.78,1.51a.4.4,0,0,1-.17,0A.45.45,0,0,1,79.4,44a.33.33,0,0,1-.13-.28V43c0-.34.11-.55.35-.62l2.88-1L79.64,31.18a3.5,3.5,0,0,1-.11-.44A.44.44,0,0,1,80,30.3h1a.53.53,0,0,1,.51.33l2.82,10.21a4.41,4.41,0,0,0,2.43-1.73,5.35,5.35,0,0,0,.69-2.83V30.81a.48.48,0,0,1,.51-.51h.92A.47.47,0,0,1,89.21,30.44Z"/><text class="cls-4" transform="translate(767.93 116.86)">27665</text><path class="cls-3" d="M614.75,116.72a.49.49,0,0,1-.15-.36v-6.58c0-2.52-1.26-3.79-3.78-3.79H608a.48.48,0,0,1-.5-.5v-.68a.48.48,0,0,1,.5-.51h2.95q5.61,0,5.61,5.37v6.69a.52.52,0,0,1-.14.36.53.53,0,0,1-.37.14h-.92A.49.49,0,0,1,614.75,116.72Z"/><path class="cls-3" d="M619.44,116.72a.57.57,0,0,1-.13-.36v-.69a.57.57,0,0,1,.13-.36.48.48,0,0,1,.35-.14h6.36v-5.39c0-2.52-1.26-3.79-3.78-3.79H620a.45.45,0,0,1-.35-.14.53.53,0,0,1-.13-.36v-.68a.57.57,0,0,1,.13-.37.48.48,0,0,1,.35-.14h2.47q5.63,0,5.63,5.39v5.48h.81a.5.5,0,0,1,.38.13.49.49,0,0,1,.13.37v.69a.52.52,0,0,1-.13.36.51.51,0,0,1-.38.14h-9.13A.48.48,0,0,1,619.44,116.72Z"/><path class="cls-3" d="M637.79,116.72a.55.55,0,0,1-.37.14h-5.85a.53.53,0,0,1-.37-.14.52.52,0,0,1-.14-.36v-.69a.52.52,0,0,1,.14-.36.53.53,0,0,1,.37-.14h4.33l-.35-5.61c-.06-.92-.13-1.62-.21-2.08a2,2,0,0,0-.55-1.11,1.81,1.81,0,0,0-1.31-.42h-.9a.48.48,0,0,1-.51-.51v-.68a.52.52,0,0,1,.14-.36.49.49,0,0,1,.37-.14h.9a4,4,0,0,1,2.42.62,3.28,3.28,0,0,1,1.17,1.73,13,13,0,0,1,.43,2.88l.42,6.87A.41.41,0,0,1,637.79,116.72Z"/><path class="cls-3" d="M649.91,104.44a.53.53,0,0,1,.14.37v6.07a5.37,5.37,0,0,1-1.27,3.48,7,7,0,0,1-3.42,2.2l-4.77,1.51a.48.48,0,0,1-.18,0,.45.45,0,0,1-.31-.12.33.33,0,0,1-.13-.28V117c0-.34.12-.55.35-.62l2.88-1-2.86-10.25a3.5,3.5,0,0,1-.11-.44.43.43,0,0,1,.14-.31.43.43,0,0,1,.3-.13h1a.52.52,0,0,1,.33.1.53.53,0,0,1,.17.23L645,114.84a4.34,4.34,0,0,0,2.43-1.73,5.35,5.35,0,0,0,.69-2.83v-5.47a.48.48,0,0,1,.51-.51h.92A.45.45,0,0,1,649.91,104.44Z"/><path class="cls-3" d="M426.12,116.72a.52.52,0,0,1-.14-.36v-6.58c0-2.52-1.26-3.79-3.78-3.79h-4.07a.45.45,0,0,1-.36-.14.46.46,0,0,1-.15-.36v-.68a.49.49,0,0,1,.15-.38.53.53,0,0,1,.36-.13h4.18c3.74,0,5.61,1.81,5.61,5.41v6.65a.52.52,0,0,1-.14.36.53.53,0,0,1-.37.14h-.92A.53.53,0,0,1,426.12,116.72Zm-8.35,0a.49.49,0,0,1-.15-.36V109a.47.47,0,0,1,.15-.37.48.48,0,0,1,.36-.13h.92a.45.45,0,0,1,.35.14.52.52,0,0,1,.14.36v7.4a.52.52,0,0,1-.14.36.45.45,0,0,1-.35.14h-.92A.49.49,0,0,1,417.77,116.72Z"/><path class="cls-3" d="M441.21,116.42a.43.43,0,0,1-.14.31.39.39,0,0,1-.3.13h-1a.61.61,0,0,1-.35-.09,1,1,0,0,1-.25-.26l-5.06-7.08a3.58,3.58,0,0,0-1.29,1.64,6.08,6.08,0,0,0-.34,2.05v3.24a.52.52,0,0,1-.13.36.5.5,0,0,1-.37.14h-.79a.53.53,0,0,1-.37-.14.52.52,0,0,1-.14-.36V113a7.22,7.22,0,0,1,.51-2.83,5,5,0,0,1,1.93-2.18l-2-2.86a.77.77,0,0,1-.16-.42.44.44,0,0,1,.44-.44h1a.49.49,0,0,1,.34.1,1.66,1.66,0,0,1,.25.27l4.62,6.45a3.29,3.29,0,0,0,1.18-1,2.47,2.47,0,0,0,.45-1,7.57,7.57,0,0,0,.09-1.31v-3a.48.48,0,0,1,.51-.51h.83a.49.49,0,0,1,.36.14.5.5,0,0,1,.15.37V108a5.78,5.78,0,0,1-.51,2.54,5.23,5.23,0,0,1-2.07,2l2.51,3.49A.93.93,0,0,1,441.21,116.42Z"/><path class="cls-3" d="M444.23,116.72a.52.52,0,0,1-.14-.36V104.81a.52.52,0,0,1,.14-.38.57.57,0,0,1,.36-.13h1a.49.49,0,0,1,.36.14.5.5,0,0,1,.15.37v11.55a.5.5,0,0,1-.51.5h-1A.52.52,0,0,1,444.23,116.72Z"/><path class="cls-3" d="M456.24,116.72a.52.52,0,0,1-.14-.36v-6.58c0-2.52-1.26-3.79-3.78-3.79h-2.84a.48.48,0,0,1-.51-.5v-.68a.48.48,0,0,1,.51-.51h2.95q5.61,0,5.61,5.37v6.69a.5.5,0,0,1-.51.5h-.92A.53.53,0,0,1,456.24,116.72Z"/><path class="cls-3" d="M233.06,104.44a.49.49,0,0,1,.14.37v.68a.45.45,0,0,1-.14.36.47.47,0,0,1-.36.14h-1.34a2.52,2.52,0,0,0-.49,1,6.22,6.22,0,0,0-.17,1.58v7.77a.44.44,0,0,1-.15.35.48.48,0,0,1-.36.13h-.92a.48.48,0,0,1-.36-.13.5.5,0,0,1-.13-.35v-7.9a7.43,7.43,0,0,1,.14-1.52,2.59,2.59,0,0,1,.41-1h-6.05a.48.48,0,0,1-.5-.5v-.68a.48.48,0,0,1,.5-.51h9.42A.51.51,0,0,1,233.06,104.44Z"/><path class="cls-3" d="M241.92,116.72a.57.57,0,0,1-.38.14h-5.85a.5.5,0,0,1-.51-.5v-.69a.5.5,0,0,1,.51-.5H240l-.35-5.61c-.06-.92-.13-1.62-.21-2.08a2,2,0,0,0-.55-1.11,1.79,1.79,0,0,0-1.31-.42h-.9a.48.48,0,0,1-.5-.51v-.68a.48.48,0,0,1,.14-.36.45.45,0,0,1,.36-.14h.9a4,4,0,0,1,2.42.62,3.28,3.28,0,0,1,1.17,1.73,13,13,0,0,1,.44,2.88l.42,6.87A.44.44,0,0,1,241.92,116.72Z"/><path class="cls-3" d="M250.78,104.87a3.48,3.48,0,0,1,1.7,1.82A8.81,8.81,0,0,1,253,110a6.43,6.43,0,0,1-1.37,4.39,8.12,8.12,0,0,1-3.6,2.32l-.92.31a.32.32,0,0,1-.16,0,.36.36,0,0,1-.27-.11.39.39,0,0,1-.12-.31v-.94c0-.27.16-.46.48-.6l.86-.33a4.49,4.49,0,0,0,3.17-4.84,6.32,6.32,0,0,0-.35-2.32,2.29,2.29,0,0,0-1.17-1.22,5.39,5.39,0,0,0-2.22-.37h-.75l-2,0a.57.57,0,0,1-.37-.13.49.49,0,0,1-.14-.36v-3.78a.49.49,0,0,1,.14-.36.5.5,0,0,1,.37-.15h.85a.5.5,0,0,1,.37.15.49.49,0,0,1,.14.36v2.55h1.67A7.37,7.37,0,0,1,250.78,104.87Z"/><path class="cls-3" d="M256.07,116.72a.52.52,0,0,1-.14-.36V104.81a.52.52,0,0,1,.14-.38.57.57,0,0,1,.37-.13h.94a.48.48,0,0,1,.51.51v11.55a.52.52,0,0,1-.14.36.53.53,0,0,1-.37.14h-.94A.53.53,0,0,1,256.07,116.72Z"/><path class="cls-3" d="M269.82,116.72a.52.52,0,0,1-.14-.36v-6.58c0-2.52-1.26-3.79-3.78-3.79h-4.07a.48.48,0,0,1-.51-.5v-.68a.52.52,0,0,1,.14-.38.57.57,0,0,1,.37-.13H266c3.74,0,5.61,1.81,5.61,5.41v6.65a.5.5,0,0,1-.51.5h-.92A.53.53,0,0,1,269.82,116.72Zm-8.36,0a.52.52,0,0,1-.14-.36V109a.5.5,0,0,1,.14-.37.52.52,0,0,1,.37-.13h.92a.47.47,0,0,1,.35.14.52.52,0,0,1,.13.36v7.4a.52.52,0,0,1-.13.36.47.47,0,0,1-.35.14h-.92A.53.53,0,0,1,261.46,116.72Z"/><path class="cls-3" d="M32.29,116.72a.49.49,0,0,1-.15-.36V104.81a.49.49,0,0,1,.15-.38.53.53,0,0,1,.36-.13h4.16q5.56,0,5.56,5.37v6.69a.48.48,0,0,1-.14.36.52.52,0,0,1-.36.14H32.65A.49.49,0,0,1,32.29,116.72Zm8.19-1.55v-5.39c0-2.52-1.26-3.79-3.78-3.79H34v9.18Z"/><path class="cls-3" d="M54.57,104.44a.5.5,0,0,1,.15.37v.68a.46.46,0,0,1-.15.36.45.45,0,0,1-.36.14H52.87a2.52,2.52,0,0,0-.49,1,6.71,6.71,0,0,0-.17,1.58v7.77a.47.47,0,0,1-.14.35.52.52,0,0,1-.37.13h-.92a.45.45,0,0,1-.35-.13.47.47,0,0,1-.14-.35v-7.9a6.73,6.73,0,0,1,.15-1.52,2.44,2.44,0,0,1,.4-1H44.79a.48.48,0,0,1-.36-.14.49.49,0,0,1-.14-.36v-.68a.53.53,0,0,1,.14-.37.52.52,0,0,1,.36-.14h9.42A.49.49,0,0,1,54.57,104.44Z"/><path class="cls-3" d="M64.19,116.72a.49.49,0,0,1-.15-.36v-6.58c0-2.52-1.26-3.79-3.78-3.79H57.42a.47.47,0,0,1-.36-.14.45.45,0,0,1-.14-.36v-.68a.49.49,0,0,1,.14-.37.51.51,0,0,1,.36-.14h2.95q5.61,0,5.61,5.37v6.69a.52.52,0,0,1-.14.36.53.53,0,0,1-.37.14h-.92A.49.49,0,0,1,64.19,116.72Z"/><path class="cls-3" d="M70.49,115.71a5.6,5.6,0,0,1-1.32-4v-6.88a.52.52,0,0,1,.14-.38.57.57,0,0,1,.37-.13h.83a.49.49,0,0,1,.36.14.5.5,0,0,1,.15.37v6.77a3.93,3.93,0,0,0,.91,2.8,4.47,4.47,0,0,0,5.46.08,3.82,3.82,0,0,0,.91-2.7v-2.29a4.13,4.13,0,0,0-.76-2.66,2.44,2.44,0,0,0-2-.88,3.47,3.47,0,0,0-.89.14,3,3,0,0,0-.83.37.38.38,0,0,1-.22.06.41.41,0,0,1-.39-.39v-.64a1.48,1.48,0,0,1,0-.41.44.44,0,0,1,.22-.25,3.67,3.67,0,0,1,1-.46,4.48,4.48,0,0,1,1.3-.16A4.17,4.17,0,0,1,79,105.43a5.8,5.8,0,0,1,1.15,3.84c0,.15,0,.58,0,1.3s0,1.15,0,1.3a5.58,5.58,0,0,1-1.34,3.93,5.72,5.72,0,0,1-4.16,1.28A5.63,5.63,0,0,1,70.49,115.71Z"/><path class="cls-3" d="M84.35,115.67A5.66,5.66,0,0,1,83,111.61v-6.8a.52.52,0,0,1,.14-.38.57.57,0,0,1,.36-.13h5.28a5.47,5.47,0,0,1,4.07,1.28,5.84,5.84,0,0,1,1.35,3.91c0,.15,0,.55,0,1.19s0,1,0,1.19a5.43,5.43,0,0,1-1.45,3.93,6.21,6.21,0,0,1-4.36,1.28A5.33,5.33,0,0,1,84.35,115.67Zm7-1.18a3.81,3.81,0,0,0,.93-2.73q0-.23,0-1.08t0-1.08a3.68,3.68,0,0,0-1-2.68,3.61,3.61,0,0,0-2.63-.93H84.86v5.59a4,4,0,0,0,.89,2.8,3.43,3.43,0,0,0,2.65,1A4.23,4.23,0,0,0,91.38,114.49Z"/><path class="cls-3" d="M105.12,105a4.43,4.43,0,0,1,1.66,1.86,6.38,6.38,0,0,1,.6,2.86v6.69a.52.52,0,0,1-.13.36.47.47,0,0,1-.35.14h-5.68a.48.48,0,0,1-.5-.5v-.69a.48.48,0,0,1,.5-.5h4.25V109.8a4.73,4.73,0,0,0-.39-2,3.14,3.14,0,0,0-1.06-1.33,2.62,2.62,0,0,0-1.54-.47h-2.36l-1.69,10.31a.55.55,0,0,1-.18.38.5.5,0,0,1-.37.15H97a.41.41,0,0,1-.34-.15.49.49,0,0,1-.1-.38L98.3,106H97.18a.48.48,0,0,1-.51-.51v-.72a.48.48,0,0,1,.51-.51h5.52A4.57,4.57,0,0,1,105.12,105Z"/><path class="cls-3" d="M120.67,116.42a.44.44,0,0,1-.44.44h-1a.55.55,0,0,1-.34-.09,1,1,0,0,1-.25-.26l-5.06-7.08a3.58,3.58,0,0,0-1.29,1.64,5.84,5.84,0,0,0-.34,2.05v3.24a.52.52,0,0,1-.13.36.51.51,0,0,1-.38.14h-.79a.49.49,0,0,1-.36-.14.48.48,0,0,1-.14-.36V113a7.23,7.23,0,0,1,.5-2.83A5,5,0,0,1,112.6,108l-2-2.86a.83.83,0,0,1-.15-.42.42.42,0,0,1,.13-.31.46.46,0,0,1,.31-.13h1a.51.51,0,0,1,.34.1,2.27,2.27,0,0,1,.25.27l4.62,6.45a3.38,3.38,0,0,0,1.18-1,2.47,2.47,0,0,0,.45-1,7.57,7.57,0,0,0,.09-1.31v-3a.48.48,0,0,1,.5-.51h.84a.52.52,0,0,1,.36.14.49.49,0,0,1,.14.37V108a5.78,5.78,0,0,1-.5,2.54,5.23,5.23,0,0,1-2.07,2l2.51,3.49A.89.89,0,0,1,120.67,116.42Z"/><text class="cls-4" transform="translate(765.99 183.86)">02158</text><path class="cls-3" d="M614.08,183.72a.49.49,0,0,1-.15-.36v-6.58c0-2.52-1.26-3.79-3.78-3.79h-2.84a.45.45,0,0,1-.36-.14.46.46,0,0,1-.15-.36v-.68a.5.5,0,0,1,.15-.37.49.49,0,0,1,.36-.14h3q5.61,0,5.61,5.37v6.69a.52.52,0,0,1-.14.36.53.53,0,0,1-.37.14h-.92A.49.49,0,0,1,614.08,183.72Z"/><path class="cls-3" d="M619.31,183.72a.52.52,0,0,1-.14-.36V171.81a.52.52,0,0,1,.14-.38.57.57,0,0,1,.36-.13h1a.49.49,0,0,1,.36.14.5.5,0,0,1,.15.37v11.55a.5.5,0,0,1-.51.5h-1A.52.52,0,0,1,619.31,183.72Z"/><path class="cls-3" d="M634.55,183.42a.43.43,0,0,1-.14.31.39.39,0,0,1-.3.13h-1a.61.61,0,0,1-.35-.09,1,1,0,0,1-.25-.26l-5.06-7.08a3.58,3.58,0,0,0-1.29,1.64,6.08,6.08,0,0,0-.34,2.05v3.24a.52.52,0,0,1-.13.36.5.5,0,0,1-.37.14h-.79a.53.53,0,0,1-.37-.14.52.52,0,0,1-.14-.36V180a7.22,7.22,0,0,1,.51-2.83,5,5,0,0,1,1.93-2.18l-2-2.86a.77.77,0,0,1-.16-.42.44.44,0,0,1,.44-.44h1a.49.49,0,0,1,.34.1,1.66,1.66,0,0,1,.25.27l4.62,6.45a3.29,3.29,0,0,0,1.18-1,2.47,2.47,0,0,0,.45-1,7.57,7.57,0,0,0,.09-1.31v-3.05a.48.48,0,0,1,.51-.51H634a.49.49,0,0,1,.36.14.5.5,0,0,1,.15.37V175a5.78,5.78,0,0,1-.51,2.54,5.23,5.23,0,0,1-2.07,2l2.51,3.49A.93.93,0,0,1,634.55,183.42Z"/><path class="cls-3" d="M637.42,178.63a.46.46,0,0,1-.15-.36v-6.46a.49.49,0,0,1,.15-.38.53.53,0,0,1,.36-.13h1a.52.52,0,0,1,.36.14.53.53,0,0,1,.14.37v6.46a.49.49,0,0,1-.14.36.57.57,0,0,1-.36.13h-1A.53.53,0,0,1,637.42,178.63Z"/><path class="cls-3" d="M648.87,171.87a3.43,3.43,0,0,1,1.69,1.82,8.79,8.79,0,0,1,.53,3.35,6.44,6.44,0,0,1-1.38,4.39,8,8,0,0,1-3.59,2.32l-.93.31a.3.3,0,0,1-.15,0,.4.4,0,0,1-.28-.11.39.39,0,0,1-.12-.31v-.94c0-.27.16-.46.49-.6l.86-.33a5.15,5.15,0,0,0,2.35-1.67,5.22,5.22,0,0,0,.81-3.17,6.12,6.12,0,0,0-.35-2.32,2.24,2.24,0,0,0-1.16-1.22,5.47,5.47,0,0,0-2.23-.37h-.74l-2,0a.55.55,0,0,1-.36-.13.45.45,0,0,1-.14-.36v-3.78a.45.45,0,0,1,.14-.36.48.48,0,0,1,.36-.15h.86a.51.51,0,0,1,.51.51v2.55h1.67A7.37,7.37,0,0,1,648.87,171.87Z"/><path class="cls-3" d="M424,186.46a.51.51,0,0,1-.14-.38V171.81a.52.52,0,0,1,.14-.38.57.57,0,0,1,.37-.13h.92a.47.47,0,0,1,.35.14.52.52,0,0,1,.13.37v14.27a.52.52,0,0,1-.13.37.47.47,0,0,1-.35.14h-.92A.52.52,0,0,1,424,186.46Z"/><path class="cls-3" d="M437.71,183.72a.48.48,0,0,1-.14-.36v-6.58c0-2.52-1.27-3.79-3.79-3.79h-4.07a.47.47,0,0,1-.36-.14.45.45,0,0,1-.14-.36v-.68a.48.48,0,0,1,.14-.38.55.55,0,0,1,.36-.13h4.18c3.74,0,5.61,1.81,5.61,5.41v6.65a.48.48,0,0,1-.5.5h-.93A.51.51,0,0,1,437.71,183.72Zm-8.36,0a.48.48,0,0,1-.14-.36V176a.46.46,0,0,1,.14-.37.5.5,0,0,1,.36-.13h.93a.48.48,0,0,1,.35.14.52.52,0,0,1,.13.36v7.4a.52.52,0,0,1-.13.36.48.48,0,0,1-.35.14h-.93A.51.51,0,0,1,429.35,183.72Z"/><path class="cls-3" d="M443,183.72a.49.49,0,0,1-.15-.36v-.73a.51.51,0,0,1,.51-.51h3.15a3.71,3.71,0,0,0,2.83-1,4.2,4.2,0,0,0,1-2.83c0-.2,0-.46,0-.77s0-.54,0-.75a4.17,4.17,0,0,0-1-2.82,3.71,3.71,0,0,0-2.83-1h-3.15a.49.49,0,0,1-.36-.14.5.5,0,0,1-.15-.37v-.72a.5.5,0,0,1,.15-.37.49.49,0,0,1,.36-.14h3.25a5.49,5.49,0,0,1,4.14,1.39,5.9,5.9,0,0,1,1.45,4c0,.21,0,.49,0,.84s0,.65,0,.86a6,6,0,0,1-1.45,4,5.53,5.53,0,0,1-4.14,1.38h-3.25A.49.49,0,0,1,443,183.72Z"/><path class="cls-3" d="M226.94,183.72a.52.52,0,0,1-.14-.36v-6.58c0-2.52-1.26-3.79-3.78-3.79H219a.48.48,0,0,1-.51-.5v-.68a.52.52,0,0,1,.14-.38.57.57,0,0,1,.37-.13h4.18c3.74,0,5.61,1.81,5.61,5.41v6.65a.5.5,0,0,1-.51.5h-.92A.53.53,0,0,1,226.94,183.72Zm-8.36,0a.52.52,0,0,1-.14-.36V176a.5.5,0,0,1,.14-.37.52.52,0,0,1,.37-.13h.92a.47.47,0,0,1,.35.14.52.52,0,0,1,.13.36v7.4a.52.52,0,0,1-.13.36.47.47,0,0,1-.35.14H219A.53.53,0,0,1,218.58,183.72Z"/><path class="cls-3" d="M232,178.63a.46.46,0,0,1-.15-.36v-6.46a.49.49,0,0,1,.15-.38.53.53,0,0,1,.36-.13h.94a.48.48,0,0,1,.51.51v6.46a.49.49,0,0,1-.14.36.57.57,0,0,1-.37.13h-.94A.53.53,0,0,1,232,178.63Z"/><path class="cls-3" d="M243.48,171.87a3.46,3.46,0,0,1,1.69,1.82,8.79,8.79,0,0,1,.53,3.35,6.44,6.44,0,0,1-1.38,4.39,8,8,0,0,1-3.59,2.32l-.93.31a.3.3,0,0,1-.15,0,.39.39,0,0,1-.4-.42v-.94c0-.27.16-.46.49-.6l.85-.33a5.13,5.13,0,0,0,2.36-1.67,5.22,5.22,0,0,0,.81-3.17,6.32,6.32,0,0,0-.35-2.32,2.22,2.22,0,0,0-1.17-1.22A5.39,5.39,0,0,0,240,173h-.75l-2,0a.53.53,0,0,1-.36-.13.46.46,0,0,1-.15-.36v-3.78a.51.51,0,0,1,.51-.51h.86a.48.48,0,0,1,.36.15.45.45,0,0,1,.14.36v2.55h1.68A7.37,7.37,0,0,1,243.48,171.87Z"/><path class="cls-3" d="M255.71,183.72a.56.56,0,0,1-.38.14h-.94c-.3,0-.46-.17-.51-.5l-.5-2.58a6.78,6.78,0,0,1-1.87,2,9.23,9.23,0,0,1-1.52.85,7.25,7.25,0,0,1-1.5.45l-.15,0c-.25,0-.38-.12-.38-.35v-1c0-.24.16-.43.47-.55l.87-.29a6.85,6.85,0,0,0,1.44-.69A6.21,6.21,0,0,0,252,180a5.51,5.51,0,0,0,.9-1.37l-.4-2a13,13,0,0,0-.56-2,2.69,2.69,0,0,0-.8-1.16,2.12,2.12,0,0,0-1.32-.4H249a.48.48,0,0,1-.36-.14.45.45,0,0,1-.14-.36v-.73a.48.48,0,0,1,.5-.5h.82a4.27,4.27,0,0,1,2.31.57,3.88,3.88,0,0,1,1.43,1.69,13.56,13.56,0,0,1,.9,3l1.34,6.87A.41.41,0,0,1,255.71,183.72Z"/><path class="cls-3" d="M264.38,183.72a.57.57,0,0,1-.38.14h-5.85a.5.5,0,0,1-.51-.5v-.69a.5.5,0,0,1,.51-.5h4.33l-.35-5.61c-.06-.92-.13-1.62-.21-2.08a2,2,0,0,0-.55-1.11,1.79,1.79,0,0,0-1.31-.42h-.9a.51.51,0,0,1-.36-.14.49.49,0,0,1-.14-.37v-.68a.48.48,0,0,1,.14-.36.47.47,0,0,1,.36-.14h.9a4,4,0,0,1,2.42.62,3.28,3.28,0,0,1,1.17,1.73,13,13,0,0,1,.44,2.88l.42,6.87A.44.44,0,0,1,264.38,183.72Z"/><path class="cls-3" d="M277.27,183.42a.46.46,0,0,1-.13.31.42.42,0,0,1-.31.13h-1a.55.55,0,0,1-.34-.09,1.06,1.06,0,0,1-.26-.26l-5.06-7.08a3.49,3.49,0,0,0-1.28,1.64,5.84,5.84,0,0,0-.34,2.05v3.24a.52.52,0,0,1-.14.36.48.48,0,0,1-.37.14h-.79a.5.5,0,0,1-.51-.5V180a7.22,7.22,0,0,1,.51-2.83,5,5,0,0,1,1.93-2.18l-2-2.86a.85.85,0,0,1-.16-.42.43.43,0,0,1,.14-.31.43.43,0,0,1,.3-.13h1a.49.49,0,0,1,.34.1,2.27,2.27,0,0,1,.26.27l4.62,6.45a3.33,3.33,0,0,0,1.17-1,2.23,2.23,0,0,0,.45-1,7.57,7.57,0,0,0,.09-1.31v-3.05a.5.5,0,0,1,.15-.37.49.49,0,0,1,.36-.14h.83a.48.48,0,0,1,.51.51V175a5.78,5.78,0,0,1-.51,2.54,5.12,5.12,0,0,1-2.06,2l2.5,3.49A.82.82,0,0,1,277.27,183.42Z"/><path class="cls-3" d="M53.6,186.46a.51.51,0,0,1-.14-.38V171.81a.52.52,0,0,1,.14-.38.57.57,0,0,1,.37-.13h.92a.45.45,0,0,1,.35.14.53.53,0,0,1,.14.37v14.27a.53.53,0,0,1-.14.37.45.45,0,0,1-.35.14H54A.52.52,0,0,1,53.6,186.46Z"/><path class="cls-3" d="M59,183.72a.48.48,0,0,1-.14-.36V171.81a.48.48,0,0,1,.14-.38.55.55,0,0,1,.36-.13h.95a.48.48,0,0,1,.5.51v11.55a.48.48,0,0,1-.14.36.49.49,0,0,1-.36.14h-.95A.51.51,0,0,1,59,183.72Z"/><path class="cls-3" d="M73.58,171.44a.49.49,0,0,1,.14.37v.68a.45.45,0,0,1-.14.36.47.47,0,0,1-.36.14H71.88a2.52,2.52,0,0,0-.49,1,6.22,6.22,0,0,0-.17,1.58v7.77a.44.44,0,0,1-.15.35.48.48,0,0,1-.36.13h-.92a.48.48,0,0,1-.36-.13.5.5,0,0,1-.13-.35v-7.9a7.43,7.43,0,0,1,.14-1.52,2.59,2.59,0,0,1,.41-1h-6a.48.48,0,0,1-.5-.5v-.68a.48.48,0,0,1,.5-.51h9.42A.51.51,0,0,1,73.58,171.44Z"/><path class="cls-3" d="M82.43,183.72a.53.53,0,0,1-.37.14H76.21a.5.5,0,0,1-.51-.5v-.69a.5.5,0,0,1,.51-.5h4.33l-.35-5.61c-.06-.92-.13-1.62-.21-2.08a2,2,0,0,0-.55-1.11,1.79,1.79,0,0,0-1.31-.42h-.9a.49.49,0,0,1-.36-.14.5.5,0,0,1-.15-.37v-.68a.49.49,0,0,1,.15-.36.45.45,0,0,1,.36-.14h.9a4,4,0,0,1,2.42.62,3.28,3.28,0,0,1,1.17,1.73,13,13,0,0,1,.44,2.88l.42,6.87A.42.42,0,0,1,82.43,183.72Z"/><path class="cls-3" d="M85.48,183.72a.52.52,0,0,1-.14-.36V171.81a.52.52,0,0,1,.14-.38.57.57,0,0,1,.36-.13h1a.49.49,0,0,1,.36.14.5.5,0,0,1,.15.37v11.55a.5.5,0,0,1-.51.5h-1A.52.52,0,0,1,85.48,183.72Z"/><path class="cls-3" d="M97.09,171.87a3.46,3.46,0,0,1,1.69,1.82,8.79,8.79,0,0,1,.53,3.35,6.44,6.44,0,0,1-1.38,4.39,8,8,0,0,1-3.59,2.32l-.93.31a.3.3,0,0,1-.15,0,.39.39,0,0,1-.4-.42v-.94c0-.27.16-.46.49-.6l.86-.33a5.15,5.15,0,0,0,2.35-1.67,5.22,5.22,0,0,0,.81-3.17,6.32,6.32,0,0,0-.35-2.32,2.22,2.22,0,0,0-1.17-1.22,5.39,5.39,0,0,0-2.22-.37h-.75l-2,0a.53.53,0,0,1-.36-.13.46.46,0,0,1-.15-.36v-3.78a.51.51,0,0,1,.51-.51h.86a.46.46,0,0,1,.36.15.45.45,0,0,1,.14.36v2.55H93.9A7.37,7.37,0,0,1,97.09,171.87Z"/><text class="cls-4" transform="translate(766.59 259.86)">70204</text><path class="cls-3" d="M614.76,259.72a.48.48,0,0,1-.14-.36v-6.58c0-2.52-1.27-3.79-3.79-3.79H608a.48.48,0,0,1-.36-.14.49.49,0,0,1-.14-.36v-.68a.53.53,0,0,1,.14-.37.52.52,0,0,1,.36-.14h3q5.61,0,5.61,5.37v6.69a.52.52,0,0,1-.14.36.53.53,0,0,1-.37.14h-.92A.49.49,0,0,1,614.76,259.72Z"/><path class="cls-3" d="M627.92,248a4.45,4.45,0,0,1,1.67,1.86,6.38,6.38,0,0,1,.6,2.86v6.69a.52.52,0,0,1-.13.36.48.48,0,0,1-.35.14H624a.5.5,0,0,1-.51-.5v-.69a.5.5,0,0,1,.51-.5h4.25V252.8a4.73,4.73,0,0,0-.39-2,3.22,3.22,0,0,0-1.06-1.33,2.62,2.62,0,0,0-1.54-.47h-2.36l-1.69,10.31a.65.65,0,0,1-.18.38.51.51,0,0,1-.37.15h-.9a.43.43,0,0,1-.35-.15.53.53,0,0,1-.1-.38L621.1,249H620a.51.51,0,0,1-.36-.14.49.49,0,0,1-.14-.37v-.72a.49.49,0,0,1,.14-.37.51.51,0,0,1,.36-.14h5.52A4.54,4.54,0,0,1,627.92,248Z"/><path class="cls-3" d="M633.63,259.72a.52.52,0,0,1-.14-.36V247.81a.52.52,0,0,1,.14-.38.57.57,0,0,1,.37-.13h.94a.48.48,0,0,1,.51.51v11.55a.52.52,0,0,1-.14.36.53.53,0,0,1-.37.14H634A.53.53,0,0,1,633.63,259.72Z"/><path class="cls-3" d="M650,252.67v6.69a.52.52,0,0,1-.14.36.48.48,0,0,1-.37.14h-.9a.53.53,0,0,1-.37-.14.52.52,0,0,1-.14-.36v-6.58c0-2.52-1.26-3.79-3.78-3.79h-1.61c-.15.93-.25,1.7-.32,2.3a18.93,18.93,0,0,0-.08,2.08l0,6a.57.57,0,0,1-.13.36.52.52,0,0,1-.38.14l-3,0a.57.57,0,0,1-.37-.13.49.49,0,0,1-.14-.36v-.66a.52.52,0,0,1,.14-.36.53.53,0,0,1,.37-.14l1.69,0v-4.73c0-.92,0-1.7.06-2.34A13.54,13.54,0,0,1,641,249h-1.19a.45.45,0,0,1-.36-.14.46.46,0,0,1-.15-.36v-.68a.49.49,0,0,1,.15-.38.53.53,0,0,1,.36-.13h4.69C648.17,247.3,650,249.09,650,252.67Z"/><path class="cls-3" d="M420.2,259.72a.57.57,0,0,1-.38.14h-.94c-.3,0-.46-.17-.51-.5l-.5-2.58a6.78,6.78,0,0,1-1.87,2,9.23,9.23,0,0,1-1.52.85,7.25,7.25,0,0,1-1.5.45l-.15,0c-.25,0-.38-.12-.38-.35v-1c0-.24.16-.43.47-.55l.86-.29a6.41,6.41,0,0,0,1.44-.69,5.75,5.75,0,0,0,1.3-1.16,5,5,0,0,0,.9-1.37l-.39-2a13,13,0,0,0-.56-2,2.69,2.69,0,0,0-.8-1.16,2.13,2.13,0,0,0-1.33-.4h-.81a.48.48,0,0,1-.5-.5v-.73a.48.48,0,0,1,.14-.36.45.45,0,0,1,.36-.14h.81a4.31,4.31,0,0,1,2.32.57,3.86,3.86,0,0,1,1.42,1.69,13,13,0,0,1,.91,3l1.34,6.87A.44.44,0,0,1,420.2,259.72Z"/><path class="cls-3" d="M423,259.72a.52.52,0,0,1-.14-.36V247.81a.52.52,0,0,1,.14-.38.57.57,0,0,1,.36-.13h.95a.49.49,0,0,1,.36.14.5.5,0,0,1,.15.37v11.55a.5.5,0,0,1-.51.5h-.95A.52.52,0,0,1,423,259.72Z"/><path class="cls-3" d="M436.32,248a4.37,4.37,0,0,1,1.66,1.86,6.25,6.25,0,0,1,.61,2.86v6.69a.57.57,0,0,1-.13.36.48.48,0,0,1-.35.14h-5.68a.5.5,0,0,1-.51-.5v-.69a.5.5,0,0,1,.51-.5h4.24V252.8a4.73,4.73,0,0,0-.38-2,3.16,3.16,0,0,0-1.07-1.33,2.6,2.6,0,0,0-1.54-.47h-2.35l-1.7,10.31a.58.58,0,0,1-.17.38.52.52,0,0,1-.38.15h-.9a.42.42,0,0,1-.34-.15.53.53,0,0,1-.1-.38L429.5,249h-1.12a.48.48,0,0,1-.5-.51v-.72a.48.48,0,0,1,.5-.51h5.52A4.54,4.54,0,0,1,436.32,248Z"/><path class="cls-3" d="M447.85,247.87a3.43,3.43,0,0,1,1.69,1.82,8.6,8.6,0,0,1,.53,3.35,6.43,6.43,0,0,1-1.37,4.39,8.12,8.12,0,0,1-3.6,2.32l-.92.31a.32.32,0,0,1-.16,0,.36.36,0,0,1-.27-.11.39.39,0,0,1-.12-.31v-.94c0-.27.16-.46.48-.6l.86-.33a4.49,4.49,0,0,0,3.17-4.84,6.32,6.32,0,0,0-.35-2.32,2.29,2.29,0,0,0-1.17-1.22,5.39,5.39,0,0,0-2.22-.37h-.75l-2,0a.57.57,0,0,1-.36-.13.49.49,0,0,1-.14-.36v-3.78a.5.5,0,0,1,.5-.51h.86a.5.5,0,0,1,.37.15.49.49,0,0,1,.14.36v2.55h1.67A7.37,7.37,0,0,1,447.85,247.87Z"/><path class="cls-3" d="M463,259.42a.46.46,0,0,1-.13.31.43.43,0,0,1-.31.13h-1a.55.55,0,0,1-.34-.09,1.06,1.06,0,0,1-.26-.26l-5.06-7.08a3.49,3.49,0,0,0-1.28,1.64,5.84,5.84,0,0,0-.34,2.05v3.24a.52.52,0,0,1-.14.36.48.48,0,0,1-.37.14H453a.53.53,0,0,1-.37-.14.52.52,0,0,1-.14-.36V256a7.22,7.22,0,0,1,.51-2.83,5,5,0,0,1,1.93-2.18l-2-2.86a.77.77,0,0,1-.16-.42.46.46,0,0,1,.13-.31.48.48,0,0,1,.31-.13h1a.49.49,0,0,1,.34.1,1.66,1.66,0,0,1,.25.27l4.62,6.45a3.29,3.29,0,0,0,1.18-1,2.47,2.47,0,0,0,.45-1,7.57,7.57,0,0,0,.09-1.31v-3.05a.48.48,0,0,1,.51-.51h.83a.48.48,0,0,1,.51.51V251a5.78,5.78,0,0,1-.51,2.54,5.12,5.12,0,0,1-2.06,2l2.5,3.49A.82.82,0,0,1,463,259.42Z"/><path class="cls-3" d="M220.37,259.72a.49.49,0,0,1-.15-.36v-6.58c0-2.52-1.26-3.79-3.78-3.79h-4.07a.45.45,0,0,1-.36-.14.46.46,0,0,1-.15-.36v-.68a.49.49,0,0,1,.15-.38.53.53,0,0,1,.36-.13h4.18c3.74,0,5.61,1.81,5.61,5.41v6.65a.52.52,0,0,1-.14.36.53.53,0,0,1-.37.14h-.92A.49.49,0,0,1,220.37,259.72Zm-8.36,0a.49.49,0,0,1-.15-.36V252a.47.47,0,0,1,.15-.37.48.48,0,0,1,.36-.13h.92a.49.49,0,0,1,.36.14.57.57,0,0,1,.13.36v7.4a.57.57,0,0,1-.13.36.49.49,0,0,1-.36.14h-.92A.49.49,0,0,1,212,259.72Z"/><path class="cls-3" d="M231.46,259.72a.53.53,0,0,1-.37.14h-5.85a.5.5,0,0,1-.51-.5v-.69a.5.5,0,0,1,.51-.5h4.33l-.35-5.61c-.06-.92-.13-1.62-.21-2.08a2,2,0,0,0-.55-1.11,1.79,1.79,0,0,0-1.31-.42h-.9a.48.48,0,0,1-.5-.51v-.68a.48.48,0,0,1,.14-.36.45.45,0,0,1,.36-.14h.9a4,4,0,0,1,2.42.62,3.28,3.28,0,0,1,1.17,1.73,13,13,0,0,1,.44,2.88l.42,6.87A.42.42,0,0,1,231.46,259.72Z"/><path class="cls-3" d="M234.51,259.72a.52.52,0,0,1-.14-.36V247.81a.52.52,0,0,1,.14-.38.57.57,0,0,1,.37-.13h.94a.49.49,0,0,1,.36.14.5.5,0,0,1,.15.37v11.55a.5.5,0,0,1-.51.5h-.94A.53.53,0,0,1,234.51,259.72Z"/><path class="cls-3" d="M246.12,247.87a3.43,3.43,0,0,1,1.69,1.82,8.79,8.79,0,0,1,.53,3.35,6.44,6.44,0,0,1-1.38,4.39,8,8,0,0,1-3.59,2.32l-.93.31a.3.3,0,0,1-.15,0A.4.4,0,0,1,242,260a.39.39,0,0,1-.12-.31v-.94c0-.27.16-.46.49-.6l.86-.33a5.15,5.15,0,0,0,2.35-1.67,5.22,5.22,0,0,0,.81-3.17,6.12,6.12,0,0,0-.35-2.32,2.24,2.24,0,0,0-1.16-1.22,5.47,5.47,0,0,0-2.23-.37h-.74l-2,0a.55.55,0,0,1-.36-.13.45.45,0,0,1-.14-.36v-3.78a.45.45,0,0,1,.14-.36.48.48,0,0,1,.36-.15h.86a.51.51,0,0,1,.51.51v2.55h1.67A7.37,7.37,0,0,1,246.12,247.87Z"/><path class="cls-3" d="M259.21,252.87a4.54,4.54,0,0,1-2.07,1.84l2.31,3.31a1.2,1.2,0,0,1,.24.68v.66a.52.52,0,0,1-.13.36.48.48,0,0,1-.35.14h-7.92a.53.53,0,0,1-.37-.14.52.52,0,0,1-.14-.36v-.71a.52.52,0,0,1,.14-.36.49.49,0,0,1,.37-.14h6l-6.88-10a1,1,0,0,1-.18-.42.43.43,0,0,1,.14-.31.53.53,0,0,1,.34-.13h.95a.71.71,0,0,1,.59.35l4,5.7c1.25-.59,1.87-1.8,1.87-3.63v-1.91a.49.49,0,0,1,.15-.38.53.53,0,0,1,.36-.13h.84a.52.52,0,0,1,.36.14.53.53,0,0,1,.14.37V250A5.7,5.7,0,0,1,259.21,252.87Z"/><path class="cls-3" d="M269.69,259.72a.48.48,0,0,1-.14-.36v-6.58c0-2.52-1.26-3.79-3.79-3.79h-2.84a.48.48,0,0,1-.36-.14.49.49,0,0,1-.14-.36v-.68a.53.53,0,0,1,.14-.37.52.52,0,0,1,.36-.14h2.95q5.61,0,5.61,5.37v6.69a.48.48,0,0,1-.14.36.52.52,0,0,1-.36.14h-.93A.52.52,0,0,1,269.69,259.72Z"/><path class="cls-3" d="M274.39,259.72a.52.52,0,0,1-.13-.36v-.69a.52.52,0,0,1,.13-.36.47.47,0,0,1,.35-.14h6.36v-5.39c0-2.52-1.26-3.79-3.79-3.79H275a.43.43,0,0,1-.35-.14.48.48,0,0,1-.13-.36v-.68a.52.52,0,0,1,.13-.37.47.47,0,0,1,.35-.14h2.46q5.64,0,5.64,5.39v5.48h.81a.48.48,0,0,1,.37.13.5.5,0,0,1,.14.37v.69a.52.52,0,0,1-.14.36.48.48,0,0,1-.37.14h-9.13A.47.47,0,0,1,274.39,259.72Z"/><path class="cls-3" d="M61.92,247.44a.49.49,0,0,1,.14.37v.68a.45.45,0,0,1-.14.36.47.47,0,0,1-.36.14H60.21a2.65,2.65,0,0,0-.48,1,6.22,6.22,0,0,0-.17,1.58v7.77a.44.44,0,0,1-.15.35.48.48,0,0,1-.36.13h-.93a.48.48,0,0,1-.35-.13.5.5,0,0,1-.13-.35v-7.9a7.43,7.43,0,0,1,.14-1.52,2.59,2.59,0,0,1,.41-1h-6a.48.48,0,0,1-.5-.5v-.68a.48.48,0,0,1,.5-.51h9.42A.51.51,0,0,1,61.92,247.44Z"/><path class="cls-3" d="M71.53,259.72a.52.52,0,0,1-.14-.36v-6.58c0-2.52-1.26-3.79-3.78-3.79H64.77a.45.45,0,0,1-.36-.14.46.46,0,0,1-.15-.36v-.68a.5.5,0,0,1,.15-.37.49.49,0,0,1,.36-.14h3q5.61,0,5.61,5.37v6.69a.5.5,0,0,1-.51.5H71.9A.53.53,0,0,1,71.53,259.72Z"/><path class="cls-3" d="M78.37,250.8a4,4,0,0,0,.19,1.39,1,1,0,0,0,.69.63l.81.22c.25.08.37.31.37.71l0,.48a.37.37,0,0,1-.25.35.78.78,0,0,1-.37.09l-.15,0-.86-.18c-1.47-.32-2.2-1.57-2.2-3.74v-2.92a.48.48,0,0,1,.14-.38.57.57,0,0,1,.36-.13h4.05a4.68,4.68,0,0,1,3.68,1.41,6.22,6.22,0,0,1,1.34,4c0,.15,0,.43,0,.84s0,.71,0,.86a6.2,6.2,0,0,1-1.34,4,4.68,4.68,0,0,1-3.68,1.41H77.4a.49.49,0,0,1-.36-.14.57.57,0,0,1-.13-.36v-.73a.53.53,0,0,1,.13-.36.46.46,0,0,1,.36-.15h3.67a3,3,0,0,0,2.38-1,4.57,4.57,0,0,0,.9-2.81c0-.15,0-.4,0-.77s0-.6,0-.75a4.37,4.37,0,0,0-.89-2.79,3,3,0,0,0-2.39-1h-2.7Z"/><path class="cls-3" d="M90.35,258.67A5.66,5.66,0,0,1,89,254.61v-6.8a.49.49,0,0,1,.15-.38.53.53,0,0,1,.36-.13H94.8a5.48,5.48,0,0,1,4.07,1.28,5.79,5.79,0,0,1,1.34,3.91c0,.15,0,.55,0,1.19s0,1,0,1.19a5.47,5.47,0,0,1-1.44,3.93,6.23,6.23,0,0,1-4.37,1.28A5.36,5.36,0,0,1,90.35,258.67Zm7-1.18a3.77,3.77,0,0,0,.94-2.73c0-.15,0-.51,0-1.08s0-.93,0-1.08a3.68,3.68,0,0,0-1-2.68,3.63,3.63,0,0,0-2.63-.93H90.86v5.59a4,4,0,0,0,.89,2.8,3.46,3.46,0,0,0,2.65,1A4.21,4.21,0,0,0,97.38,257.49Z"/></g></g></svg>