<svg xmlns="http://www.w3.org/2000/svg" viewBox="0 0 832.29 343.01"><defs><style>.cls-1{fill:#b9cad2;}.cls-2{fill:#f7cea2;}.cls-3{fill:#231f20;}.cls-4{fill:#c9925b;}.cls-5{fill:#efb069;}</style></defs><g id="Layer_2" data-name="Layer 2"><g id="Layer_3" data-name="Layer 3"><path class="cls-1" d="M473.92,178.12c-.05,2.23-.13,4.45-.23,6.68-.3,6.48-.77,12.93-1.49,19.32H142.7q-.39-3-.7-6c-.77-6.69-.46-13.34-.63-20-.05-1.92-.13-3.84-.3-5.76A210.48,210.48,0,0,1,150.93,98a134.73,134.73,0,0,1,24.85-45.13c12.09-14.63,27.09-25.3,43.53-34C234,11.05,250,6.54,266.38,3.47,284.82,0,303.49-.54,322.07.41c26.53,1.37,52.23,7,75.85,19.84,22.37,12.17,40.62,28.73,53.33,51,10.55,18.48,16.09,38.46,19.42,59.35A267,267,0,0,1,473.92,178.12Z"/><path class="cls-2" d="M473.92,178.12c-.05,2.23-.13,4.45-.23,6.68-.3,6.48-.77,12.93-1.49,19.32-2.53,22.52-8,44.4-19.15,64.79a127.72,127.72,0,0,1-36.41,41.63c-17.93,13.33-37.89,21.88-59.43,26.86a190.52,190.52,0,0,1-34.86,4.7c-6.57.27-13.17,1.12-19.75.86-29.55-1.15-58.49-5.46-84.94-19.57-34.77-18.61-57.89-46.72-68.37-85.17a265.17,265.17,0,0,1-6.59-34.1q-.39-3-.7-6c-.77-6.69-.46-13.34-.63-20Z"/><path class="cls-3" d="M661.09,338c-26.8-.24-52.93-3-78.06-12.12-21.17-7.66-39.72-19.48-54.47-36.56a151.67,151.67,0,0,1-34-69.61,280,280,0,0,1-4.28-30.94,204,204,0,0,1-.63-27.75c1.39-29.4,7.09-57.79,21.84-83.75,7-12.4,15.44-23.87,26-33.48,18.29-16.67,40.09-26.81,64-32.55A241.1,241.1,0,0,1,635.17,6a308.75,308.75,0,0,1,46.22-.56C709,7,735.84,12.82,760.28,26.66a128.44,128.44,0,0,1,22.41,16.27c14.27,12.77,25,28.07,33,45.25a166.75,166.75,0,0,1,13.59,45.64,229.45,229.45,0,0,1,2.83,46.24c-1.23,25.2-5.21,49.85-15.86,73.11-8.46,18.5-19.93,34.85-35.17,48.15-16.9,14.75-36.82,24.18-58.61,29.47a232.68,232.68,0,0,1-41.92,6.3C674,337.5,667.39,337.33,661.09,338ZM665.66,134c-18.14,0-36.3.38-54.43-.11a33.38,33.38,0,0,0-33.64,24.82c-4,14.49-2.76,29.38-1,44.09,1.53,13.08,8.93,22.46,20.92,27.47,10.81,4.52,21.29,3.51,25.25-8.1a56.8,56.8,0,0,1,4.68-9.48c8.19-14.33,28.47-25.75,45.74-21.9,17.71,4,29.44,14.32,36.12,30.68,3.64,8.89,8.8,11.58,18.38,10.6,17.41-1.78,29.54-20.87,28.76-34.61-.55-9.79-.23-19.64-.07-29.46.29-17.31-15.56-34.44-34.23-34.08s-37.66.08-56.48.08Z"/><path class="cls-3" d="M59.43,11.16c16.48,0,33,.41,49.44-.18,7.69-.28,11,3.75,11,11.27q.15,48.95,0,97.88c0,3.71.72,7.49-1.45,11.08-1.52,2.51-3.29,3.84-6.18,3.84H46.81c-5.1,0-7.48-3.44-7.8-10.75-.12-2.66.11-5.34-.06-8-.26-4.25-3.43-7.42-7.61-7.15-8,.52-15.79-1.3-23.73-1.12-4.36.1-7.52-3.45-7.53-8.45q-.16-39.94,0-79.9c0-5.75,3.23-8.49,8.91-8.49Z"/><path d="M119.91,284.72c0,14.15.15,28.31,0,42.46-.15,11-4.92,13-12.53,12.81q-27.18-.67-54.43,0c-12.54.3-13.46-3.56-13.73-14-.59-23.63-.27-47.28-.13-70.92,0-5.9-.95-11.87.92-17.72,1.19-3.72,3.12-5.54,7.43-5.5,21,.21,42,.42,62.92-.08,7.22-.17,9.58,4.28,9.59,10Q120,263.25,119.91,284.72Z"/><path d="M79.93,151a31.79,31.79,0,0,1,32,31.55c0,.38,0,.77,0,1.15-.32,18.37-14.23,32.22-32,31.93-19.19-.31-32.12-12.2-32.65-32.15C46.74,165,61,151.25,79.93,151Z"/><path class="cls-3" d="M592.54,172.44c-.78-2.91.65-3.81,3.4-3.44.49.07,1-.07,1.49,0,5,1,6.79-1,6.15-6-.28-2.07-1.53-5.42,2.41-5.92,3.67-.48,5.92,1.25,5.4,5.09-.75,5.44.86,8,6.72,6.89,3.16-.6,4.44.85,4.41,4.18s-1.59,4-4.36,3.78c-.49-.05-1,.07-1.49,0-4.45-.89-5.82,1-5.33,5.31.24,2.14,1.3,5.31-2.74,5.69-3.24.31-5.85-.21-5.13-4.38.92-5.28-.78-7.69-6.43-6.65C593.71,177.58,591.86,176.21,592.54,172.44Z"/><path class="cls-3" d="M725.39,165c-3,.41-4.13-.87-4.12-3.91s.94-4.14,4-4.12,4.15.94,4.12,4S728.52,165.42,725.39,165Z"/><path class="cls-3" d="M729.28,184.05c.45,3.13-1.11,4-4,4-3.06,0-4-1.19-4-4.13s1.2-4,4.14-4S729.72,181.06,729.28,184.05Z"/><path class="cls-3" d="M714,176c-2.32.44-4,.1-3.67-3.14.28-2.25-.44-4.84,3.22-4.83,3,0,4.59,1.22,4.84,4.26C718.62,175.47,716.92,176.31,714,176Z"/><path class="cls-3" d="M740.28,172.69c.82,3-.86,3.45-3.47,3.37s-4.64-.15-4.47-3.59c.15-3.07,1.59-4.41,4.63-4.49C740.41,167.89,740.51,170.09,740.28,172.69Z"/><polygon class="cls-4" points="363.2 214.12 214.25 214.12 307.54 85.12 363.2 214.12"/><polygon class="cls-5" points="412.12 214.12 263.16 214.12 307.54 85.39 412.12 214.12"/></g></g></svg>