<svg xmlns="http://www.w3.org/2000/svg" viewBox="0 0 1190 497"><defs><style>.cls-1{fill:#231f20;}.cls-2{fill:#b9cad2;}.cls-3{fill:#f7cea2;}.cls-4{fill:#c9925b;}.cls-5{fill:#efb069;}.cls-6{fill:none;stroke:#231f20;stroke-width:5px;}</style></defs><g id="Layer_2" data-name="Layer 2"><g id="Layer_3" data-name="Layer 3"><path class="cls-1" d="M847.21,250.51c-1.12-4.16.93-5.44,4.86-4.91.7.1,1.43-.1,2.13,0,7.15,1.43,9.7-1.43,8.78-8.58-.39-3-2.17-7.75,3.46-8.47,5.25-.68,8.46,1.79,7.71,7.28-1.08,7.78,1.24,11.44,9.62,9.85,4.5-.86,6.35,1.22,6.3,6s-2.27,5.72-6.23,5.4c-.7-.07-1.43.1-2.13,0-6.36-1.27-8.32,1.43-7.62,7.59.34,3.06,1.86,7.6-3.92,8.14-4.63.44-8.36-.3-7.33-6.26,1.31-7.55-1.12-11-9.2-9.51C848.88,257.86,846.24,255.9,847.21,250.51Z"/><path class="cls-1" d="M1020.81,255.53c-3.31.63-5.72.15-5.23-4.49.39-3.21-.64-6.92,4.6-6.9,4.29,0,6.57,1.74,6.92,6.09C1027.48,254.85,1025.05,256.05,1020.81,255.53Z"/><path class="cls-1" d="M945.22,487.17c-38.32-.34-75.68-4.29-111.61-17.33-30.27-10.95-56.79-27.85-77.88-52.27A216.76,216.76,0,0,1,707.12,318,397.2,397.2,0,0,1,701,273.81a288.79,288.79,0,0,1-.9-39.68c2-42,10.14-82.63,31.23-119.75,10-17.72,22.07-34.12,37.17-47.86C794.64,42.68,825.81,28.18,860,20a344.77,344.77,0,0,1,48.15-7.47,440.52,440.52,0,0,1,66.09-.8c39.5,2.22,77.83,10.58,112.79,30.37a184,184,0,0,1,32,23.26c20.39,18.26,35.75,40.14,47.19,64.7a238.92,238.92,0,0,1,19.43,65.26,329.53,329.53,0,0,1,4,66.11c-1.76,36-7.45,71.27-22.67,104.53-12.1,26.45-28.5,49.83-50.29,68.84-24.16,21.09-52.64,34.58-83.8,42.14a334.12,334.12,0,0,1-59.94,9C963.67,486.51,954.23,486.27,945.22,487.17Zm6.54-291.56c-25.94,0-51.91.54-77.83-.16a47.71,47.71,0,0,0-48.1,35.49c-5.71,20.72-3.94,42-1.43,63,2.19,18.7,12.77,32.11,29.92,39.28,15.45,6.46,30.44,5,36.1-11.59a79,79,0,0,1,6.69-13.55c11.71-20.49,40.71-36.82,65.4-31.31,25.32,5.72,42.08,20.47,51.64,43.86,5.21,12.71,12.57,16.56,26.28,15.16,24.88-2.55,42.22-29.84,41.12-49.49-.79-14-.34-28.08-.11-42.12.41-24.75-22.24-49.24-48.94-48.72s-53.84.11-80.74.11Z"/><path d="M171.45,411.05c0,20.23.22,40.48-.07,60.71-.21,15.73-7,18.59-17.91,18.31q-38.88-1-77.83,0C57.7,490.5,56.4,485,56,470.06c-.84-33.79-.38-67.6-.18-101.4,0-8.44-1.36-17,1.31-25.34,1.7-5.32,4.46-7.92,10.62-7.86,30,.3,60.06.6,90-.12,10.32-.24,13.69,6.12,13.71,14.3Q171.52,380.36,171.45,411.05Z"/><path d="M114.29,219.9A45.44,45.44,0,0,1,160.06,265c0,.55,0,1.1,0,1.65-.45,26.26-20.34,46.06-45.75,45.65-27.44-.44-45.93-17.44-46.68-46C66.84,239.91,87.22,220.22,114.29,219.9Z"/><path class="cls-1" d="M85,19.92c23.56,0,47.18.59,70.69-.26,11-.4,15.73,5.36,15.73,16.12q.19,70,0,139.94c0,5.31,1,10.71-2.08,15.84-2.17,3.59-4.7,5.49-8.83,5.49H66.94c-7.3,0-10.7-4.91-11.16-15.37-.17-3.8.16-7.63-.08-11.43-.37-6.08-4.91-10.61-10.88-10.23-11.44.75-22.58-1.86-33.95-1.6C4.65,158.56.14,153.49.11,146.34Q-.11,89.22.11,32.1C.11,23.88,4.73,20,12.85,20Z"/><path class="cls-2" d="M677.6,258.64c-.07,3.19-.19,6.36-.33,9.55-.43,9.26-1.1,18.49-2.13,27.62H204c-.38-2.87-.71-5.75-1-8.62-1.1-9.56-.65-19.07-.9-28.55-.07-2.75-.18-5.49-.43-8.24a301,301,0,0,1,14.1-106.29,192.73,192.73,0,0,1,35.53-64.52c17.29-20.92,38.74-36.18,62.24-48.67,21-11.16,43.87-17.6,67.3-22C407.23,4,433.92,3.19,460.49,4.55c37.93,2,74.67,10.07,108.44,28.37,32,17.4,58.08,41.08,76.25,72.93,15.09,26.42,23,55,27.77,84.86A382.36,382.36,0,0,1,677.6,258.64Z"/><path class="cls-3" d="M677.6,258.64c-.07,3.19-.19,6.36-.33,9.55-.43,9.26-1.1,18.49-2.13,27.62-3.62,32.2-11.48,63.48-27.38,92.64A182.71,182.71,0,0,1,595.7,448c-25.64,19.06-54.18,31.28-85,38.4a271.91,271.91,0,0,1-49.84,6.72c-9.4.39-18.83,1.61-28.24,1.23-42.25-1.64-83.63-7.8-121.45-28-49.71-26.61-82.77-66.8-97.75-121.77A377.7,377.7,0,0,1,204,295.81c-.38-2.87-.71-5.75-1-8.62-1.1-9.56-.65-19.07-.9-28.55Z"/><polygon class="cls-4" points="519.3 310.11 306.32 310.11 439.71 125.67 519.3 310.11"/><polygon class="cls-5" points="589.24 310.11 376.26 310.11 439.71 126.05 589.24 310.11"/><path class="cls-6" d="M677.5,248.5c0,63.34-15.8,129.4-54,173-43.74,49.93-114.54,73-185,73-60.88,0-123.8-14.42-166-53-49.29-45.06-73-119.81-73-193,0-59.44,17.91-125.48,52-168,43.84-54.67,112.75-78,187-78,67.82,0,137.5,21.3,181,68C660.66,114.69,677.5,182.44,677.5,248.5Z"/></g></g></svg>