<svg xmlns="http://www.w3.org/2000/svg" viewBox="0 0 341.13 332"><defs><style>.cls-1,.cls-2{fill:none;stroke:#42210b;stroke-miterlimit:10;}.cls-1{stroke-width:3px;}.cls-3,.cls-4{fill:#38281a;}.cls-4{font-size:22px;font-family:Rubik-Regular, Rubik;}</style></defs><g id="Layer_2" data-name="Layer 2"><g id="Layer_1-2" data-name="Layer 1"><line class="cls-1" y1="57.32" x2="341.13" y2="57.32"/><line class="cls-2" y1="130.52" x2="341.13" y2="130.52"/><line class="cls-2" y1="269.52" x2="341.13" y2="269.52"/><line class="cls-2" y1="203.73" x2="341.13" y2="203.73"/><line class="cls-2" x1="170.56" y1="332" x2="170.56"/><path class="cls-3" d="M214.31,22.22a.49.49,0,0,1,.14.36v.68a.5.5,0,0,1-.5.51H212.6a2.6,2.6,0,0,0-.48,1,6.24,6.24,0,0,0-.18,1.58v7.77a.43.43,0,0,1-.14.35.5.5,0,0,1-.36.13h-.93a.48.48,0,0,1-.35-.13.46.46,0,0,1-.13-.35v-7.9a7.5,7.5,0,0,1,.14-1.52,2.39,2.39,0,0,1,.41-1h-6.05a.51.51,0,0,1-.51-.51v-.68a.51.51,0,0,1,.51-.51H214A.49.49,0,0,1,214.31,22.22Z"/><path class="cls-3" d="M216.76,34.49a.48.48,0,0,1-.13-.36v-.68a.52.52,0,0,1,.13-.37.48.48,0,0,1,.35-.14h6.36V27.55q0-3.78-3.78-3.78h-2.36a.45.45,0,0,1-.35-.15.48.48,0,0,1-.13-.36v-.68a.48.48,0,0,1,.13-.36.45.45,0,0,1,.35-.15h2.47q5.63,0,5.63,5.39v5.48h.81a.52.52,0,0,1,.38.13.5.5,0,0,1,.13.38v.68a.47.47,0,0,1-.51.5h-9.13A.45.45,0,0,1,216.76,34.49Z"/><path class="cls-3" d="M229.25,34.49a.46.46,0,0,1-.15-.36V22.58a.49.49,0,0,1,.15-.38.53.53,0,0,1,.36-.13h.95a.5.5,0,0,1,.5.51V34.13a.49.49,0,0,1-.14.36.48.48,0,0,1-.36.14h-.95A.45.45,0,0,1,229.25,34.49Z"/><path class="cls-3" d="M243.71,22.22a.48.48,0,0,1,.13.36v6.07a5.36,5.36,0,0,1-1.26,3.48,7,7,0,0,1-3.42,2.2l-4.78,1.51a.4.4,0,0,1-.17,0,.49.49,0,0,1-.31-.11.36.36,0,0,1-.13-.29v-.68c0-.34.12-.54.35-.62l2.88-1L234.14,23a3.11,3.11,0,0,1-.11-.44.48.48,0,0,1,.13-.31.46.46,0,0,1,.31-.13h1a.54.54,0,0,1,.33.1.49.49,0,0,1,.18.23l2.82,10.21a4.41,4.41,0,0,0,2.43-1.73,5.31,5.31,0,0,0,.69-2.82V22.58a.49.49,0,0,1,.14-.36.5.5,0,0,1,.37-.15h.92A.44.44,0,0,1,243.71,22.22Z"/><path class="cls-3" d="M255.65,34.49a.46.46,0,0,1-.15-.36V27.55q0-3.78-3.78-3.78h-4.07a.51.51,0,0,1-.51-.51v-.68a.49.49,0,0,1,.15-.38.53.53,0,0,1,.36-.13h4.18c3.74,0,5.61,1.81,5.61,5.41v6.65a.48.48,0,0,1-.51.5H256A.45.45,0,0,1,255.65,34.49Zm-8.36,0a.46.46,0,0,1-.15-.36V26.74a.48.48,0,0,1,.15-.38.48.48,0,0,1,.36-.13h.92a.49.49,0,0,1,.36.14.57.57,0,0,1,.13.37v7.39a.53.53,0,0,1-.13.36.45.45,0,0,1-.36.14h-.92A.45.45,0,0,1,247.29,34.49Z"/><path class="cls-3" d="M272.37,34.49a.46.46,0,0,1-.15-.36V27.55q0-3.78-3.78-3.78H265.6a.48.48,0,0,1-.36-.15.45.45,0,0,1-.14-.36v-.68a.45.45,0,0,1,.14-.36.48.48,0,0,1,.36-.15h2.95q5.61,0,5.61,5.37v6.69a.48.48,0,0,1-.51.5h-.92A.45.45,0,0,1,272.37,34.49Z"/><path class="cls-3" d="M279.2,25.57a3.75,3.75,0,0,0,.2,1.39,1,1,0,0,0,.68.63l.81.22c.25.08.38.31.38.71l0,.48a.36.36,0,0,1-.24.35.85.85,0,0,1-.38.09.44.44,0,0,1-.15,0l-.86-.18c-1.47-.32-2.2-1.56-2.2-3.74V22.58a.52.52,0,0,1,.14-.38.57.57,0,0,1,.37-.13h4a4.67,4.67,0,0,1,3.68,1.41,6.23,6.23,0,0,1,1.34,4c0,.14,0,.42,0,.83s0,.71,0,.86a6.23,6.23,0,0,1-1.34,4,4.66,4.66,0,0,1-3.68,1.4h-3.78a.43.43,0,0,1-.35-.14.48.48,0,0,1-.13-.36V33.4a.52.52,0,0,1,.13-.36.43.43,0,0,1,.35-.14h3.67a3,3,0,0,0,2.38-1,4.42,4.42,0,0,0,.9-2.81,7.24,7.24,0,0,0,0-.77,7.12,7.12,0,0,0,0-.75,4.37,4.37,0,0,0-.89-2.79,3,3,0,0,0-2.39-1h-2.7Z"/><path class="cls-3" d="M291.19,33.45a5.66,5.66,0,0,1-1.34-4.07v-6.8a.48.48,0,0,1,.14-.38.53.53,0,0,1,.36-.13h5.28a5.48,5.48,0,0,1,4.07,1.28A5.79,5.79,0,0,1,301,27.26c0,.15,0,.55,0,1.19s0,1,0,1.19a5.47,5.47,0,0,1-1.44,3.93c-.9.86-2.36,1.28-4.37,1.28A5.32,5.32,0,0,1,291.19,33.45Zm7-1.19a3.79,3.79,0,0,0,.93-2.73c0-.15,0-.51,0-1.08s0-.93,0-1.08a3.69,3.69,0,0,0-1-2.68,3.6,3.6,0,0,0-2.63-.92h-3.83v5.58a4,4,0,0,0,.89,2.8,3.46,3.46,0,0,0,2.65,1A4.26,4.26,0,0,0,298.22,32.26Z"/><path class="cls-3" d="M312,22.72a4.5,4.5,0,0,1,1.66,1.86,6.38,6.38,0,0,1,.6,2.86v6.69a.48.48,0,0,1-.13.36.43.43,0,0,1-.35.14h-5.68a.47.47,0,0,1-.36-.14.45.45,0,0,1-.14-.36v-.68a.49.49,0,0,1,.14-.37.51.51,0,0,1,.36-.14h4.25V27.57a4.73,4.73,0,0,0-.39-2,3.14,3.14,0,0,0-1.06-1.33,2.69,2.69,0,0,0-1.54-.47H307l-1.69,10.32a.65.65,0,0,1-.18.37.51.51,0,0,1-.37.15h-.9a.41.41,0,0,1-.34-.15.48.48,0,0,1-.1-.37l1.76-10.3H304a.52.52,0,0,1-.36-.14.53.53,0,0,1-.14-.37v-.72a.5.5,0,0,1,.5-.51h5.53A4.57,4.57,0,0,1,312,22.72Z"/><path class="cls-3" d="M20.08,34.49a.49.49,0,0,1-.14-.36V22.58a.52.52,0,0,1,.14-.38.57.57,0,0,1,.37-.13H24.6q5.56,0,5.57,5.37v6.69a.48.48,0,0,1-.51.5H20.45A.49.49,0,0,1,20.08,34.49Zm8.2-1.55V27.55q0-3.78-3.79-3.78H21.74v9.17Z"/><path class="cls-3" d="M33.46,29.4a.45.45,0,0,1-.14-.35V22.58a.48.48,0,0,1,.14-.38.55.55,0,0,1,.36-.13h1a.48.48,0,0,1,.36.15.45.45,0,0,1,.14.36v6.47a.45.45,0,0,1-.14.35.5.5,0,0,1-.36.13h-1A.5.5,0,0,1,33.46,29.4Z"/><path class="cls-3" d="M45.32,34.49a.46.46,0,0,1-.15-.36V27.55q0-3.78-3.78-3.78H38.55a.46.46,0,0,1-.36-.15.45.45,0,0,1-.14-.36v-.68a.45.45,0,0,1,.14-.36.46.46,0,0,1,.36-.15h3q5.61,0,5.61,5.37v6.69a.48.48,0,0,1-.51.5h-.92A.45.45,0,0,1,45.32,34.49Z"/><path class="cls-3" d="M50.55,34.49a.49.49,0,0,1-.14-.36V22.58a.52.52,0,0,1,.14-.38.57.57,0,0,1,.37-.13h.94a.5.5,0,0,1,.37.15.49.49,0,0,1,.14.36V34.13a.48.48,0,0,1-.51.5h-.94A.49.49,0,0,1,50.55,34.49Z"/><path class="cls-3" d="M55.94,34.49a.49.49,0,0,1-.14-.36V22.58a.52.52,0,0,1,.14-.38.57.57,0,0,1,.37-.13h4.22a5.75,5.75,0,0,1,4.21,1.36,5.43,5.43,0,0,1,1.38,4.05v6.65a.53.53,0,0,1-.13.36.45.45,0,0,1-.36.14h-.92a.45.45,0,0,1-.36-.14.46.46,0,0,1-.15-.36V27.55q0-3.78-3.78-3.78H57.71V34.13a.48.48,0,0,1-.13.36.43.43,0,0,1-.35.14h-.92A.49.49,0,0,1,55.94,34.49Z"/><path class="cls-3" d="M69.41,29.4a.45.45,0,0,1-.15-.35V22.58a.49.49,0,0,1,.15-.38.53.53,0,0,1,.36-.13h1a.5.5,0,0,1,.5.51v6.47a.48.48,0,0,1-.14.35.52.52,0,0,1-.36.13h-1A.48.48,0,0,1,69.41,29.4Z"/><path class="cls-3" d="M84.49,34.19a.43.43,0,0,1-.14.31.39.39,0,0,1-.3.13h-1a.55.55,0,0,1-.34-.08,1.35,1.35,0,0,1-.26-.27L77.4,27.2a3.49,3.49,0,0,0-1.28,1.64,5.88,5.88,0,0,0-.35,2.05v3.24a.48.48,0,0,1-.13.36.45.45,0,0,1-.37.14h-.79a.48.48,0,0,1-.51-.5V30.81A7.27,7.27,0,0,1,74.48,28a5,5,0,0,1,1.93-2.18l-2-2.86a.77.77,0,0,1-.16-.42.48.48,0,0,1,.13-.31.46.46,0,0,1,.31-.13h1a.55.55,0,0,1,.34.1,1.41,1.41,0,0,1,.25.28l4.62,6.44A3.38,3.38,0,0,0,82,28a2.53,2.53,0,0,0,.45-1,7.65,7.65,0,0,0,.09-1.31V22.58a.49.49,0,0,1,.14-.36.5.5,0,0,1,.37-.15h.83a.5.5,0,0,1,.37.15.49.49,0,0,1,.14.36v3.17a5.78,5.78,0,0,1-.51,2.54,5.09,5.09,0,0,1-2.07,2l2.51,3.5A.77.77,0,0,1,84.49,34.19Z"/><path class="cls-3" d="M95.87,34.49a.49.49,0,0,1-.14-.36V27.55q0-3.78-3.79-3.78H87.87a.5.5,0,0,1-.5-.51v-.68a.52.52,0,0,1,.14-.38.57.57,0,0,1,.36-.13h4.19c3.73,0,5.6,1.81,5.6,5.41v6.65a.48.48,0,0,1-.5.5h-.93A.48.48,0,0,1,95.87,34.49Zm-8.36,0a.49.49,0,0,1-.14-.36V26.74a.51.51,0,0,1,.14-.38.52.52,0,0,1,.36-.13h.93a.48.48,0,0,1,.35.14.52.52,0,0,1,.13.37v7.39a.48.48,0,0,1-.13.36.45.45,0,0,1-.35.14h-.93A.48.48,0,0,1,87.51,34.49Z"/><path class="cls-3" d="M117.51,27.44v6.69a.53.53,0,0,1-.13.36.48.48,0,0,1-.38.14h-.9a.45.45,0,0,1-.36-.14.46.46,0,0,1-.15-.36V27.55q0-3.78-3.78-3.78H110.2c-.14.92-.25,1.69-.31,2.3a14.79,14.79,0,0,0-.08,2.07l0,6a.48.48,0,0,1-.13.36.46.46,0,0,1-.37.14l-3,0a.48.48,0,0,1-.36-.13.45.45,0,0,1-.15-.35v-.66a.5.5,0,0,1,.15-.37.49.49,0,0,1,.36-.14L108,33V28.23q0-1.38.06-2.34a13.24,13.24,0,0,1,.36-2.12h-1.19a.5.5,0,0,1-.5-.51v-.68a.52.52,0,0,1,.14-.38.57.57,0,0,1,.36-.13h4.69Q117.52,22.07,117.51,27.44Z"/><path class="cls-3" d="M121,34.49a.49.49,0,0,1-.14-.36V22.58a.52.52,0,0,1,.14-.38.57.57,0,0,1,.36-.13h1a.51.51,0,0,1,.51.51V34.13a.46.46,0,0,1-.15.36.45.45,0,0,1-.36.14h-1A.48.48,0,0,1,121,34.49Z"/><path class="cls-3" d="M134.27,22.72a4.37,4.37,0,0,1,1.66,1.86,6.25,6.25,0,0,1,.61,2.86v6.69a.53.53,0,0,1-.13.36.45.45,0,0,1-.36.14h-5.67a.45.45,0,0,1-.36-.14.46.46,0,0,1-.15-.36v-.68a.5.5,0,0,1,.15-.37.49.49,0,0,1,.36-.14h4.24V27.57a4.73,4.73,0,0,0-.38-2,3.16,3.16,0,0,0-1.07-1.33,2.67,2.67,0,0,0-1.54-.47h-2.35l-1.7,10.32a.58.58,0,0,1-.17.37.52.52,0,0,1-.38.15h-.9a.41.41,0,0,1-.34-.15.52.52,0,0,1-.1-.37l1.76-10.3h-1.12a.49.49,0,0,1-.36-.14.5.5,0,0,1-.15-.37v-.72a.51.51,0,0,1,.51-.51h5.52A4.54,4.54,0,0,1,134.27,22.72Z"/><path class="cls-3" d="M140,34.49a.49.49,0,0,1-.14-.36V33.4A.52.52,0,0,1,140,33a.48.48,0,0,1,.36-.14h3.15a3.73,3.73,0,0,0,2.84-1,4.25,4.25,0,0,0,1-2.83c0-.2,0-.46,0-.77s0-.54,0-.75a4.24,4.24,0,0,0-1-2.82,3.73,3.73,0,0,0-2.84-1h-3.15a.52.52,0,0,1-.36-.14.53.53,0,0,1-.14-.37v-.72a.5.5,0,0,1,.5-.51h3.26a5.52,5.52,0,0,1,4.14,1.39,6,6,0,0,1,1.45,4.05c0,.2,0,.48,0,.83s0,.65,0,.86a6,6,0,0,1-1.45,4.05,5.56,5.56,0,0,1-4.14,1.38h-3.26A.48.48,0,0,1,140,34.49Z"/><text class="cls-4" transform="translate(211.29 104.63)">#302114</text><text class="cls-4" transform="translate(72.63 104.63)">17</text><text class="cls-4" transform="translate(210.82 178.63)">#022112</text><text class="cls-4" transform="translate(68.91 178.63)">23</text><text class="cls-4" transform="translate(212.4 246.63)">#190052</text><text class="cls-4" transform="translate(72.46 246.63)">05</text><text class="cls-4" transform="translate(214.13 313.63)">#221333</text><text class="cls-4" transform="translate(73.38 313.63)">30</text></g></g></svg>