<svg xmlns="http://www.w3.org/2000/svg" viewBox="0 0 341.13 332"><defs><style>.cls-1,.cls-2{fill:none;stroke:#42210b;stroke-miterlimit:10;}.cls-1{stroke-width:3px;}.cls-3,.cls-4{fill:#38281a;}.cls-4{font-size:22px;font-family:Rubik-Regular, Rubik;}</style></defs><g id="Layer_2" data-name="Layer 2"><g id="Layer_1-2" data-name="Layer 1"><line class="cls-1" y1="57.32" x2="341.13" y2="57.32"/><line class="cls-2" y1="130.52" x2="341.13" y2="130.52"/><line class="cls-2" y1="269.52" x2="341.13" y2="269.52"/><line class="cls-2" y1="203.73" x2="341.13" y2="203.73"/><line class="cls-2" x1="170.56" y1="332" x2="170.56"/><path class="cls-3" d="M192.46,34.49a.49.49,0,0,1-.14-.36V22.58a.52.52,0,0,1,.14-.38.57.57,0,0,1,.37-.13H197c3.72,0,5.57,1.79,5.57,5.37v6.69a.49.49,0,0,1-.14.36.48.48,0,0,1-.36.14h-9.22A.49.49,0,0,1,192.46,34.49Zm8.2-1.55V27.55q0-3.78-3.79-3.78h-2.75v9.17Z"/><path class="cls-3" d="M205.84,29.4a.45.45,0,0,1-.14-.35V22.58a.48.48,0,0,1,.14-.38.57.57,0,0,1,.36-.13h1a.46.46,0,0,1,.36.15.45.45,0,0,1,.14.36v6.47a.45.45,0,0,1-.14.35.48.48,0,0,1-.36.13h-1A.52.52,0,0,1,205.84,29.4Z"/><path class="cls-3" d="M217.7,34.49a.46.46,0,0,1-.15-.36V27.55q0-3.78-3.78-3.78h-2.84a.48.48,0,0,1-.36-.15.45.45,0,0,1-.14-.36v-.68a.45.45,0,0,1,.14-.36.48.48,0,0,1,.36-.15h2.95q5.61,0,5.61,5.37v6.69a.48.48,0,0,1-.51.5h-.92A.45.45,0,0,1,217.7,34.49Z"/><path class="cls-3" d="M222.93,34.49a.49.49,0,0,1-.14-.36V22.58a.52.52,0,0,1,.14-.38.57.57,0,0,1,.37-.13h.94a.5.5,0,0,1,.37.15.49.49,0,0,1,.14.36V34.13a.48.48,0,0,1-.51.5h-.94A.49.49,0,0,1,222.93,34.49Z"/><path class="cls-3" d="M228.32,34.49a.49.49,0,0,1-.14-.36V22.58a.52.52,0,0,1,.14-.38.57.57,0,0,1,.37-.13h4.22a5.75,5.75,0,0,1,4.21,1.36,5.43,5.43,0,0,1,1.38,4.05v6.65a.53.53,0,0,1-.13.36.45.45,0,0,1-.36.14h-.92a.45.45,0,0,1-.36-.14.46.46,0,0,1-.15-.36V27.55q0-3.78-3.78-3.78h-2.71V34.13a.48.48,0,0,1-.13.36.43.43,0,0,1-.35.14h-.92A.49.49,0,0,1,228.32,34.49Z"/><path class="cls-3" d="M241.79,29.4a.45.45,0,0,1-.15-.35V22.58a.49.49,0,0,1,.15-.38.53.53,0,0,1,.36-.13h.95a.49.49,0,0,1,.36.15.45.45,0,0,1,.14.36v6.47a.45.45,0,0,1-.14.35.52.52,0,0,1-.36.13h-.95A.48.48,0,0,1,241.79,29.4Z"/><path class="cls-3" d="M256.87,34.19a.46.46,0,0,1-.13.31.43.43,0,0,1-.31.13h-1a.55.55,0,0,1-.34-.08,1.35,1.35,0,0,1-.26-.27l-5.06-7.08a3.49,3.49,0,0,0-1.28,1.64,5.88,5.88,0,0,0-.34,2.05v3.24a.49.49,0,0,1-.14.36.45.45,0,0,1-.37.14h-.79a.48.48,0,0,1-.51-.5V30.81a7.27,7.27,0,0,1,.51-2.84,5,5,0,0,1,1.93-2.18l-2-2.86a.85.85,0,0,1-.16-.42.44.44,0,0,1,.14-.31.43.43,0,0,1,.3-.13h1a.55.55,0,0,1,.34.1,1.81,1.81,0,0,1,.26.28l4.62,6.44a3.43,3.43,0,0,0,1.17-.94,2.53,2.53,0,0,0,.45-1,7.65,7.65,0,0,0,.09-1.31V22.58a.49.49,0,0,1,.14-.36.5.5,0,0,1,.37-.15h.83a.5.5,0,0,1,.37.15.49.49,0,0,1,.14.36v3.17a5.78,5.78,0,0,1-.51,2.54,5.12,5.12,0,0,1-2.06,2l2.5,3.5A.77.77,0,0,1,256.87,34.19Z"/><path class="cls-3" d="M268.25,34.49a.49.49,0,0,1-.14-.36V27.55q0-3.78-3.78-3.78h-4.07a.5.5,0,0,1-.37-.15.49.49,0,0,1-.14-.36v-.68a.52.52,0,0,1,.14-.38.57.57,0,0,1,.37-.13h4.18c3.74,0,5.61,1.81,5.61,5.41v6.65a.46.46,0,0,1-.15.36.45.45,0,0,1-.36.14h-.92A.49.49,0,0,1,268.25,34.49Zm-8.36,0a.49.49,0,0,1-.14-.36V26.74a.51.51,0,0,1,.14-.38.52.52,0,0,1,.37-.13h.92a.47.47,0,0,1,.35.14.52.52,0,0,1,.13.37v7.39a.48.48,0,0,1-.13.36.43.43,0,0,1-.35.14h-.92A.49.49,0,0,1,259.89,34.49Z"/><path class="cls-3" d="M285,34.49a.49.49,0,0,1-.14-.36V27.55q0-3.78-3.78-3.78h-2.84a.5.5,0,0,1-.37-.15.49.49,0,0,1-.14-.36v-.68a.49.49,0,0,1,.14-.36.5.5,0,0,1,.37-.15h3q5.61,0,5.61,5.37v6.69a.46.46,0,0,1-.15.36.45.45,0,0,1-.36.14h-.92A.49.49,0,0,1,285,34.49Z"/><path class="cls-3" d="M291.8,25.57A4,4,0,0,0,292,27a1,1,0,0,0,.68.63l.82.22c.25.08.37.31.37.71l0,.48a.36.36,0,0,1-.24.35.81.81,0,0,1-.37.09.47.47,0,0,1-.16,0l-.85-.18c-1.47-.32-2.21-1.56-2.21-3.74V22.58a.49.49,0,0,1,.15-.38.53.53,0,0,1,.36-.13h4.05a4.65,4.65,0,0,1,3.67,1.41,6.18,6.18,0,0,1,1.35,4c0,.14,0,.42,0,.83s0,.71,0,.86a6.18,6.18,0,0,1-1.35,4,4.64,4.64,0,0,1-3.67,1.4h-3.78a.45.45,0,0,1-.36-.14.53.53,0,0,1-.13-.36V33.4a.57.57,0,0,1,.13-.36.45.45,0,0,1,.36-.14h3.67a3,3,0,0,0,2.38-1,4.54,4.54,0,0,0,.9-2.81c0-.14,0-.4,0-.77s0-.6,0-.75a4.37,4.37,0,0,0-.89-2.79,3,3,0,0,0-2.39-1H291.8Z"/><path class="cls-3" d="M303.79,33.45a5.71,5.71,0,0,1-1.34-4.07v-6.8a.52.52,0,0,1,.14-.38.57.57,0,0,1,.37-.13h5.28a5.5,5.5,0,0,1,4.07,1.28,5.84,5.84,0,0,1,1.34,3.91c0,.15,0,.55,0,1.19s0,1,0,1.19a5.47,5.47,0,0,1-1.44,3.93c-.9.86-2.36,1.28-4.37,1.28A5.36,5.36,0,0,1,303.79,33.45Zm7-1.19a3.75,3.75,0,0,0,.94-2.73c0-.15,0-.51,0-1.08s0-.93,0-1.08a3.74,3.74,0,0,0-1-2.68,3.62,3.62,0,0,0-2.63-.92H304.3v5.58a4,4,0,0,0,.89,2.8,3.44,3.44,0,0,0,2.65,1A4.23,4.23,0,0,0,310.82,32.26Z"/><path class="cls-3" d="M324.56,22.72a4.37,4.37,0,0,1,1.66,1.86,6.25,6.25,0,0,1,.61,2.86v6.69a.53.53,0,0,1-.13.36.45.45,0,0,1-.36.14h-5.67a.45.45,0,0,1-.36-.14.46.46,0,0,1-.15-.36v-.68a.5.5,0,0,1,.15-.37.49.49,0,0,1,.36-.14h4.24V27.57a4.73,4.73,0,0,0-.38-2,3.16,3.16,0,0,0-1.07-1.33,2.67,2.67,0,0,0-1.54-.47h-2.35l-1.7,10.32a.58.58,0,0,1-.17.37.52.52,0,0,1-.38.15h-.9a.41.41,0,0,1-.34-.15.52.52,0,0,1-.1-.37l1.76-10.3h-1.12a.49.49,0,0,1-.36-.14.5.5,0,0,1-.15-.37v-.72a.51.51,0,0,1,.51-.51h5.52A4.54,4.54,0,0,1,324.56,22.72Z"/><path class="cls-3" d="M20.58,34.49a.45.45,0,0,1-.14-.36V22.58a.48.48,0,0,1,.14-.38.53.53,0,0,1,.36-.13H25.1q5.56,0,5.57,5.37v6.69a.46.46,0,0,1-.15.36.45.45,0,0,1-.36.14H20.94A.45.45,0,0,1,20.58,34.49Zm8.19-1.55V27.55q0-3.78-3.78-3.78H22.24v9.17Z"/><path class="cls-3" d="M34,29.4a.48.48,0,0,1-.14-.35V22.58A.52.52,0,0,1,34,22.2a.57.57,0,0,1,.37-.13h.94a.5.5,0,0,1,.37.15.49.49,0,0,1,.14.36v6.47a.48.48,0,0,1-.14.35.52.52,0,0,1-.37.13h-.94A.52.52,0,0,1,34,29.4Z"/><path class="cls-3" d="M48.43,22.22a.49.49,0,0,1,.14.36v.68a.5.5,0,0,1-.5.51H46.72a2.6,2.6,0,0,0-.48,1,6.24,6.24,0,0,0-.18,1.58v7.77a.43.43,0,0,1-.14.35.5.5,0,0,1-.36.13h-.93a.48.48,0,0,1-.35-.13.46.46,0,0,1-.13-.35v-7.9a7.5,7.5,0,0,1,.14-1.52,2.39,2.39,0,0,1,.41-1H38.65a.46.46,0,0,1-.36-.15.45.45,0,0,1-.14-.36v-.68a.45.45,0,0,1,.14-.36.46.46,0,0,1,.36-.15h9.42A.49.49,0,0,1,48.43,22.22Z"/><path class="cls-3" d="M50.88,34.49a.53.53,0,0,1-.13-.36v-.68a.57.57,0,0,1,.13-.37.48.48,0,0,1,.35-.14h6.36V27.55q0-3.78-3.78-3.78H51.45a.45.45,0,0,1-.35-.15.53.53,0,0,1-.13-.36v-.68a.53.53,0,0,1,.13-.36.45.45,0,0,1,.35-.15h2.47q5.63,0,5.63,5.39v5.48h.81a.46.46,0,0,1,.51.51v.68a.48.48,0,0,1-.13.36.47.47,0,0,1-.38.14H51.23A.45.45,0,0,1,50.88,34.49Z"/><path class="cls-3" d="M63.37,34.49a.45.45,0,0,1-.14-.36V22.58a.48.48,0,0,1,.14-.38.53.53,0,0,1,.36-.13h1a.49.49,0,0,1,.36.15.45.45,0,0,1,.14.36V34.13a.45.45,0,0,1-.14.36.48.48,0,0,1-.36.14h-1A.45.45,0,0,1,63.37,34.49Z"/><path class="cls-3" d="M77.83,22.22a.49.49,0,0,1,.14.36v6.07a5.37,5.37,0,0,1-1.27,3.48,6.93,6.93,0,0,1-3.42,2.2l-4.77,1.51a.51.51,0,0,1-.49-.08.36.36,0,0,1-.13-.29v-.68c0-.34.12-.54.35-.62l2.88-1L68.26,23a3.11,3.11,0,0,1-.11-.44.44.44,0,0,1,.44-.44h1a.6.6,0,0,1,.34.1.53.53,0,0,1,.17.23l2.82,10.21a4.34,4.34,0,0,0,2.43-1.73,5.31,5.31,0,0,0,.69-2.82V22.58a.49.49,0,0,1,.14-.36.5.5,0,0,1,.37-.15h.92A.44.44,0,0,1,77.83,22.22Z"/><path class="cls-3" d="M89.77,34.49a.46.46,0,0,1-.15-.36V27.55q0-3.78-3.78-3.78H81.77a.51.51,0,0,1-.51-.51v-.68a.49.49,0,0,1,.15-.38.53.53,0,0,1,.36-.13H86c3.74,0,5.61,1.81,5.61,5.41v6.65a.48.48,0,0,1-.51.5h-.92A.45.45,0,0,1,89.77,34.49Zm-8.36,0a.46.46,0,0,1-.15-.36V26.74a.48.48,0,0,1,.15-.38.48.48,0,0,1,.36-.13h.92a.49.49,0,0,1,.36.14.57.57,0,0,1,.13.37v7.39a.53.53,0,0,1-.13.36.45.45,0,0,1-.36.14h-.92A.45.45,0,0,1,81.41,34.49Z"/><path class="cls-3" d="M106.49,34.49a.45.45,0,0,1-.14-.36V27.55c0-2.52-1.27-3.78-3.79-3.78H99.72a.5.5,0,0,1-.5-.51v-.68a.5.5,0,0,1,.5-.51h3q5.61,0,5.61,5.37v6.69a.48.48,0,0,1-.51.5h-.92A.45.45,0,0,1,106.49,34.49Z"/><path class="cls-3" d="M113.32,25.57a3.75,3.75,0,0,0,.2,1.39,1,1,0,0,0,.68.63l.81.22c.25.08.38.31.38.71l0,.48a.36.36,0,0,1-.24.35.85.85,0,0,1-.38.09.44.44,0,0,1-.15,0l-.86-.18c-1.47-.32-2.2-1.56-2.2-3.74V22.58a.52.52,0,0,1,.14-.38.57.57,0,0,1,.37-.13h4a4.67,4.67,0,0,1,3.68,1.41,6.18,6.18,0,0,1,1.34,4,8.16,8.16,0,0,1,0,.83c0,.43,0,.71,0,.86a6.18,6.18,0,0,1-1.34,4,4.66,4.66,0,0,1-3.68,1.4h-3.78a.43.43,0,0,1-.35-.14.48.48,0,0,1-.13-.36V33.4A.52.52,0,0,1,112,33a.43.43,0,0,1,.35-.14H116a3,3,0,0,0,2.38-1,4.42,4.42,0,0,0,.9-2.81,7.24,7.24,0,0,0,0-.77,7.12,7.12,0,0,0,0-.75,4.31,4.31,0,0,0-.89-2.79,3,3,0,0,0-2.39-1h-2.7Z"/><path class="cls-3" d="M125.31,33.45A5.66,5.66,0,0,1,124,29.38v-6.8a.48.48,0,0,1,.14-.38.55.55,0,0,1,.36-.13h5.28a5.48,5.48,0,0,1,4.07,1.28,5.79,5.79,0,0,1,1.34,3.91c0,.15,0,.55,0,1.19s0,1,0,1.19a5.39,5.39,0,0,1-1.44,3.93c-.9.86-2.35,1.28-4.36,1.28A5.33,5.33,0,0,1,125.31,33.45Zm7-1.19a3.79,3.79,0,0,0,.93-2.73c0-.15,0-.51,0-1.08s0-.93,0-1.08a3.69,3.69,0,0,0-1-2.68,3.6,3.6,0,0,0-2.63-.92h-3.83v5.58a4,4,0,0,0,.9,2.8,3.43,3.43,0,0,0,2.65,1A4.24,4.24,0,0,0,132.34,32.26Z"/><path class="cls-3" d="M146.08,22.72a4.5,4.5,0,0,1,1.66,1.86,6.38,6.38,0,0,1,.6,2.86v6.69a.48.48,0,0,1-.13.36.43.43,0,0,1-.35.14h-5.68a.47.47,0,0,1-.36-.14.45.45,0,0,1-.14-.36v-.68a.49.49,0,0,1,.14-.37.51.51,0,0,1,.36-.14h4.25V27.57a4.73,4.73,0,0,0-.39-2A3.14,3.14,0,0,0,145,24.26a2.69,2.69,0,0,0-1.54-.47h-2.36l-1.69,10.32a.65.65,0,0,1-.18.37.51.51,0,0,1-.37.15h-.9a.41.41,0,0,1-.34-.15.48.48,0,0,1-.1-.37l1.76-10.3h-1.13a.52.52,0,0,1-.36-.14.53.53,0,0,1-.14-.37v-.72a.5.5,0,0,1,.5-.51h5.53A4.57,4.57,0,0,1,146.08,22.72Z"/><text class="cls-4" transform="translate(251.16 104.63)">0</text><text class="cls-4" transform="translate(72.63 104.63)">17</text><text class="cls-4" transform="translate(252.44 178.63)">1</text><text class="cls-4" transform="translate(68.91 178.63)">23</text><text class="cls-4" transform="translate(254.69 246.63)">2</text><text class="cls-4" transform="translate(72.45 246.63)">85</text><text class="cls-4" transform="translate(255.54 313.63)">3</text><text class="cls-4" transform="translate(73.46 313.63)">50</text></g></g></svg>