<svg xmlns="http://www.w3.org/2000/svg" viewBox="0 0 833 383.45"><defs><style>.cls-1,.cls-2,.cls-5{fill:none;stroke-miterlimit:10;}.cls-1,.cls-2{stroke:#42210b;}.cls-1,.cls-5{stroke-width:3px;}.cls-3,.cls-4{fill:#38281a;}.cls-4{font-size:22px;font-family:Rubik-Regular, Rubik;}.cls-5{stroke:#38281a;}.cls-6{fill:#db9f63;}</style></defs><g id="Layer_2" data-name="Layer 2"><g id="Layer_1-2" data-name="Layer 1"><line class="cls-1" x1="4" y1="114.77" x2="728.13" y2="114.77"/><line class="cls-2" x1="4" y1="187.97" x2="728.13" y2="187.97"/><line class="cls-2" x1="4" y1="261.18" x2="728.13" y2="261.18"/><line class="cls-2" x1="195.8" y1="56.22" x2="195.8" y2="326.22"/><line class="cls-2" x1="386.46" y1="54.22" x2="386.46" y2="324.22"/><line class="cls-2" x1="577.13" y1="48.22" x2="577.13" y2="318.22"/><path class="cls-3" d="M645.11,91a.53.53,0,0,1-.14-.37V79a.5.5,0,0,1,.14-.37.52.52,0,0,1,.37-.13h4.15c3.72,0,5.57,1.79,5.57,5.36v6.69a.53.53,0,0,1-.14.37.52.52,0,0,1-.36.14h-9.22A.53.53,0,0,1,645.11,91Zm8.2-1.56V84q0-3.78-3.79-3.78h-2.75v9.17Z"/><path class="cls-3" d="M671,78.66a.49.49,0,0,1,.13.37v6.12a6.63,6.63,0,0,1-.76,3.24,5.11,5.11,0,0,1-2.13,2.14,6.26,6.26,0,0,1-3.16.69H663.5a5,5,0,0,1-2.55-.66,4.78,4.78,0,0,1-1.79-1.86,5.63,5.63,0,0,1-.66-2.76V79a.5.5,0,0,1,.14-.37.52.52,0,0,1,.37-.13h.83a.52.52,0,0,1,.38.13.54.54,0,0,1,.13.37l.07,6.25a3.89,3.89,0,0,0,2.79-1.06A3.56,3.56,0,0,0,664,81.8V79a.51.51,0,0,1,.14-.36.49.49,0,0,1,.37-.14h.86a.45.45,0,0,1,.35.14.55.55,0,0,1,.13.36v2.86a4.75,4.75,0,0,1-1.35,3.47,5.71,5.71,0,0,1-3.93,1.5,3.36,3.36,0,0,0,1.29,2,3.84,3.84,0,0,0,2.32.69h.72a4.14,4.14,0,0,0,3.26-1.18,4.61,4.61,0,0,0,1.17-3.3V79a.47.47,0,0,1,.14-.36.45.45,0,0,1,.36-.14h.84A.49.49,0,0,1,671,78.66Z"/><path class="cls-3" d="M469.75,78.67a.55.55,0,0,1,.13.36v.68a.57.57,0,0,1-.13.37.49.49,0,0,1-.36.14h-1.34a2.6,2.6,0,0,0-.48,1,6.33,6.33,0,0,0-.18,1.59V90.6a.46.46,0,0,1-.15.36.59.59,0,0,1-.37.13H466a.52.52,0,0,1-.35-.13.48.48,0,0,1-.13-.36V82.71a7.36,7.36,0,0,1,.14-1.52,2.38,2.38,0,0,1,.41-1h-1.91a.48.48,0,0,1-.51-.51V79a.51.51,0,0,1,.14-.36.49.49,0,0,1,.37-.14h5.27A.45.45,0,0,1,469.75,78.67Z"/><path class="cls-3" d="M473,91a.5.5,0,0,1-.15-.37V79a.47.47,0,0,1,.15-.37.48.48,0,0,1,.36-.13h.95a.48.48,0,0,1,.36.14.51.51,0,0,1,.14.36V90.58a.53.53,0,0,1-.14.37.52.52,0,0,1-.36.14h-.95A.49.49,0,0,1,473,91Z"/><path class="cls-3" d="M478.34,91a.5.5,0,0,1-.15-.37V79a.47.47,0,0,1,.15-.37.48.48,0,0,1,.36-.13h4.22a5.81,5.81,0,0,1,4.22,1.35,5.47,5.47,0,0,1,1.37,4.06v6.64a.52.52,0,0,1-.13.37.48.48,0,0,1-.35.14h-.93a.52.52,0,0,1-.36-.14.53.53,0,0,1-.14-.37V84q0-3.78-3.79-3.78h-2.7V90.58A.57.57,0,0,1,480,91a.49.49,0,0,1-.36.14h-.92A.49.49,0,0,1,478.34,91Z"/><path class="cls-3" d="M499.89,79.17A4.63,4.63,0,0,1,501.55,81a6.38,6.38,0,0,1,.6,2.86v6.69A.52.52,0,0,1,502,91a.47.47,0,0,1-.35.14H496a.51.51,0,0,1-.36-.14.49.49,0,0,1-.14-.37V89.9a.45.45,0,0,1,.14-.36.48.48,0,0,1,.36-.15h4.25V84a4.73,4.73,0,0,0-.39-2,3.11,3.11,0,0,0-1.06-1.34,2.69,2.69,0,0,0-1.54-.47h-2.36L493.2,90.56a.62.62,0,0,1-.18.37.49.49,0,0,1-.37.16h-.9a.39.39,0,0,1-.34-.16.47.47,0,0,1-.1-.37l1.76-10.3h-1.13a.48.48,0,0,1-.36-.14.51.51,0,0,1-.14-.36V79a.51.51,0,0,1,.14-.36.48.48,0,0,1,.36-.14h5.53A4.56,4.56,0,0,1,499.89,79.17Z"/><path class="cls-3" d="M236.18,93.51a6.36,6.36,0,0,1-1.63-3.32,28.4,28.4,0,0,1-.5-5.9,28.4,28.4,0,0,1,.5-5.9,6.29,6.29,0,0,1,1.63-3.31,4.22,4.22,0,0,1,3-1.06.48.48,0,0,1,.51.5v.77a.51.51,0,0,1-.13.35.38.38,0,0,1-.31.16,2.5,2.5,0,0,0-2,.83,5.45,5.45,0,0,0-1,2.64,31.22,31.22,0,0,0-.31,5,31.22,31.22,0,0,0,.31,5,5.49,5.49,0,0,0,1,2.65,2.48,2.48,0,0,0,2,.84.41.41,0,0,1,.31.16.51.51,0,0,1,.13.35v.77a.49.49,0,0,1-.14.36.5.5,0,0,1-.37.15A4.18,4.18,0,0,1,236.18,93.51Z"/><path class="cls-3" d="M246.28,93.14a.46.46,0,0,1-.15-.36V91.24a7.08,7.08,0,0,1-2.66-.71,4.47,4.47,0,0,1-1.7-1.45,3.57,3.57,0,0,1-.63-1.86.45.45,0,0,1,.14-.32.46.46,0,0,1,.34-.15h1.15a.57.57,0,0,1,.55.44,2.66,2.66,0,0,0,1.14,1.59,4.47,4.47,0,0,0,2.62.66,4.81,4.81,0,0,0,2.75-.65,2.11,2.11,0,0,0,.92-1.82,1.68,1.68,0,0,0-.45-1.21A3.84,3.84,0,0,0,249,85c-.59-.23-1.47-.53-2.64-.88a14.08,14.08,0,0,1-2.73-1,4.08,4.08,0,0,1-1.52-1.37,3.85,3.85,0,0,1-.5-2,3.61,3.61,0,0,1,1.21-2.76,5.58,5.58,0,0,1,3.34-1.36V74a.5.5,0,0,1,.51-.5h.83a.53.53,0,0,1,.37.14A.52.52,0,0,1,248,74v1.54a5.87,5.87,0,0,1,2.41.8,4.52,4.52,0,0,1,1.52,1.45,3.57,3.57,0,0,1,.56,1.67.45.45,0,0,1-.12.31.44.44,0,0,1-.34.13h-1.17a.52.52,0,0,1-.57-.42,2.2,2.2,0,0,0-1-1.53,4,4,0,0,0-2.26-.6,4.19,4.19,0,0,0-2.35.57,2.1,2.1,0,0,0-.46,2.93,3.33,3.33,0,0,0,1.25.84,21.41,21.41,0,0,0,2.44.83,16.52,16.52,0,0,1,3,1,4,4,0,0,1,1.6,1.34,3.68,3.68,0,0,1,.53,2,3.74,3.74,0,0,1-1.32,3A6.2,6.2,0,0,1,248,91.26v1.52a.49.49,0,0,1-.14.36.5.5,0,0,1-.37.15h-.83A.46.46,0,0,1,246.28,93.14Z"/><path class="cls-3" d="M255.52,85.27a.49.49,0,0,1-.15-.36v-.84a.51.51,0,0,1,.51-.51h6.6a.48.48,0,0,1,.36.15.45.45,0,0,1,.14.36v.84a.48.48,0,0,1-.14.36.51.51,0,0,1-.36.14h-6.6A.49.49,0,0,1,255.52,85.27Z"/><path class="cls-3" d="M264.92,91a.52.52,0,0,1-.13-.37V89.9a.48.48,0,0,1,.13-.36.45.45,0,0,1,.35-.15h6.36V84q0-3.78-3.78-3.78h-2.36a.48.48,0,0,1-.35-.14.52.52,0,0,1-.13-.37V79a.5.5,0,0,1,.13-.36.45.45,0,0,1,.35-.14H268c3.75,0,5.63,1.79,5.63,5.39v5.47h.81a.52.52,0,0,1,.38.14.48.48,0,0,1,.13.37v.68a.47.47,0,0,1-.51.51h-9.13A.48.48,0,0,1,264.92,91Z"/><path class="cls-3" d="M276.23,94.44a.46.46,0,0,1-.15-.36v-.77a.47.47,0,0,1,.14-.35.43.43,0,0,1,.32-.16,2.46,2.46,0,0,0,1.94-.84,5.48,5.48,0,0,0,1-2.65,32.65,32.65,0,0,0,.3-5,32.65,32.65,0,0,0-.3-5,5.44,5.44,0,0,0-1-2.64,2.49,2.49,0,0,0-1.94-.83.4.4,0,0,1-.32-.16.47.47,0,0,1-.14-.35v-.77a.46.46,0,0,1,.15-.36.47.47,0,0,1,.35-.14,4.23,4.23,0,0,1,3,1.06,6.31,6.31,0,0,1,1.61,3.3,28.3,28.3,0,0,1,.5,5.91,28.3,28.3,0,0,1-.5,5.91,6.39,6.39,0,0,1-1.61,3.31,4.2,4.2,0,0,1-3,1.08A.49.49,0,0,1,276.23,94.44Z"/><path class="cls-3" d="M301.26,83.89v6.69a.52.52,0,0,1-.13.37.5.5,0,0,1-.37.14h-.9a.48.48,0,0,1-.51-.51V84q0-3.78-3.78-3.78H294c-.15.92-.25,1.69-.32,2.3a18.83,18.83,0,0,0-.08,2.08l.05,6a.57.57,0,0,1-.13.37.52.52,0,0,1-.38.14l-3,0a.52.52,0,0,1-.37-.13.47.47,0,0,1-.14-.35V89.9a.49.49,0,0,1,.14-.36.5.5,0,0,1,.37-.15l1.69,0V84.69c0-.93,0-1.71.06-2.35a13.43,13.43,0,0,1,.36-2.12H291a.49.49,0,0,1-.36-.14.5.5,0,0,1-.15-.37V79a.47.47,0,0,1,.15-.37.48.48,0,0,1,.36-.13h4.69Q301.26,78.53,301.26,83.89Z"/><path class="cls-3" d="M304.71,91a.5.5,0,0,1-.15-.37V79a.47.47,0,0,1,.15-.37.48.48,0,0,1,.36-.13H306a.48.48,0,0,1,.36.14.51.51,0,0,1,.14.36V90.58a.53.53,0,0,1-.14.37.52.52,0,0,1-.36.14h-.95A.49.49,0,0,1,304.71,91Z"/><path class="cls-3" d="M316.72,91a.49.49,0,0,1-.14-.37V84c0-2.52-1.27-3.78-3.79-3.78H310a.52.52,0,0,1-.36-.14.53.53,0,0,1-.14-.37V79a.51.51,0,0,1,.14-.36.48.48,0,0,1,.36-.14h2.95q5.61,0,5.61,5.36v6.69a.53.53,0,0,1-.14.37.52.52,0,0,1-.36.14h-.93A.51.51,0,0,1,316.72,91Z"/><path class="cls-3" d="M321.8,85.85a.47.47,0,0,1-.14-.35V79a.5.5,0,0,1,.14-.37.52.52,0,0,1,.36-.13h.95a.45.45,0,0,1,.36.14.48.48,0,0,1,.15.36V85.5a.44.44,0,0,1-.15.35.48.48,0,0,1-.36.13h-.95A.52.52,0,0,1,321.8,85.85Z"/><path class="cls-3" d="M327,91a.5.5,0,0,1-.15-.37v-.72a.5.5,0,0,1,.15-.37.49.49,0,0,1,.36-.14h3.15a3.71,3.71,0,0,0,2.83-1,4.14,4.14,0,0,0,1-2.82c0-.21,0-.47,0-.77s0-.55,0-.75a4.15,4.15,0,0,0-1-2.83,3.71,3.71,0,0,0-2.83-1H327.4a.45.45,0,0,1-.36-.14.48.48,0,0,1-.15-.36V79a.48.48,0,0,1,.15-.36.45.45,0,0,1,.36-.14h3.26a5.52,5.52,0,0,1,4.13,1.38,6,6,0,0,1,1.45,4q0,.3,0,.84c0,.36,0,.65,0,.85a5.91,5.91,0,0,1-1.45,4,5.48,5.48,0,0,1-4.13,1.39H327.4A.49.49,0,0,1,327,91Z"/><path class="cls-3" d="M347.13,79.17A4.49,4.49,0,0,1,348.79,81a6.25,6.25,0,0,1,.61,2.86v6.69a.52.52,0,0,1-.13.37.48.48,0,0,1-.35.14h-5.68a.49.49,0,0,1-.36-.14.5.5,0,0,1-.15-.37V89.9a.51.51,0,0,1,.51-.51h4.25V84a4.73,4.73,0,0,0-.39-2A3.13,3.13,0,0,0,346,80.71a2.65,2.65,0,0,0-1.54-.47h-2.35l-1.69,10.32a.62.62,0,0,1-.18.37.49.49,0,0,1-.37.16H339a.4.4,0,0,1-.34-.16.51.51,0,0,1-.1-.37l1.76-10.3h-1.12a.45.45,0,0,1-.36-.14.47.47,0,0,1-.14-.36V79a.47.47,0,0,1,.14-.36.45.45,0,0,1,.36-.14h5.52A4.53,4.53,0,0,1,347.13,79.17Z"/><path class="cls-3" d="M45.61,93.51A6.36,6.36,0,0,1,44,90.19a28.49,28.49,0,0,1-.49-5.9,28.49,28.49,0,0,1,.49-5.9,6.29,6.29,0,0,1,1.63-3.31,4.24,4.24,0,0,1,3-1.06.48.48,0,0,1,.36.14.49.49,0,0,1,.14.36v.77a.51.51,0,0,1-.13.35.38.38,0,0,1-.31.16,2.52,2.52,0,0,0-2,.83,5.55,5.55,0,0,0-1,2.64,32.44,32.44,0,0,0-.31,5,32.44,32.44,0,0,0,.31,5,5.59,5.59,0,0,0,1,2.65,2.49,2.49,0,0,0,2,.84A.41.41,0,0,1,49,93a.51.51,0,0,1,.13.35v.77a.5.5,0,0,1-.5.51A4.21,4.21,0,0,1,45.61,93.51Z"/><path class="cls-3" d="M55.71,93.14a.45.45,0,0,1-.14-.36V91.24a7.08,7.08,0,0,1-2.67-.71,4.63,4.63,0,0,1-1.7-1.45,3.57,3.57,0,0,1-.63-1.86.45.45,0,0,1,.14-.32.47.47,0,0,1,.35-.15H52.2a.57.57,0,0,1,.55.44,2.75,2.75,0,0,0,1.14,1.59,4.47,4.47,0,0,0,2.62.66,4.79,4.79,0,0,0,2.75-.65A2.09,2.09,0,0,0,60.19,87a1.64,1.64,0,0,0-.46-1.21A3.84,3.84,0,0,0,58.4,85c-.58-.23-1.46-.53-2.64-.88A13.71,13.71,0,0,1,53,83a3.93,3.93,0,0,1-1.52-1.37,3.76,3.76,0,0,1-.51-2,3.65,3.65,0,0,1,1.21-2.76,5.58,5.58,0,0,1,3.35-1.36V74a.48.48,0,0,1,.14-.36.49.49,0,0,1,.36-.14h.84a.52.52,0,0,1,.36.14.48.48,0,0,1,.14.36v1.54a5.82,5.82,0,0,1,2.41.8,4.43,4.43,0,0,1,1.52,1.45,3.57,3.57,0,0,1,.56,1.67.45.45,0,0,1-.12.31.42.42,0,0,1-.34.13H60.27a.53.53,0,0,1-.57-.42,2.22,2.22,0,0,0-1-1.53,4,4,0,0,0-2.27-.6,4.19,4.19,0,0,0-2.35.57,1.91,1.91,0,0,0-.86,1.69,1.89,1.89,0,0,0,.41,1.24,3.28,3.28,0,0,0,1.24.84,22.13,22.13,0,0,0,2.44.83,16.52,16.52,0,0,1,2.95,1,4,4,0,0,1,1.6,1.34,3.6,3.6,0,0,1,.53,2,3.74,3.74,0,0,1-1.32,3,6.2,6.2,0,0,1-3.63,1.33v1.52a.45.45,0,0,1-.14.36.49.49,0,0,1-.36.15h-.84A.46.46,0,0,1,55.71,93.14Z"/><path class="cls-3" d="M65,85.27a.49.49,0,0,1-.15-.36v-.84a.51.51,0,0,1,.51-.51h6.6a.51.51,0,0,1,.51.51v.84a.5.5,0,0,1-.51.5h-6.6A.49.49,0,0,1,65,85.27Z"/><path class="cls-3" d="M74.35,91a.57.57,0,0,1-.13-.37V89.9a.53.53,0,0,1,.13-.36.46.46,0,0,1,.36-.15h6.35V84q0-3.78-3.78-3.78H74.93a.49.49,0,0,1-.36-.14.57.57,0,0,1-.13-.37V79a.55.55,0,0,1,.13-.36.45.45,0,0,1,.36-.14h2.46c3.75,0,5.63,1.79,5.63,5.39v5.47h.82a.5.5,0,0,1,.37.14.48.48,0,0,1,.13.37v.68a.52.52,0,0,1-.13.37.5.5,0,0,1-.37.14H74.71A.49.49,0,0,1,74.35,91Z"/><path class="cls-3" d="M85.66,94.44a.46.46,0,0,1-.15-.36v-.77a.47.47,0,0,1,.14-.35A.45.45,0,0,1,86,92.8a2.5,2.5,0,0,0,2-.84,5.59,5.59,0,0,0,1-2.65,32.44,32.44,0,0,0,.31-5,32.44,32.44,0,0,0-.31-5,5.55,5.55,0,0,0-1-2.64,2.52,2.52,0,0,0-2-.83.42.42,0,0,1-.32-.16.47.47,0,0,1-.14-.35v-.77a.46.46,0,0,1,.15-.36A.47.47,0,0,1,86,74a4.23,4.23,0,0,1,3,1.06,6.32,6.32,0,0,1,1.62,3.3,28.4,28.4,0,0,1,.49,5.91,28.4,28.4,0,0,1-.49,5.91,6.39,6.39,0,0,1-1.62,3.31,4.2,4.2,0,0,1-3,1.08A.49.49,0,0,1,85.66,94.44Z"/><path class="cls-3" d="M110.7,83.89v6.69a.57.57,0,0,1-.13.37.52.52,0,0,1-.38.14h-.9a.49.49,0,0,1-.36-.14.5.5,0,0,1-.15-.37V84q0-3.78-3.78-3.78h-1.61c-.14.92-.25,1.69-.32,2.3A16.81,16.81,0,0,0,103,84.6l0,6a.52.52,0,0,1-.13.37.5.5,0,0,1-.37.14l-3,0a.48.48,0,0,1-.36-.13.44.44,0,0,1-.15-.35V89.9a.51.51,0,0,1,.51-.51l1.69,0V84.69c0-.93,0-1.71.06-2.35a13.43,13.43,0,0,1,.36-2.12h-1.19a.52.52,0,0,1-.36-.14.49.49,0,0,1-.14-.37V79a.46.46,0,0,1,.14-.37.52.52,0,0,1,.36-.13h4.69C108.83,78.53,110.7,80.32,110.7,83.89Z"/><path class="cls-3" d="M114.14,91a.49.49,0,0,1-.14-.37V79a.46.46,0,0,1,.14-.37.52.52,0,0,1,.36-.13h1a.45.45,0,0,1,.36.14A.48.48,0,0,1,116,79V90.58a.5.5,0,0,1-.15.37.49.49,0,0,1-.36.14h-1A.52.52,0,0,1,114.14,91Z"/><path class="cls-3" d="M129.38,90.65a.43.43,0,0,1-.14.31.44.44,0,0,1-.31.13h-1a.58.58,0,0,1-.35-.09,1.57,1.57,0,0,1-.25-.26l-5.06-7.09A3.63,3.63,0,0,0,121,85.29a6.14,6.14,0,0,0-.34,2.06v3.23a.52.52,0,0,1-.13.37.5.5,0,0,1-.37.14h-.79a.48.48,0,0,1-.51-.51V87.26a7.27,7.27,0,0,1,.51-2.84,5.09,5.09,0,0,1,1.93-2.18l-2-2.86a.83.83,0,0,1-.15-.41.44.44,0,0,1,.44-.44h1a.55.55,0,0,1,.34.09,1.81,1.81,0,0,1,.25.28l4.62,6.45a3.4,3.4,0,0,0,1.18-.95,2.53,2.53,0,0,0,.45-1,7.65,7.65,0,0,0,.09-1.31V79a.51.51,0,0,1,.14-.36.49.49,0,0,1,.37-.14h.83a.45.45,0,0,1,.36.14.48.48,0,0,1,.15.36V82.2a5.75,5.75,0,0,1-.51,2.54,5.16,5.16,0,0,1-2.07,2l2.51,3.5A.85.85,0,0,1,129.38,90.65Z"/><path class="cls-3" d="M140.2,84.09a4.56,4.56,0,0,1-2.07,1.85l2.31,3.3a1.2,1.2,0,0,1,.24.68v.66a.52.52,0,0,1-.13.37.47.47,0,0,1-.35.14h-7.92a.49.49,0,0,1-.36-.14.5.5,0,0,1-.15-.37v-.7a.5.5,0,0,1,.15-.37.49.49,0,0,1,.36-.14h6l-6.88-10a1,1,0,0,1-.18-.41.43.43,0,0,1,.14-.31.48.48,0,0,1,.34-.13h.95a.68.68,0,0,1,.59.35l4,5.7c1.25-.59,1.87-1.8,1.87-3.63V79a.47.47,0,0,1,.15-.37.48.48,0,0,1,.36-.13h.84a.48.48,0,0,1,.36.14.47.47,0,0,1,.14.36v2.16A5.64,5.64,0,0,1,140.2,84.09Z"/><path class="cls-3" d="M144.06,91a.49.49,0,0,1-.14-.37V79a.46.46,0,0,1,.14-.37.52.52,0,0,1,.36-.13h1a.45.45,0,0,1,.36.14.48.48,0,0,1,.15.36V90.58a.5.5,0,0,1-.15.37.49.49,0,0,1-.36.14h-1A.52.52,0,0,1,144.06,91Z"/><path class="cls-3" d="M157.81,91a.49.49,0,0,1-.14-.37V84q0-3.78-3.79-3.78h-4.07a.51.51,0,0,1-.36-.14.49.49,0,0,1-.14-.37V79a.46.46,0,0,1,.14-.37.5.5,0,0,1,.36-.13H154q5.61,0,5.61,5.41v6.64a.53.53,0,0,1-.14.37.52.52,0,0,1-.36.14h-.93A.52.52,0,0,1,157.81,91Zm-8.36,0a.49.49,0,0,1-.14-.37V83.19a.45.45,0,0,1,.14-.37.51.51,0,0,1,.36-.14h.93a.45.45,0,0,1,.35.15.48.48,0,0,1,.13.36v7.39a.52.52,0,0,1-.13.37.48.48,0,0,1-.35.14h-.93A.51.51,0,0,1,149.45,91Z"/><path class="cls-3" d="M642.88,165a.53.53,0,0,1-.14-.37V158q0-3.78-3.78-3.78h-2.84a.49.49,0,0,1-.36-.14.5.5,0,0,1-.15-.37V153a.48.48,0,0,1,.15-.36.45.45,0,0,1,.36-.14h3q5.61,0,5.61,5.36v6.69a.5.5,0,0,1-.15.37.49.49,0,0,1-.36.14h-.92A.53.53,0,0,1,642.88,165Z"/><path class="cls-3" d="M648,159.85a.44.44,0,0,1-.15-.35V153a.47.47,0,0,1,.15-.37.48.48,0,0,1,.36-.13h.94a.49.49,0,0,1,.37.14.51.51,0,0,1,.14.36v6.47a.47.47,0,0,1-.14.35.52.52,0,0,1-.37.13h-.94A.48.48,0,0,1,648,159.85Z"/><path class="cls-3" d="M654.8,156a3.75,3.75,0,0,0,.2,1.39,1,1,0,0,0,.68.64l.81.22c.25.07.38.31.38.7l0,.49a.37.37,0,0,1-.25.35.78.78,0,0,1-.37.09l-.15,0-.86-.17c-1.47-.33-2.2-1.57-2.2-3.74V153a.5.5,0,0,1,.14-.37.52.52,0,0,1,.36-.13h4.05a4.7,4.7,0,0,1,3.68,1.4,6.23,6.23,0,0,1,1.34,4c0,.15,0,.43,0,.84s0,.71,0,.85a6.23,6.23,0,0,1-1.34,4,4.67,4.67,0,0,1-3.68,1.41h-3.78a.45.45,0,0,1-.35-.14.53.53,0,0,1-.14-.37v-.72a.53.53,0,0,1,.14-.37.45.45,0,0,1,.35-.14h3.67a3,3,0,0,0,2.38-1,4.41,4.41,0,0,0,.9-2.8c0-.15,0-.41,0-.77s0-.61,0-.75a4.4,4.4,0,0,0-.89-2.8,3,3,0,0,0-2.39-1h-2.7Z"/><path class="cls-3" d="M665.72,165a.49.49,0,0,1-.14-.37V153a.46.46,0,0,1,.14-.37.5.5,0,0,1,.36-.13H667a.48.48,0,0,1,.5.5v11.55a.49.49,0,0,1-.14.37.51.51,0,0,1-.36.14h-.95A.51.51,0,0,1,665.72,165Z"/><path class="cls-3" d="M681,164.65a.42.42,0,0,1-.13.31.46.46,0,0,1-.31.13h-1a.57.57,0,0,1-.34-.09,1.57,1.57,0,0,1-.25-.26l-5.06-7.09a3.63,3.63,0,0,0-1.29,1.64,6.14,6.14,0,0,0-.34,2.06v3.23a.52.52,0,0,1-.13.37.5.5,0,0,1-.37.14h-.8a.52.52,0,0,1-.36-.14.53.53,0,0,1-.14-.37v-3.32a7.47,7.47,0,0,1,.5-2.84,5.19,5.19,0,0,1,1.94-2.18l-2-2.86a.83.83,0,0,1-.15-.41.44.44,0,0,1,.44-.44h1a.57.57,0,0,1,.34.09,1.81,1.81,0,0,1,.25.28l4.62,6.45a3.49,3.49,0,0,0,1.18-.95,2.53,2.53,0,0,0,.45-1,7.65,7.65,0,0,0,.09-1.31V153a.51.51,0,0,1,.14-.36.48.48,0,0,1,.36-.14h.84a.45.45,0,0,1,.36.14.48.48,0,0,1,.15.36v3.17a5.75,5.75,0,0,1-.51,2.54,5.16,5.16,0,0,1-2.07,2l2.51,3.5A.83.83,0,0,1,681,164.65Z"/><path class="cls-3" d="M467.54,167.68a.48.48,0,0,1-.14-.37V153a.5.5,0,0,1,.14-.37.52.52,0,0,1,.37-.13h.92a.42.42,0,0,1,.35.14.51.51,0,0,1,.14.36v14.28a.49.49,0,0,1-.14.36.43.43,0,0,1-.35.15h-.92A.53.53,0,0,1,467.54,167.68Z"/><path class="cls-3" d="M472.89,165a.49.49,0,0,1-.14-.37V153a.46.46,0,0,1,.14-.37.52.52,0,0,1,.36-.13h.95a.45.45,0,0,1,.36.14.48.48,0,0,1,.15.36v11.55a.5.5,0,0,1-.15.37.49.49,0,0,1-.36.14h-.95A.52.52,0,0,1,472.89,165Z"/><path class="cls-3" d="M479.88,156a4,4,0,0,0,.19,1.39,1,1,0,0,0,.69.64l.81.22c.25.07.37.31.37.7l0,.49a.38.38,0,0,1-.25.35.78.78,0,0,1-.37.09l-.15,0-.86-.17c-1.47-.33-2.2-1.57-2.2-3.74V153a.5.5,0,0,1,.14-.37.52.52,0,0,1,.36-.13h4.05a4.71,4.71,0,0,1,3.68,1.4,6.23,6.23,0,0,1,1.34,4c0,.15,0,.43,0,.84s0,.71,0,.85a6.23,6.23,0,0,1-1.34,4,4.68,4.68,0,0,1-3.68,1.41h-3.78a.45.45,0,0,1-.35-.14.53.53,0,0,1-.14-.37v-.72a.53.53,0,0,1,.14-.37.45.45,0,0,1,.35-.14h3.67a3,3,0,0,0,2.38-1,4.47,4.47,0,0,0,.9-2.8c0-.15,0-.41,0-.77s0-.61,0-.75a4.4,4.4,0,0,0-.89-2.8,3,3,0,0,0-2.39-1h-2.7Z"/><path class="cls-3" d="M498.47,158.09a4.56,4.56,0,0,1-2.07,1.85l2.31,3.3a1.2,1.2,0,0,1,.24.68v.66a.52.52,0,0,1-.13.37.48.48,0,0,1-.35.14h-7.92a.48.48,0,0,1-.51-.51v-.7a.48.48,0,0,1,.51-.51h6l-6.89-10a1.05,1.05,0,0,1-.17-.41.39.39,0,0,1,.14-.31.48.48,0,0,1,.34-.13h.95a.69.69,0,0,1,.59.35l4,5.7c1.25-.59,1.87-1.8,1.87-3.63V153a.5.5,0,0,1,.14-.37.52.52,0,0,1,.37-.13h.83a.49.49,0,0,1,.37.14.51.51,0,0,1,.14.36v2.16A5.74,5.74,0,0,1,498.47,158.09Z"/><text class="cls-4" transform="translate(255.62 165.09)">5,400</text><text class="cls-4" transform="translate(65.26 165.09)">2,000</text><path class="cls-3" d="M639.88,232a.53.53,0,0,1-.14-.37V220a.5.5,0,0,1,.14-.37.52.52,0,0,1,.36-.13h4.16q5.57,0,5.57,5.36v6.69a.48.48,0,0,1-.51.51h-9.22A.52.52,0,0,1,639.88,232Zm8.2-1.56V225c0-2.52-1.27-3.78-3.79-3.78h-2.75v9.17Z"/><path class="cls-3" d="M662.49,219.67a.5.5,0,0,1,.13.36v6.07a5.32,5.32,0,0,1-1.27,3.48,6.86,6.86,0,0,1-3.42,2.2l-4.77,1.52-.18,0a.51.51,0,0,1-.31-.11.38.38,0,0,1-.13-.29v-.68c0-.34.12-.54.35-.61l2.89-1-2.86-10.25a2.23,2.23,0,0,1-.11-.44.44.44,0,0,1,.44-.44h1a.58.58,0,0,1,.33.09.43.43,0,0,1,.17.24l2.82,10.2a4.33,4.33,0,0,0,2.43-1.72,5.37,5.37,0,0,0,.7-2.83V220a.47.47,0,0,1,.14-.36.45.45,0,0,1,.36-.14h.92A.45.45,0,0,1,662.49,219.67Z"/><path class="cls-3" d="M666.06,232a.53.53,0,0,1-.14-.37V220a.5.5,0,0,1,.14-.37.52.52,0,0,1,.36-.13h1a.45.45,0,0,1,.36.14.48.48,0,0,1,.15.36v11.55a.5.5,0,0,1-.15.37.49.49,0,0,1-.36.14h-1A.52.52,0,0,1,666.06,232Z"/><path class="cls-3" d="M677.31,232a.53.53,0,0,1-.37.14h-5.85a.49.49,0,0,1-.36-.14.5.5,0,0,1-.15-.37v-.68a.51.51,0,0,1,.51-.51h4.33l-.35-5.61c-.06-.92-.13-1.61-.21-2.08a2,2,0,0,0-.55-1.11,1.84,1.84,0,0,0-1.31-.41h-.9a.51.51,0,0,1-.51-.51V220a.5.5,0,0,1,.15-.37.49.49,0,0,1,.36-.14h.9a4,4,0,0,1,2.42.63,3.24,3.24,0,0,1,1.17,1.73,12.87,12.87,0,0,1,.44,2.88l.42,6.86A.43.43,0,0,1,677.31,232Z"/><path class="cls-3" d="M467.34,219.67a.55.55,0,0,1,.13.36v.68a.57.57,0,0,1-.13.37.49.49,0,0,1-.36.14h-1.34a2.6,2.6,0,0,0-.48,1,6.33,6.33,0,0,0-.18,1.59v7.76a.46.46,0,0,1-.15.36.62.62,0,0,1-.38.13h-.9a.52.52,0,0,1-.35-.13.48.48,0,0,1-.13-.36v-7.89a7.36,7.36,0,0,1,.14-1.52,2.38,2.38,0,0,1,.41-1H461.7a.52.52,0,0,1-.36-.14.53.53,0,0,1-.14-.37V220a.51.51,0,0,1,.14-.36.48.48,0,0,1,.36-.14H467A.45.45,0,0,1,467.34,219.67Z"/><path class="cls-3" d="M470.54,232a.5.5,0,0,1-.15-.37v-.72a.5.5,0,0,1,.15-.37.49.49,0,0,1,.36-.14h3.15a3.71,3.71,0,0,0,2.83-1,4.14,4.14,0,0,0,1-2.82c0-.21,0-.47,0-.77s0-.55,0-.75a4.15,4.15,0,0,0-1-2.83,3.71,3.71,0,0,0-2.83-1H470.9a.45.45,0,0,1-.36-.14.48.48,0,0,1-.15-.36V220a.48.48,0,0,1,.15-.36.45.45,0,0,1,.36-.14h3.26a5.52,5.52,0,0,1,4.13,1.38,6,6,0,0,1,1.45,4.05q0,.3,0,.84c0,.36,0,.65,0,.85a5.91,5.91,0,0,1-1.45,4,5.48,5.48,0,0,1-4.13,1.39H470.9A.49.49,0,0,1,470.54,232Z"/><path class="cls-3" d="M489.13,232a.5.5,0,0,1-.15-.37V225q0-3.78-3.78-3.78h-2.84a.48.48,0,0,1-.5-.51V220a.47.47,0,0,1,.14-.36.45.45,0,0,1,.36-.14h2.95q5.61,0,5.61,5.36v6.69a.48.48,0,0,1-.51.51h-.92A.49.49,0,0,1,489.13,232Z"/><path class="cls-3" d="M502.29,220.17A4.49,4.49,0,0,1,504,222a6.25,6.25,0,0,1,.61,2.86v6.69a.57.57,0,0,1-.13.37.48.48,0,0,1-.35.14H498.4A.49.49,0,0,1,498,232a.5.5,0,0,1-.15-.37v-.68a.51.51,0,0,1,.51-.51h4.24V225a4.73,4.73,0,0,0-.38-2,3.13,3.13,0,0,0-1.07-1.34,2.67,2.67,0,0,0-1.54-.47H497.3l-1.7,10.32a.56.56,0,0,1-.17.37.49.49,0,0,1-.38.16h-.9a.4.4,0,0,1-.34-.16.51.51,0,0,1-.1-.37l1.76-10.3h-1.12a.45.45,0,0,1-.36-.14.48.48,0,0,1-.15-.36V220a.48.48,0,0,1,.15-.36.45.45,0,0,1,.36-.14h5.52A4.53,4.53,0,0,1,502.29,220.17Z"/><text class="cls-4" transform="translate(256.08 232.09)">9,000</text><text class="cls-4" transform="translate(65.63 232.09)">5,060</text><path class="cls-3" d="M644.35,302.85a.44.44,0,0,1-.15-.35V296a.47.47,0,0,1,.15-.37.48.48,0,0,1,.36-.13h.95a.48.48,0,0,1,.36.14.47.47,0,0,1,.14.36v6.47a.43.43,0,0,1-.14.35.52.52,0,0,1-.36.13h-.95A.48.48,0,0,1,644.35,302.85Z"/><path class="cls-3" d="M655.45,308a.57.57,0,0,1-.38.14h-5.85a.49.49,0,0,1-.36-.14.5.5,0,0,1-.15-.37v-.68a.51.51,0,0,1,.51-.51h4.33l-.35-5.61c-.06-.92-.13-1.61-.21-2.08a2,2,0,0,0-.55-1.11,1.84,1.84,0,0,0-1.31-.41h-.9a.48.48,0,0,1-.36-.15.45.45,0,0,1-.14-.36V296a.49.49,0,0,1,.14-.37.51.51,0,0,1,.36-.14h.9a4,4,0,0,1,2.42.63,3.24,3.24,0,0,1,1.17,1.73,12.87,12.87,0,0,1,.44,2.88l.42,6.86A.45.45,0,0,1,655.45,308Z"/><path class="cls-3" d="M658.49,308a.53.53,0,0,1-.14-.37V296a.5.5,0,0,1,.14-.37.52.52,0,0,1,.37-.13h.94a.49.49,0,0,1,.37.14.51.51,0,0,1,.14.36v11.55a.48.48,0,0,1-.51.51h-.94A.53.53,0,0,1,658.49,308Z"/><path class="cls-3" d="M670.51,308a.5.5,0,0,1-.15-.37V301q0-3.78-3.78-3.78h-2.84a.49.49,0,0,1-.36-.14.5.5,0,0,1-.15-.37V296a.48.48,0,0,1,.15-.36.45.45,0,0,1,.36-.14h3q5.61,0,5.61,5.36v6.69a.48.48,0,0,1-.51.51h-.92A.49.49,0,0,1,670.51,308Z"/><path class="cls-3" d="M463.67,308a.53.53,0,0,1-.14-.37V296a.5.5,0,0,1,.14-.37.52.52,0,0,1,.37-.13h4.15q5.56,0,5.57,5.36v6.69a.48.48,0,0,1-.51.51H464A.53.53,0,0,1,463.67,308Zm8.2-1.56V301q0-3.78-3.79-3.78h-2.75v9.17Z"/><path class="cls-3" d="M477.2,308a.53.53,0,0,1-.14-.37V296a.5.5,0,0,1,.14-.37.52.52,0,0,1,.37-.13h.94a.49.49,0,0,1,.37.14.51.51,0,0,1,.14.36v11.55a.48.48,0,0,1-.51.51h-.94A.53.53,0,0,1,477.2,308Z"/><path class="cls-3" d="M489.21,308a.53.53,0,0,1-.14-.37V301q0-3.78-3.78-3.78h-2.84a.49.49,0,0,1-.36-.14.5.5,0,0,1-.15-.37V296a.48.48,0,0,1,.15-.36.45.45,0,0,1,.36-.14h2.95q5.61,0,5.61,5.36v6.69a.5.5,0,0,1-.15.37.49.49,0,0,1-.36.14h-.92A.53.53,0,0,1,489.21,308Z"/><path class="cls-3" d="M503.21,295.67a.51.51,0,0,1,.14.36v.68a.48.48,0,0,1-.51.51H501.5a2.47,2.47,0,0,0-.48,1,6.33,6.33,0,0,0-.18,1.59v7.76a.49.49,0,0,1-.14.36.57.57,0,0,1-.37.13h-.92a.5.5,0,0,1-.35-.13.48.48,0,0,1-.13-.36v-7.89a6.72,6.72,0,0,1,.14-1.52,2.38,2.38,0,0,1,.41-1h-6.05a.48.48,0,0,1-.51-.51V296a.51.51,0,0,1,.14-.36.49.49,0,0,1,.37-.14h9.41A.49.49,0,0,1,503.21,295.67Z"/><text class="cls-4" transform="translate(255.01 308.09)">8,000</text><text class="cls-4" transform="translate(65.39 308.09)">3,500</text><rect class="cls-5" x="434.75" y="1.5" width="96" height="327" rx="12"/><rect class="cls-3" x="434.75" y="1.5" width="96" height="53" rx="12"/><path class="cls-6" d="M459.69,34.4a.5.5,0,0,1-.15-.37V27.26q0-3.89-3.78-3.89h-4.07a.49.49,0,0,1-.36-.14.52.52,0,0,1-.15-.38v-.7a.5.5,0,0,1,.51-.52h4.18q5.61,0,5.61,5.57V34a.53.53,0,0,1-.14.37.5.5,0,0,1-.37.15h-.92A.46.46,0,0,1,459.69,34.4Zm-8.36,0a.5.5,0,0,1-.15-.37v-7.6a.5.5,0,0,1,.15-.39.48.48,0,0,1,.36-.13h.92a.49.49,0,0,1,.36.14.6.6,0,0,1,.13.38V34a.57.57,0,0,1-.13.37.46.46,0,0,1-.36.15h-.92A.46.46,0,0,1,451.33,34.4Z"/><path class="cls-6" d="M470.79,34.4a.54.54,0,0,1-.38.15h-5.85a.46.46,0,0,1-.36-.15.5.5,0,0,1-.15-.37v-.7a.52.52,0,0,1,.15-.38.49.49,0,0,1,.36-.14h4.33L468.54,27c-.06-.95-.13-1.66-.21-2.14a2,2,0,0,0-.55-1.14,1.75,1.75,0,0,0-1.31-.43h-.9a.48.48,0,0,1-.36-.15.49.49,0,0,1-.14-.37v-.7a.51.51,0,0,1,.14-.38.51.51,0,0,1,.36-.14h.9a3.88,3.88,0,0,1,2.42.64A3.33,3.33,0,0,1,470.06,24a13.6,13.6,0,0,1,.44,3l.42,7.06A.45.45,0,0,1,470.79,34.4Z"/><path class="cls-6" d="M484.84,27.15V34a.52.52,0,0,1-.13.37.47.47,0,0,1-.37.15h-.9a.5.5,0,0,1-.37-.15.53.53,0,0,1-.14-.37V27.26q0-3.89-3.78-3.89h-1.61c-.15.95-.25,1.74-.32,2.37a19.87,19.87,0,0,0-.08,2.14l.05,6.15a.57.57,0,0,1-.13.37.49.49,0,0,1-.38.15l-3,0a.52.52,0,0,1-.37-.13.49.49,0,0,1-.14-.36v-.68a.56.56,0,0,1,.14-.38.53.53,0,0,1,.37-.14l1.69,0V28c0-.95,0-1.76.06-2.41a14.2,14.2,0,0,1,.36-2.19h-1.19a.49.49,0,0,1-.36-.14.52.52,0,0,1-.15-.38v-.7a.5.5,0,0,1,.51-.52h4.69Q484.84,21.63,484.84,27.15Z"/><path class="cls-6" d="M500.68,21.77a.52.52,0,0,1,.14.38v6.29a7.12,7.12,0,0,1-.76,3.34A5.2,5.2,0,0,1,497.92,34a6,6,0,0,1-3.15.71h-1.63a4.76,4.76,0,0,1-4.34-2.59,5.88,5.88,0,0,1-.66-2.83V22.15a.5.5,0,0,1,.51-.52h.84a.5.5,0,0,1,.37.14.52.52,0,0,1,.13.38l.07,6.43a3.85,3.85,0,0,0,2.79-1.09,3.74,3.74,0,0,0,.79-2.49V22.15a.5.5,0,0,1,.15-.37.46.46,0,0,1,.36-.15H495a.44.44,0,0,1,.35.15.52.52,0,0,1,.13.37v2.94a5,5,0,0,1-1.35,3.57,5.62,5.62,0,0,1-3.93,1.55,3.48,3.48,0,0,0,1.29,2,3.81,3.81,0,0,0,2.32.71h.73a4.07,4.07,0,0,0,3.25-1.22A4.82,4.82,0,0,0,499,28.31V22.15a.53.53,0,0,1,.14-.37.49.49,0,0,1,.36-.15h.84A.48.48,0,0,1,500.68,21.77Z"/><path class="cls-6" d="M512.19,22.3a4.51,4.51,0,0,1,1.66,1.91,6.71,6.71,0,0,1,.61,2.94V34a.53.53,0,0,1-.14.37.43.43,0,0,1-.35.15H508.3a.5.5,0,0,1-.37-.15.53.53,0,0,1-.14-.37v-.7a.56.56,0,0,1,.14-.38.53.53,0,0,1,.37-.14h4.24V27.29a5.19,5.19,0,0,0-.38-2,3.31,3.31,0,0,0-1.07-1.37,2.61,2.61,0,0,0-1.54-.48H507.2L505.5,34a.58.58,0,0,1-.17.38.51.51,0,0,1-.38.16h-.9a.39.39,0,0,1-.34-.16.53.53,0,0,1-.1-.38l1.76-10.59h-1.12a.46.46,0,0,1-.36-.15.5.5,0,0,1-.15-.37v-.75a.5.5,0,0,1,.15-.37.46.46,0,0,1,.36-.15h5.52A4.38,4.38,0,0,1,512.19,22.3Z"/><rect class="cls-5" x="1.5" y="197.62" width="830" height="53" rx="12"/><rect class="cls-3" x="735.5" y="197.62" width="96" height="53" rx="12"/><path class="cls-6" d="M775.92,223.28v6.87a.55.55,0,0,1-.13.38.46.46,0,0,1-.37.14h-.91a.48.48,0,0,1-.36-.14.51.51,0,0,1-.14-.38v-6.76q0-3.88-3.79-3.89h-1.6c-.15.95-.26,1.74-.32,2.36a17.67,17.67,0,0,0-.08,2.14l0,6.15a.56.56,0,0,1-.14.38.45.45,0,0,1-.37.14l-3,0a.52.52,0,0,1-.36-.14.45.45,0,0,1-.14-.36v-.68a.5.5,0,0,1,.5-.52l1.7,0v-4.86c0-1,0-1.75.05-2.41a13.25,13.25,0,0,1,.37-2.18h-1.19a.5.5,0,0,1-.37-.15.53.53,0,0,1-.14-.37v-.7a.53.53,0,0,1,.14-.39.52.52,0,0,1,.37-.13h4.68Q775.93,217.76,775.92,223.28Z"/><path class="cls-6" d="M779.36,230.53a.56.56,0,0,1-.14-.38V218.28a.53.53,0,0,1,.14-.39.52.52,0,0,1,.37-.13h.94a.53.53,0,0,1,.37.14.56.56,0,0,1,.14.38v11.87a.56.56,0,0,1-.14.38.49.49,0,0,1-.37.14h-.94A.49.49,0,0,1,779.36,230.53Z"/><path class="cls-6" d="M797.15,217.89a.53.53,0,0,1,.13.39v6.29a7,7,0,0,1-.76,3.33,5.2,5.2,0,0,1-2.13,2.2,6.17,6.17,0,0,1-3.16.71H789.6a4.9,4.9,0,0,1-2.54-.68,4.85,4.85,0,0,1-1.79-1.91,5.92,5.92,0,0,1-.66-2.84v-7.1a.53.53,0,0,1,.14-.39.52.52,0,0,1,.37-.13H786a.52.52,0,0,1,.38.13.53.53,0,0,1,.13.39l.06,6.42a3.86,3.86,0,0,0,2.8-1.08,3.77,3.77,0,0,0,.79-2.49v-2.85a.56.56,0,0,1,.14-.38.53.53,0,0,1,.37-.14h.86a.48.48,0,0,1,.35.14.55.55,0,0,1,.13.38v2.94a5,5,0,0,1-1.35,3.56,5.64,5.64,0,0,1-3.93,1.55,3.45,3.45,0,0,0,1.29,2,3.73,3.73,0,0,0,2.32.72H791a4.07,4.07,0,0,0,3.26-1.23,4.78,4.78,0,0,0,1.17-3.39v-6.15a.51.51,0,0,1,.14-.38.49.49,0,0,1,.36-.14h.84A.49.49,0,0,1,797.15,217.89Z"/><path class="cls-6" d="M800.57,225.29a.49.49,0,0,1-.14-.36v-6.65a.53.53,0,0,1,.14-.39.52.52,0,0,1,.36-.13h1a.49.49,0,0,1,.36.14.52.52,0,0,1,.15.38v6.65a.46.46,0,0,1-.15.36.49.49,0,0,1-.36.14h-1A.52.52,0,0,1,800.57,225.29Z"/><rect class="cls-3" x="242.31" y="328.95" width="96" height="53" rx="12"/><path class="cls-6" d="M274.16,354.6v6.88a.55.55,0,0,1-.13.38.5.5,0,0,1-.37.14h-.9a.53.53,0,0,1-.37-.14.56.56,0,0,1-.14-.38v-6.76c0-2.6-1.26-3.89-3.78-3.89h-1.61c-.15.95-.25,1.74-.32,2.36a20,20,0,0,0-.08,2.14l.05,6.15a.6.6,0,0,1-.13.38.52.52,0,0,1-.38.14l-3,0a.53.53,0,0,1-.37-.14.49.49,0,0,1-.14-.36v-.68a.53.53,0,0,1,.14-.37.5.5,0,0,1,.37-.15l1.69,0v-4.86c0-.95,0-1.75.06-2.41a14.09,14.09,0,0,1,.36-2.18h-1.19a.46.46,0,0,1-.36-.15.5.5,0,0,1-.15-.37v-.71a.5.5,0,0,1,.51-.52h4.69Q274.16,349.08,274.16,354.6Z"/><path class="cls-6" d="M277.45,356.62a.49.49,0,0,1-.14-.36V349.6a.52.52,0,0,1,.14-.38.53.53,0,0,1,.37-.14h.94a.46.46,0,0,1,.36.15.5.5,0,0,1,.15.37v6.66a.46.46,0,0,1-.15.36.48.48,0,0,1-.36.13h-.94A.52.52,0,0,1,277.45,356.62Z"/><path class="cls-6" d="M284.28,352.68a4.18,4.18,0,0,0,.2,1.43,1,1,0,0,0,.68.65l.82.23c.25.07.37.32.37.72l0,.5a.37.37,0,0,1-.24.36.81.81,0,0,1-.37.09.47.47,0,0,1-.16,0l-.85-.18q-2.21-.49-2.2-3.85v-3a.48.48,0,0,1,.14-.38.51.51,0,0,1,.36-.14h4.05a4.6,4.6,0,0,1,3.67,1.45,6.48,6.48,0,0,1,1.35,4.14c0,.15,0,.44,0,.86s0,.73,0,.88a6.44,6.44,0,0,1-1.35,4.14A4.57,4.57,0,0,1,287.1,362h-3.78a.49.49,0,0,1-.36-.14.6.6,0,0,1-.13-.38v-.74a.58.58,0,0,1,.13-.38.46.46,0,0,1,.36-.15H287a2.92,2.92,0,0,0,2.38-1,4.75,4.75,0,0,0,.9-2.89c0-.15,0-.41,0-.79s0-.62,0-.77a4.59,4.59,0,0,0-.89-2.87,2.94,2.94,0,0,0-2.39-1h-2.71Z"/><path class="cls-6" d="M302.87,354.81a4.64,4.64,0,0,1-2.06,1.9l2.31,3.39a1.28,1.28,0,0,1,.24.7v.68a.6.6,0,0,1-.13.38.49.49,0,0,1-.36.14H295a.52.52,0,0,1-.36-.14.56.56,0,0,1-.14-.38v-.72a.56.56,0,0,1,.14-.38.52.52,0,0,1,.36-.14h6L294.05,350a1,1,0,0,1-.17-.43.41.41,0,0,1,.14-.32.48.48,0,0,1,.34-.14h.95a.71.71,0,0,1,.59.37l4,5.86c1.25-.61,1.87-1.85,1.87-3.74v-2a.52.52,0,0,1,.14-.38.53.53,0,0,1,.37-.14h.83a.5.5,0,0,1,.37.15.53.53,0,0,1,.14.37v2.22A6,6,0,0,1,302.87,354.81Z"/><path class="cls-6" d="M317.75,354.6v6.88a.56.56,0,0,1-.14.38.48.48,0,0,1-.37.14h-.9a.53.53,0,0,1-.37-.14.56.56,0,0,1-.14-.38v-6.76c0-2.6-1.26-3.89-3.78-3.89h-1.61c-.15.95-.25,1.74-.32,2.36a17.82,17.82,0,0,0-.07,2.14l0,6.15a.55.55,0,0,1-.13.38.52.52,0,0,1-.38.14l-3,0a.53.53,0,0,1-.37-.14.49.49,0,0,1-.14-.36v-.68a.53.53,0,0,1,.14-.37.5.5,0,0,1,.37-.15l1.69,0v-4.86c0-.95,0-1.75.06-2.41a14.09,14.09,0,0,1,.36-2.18h-1.19a.46.46,0,0,1-.36-.15.49.49,0,0,1-.14-.37v-.71a.48.48,0,0,1,.14-.38.49.49,0,0,1,.36-.14h4.69C315.88,349.08,317.75,350.92,317.75,354.6Z"/><rect class="cls-5" x="242.31" y="273.45" width="96" height="108.5" rx="12"/></g></g></svg>