<svg xmlns="http://www.w3.org/2000/svg" viewBox="0 0 1190 490.43"><defs><style>.cls-1{fill:#b9cad2;}.cls-2{fill:#f7cea2;}.cls-3{fill:#231f20;}.cls-4{fill:#c9925b;}.cls-5{fill:#efb069;}</style></defs><g id="Layer_2" data-name="Layer 2"><g id="Layer_3" data-name="Layer 3"><path class="cls-1" d="M677.6,254.68c-.07,3.18-.19,6.36-.33,9.55-.43,9.26-1.1,18.48-2.13,27.62H204c-.38-2.87-.71-5.75-1-8.62-1.1-9.57-.65-19.07-.9-28.55-.07-2.75-.18-5.49-.43-8.24a301,301,0,0,1,14.1-106.29,192.88,192.88,0,0,1,35.53-64.53C268.61,54.71,290.06,39.45,313.56,27c21-11.16,43.87-17.61,67.3-22C407.23,0,433.92-.77,460.49.59c37.93,2,74.67,10.07,108.44,28.37,32,17.4,58.08,41.07,76.25,72.93,15.09,26.42,23,55,27.77,84.86A382.36,382.36,0,0,1,677.6,254.68Z"/><path class="cls-2" d="M677.6,254.68c-.07,3.18-.19,6.36-.33,9.55-.43,9.26-1.1,18.48-2.13,27.62-3.62,32.2-11.48,63.48-27.38,92.64A182.71,182.71,0,0,1,595.7,444c-25.64,19.06-54.18,31.28-85,38.4a271.91,271.91,0,0,1-49.84,6.72c-9.4.39-18.83,1.6-28.24,1.23-42.25-1.64-83.63-7.81-121.45-28-49.71-26.61-82.77-66.8-97.75-121.77A377.7,377.7,0,0,1,204,291.85c-.38-2.87-.71-5.75-1-8.62-1.1-9.57-.65-19.07-.9-28.55Z"/><path class="cls-3" d="M945.22,483.21c-38.32-.34-75.68-4.29-111.61-17.33-30.27-10.95-56.79-27.85-77.88-52.27a216.76,216.76,0,0,1-48.61-99.53A397.05,397.05,0,0,1,701,269.84a288.65,288.65,0,0,1-.9-39.67c2-42,10.14-82.63,31.23-119.75,10-17.73,22.07-34.13,37.17-47.87C794.64,38.72,825.81,24.22,860,16a344.75,344.75,0,0,1,48.15-7.46,440.52,440.52,0,0,1,66.09-.8c39.5,2.22,77.83,10.58,112.79,30.37a184,184,0,0,1,32,23.26c20.39,18.26,35.75,40.14,47.19,64.7a239,239,0,0,1,19.43,65.25,329.67,329.67,0,0,1,4,66.12c-1.76,36-7.45,71.27-22.67,104.53-12.1,26.45-28.5,49.83-50.29,68.84-24.16,21.09-52.64,34.57-83.8,42.14A334.12,334.12,0,0,1,973,482C963.67,482.55,954.23,482.31,945.22,483.21Zm6.54-291.56c-25.94,0-51.91.54-77.83-.16A47.71,47.71,0,0,0,825.83,227c-5.71,20.72-3.94,42-1.43,63,2.19,18.7,12.77,32.11,29.92,39.27,15.45,6.47,30.44,5,36.1-11.58a78.62,78.62,0,0,1,6.69-13.55c11.71-20.49,40.71-36.82,65.4-31.31,25.32,5.72,42.08,20.47,51.64,43.86,5.21,12.71,12.57,16.56,26.28,15.16,24.88-2.55,42.22-29.84,41.12-49.49-.79-14-.34-28.08-.11-42.12.41-24.75-22.24-49.24-48.94-48.73s-53.84.12-80.74.12Z"/><path class="cls-3" d="M85,16c23.56,0,47.18.58,70.69-.26,11-.4,15.73,5.36,15.73,16.11q.19,70,0,140c0,5.31,1,10.71-2.08,15.84-2.17,3.59-4.7,5.49-8.83,5.49H66.94c-7.3,0-10.7-4.92-11.16-15.37-.17-3.8.16-7.63-.08-11.44-.37-6.07-4.91-10.6-10.88-10.22-11.44.75-22.58-1.86-33.95-1.6C4.65,154.6.14,149.53.11,142.38Q-.11,85.26.11,28.14C.11,19.92,4.73,16,12.85,16Z"/><path d="M171.45,407.09c0,20.23.22,40.48-.07,60.71-.21,15.72-7,18.58-17.91,18.31q-38.88-1-77.83,0C57.7,486.54,56.4,481,56,466.1c-.84-33.79-.38-67.6-.18-101.4,0-8.44-1.36-17,1.31-25.34,1.7-5.32,4.46-7.92,10.62-7.86,30,.3,60.06.6,90-.12,10.32-.24,13.69,6.12,13.71,14.3Q171.52,376.39,171.45,407.09Z"/><path d="M114.29,215.94A45.44,45.44,0,0,1,160.06,261c0,.55,0,1.1,0,1.65-.45,26.27-20.34,46.07-45.75,45.66-27.44-.45-45.93-17.45-46.68-46C66.84,235.94,87.22,216.26,114.29,215.94Z"/><path class="cls-3" d="M847.21,246.55c-1.12-4.16.93-5.44,4.86-4.92.7.1,1.43-.1,2.13,0,7.15,1.43,9.7-1.43,8.78-8.57-.39-3-2.17-7.75,3.46-8.47,5.25-.69,8.46,1.79,7.71,7.28-1.08,7.78,1.24,11.44,9.62,9.85,4.5-.86,6.35,1.22,6.3,6s-2.27,5.72-6.23,5.4c-.7-.07-1.43.1-2.13,0-6.36-1.27-8.32,1.43-7.62,7.59.34,3.06,1.86,7.6-3.92,8.14-4.63.44-8.36-.3-7.33-6.26,1.31-7.55-1.12-11-9.2-9.51C848.88,253.9,846.24,251.94,847.21,246.55Z"/><path class="cls-3" d="M1037.16,235.89c-4.29.58-5.91-1.25-5.89-5.59s1.34-5.92,5.71-5.89,5.94,1.34,5.9,5.71C1042.85,234.3,1041.63,236.52,1037.16,235.89Z"/><path class="cls-3" d="M1042.72,263.15c.64,4.48-1.59,5.72-5.72,5.72-4.39,0-5.72-1.7-5.72-5.9s1.72-5.72,5.92-5.72S1043.33,258.88,1042.72,263.15Z"/><path class="cls-3" d="M1020.81,251.57c-3.31.63-5.72.14-5.23-4.49.39-3.22-.64-6.92,4.6-6.9,4.29,0,6.57,1.74,6.92,6.09C1027.48,250.88,1025.05,252.09,1020.81,251.57Z"/><path class="cls-3" d="M1058.45,246.91c1.17,4.29-1.23,4.93-5,4.82s-6.63-.22-6.4-5.13c.21-4.39,2.29-6.31,6.62-6.42C1058.63,240.05,1058.77,243.19,1058.45,246.91Z"/><polygon class="cls-4" points="519.3 306.15 306.32 306.15 439.71 121.71 519.3 306.15"/><polygon class="cls-5" points="589.24 306.15 376.26 306.15 439.71 122.09 589.24 306.15"/></g></g></svg>