<svg xmlns="http://www.w3.org/2000/svg" xmlns:xlink="http://www.w3.org/1999/xlink" viewBox="0 0 273.38 265.79"><defs><style>.cls-1,.cls-3{stroke:#fff;stroke-linecap:round;stroke-linejoin:round;}.cls-1{fill:url(#radial-gradient);}.cls-2{fill:#1a1a1a;}.cls-3{fill:none;}.cls-4{fill:#fff;}</style><radialGradient id="radial-gradient" cx="109.42" cy="166.66" r="134.31" gradientUnits="userSpaceOnUse"><stop offset="0" stop-color="#db9f63"/><stop offset="0.36" stop-color="#956c44"/><stop offset="0.81" stop-color="#38281a"/></radialGradient></defs><g id="Layer_2" data-name="Layer 2"><g id="Layer_1-2" data-name="Layer 1"><path class="cls-1" d="M31.92,32.47C19.33,37.78,14.86,47.84,18.79,59.62c.87,2.62-47,67.41,8.75,135.41,16.76,20.45,24.81,47.58,40.57,57.5,26.52,16.7,107.4,16.93,125.49,1.17,28.71-25,48.72-39.44,57.5-55.16,45.82-82,5.16-129.26,5-133.38-1.17-24.51-20.69-30-26.27-34.44C149.24-33.49,54.1,23.13,31.92,32.47Z"/><path class="cls-2" d="M29.32,52.9c2.31,22.2,68.42,34.26,116.74,33.86,31.36-.26,91.6-6.08,95.49-27.35,1.73-9.46-8-16.36-16.1-22.89C163.57-13.49,85.59,15.33,50,30.59,39.68,35,28.41,44.13,29.32,52.9Z"/><path class="cls-3" d="M31.92,32.47C19.33,37.78,14.86,47.84,18.79,59.62c.87,2.62-47,67.41,8.75,135.41,16.76,20.45,24.81,47.58,40.57,57.5,26.52,16.7,107.4,16.93,125.49,1.17,28.71-25,48.72-39.44,57.5-55.16,45.82-82,5.16-129.26,5-133.38-1.17-24.51-20.69-30-26.27-34.44C149.24-33.49,54.1,23.13,31.92,32.47Z"/><path class="cls-3" d="M30.17,52.9c2.31,22.2,68.42,34.26,116.74,33.86,31.35-.26,91.6-6.08,95.49-27.35,1.73-9.46-8-16.36-16.1-22.89-61.88-50-139.87-21.19-175.47-5.93C40.53,35,29.25,44.13,30.17,52.9Z"/><path class="cls-3" d="M19.08,59.91C20.83,74.5,75.11,99.6,146.91,99c29.9-.25,97.48-1.76,109.15-33.86"/><path class="cls-3" d="M14.73,67.48c1.75,14.6,57.2,40.86,132.76,40.29,29.91-.23,100.14-3.51,111.81-36.2"/><path class="cls-3" d="M12.4,73.32c1.75,14.59,60.12,43.78,135.68,43.21C178,116.3,250.55,110.68,262.22,78"/><path class="cls-3" d="M5.39,155c5.84,11.67,63,42,138.6,41.45,29.9-.22,102.47-9.35,122.9-35.61"/><path class="cls-3" d="M.72,118.27c8.17,18.09,61.72,45.68,143,50.19,31.52,1.75,88.72-3.5,129-39.1"/><path class="cls-3" d="M1.89,139.28C7.73,151,68.43,190.06,144,189.49c29.9-.23,104.81-10.52,125.24-36.79"/><path class="cls-3" d="M57.34,242c14.59,11.09,20.43,16.34,89.31,16.34,28.6,0,38.52,0,46.69-4.67"/><path class="cls-3" d="M50.92,232.67c14.59,11.09,27.43,19.85,96.31,19.85,28.6,0,45,.58,53.12-4.09"/><path class="cls-4" d="M89.48,144.23c.64-3.11,1-4.66,1.61-7.77-1.35-.28-2-.43-3.38-.73.13-.58.2-.87.33-1.44,2,.45,3.08.67,5.14,1.08-.73,3.7-1.1,5.54-1.83,9.24Z"/><path class="cls-4" d="M96.79,137.56c.49-2.71.74-4.06,1.23-6.77l1.74.3c-.37,2.13-.56,3.2-.92,5.33,4,.69,6,1,10,1.5-.07.58-.11.88-.18,1.46C103.93,138.78,101.54,138.42,96.79,137.56Zm12.74,1.54c-3.46,6-5.28,9-9.11,14.9l-2.1-.33c4.19-6.25,6.18-9.42,9.94-15.83l1.4.17C109.61,138.45,109.58,138.67,109.53,139.1Z"/><path class="cls-4" d="M112.66,155.84c-.51-.05-1-.13-1.45-.22a12.89,12.89,0,0,1-1.27-.35c.11-.57.16-.86.27-1.43a10.77,10.77,0,0,0,2.32.46,2.8,2.8,0,0,0,2.17-.54,3.32,3.32,0,0,0,.92-2.26c.4-4.5.6-6.76,1-11.26-1.54-.14-2.31-.22-3.85-.38.07-.59.1-.88.16-1.47,2.25.24,3.38.34,5.63.53l-1,12.88A4.4,4.4,0,0,1,116.1,155,4.52,4.52,0,0,1,112.66,155.84Z"/><path class="cls-4" d="M125.15,148.79c.16-3.17.23-4.76.39-7.93-1.37-.07-2.06-.11-3.43-.2,0-.59.06-.89.09-1.48,2.09.14,3.14.19,5.23.28-.15,3.77-.23,5.65-.39,9.41Z"/><path class="cls-4" d="M130.88,139.58c5.36.14,8,.13,13.4-.06l.05,1.48c-1.15,0-1.72.06-2.87.08.14,6.25.2,9.37.34,15.62l-2,0c-.08-6.24-.12-9.37-.21-15.62-3.51,0-5.27,0-8.79-.05C130.85,140.46,130.86,140.17,130.88,139.58Z"/><path class="cls-4" d="M157.08,155.89c-.42-4.88-.63-7.33-1-12.21a3.32,3.32,0,0,0-1.14-2.37,3.5,3.5,0,0,0-2.56-.72c-2.48.17-3.72.24-6.21.34l-.06-1.47c2.45-.11,3.67-.17,6.12-.34a5.58,5.58,0,0,1,4,1,4.91,4.91,0,0,1,1.75,3.56c.45,4.81.67,7.21,1.12,12Z"/><path class="cls-4" d="M165.73,155c-.76-6.2-1.14-9.3-1.89-15.5l-2.29.26c-.06-.58-.09-.88-.16-1.47,1.63-.18,2.45-.28,4.08-.49l2.2,17Z"/><path class="cls-4" d="M186.91,151.44a192.06,192.06,0,0,1-16.31-14.38c.81-.12,1.22-.18,2-.32A187.68,187.68,0,0,0,189.06,151Zm-13.09,2.43-1-6.4a7,7,0,0,1,.34-3.83,5.23,5.23,0,0,1,2.38-2.53l1,.79c-1.66,1-2.32,2.58-1.95,4.8l1.13,6.86Zm11.53-19.58c-1.53,4.46-2.35,6.69-4.11,11.14l-1.52-1.07c1.53-3.84,2.25-5.77,3.61-9.63Z"/></g></g></svg>