<svg xmlns="http://www.w3.org/2000/svg" xmlns:xlink="http://www.w3.org/1999/xlink" viewBox="0 0 273.38 265.79"><defs><style>.cls-1,.cls-3{stroke:#fff;stroke-linecap:round;stroke-linejoin:round;}.cls-1{fill:url(#radial-gradient);}.cls-2{fill:#1a1a1a;}.cls-3{fill:none;}.cls-4{fill:#fff;}</style><radialGradient id="radial-gradient" cx="109.42" cy="166.66" r="134.31" gradientUnits="userSpaceOnUse"><stop offset="0" stop-color="#db9f63"/><stop offset="0.36" stop-color="#956c44"/><stop offset="0.81" stop-color="#38281a"/></radialGradient></defs><g id="Layer_2" data-name="Layer 2"><g id="Layer_1-2" data-name="Layer 1"><path class="cls-1" d="M31.92,32.47C19.33,37.78,14.86,47.84,18.79,59.62c.87,2.62-47,67.41,8.75,135.41,16.76,20.45,24.81,47.58,40.57,57.5,26.52,16.7,107.4,16.93,125.49,1.17,28.71-25,48.72-39.44,57.5-55.16,45.82-82,5.16-129.26,5-133.38-1.17-24.51-20.69-30-26.27-34.44C149.24-33.49,54.1,23.13,31.92,32.47Z"/><path class="cls-2" d="M29.32,52.9c2.31,22.2,68.42,34.26,116.74,33.86,31.36-.26,91.6-6.08,95.49-27.35,1.73-9.46-8-16.36-16.1-22.89C163.57-13.49,85.59,15.33,50,30.59,39.68,35,28.41,44.13,29.32,52.9Z"/><path class="cls-3" d="M31.92,32.47C19.33,37.78,14.86,47.84,18.79,59.62c.87,2.62-47,67.41,8.75,135.41,16.76,20.45,24.81,47.58,40.57,57.5,26.52,16.7,107.4,16.93,125.49,1.17,28.71-25,48.72-39.44,57.5-55.16,45.82-82,5.16-129.26,5-133.38-1.17-24.51-20.69-30-26.27-34.44C149.24-33.49,54.1,23.13,31.92,32.47Z"/><path class="cls-3" d="M30.17,52.9c2.31,22.2,68.42,34.26,116.74,33.86,31.35-.26,91.6-6.08,95.49-27.35,1.73-9.46-8-16.36-16.1-22.89-61.88-50-139.87-21.19-175.47-5.93C40.53,35,29.25,44.13,30.17,52.9Z"/><path class="cls-3" d="M19.08,59.91C20.83,74.5,75.11,99.6,146.91,99c29.9-.25,97.48-1.76,109.15-33.86"/><path class="cls-3" d="M14.73,67.48c1.75,14.6,57.2,40.86,132.76,40.29,29.91-.23,100.14-3.51,111.81-36.2"/><path class="cls-3" d="M12.4,73.32c1.75,14.59,60.12,43.78,135.68,43.21C178,116.3,250.55,110.68,262.22,78"/><path class="cls-3" d="M5.39,155c5.84,11.67,63,42,138.6,41.45,29.9-.22,102.47-9.35,122.9-35.61"/><path class="cls-3" d="M.72,118.27c8.17,18.09,61.72,45.68,143,50.19,31.52,1.75,88.72-3.5,129-39.1"/><path class="cls-3" d="M1.89,139.28C7.73,151,68.43,190.06,144,189.49c29.9-.23,104.81-10.52,125.24-36.79"/><path class="cls-3" d="M57.34,242c14.59,11.09,20.43,16.34,89.31,16.34,28.6,0,38.52,0,46.69-4.67"/><path class="cls-3" d="M50.92,232.67c14.59,11.09,27.43,19.85,96.31,19.85,28.6,0,45,.58,53.12-4.09"/><path class="cls-4" d="M90.43,141.29c.63-3.11.94-4.67,1.58-7.78-1.72-.35-2.58-.53-4.3-.92.13-.57.2-.86.33-1.44,2.61.58,3.92.85,6.54,1.36-.71,3.7-1.07,5.55-1.78,9.25Z"/><path class="cls-4" d="M99.25,134.86l1.15-6.79,2.21.36-.85,5.34c5.11.81,7.67,1.14,12.8,1.65l-.15,1.47C108.33,136.29,105.29,135.88,99.25,134.86Zm16.18,1.75c-4,6-6.15,9-10.64,14.88l-2.67-.38c4.92-6.19,7.25-9.35,11.63-15.77l1.79.17C115.5,136,115.47,136.17,115.43,136.61Z"/><path class="cls-4" d="M120.38,153.36c-.65-.05-1.26-.12-1.84-.21s-1.13-.21-1.64-.34c.11-.57.16-.86.27-1.43a16.67,16.67,0,0,0,3,.43,4.08,4.08,0,0,0,2.72-.57,2.88,2.88,0,0,0,1-2.28c.24-4.52.36-6.78.61-11.29-2-.11-2.94-.17-4.89-.32,0-.59.07-.89.11-1.48,2.86.22,4.3.31,7.17.43-.23,5.16-.34,7.75-.57,12.91a4,4,0,0,1-1.61,3.29A6.81,6.81,0,0,1,120.38,153.36Z"/><path class="cls-4" d="M135.8,145.94c0-3.18,0-4.77,0-7.94-1.75,0-2.62,0-4.37-.06,0-.6,0-.89,0-1.48,2.65.06,4,.07,6.64,0,0,3.77,0,5.66.06,9.42Z"/><path class="cls-4" d="M145.3,153.46c.62-4.63.91-7,1.45-11.58a5.83,5.83,0,0,1,.86-2.34,5.17,5.17,0,0,1,1.7-1.69,1.17,1.17,0,0,1,.25-.12l.25-.12,0-.05c-.64.11-1.39.28-2.25.49s-1.79.47-2.8.76l-.64-1.39c1-.29,2-.56,3.11-.8s2.2-.46,3.31-.63,2.13-.3,3.08-.38a10.67,10.67,0,0,1,6.55,1.18,6.25,6.25,0,0,1,2.85,4.87l1.2,10.38c-3.78.43-5.68.61-9.47.9-.05-.59-.07-.88-.11-1.48,2.78-.2,4.17-.33,7-.62l-1-9.08a4.79,4.79,0,0,0-2-3.7,7.31,7.31,0,0,0-4.68-.9,5.26,5.26,0,0,0-3.31,1.37,4.82,4.82,0,0,0-1.54,3.13c-.5,4.68-.76,7-1.34,11.7Z"/><path class="cls-4" d="M172.56,150.92c-.93-6.17-1.4-9.26-2.33-15.44-1.16.18-1.74.26-2.9.42l-.2-1.47c2.07-.28,3.1-.43,5.16-.77,1.1,6.75,1.64,10.13,2.73,16.88C174,150.7,173.55,150.78,172.56,150.92Z"/><path class="cls-4" d="M183.5,149.31c-.64.13-1.26.22-1.85.29s-1.14.09-1.66.1c-.05-.58-.08-.87-.12-1.45a16.92,16.92,0,0,0,3-.36,4.15,4.15,0,0,0,2.49-1.27,2.83,2.83,0,0,0,.41-2.47l-2.35-11.06c-1.93.41-2.9.61-4.83,1-.11-.58-.16-.87-.28-1.45,2.84-.54,4.25-.83,7.07-1.46,1.13,5,1.69,7.57,2.82,12.61a3.93,3.93,0,0,1-.71,3.59A6.79,6.79,0,0,1,183.5,149.31Z"/></g></g></svg>