<svg xmlns="http://www.w3.org/2000/svg" xmlns:xlink="http://www.w3.org/1999/xlink" viewBox="0 0 273.38 265.79"><defs><style>.cls-1,.cls-3{stroke:#fff;stroke-linecap:round;stroke-linejoin:round;}.cls-1{fill:url(#radial-gradient);}.cls-2{fill:#1a1a1a;}.cls-3{fill:none;}.cls-4{fill:#fff;}</style><radialGradient id="radial-gradient" cx="109.42" cy="166.66" r="134.31" gradientUnits="userSpaceOnUse"><stop offset="0" stop-color="#db9f63"/><stop offset="0.36" stop-color="#956c44"/><stop offset="0.81" stop-color="#38281a"/></radialGradient></defs><g id="Layer_2" data-name="Layer 2"><g id="Layer_1-2" data-name="Layer 1"><path class="cls-1" d="M31.92,32.47C19.33,37.78,14.86,47.84,18.79,59.62c.87,2.62-47,67.41,8.75,135.41,16.76,20.45,24.81,47.58,40.57,57.5,26.52,16.7,107.4,16.93,125.49,1.17,28.71-25,48.72-39.44,57.5-55.16,45.82-82,5.16-129.26,5-133.38-1.17-24.51-20.69-30-26.27-34.44C149.24-33.49,54.1,23.13,31.92,32.47Z"/><path class="cls-2" d="M29.32,52.9c2.31,22.2,68.42,34.26,116.74,33.86,31.36-.26,91.6-6.08,95.49-27.35,1.73-9.46-8-16.36-16.1-22.89C163.57-13.49,85.59,15.33,50,30.59,39.68,35,28.41,44.13,29.32,52.9Z"/><path class="cls-3" d="M31.92,32.47C19.33,37.78,14.86,47.84,18.79,59.62c.87,2.62-47,67.41,8.75,135.41,16.76,20.45,24.81,47.58,40.57,57.5,26.52,16.7,107.4,16.93,125.49,1.17,28.71-25,48.72-39.44,57.5-55.16,45.82-82,5.16-129.26,5-133.38-1.17-24.51-20.69-30-26.27-34.44C149.24-33.49,54.1,23.13,31.92,32.47Z"/><path class="cls-3" d="M30.17,52.9c2.31,22.2,68.42,34.26,116.74,33.86,31.35-.26,91.6-6.08,95.49-27.35,1.73-9.46-8-16.36-16.1-22.89-61.88-50-139.87-21.19-175.47-5.93C40.53,35,29.25,44.13,30.17,52.9Z"/><path class="cls-3" d="M19.08,59.91C20.83,74.5,75.11,99.6,146.91,99c29.9-.25,97.48-1.76,109.15-33.86"/><path class="cls-3" d="M14.73,67.48c1.75,14.6,57.2,40.86,132.76,40.29,29.91-.23,100.14-3.51,111.81-36.2"/><path class="cls-3" d="M12.4,73.32c1.75,14.59,60.12,43.78,135.68,43.21C178,116.3,250.55,110.68,262.22,78"/><path class="cls-3" d="M5.39,155c5.84,11.67,63,42,138.6,41.45,29.9-.22,102.47-9.35,122.9-35.61"/><path class="cls-3" d="M.72,118.27c8.17,18.09,61.72,45.68,143,50.19,31.52,1.75,88.72-3.5,129-39.1"/><path class="cls-3" d="M1.89,139.28C7.73,151,68.43,190.06,144,189.49c29.9-.23,104.81-10.52,125.24-36.79"/><path class="cls-3" d="M57.34,242c14.59,11.09,20.43,16.34,89.31,16.34,28.6,0,38.52,0,46.69-4.67"/><path class="cls-3" d="M50.92,232.67c14.59,11.09,27.43,19.85,96.31,19.85,28.6,0,45,.58,53.12-4.09"/><path class="cls-4" d="M113.18,143.71l1.5-7.8c-1.35-.26-2-.4-3.37-.7l.32-1.44c2,.45,3.06.66,5.11,1-.66,3.71-1,5.57-1.64,9.28Z"/><path class="cls-4" d="M127.67,153.63a8.46,8.46,0,0,1-4.15-1.32,6.6,6.6,0,0,1-2.48-3,8.17,8.17,0,0,1-.47-4.17c.11-.83.16-1.25.27-2.08a8.16,8.16,0,0,1,.68-2.35,7.6,7.6,0,0,1,1.24-1.93,5,5,0,0,1,1.6-1.23l.19-.07a1.14,1.14,0,0,1,.25-.06v-.06a13.88,13.88,0,0,0-1.58.12l-2.19.28c-.08-.58-.11-.87-.18-1.45.79-.12,1.63-.21,2.53-.27s1.79-.1,2.68-.11,1.71,0,2.47.06a8.5,8.5,0,0,1,3.89,1.15,6.86,6.86,0,0,1,2.54,2.72,8.47,8.47,0,0,1,.91,4.08c0,.9,0,1.35,0,2.24a8.08,8.08,0,0,1-1,4.07,6.55,6.55,0,0,1-2.86,2.65A8.39,8.39,0,0,1,127.67,153.63Zm.1-1.55a5.81,5.81,0,0,0,3.18-.61,5.16,5.16,0,0,0,2.15-2.09,6.93,6.93,0,0,0,.81-3.24l.05-2.22a7.09,7.09,0,0,0-.64-3.26,5.24,5.24,0,0,0-1.89-2.19,5.93,5.93,0,0,0-2.91-.92,4.8,4.8,0,0,0-2.67.54,5.35,5.35,0,0,0-2,1.95,8.31,8.31,0,0,0-1.1,3.17c-.09.86-.14,1.29-.24,2.15a6.91,6.91,0,0,0,.35,3.32,5.34,5.34,0,0,0,1.85,2.37A5.89,5.89,0,0,0,127.77,152.08Z"/><path class="cls-4" d="M141.24,153.55c-.23-6.83-.34-10.25-.57-17.08,2.38-.09,3.57-.16,6-.36a7.65,7.65,0,0,1,5.3,1,6.74,6.74,0,0,1,2.39,4.68c.61,4.16.91,6.24,1.52,10.41l-2,.28c-.55-4.19-.83-6.28-1.37-10.47a5.38,5.38,0,0,0-1.68-3.69,5.54,5.54,0,0,0-4-.78c-1.7.14-2.55.2-4.25.29.3,6.24.45,9.35.76,15.59C142.47,153.51,142.06,153.52,141.24,153.55Z"/><path class="cls-4" d="M161.89,143.37c-.64-3.11-1-4.66-1.61-7.77-1.35.28-2,.41-3.38.65l-.25-1.46c2-.36,3.07-.57,5.1-1,.83,3.68,1.24,5.52,2.06,9.19C163,143.13,162.66,143.22,161.89,143.37Z"/></g></g></svg>