<svg xmlns="http://www.w3.org/2000/svg" xmlns:xlink="http://www.w3.org/1999/xlink" viewBox="0 0 273.38 265.79"><defs><style>.cls-1,.cls-3{stroke:#fff;stroke-linecap:round;stroke-linejoin:round;}.cls-1{fill:url(#radial-gradient);}.cls-2{fill:#1a1a1a;}.cls-3{fill:none;}.cls-4{fill:#fff;}</style><radialGradient id="radial-gradient" cx="109.42" cy="166.66" r="134.31" gradientUnits="userSpaceOnUse"><stop offset="0" stop-color="#db9f63"/><stop offset="0.36" stop-color="#956c44"/><stop offset="0.81" stop-color="#38281a"/></radialGradient></defs><g id="Layer_2" data-name="Layer 2"><g id="Layer_1-2" data-name="Layer 1"><path class="cls-1" d="M31.92,32.47C19.33,37.78,14.86,47.84,18.79,59.62c.87,2.62-47,67.41,8.75,135.41,16.76,20.45,24.81,47.58,40.57,57.5,26.52,16.7,107.4,16.93,125.49,1.17,28.71-25,48.72-39.44,57.5-55.16,45.82-82,5.16-129.26,5-133.38-1.17-24.51-20.69-30-26.27-34.44C149.24-33.49,54.1,23.13,31.92,32.47Z"/><path class="cls-2" d="M29.32,52.9c2.31,22.2,68.42,34.26,116.74,33.86,31.36-.26,91.6-6.08,95.49-27.35,1.73-9.46-8-16.36-16.1-22.89C163.57-13.49,85.59,15.33,50,30.59,39.68,35,28.41,44.13,29.32,52.9Z"/><path class="cls-3" d="M31.92,32.47C19.33,37.78,14.86,47.84,18.79,59.62c.87,2.62-47,67.41,8.75,135.41,16.76,20.45,24.81,47.58,40.57,57.5,26.52,16.7,107.4,16.93,125.49,1.17,28.71-25,48.72-39.44,57.5-55.16,45.82-82,5.16-129.26,5-133.38-1.17-24.51-20.69-30-26.27-34.44C149.24-33.49,54.1,23.13,31.92,32.47Z"/><path class="cls-3" d="M30.17,52.9c2.31,22.2,68.42,34.26,116.74,33.86,31.35-.26,91.6-6.08,95.49-27.35,1.73-9.46-8-16.36-16.1-22.89-61.88-50-139.87-21.19-175.47-5.93C40.53,35,29.25,44.13,30.17,52.9Z"/><path class="cls-3" d="M19.08,59.91C20.83,74.5,75.11,99.6,146.91,99c29.9-.25,97.48-1.76,109.15-33.86"/><path class="cls-3" d="M14.73,67.48c1.75,14.6,57.2,40.86,132.76,40.29,29.91-.23,100.14-3.51,111.81-36.2"/><path class="cls-3" d="M12.4,73.32c1.75,14.59,60.12,43.78,135.68,43.21C178,116.3,250.55,110.68,262.22,78"/><path class="cls-3" d="M5.39,155c5.84,11.67,63,42,138.6,41.45,29.9-.22,102.47-9.35,122.9-35.61"/><path class="cls-3" d="M.72,118.27c8.17,18.09,61.72,45.68,143,50.19,31.52,1.75,88.72-3.5,129-39.1"/><path class="cls-3" d="M1.89,139.28C7.73,151,68.43,190.06,144,189.49c29.9-.23,104.81-10.52,125.24-36.79"/><path class="cls-3" d="M57.34,242c14.59,11.09,20.43,16.34,89.31,16.34,28.6,0,38.52,0,46.69-4.67"/><path class="cls-3" d="M50.92,232.67c14.59,11.09,27.43,19.85,96.31,19.85,28.6,0,45,.58,53.12-4.09"/><path class="cls-4" d="M89.11,138c.65-3.11,1-4.66,1.63-7.77-1.21-.25-1.82-.38-3-.65.12-.58.19-.87.32-1.45,1.84.41,2.76.61,4.6,1-.74,3.69-1.11,5.54-1.86,9.23Z"/><path class="cls-4" d="M95.84,131.18l1.25-6.76,1.56.28-1,5.32c3.59.64,5.39.92,9,1.41l-.2,1.46C102.22,132.31,100.08,132,95.84,131.18Zm11.39,1.43c-3.23,6-4.94,9-8.51,14.91l-1.88-.31c3.91-6.27,5.76-9.45,9.28-15.86l1.26.17Z"/><path class="cls-4" d="M110,149.05c.69-6.2,1-9.31,1.73-15.51l-2-.24.18-1.47c1.46.18,2.19.26,3.65.42-.71,6.79-1.06,10.19-1.77,17Z"/><path class="cls-4" d="M118,149.81c.49-6.22.73-9.34,1.22-15.56l-2.06-.17c.06-.59.08-.88.13-1.47,1.47.13,2.2.18,3.66.29l-1.2,17Z"/><path class="cls-4" d="M132.51,150.5c.08-4.89.12-7.34.21-12.24a3.51,3.51,0,0,0-.8-2.47,2.9,2.9,0,0,0-2.21-1c-2.22-.07-3.33-.12-5.55-.24l.08-1.48c2.19.13,3.29.17,5.48.24a4.62,4.62,0,0,1,3.43,1.41,5.14,5.14,0,0,1,1.23,3.71c0,4.83-.07,7.24-.12,12.06Z"/><path class="cls-4" d="M145.7,150.68a6.49,6.49,0,0,1-3.37-.73,5.68,5.68,0,0,1-2.26-2.27,7.15,7.15,0,0,1-.82-3.45c-.05-4.32-.08-6.48-.12-10.79l1.61,0,.2,10.81a5.3,5.3,0,0,0,1.33,3.66,4.57,4.57,0,0,0,6.63-.25,5.27,5.27,0,0,0,1.06-3.75l-.35-6.14a4.23,4.23,0,0,0-.73-2.41,2,2,0,0,0-1.76-.73,4,4,0,0,0-1.16.22,8.73,8.73,0,0,0-1.16.52l-.37-1.25a6.49,6.49,0,0,1,1.43-.74,4.89,4.89,0,0,1,1.52-.3,3.19,3.19,0,0,1,2.73,1,5.7,5.7,0,0,1,1.14,3.41l.4,6.25a7.35,7.35,0,0,1-.56,3.51A5.57,5.57,0,0,1,149,149.7,6.45,6.45,0,0,1,145.7,150.68Z"/><path class="cls-4" d="M157.65,149.92a9.73,9.73,0,0,1-1.31,0,8.61,8.61,0,0,1-1.18-.11c0-.58,0-.87,0-1.45a9,9,0,0,0,2.11,0,2.34,2.34,0,0,0,1.81-.91,3.52,3.52,0,0,0,.42-2.38l-1.1-11.25-3.44.31c0-.59-.07-.89-.12-1.48,2-.16,3-.25,5-.46l1.35,12.84a4.79,4.79,0,0,1-.68,3.44A3.89,3.89,0,0,1,157.65,149.92Z"/><path class="cls-4" d="M167.39,140.83c-.42-3.15-.62-4.72-1-7.86-1.23.16-1.84.24-3.06.38-.07-.59-.11-.88-.18-1.47,1.87-.22,2.8-.34,4.66-.6.52,3.73.78,5.59,1.31,9.32Z"/><path class="cls-4" d="M187.14,145.18a198.71,198.71,0,0,1-15-14.56l1.81-.3a201,201,0,0,0,15.09,14.44Zm-11.71,2.21c-.41-2.55-.62-3.83-1-6.38a7.51,7.51,0,0,1,.21-3.81,4.88,4.88,0,0,1,2.08-2.5l.91.81c-1.46,1-2,2.53-1.64,4.75.47,2.74.71,4.11,1.17,6.85Zm9.92-19.31c-1.28,4.41-2,6.61-3.45,11L180.51,138c1.29-3.8,1.89-5.71,3-9.52Z"/></g></g></svg>